<?xml version="1.0" encoding="UTF-8"?>
<svg id="Layer_2" data-name="Layer 2" xmlns="http://www.w3.org/2000/svg" viewBox="0 0 633.55 559.54">
  <defs>
    <style>
      .cls-1 {
        fill: #fff;
      }
    </style>
  </defs>
  <g id="Layer_1-2" data-name="Layer 1">
    <g>
      <path class="cls-1" d="M116.59,397.82c0,3,0,5.99,0,8.99,0,15.92,0,31.84,0,47.76,0,3.33-.64,4.01-4.01,4.07-3.57,.06-7.14,.08-10.7,0-2.64-.06-3.39-.86-3.4-3.48-.01-30.26,0-60.51,0-90.77,0-1.51-.15-3.13,1.76-3.72,2.12-.65,4.13-.87,5.89,1.02,4.37,4.7,8.81,9.33,13.21,14,13.9,14.77,27.8,29.54,41.71,44.3,.14,.15,.36,.23,.86,.53,0-.99,0-1.74,0-2.49,.02-17.19,.03-34.38,.08-51.56,.01-4.51,.34-4.81,4.91-4.86,3.41-.03,6.82,.12,10.23,.02,2.18-.06,2.9,.81,2.9,2.94,.02,11.17,.2,22.33,.22,33.5,.03,19.17-.02,38.33-.05,57.5,0,1.63,.37,3.55-1.77,4.17-2.1,.61-4.1,.71-5.85-1.24-6.77-7.55-13.64-15.01-20.47-22.5-11.05-12.12-22.09-24.23-33.14-36.35-.62-.68-1.22-1.37-1.84-2.06-.18,.07-.35,.13-.53,.2Z"/>
      <path class="cls-1" d="M425,420.95c0,2.25,0,3.99,0,5.72,0,9.42,.03,18.85,.01,28.27,0,2.91-.73,3.67-3.64,3.71-3.73,.05-7.45,.07-11.18,0-2.47-.05-3.45-1.04-3.56-3.48-.09-1.9-.02-3.8-.02-5.7,0-27.01,0-54.02,.01-81.02,0-6.74,.05-6.8,6.7-6.81,12.45-.01,24.9-.1,37.34,.14,12.28,.24,23.16,8.96,27.27,20.57,4.29,12.14-1.37,25.86-10.09,31.95-2.71,1.9-5.52,3.66-8.48,5.61,3.18,5.89,6.46,11.99,9.75,18.08,2.55,4.73,5.11,9.47,7.66,14.2,.3,.56,.55,1.14,.78,1.73,1.21,3.15,.17,4.72-3.2,4.76-3.96,.05-7.93-.08-11.89,.07-2.47,.09-3.96-.88-5.04-3.07-4.92-10-9.94-19.96-14.92-29.93-.46-.92-1.01-1.8-1.38-2.76-.64-1.63-1.72-2.13-3.48-2.07-4.1,.14-8.21,.05-12.64,.05Zm.33-15.45c7.72,0,15.23,.13,22.73-.04,7.13-.16,12.95-6.55,12.88-13.81-.07-6.96-6-12.76-13.23-12.83-6.73-.06-13.47-.02-20.2-.02-.69,0-1.38,.09-2.19,.15v26.54Z"/>
      <path class="cls-1" d="M624.5,458.67c-10.49,.07-8.38,.44-12.4-7.9-1.2-2.49-2.3-5.03-3.32-7.6-.6-1.53-1.45-2.17-3.18-2.16-12.29,.07-24.58,.07-36.87,0-1.66,0-2.36,.7-2.97,2.09-1.82,4.2-3.8,8.34-5.65,12.54-.91,2.05-2.41,3.03-4.63,3.02-3.57-.01-7.14,.05-10.7-.02-3.66-.07-4.63-1.52-3.12-4.82,6.7-14.67,13.45-29.31,20.21-43.95,6.92-15,13.88-29.99,20.82-44.98,.33-.72,.73-1.4,1.04-2.13,.78-1.85,2.16-2.52,4.14-2.51,1.9,0,2.61,1.2,3.26,2.61,4.24,9.19,8.48,18.38,12.71,27.58,9.76,21.18,19.51,42.37,29.27,63.55,1.18,2.57-.02,4.56-2.89,4.66-1.9,.06-3.81,.01-5.71,.01Zm-23.83-33.57c-4.58-10.04-8.97-19.66-13.58-29.79-4.53,10.21-8.8,19.84-13.21,29.79h26.8Z"/>
      <path class="cls-1" d="M293.31,441.05c-5.95,0-11.89,.08-17.84-.04-1.86-.04-2.81,.48-3.54,2.27-1.69,4.17-3.7,8.21-5.53,12.32-.94,2.12-2.44,3.16-4.82,3.1-3.57-.09-7.14,.03-10.7-.04-3.45-.07-4.38-1.35-3-4.5,3.27-7.45,6.69-14.84,10.1-22.23,8.6-18.66,17.22-37.31,25.85-55.96,2.09-4.52,4.32-8.97,6.38-13.51,.79-1.74,2.06-2.16,3.8-2.18,1.79-.01,2.69,.87,3.39,2.4,13.49,29.48,27.02,58.94,40.53,88.41,.56,1.22,1.07,2.47,1.49,3.74,.69,2.09-.12,3.67-2.23,3.74-4.35,.16-8.73,.24-13.06-.1-1.22-.1-2.75-1.57-3.39-2.81-2.15-4.13-4.04-8.4-5.86-12.69-.68-1.61-1.64-1.98-3.26-1.96-6.1,.08-12.21,.03-18.32,.04Zm-13.17-16h26.8c-4.55-9.95-8.94-19.55-13.56-29.67-4.53,10.16-8.79,19.71-13.23,29.67Z"/>
      <path class="cls-1" d="M0,409.95c0-14.64-.01-29.28,0-43.92,0-3.93,.4-4.32,4.39-4.36,3.72-.04,7.45,.08,11.17,.02,1.93-.03,2.7,.77,2.71,2.66,.03,4.83,.21,9.65,.21,14.48,.02,24.93,0,49.86-.01,74.79,0,4.66-.36,5.02-4.97,5.05-3.33,.03-6.66,.04-9.98-.03-2.78-.06-3.52-.81-3.52-3.58-.02-15.04,0-30.07,0-45.11Z"/>
      <path class="cls-1" d="M293.19,319.06c4.91,0,9.82,0,14.73,0,2.67,0,3.33,.68,3.34,3.38,0,2.85-.03,5.69-.01,8.54,.01,1.83-.77,2.81-2.68,2.82-10.21,.07-20.43,.15-30.64,.22-2.21,.01-3.11-1.3-3.14-3.32-.04-2.69-.07-5.38,0-8.07,.07-2.6,1.04-3.54,3.69-3.56,4.91-.04,9.82-.01,14.73,0Z"/>
      <path class="cls-1" d="M143.79,528.71c-.8,.64-1.46,1.18-2.46,1.99-3.48-5.33-8.26-8.44-14.77-8.18-3.89,.16-7.45,1.31-10.52,3.81-6.4,5.21-6.82,14.39-4.47,19.96,3.09,7.36,10.38,11,18.95,9.75,6.59-.97,11.34-5.61,12.11-12.08-.65-.09-1.31-.24-1.97-.25-4.12-.08-8.24-.19-12.35-.17-1.16,0-1.81-.18-1.83-1.48-.02-1.3,.64-1.57,1.79-1.57,5.23,.03,10.46,.05,15.69-.04,1.84-.03,2.24,.75,2.24,2.42-.02,7.96-5.87,14.54-14.56,16.25-10.47,2.05-20.33-3.15-23.65-12.88-4.74-13.89,5.26-27.06,18.68-26.85,6.44,.1,11.71,2.29,15.77,7.29,.49,.6,.85,1.29,1.34,2.05Z"/>
      <path class="cls-1" d="M314.92,519.4c11.53,.06,20.19,8.69,20.15,20.08-.04,11.31-8.89,20.01-20.29,19.96-11.18-.05-20.06-9.01-19.95-20.12,.11-11.34,8.82-19.98,20.08-19.92Zm-.29,36.77c9.67,.05,17.01-7.05,17.09-16.55,.08-9.63-7.3-17.15-16.83-17.15-9.26,0-16.47,7.38-16.51,16.92-.04,9.48,6.99,16.74,16.25,16.79Z"/>
      <path class="cls-1" d="M227.02,542.82c3.07,5.32,6,10.42,9.01,15.63-2.09,.91-3.31,.39-4.19-1.09-2.26-3.8-4.59-7.57-6.73-11.45-1.19-2.16-2.53-3.3-5.21-2.96-2.64,.33-5.35,.07-8.35,.07v15.27c-3.23,.96-3.52,.76-3.52-2.11,.02-11.24,.07-22.48,.03-33.72,0-1.81,.47-2.54,2.41-2.5,4.51,.1,9.03-.17,13.54-.01,5.26,.18,9.78,4.05,10.93,8.99,1.13,4.89-1.2,10.01-5.8,12.7-.61,.35-1.23,.68-2.12,1.17Zm-15.34-19.66v16.78c4.07,0,7.87,.08,11.66-.02,4.81-.12,8.2-3.34,8.47-7.87,.28-4.65-2.71-8.42-7.58-8.82-4.14-.34-8.33-.07-12.55-.07Z"/>
      <path class="cls-1" d="M396.56,520.11h2.75c.04,.87,.11,1.71,.12,2.56,.08,7.99,.07,15.99,.26,23.98,.14,5.86,3.97,9.43,9.88,9.53,7.36,.12,11.47-2.87,11.72-9.09,.33-8.22,.34-16.45,.35-24.68,0-2.06,.62-2.78,2.6-2.24,.09,.14,.25,.27,.25,.4,.01,9.41,.22,18.82-.07,28.22-.16,5.31-4.83,9.55-10.98,10.42-6.07,.86-11.73-.11-15.13-5.89-1.26-2.15-2.03-4.88-2.1-7.37-.21-8.14,0-16.29,.06-24.44,0-.38,.15-.77,.28-1.39Z"/>
      <path class="cls-1" d="M491.8,544.21c0,4.3-.02,8.33,.01,12.35,0,1.18,.04,2.19-1.61,2.28-1.79,.1-1.66-1.06-1.66-2.18,.01-11.56,.06-23.12,.04-34.68,0-1.42,.45-2,1.9-1.99,4.12,.02,8.25-.2,12.36-.03,6.38,.27,11.6,5.99,11.45,12.26-.16,6.53-5.26,11.76-11.77,11.96-3.4,.11-6.8,.02-10.71,.02Zm.21-3.36c3.92,0,7.56,.18,11.18-.05,3.6-.23,6.14-2.47,6.97-5.53,1.15-4.29,.07-8.48-2.82-10.59-.75-.55-1.66-1.22-2.51-1.25-4.23-.13-8.46-.06-12.82-.06v17.47Z"/>
    </g>
    <g>
      <path class="cls-1" d="M278.77,207.94c11.45,.14,46.55,.27,54.35,.02,.29,0,1.25-.04,2.54,0,2.27,.06,4.24,.28,5.8,.53,1.19,.2,3.29,.73,3.91,2.27,.46,1.15-.09,2.39-.37,2.91-6.42,12.23-13.13,24.32-22.07,34.93-15.6,18.51-36.1,25.43-59.34,21.47-24.45-4.16-40.67-19.35-48.72-42.86-1.37-4.02-2.19-8.26-2.87-12.46-.69-4.31,1.01-6.36,5.38-6.43,51.14-.85,51.45-.62,52.07-.59,1.89,.07,5.17,.17,9.33,.22Z"/>
      <path class="cls-1" d="M361.55,270.57c-9.6,.43-18.71-1.45-27.3-5.83-5.41-2.75-6.13-4.51-3.11-9.79,4.3-7.52,8.78-14.93,13.2-22.38,5.89-9.93,11.74-19.9,17.73-29.77,2.42-3.98,2.54-7.67,.12-11.72-7.02-11.75-13.93-23.57-20.81-35.4-5.32-9.15-10.68-18.28-15.65-27.61-.86-1.62-.49-4.45,.31-6.29,2.05-4.69,4.48-9.23,7.08-13.64,5.75-9.76,11.59-19.47,17.62-29.06,3.1-4.93,5.34-4.64,8.27,.41,16.01,27.57,32.11,55.09,48.08,82.68,4.33,7.49,8.74,14.97,12.41,22.79,7.39,15.77,6.01,31.89-.72,47.3-8.28,18.94-22.7,31.56-42.88,37.12-2.35,.65-4.83,.96-7.28,1.16-2.34,.19-4.71,.04-7.07,.04Z"/>
      <path class="cls-1" d="M180.3,104.44c4.47-8.5,10.69-15.42,18.8-20.64,5.1-3.28,6.99-3.02,10.03,2.25,4.32,7.5,8.47,15.12,12.67,22.69,5.61,10.1,11.26,20.17,16.76,30.32,2.22,4.1,5.35,6.06,10.06,6.01,13.69-.14,27.38-.14,41.07-.12,10.58,.02,21.17,0,31.74,.41,1.83,.07,4.09,1.82,5.27,3.44,3.01,4.13,5.71,8.53,8.21,13,5.53,9.89,10.97,19.83,16.21,29.87,2.7,5.16,1.31,6.95-4.53,6.94-31.88-.08-63.76-.06-95.64-.18-8.65-.03-17.34,0-25.94-.78-17.34-1.57-30.57-10.89-40.48-24.47-12.18-16.7-15.81-35.52-10.44-55.75,.63-2.36,1.61-4.66,2.67-6.87,1.01-2.12,2.34-4.09,3.53-6.12Z"/>
      <path class="cls-1" d="M392.18,73.78c9.41,.06,19.01-.92,28.05,2.26,22.54,7.93,38.44,22.89,43.5,46.57,4.87,22.8-1.47,43.01-18.9,59.18-1.96,1.82-3.98,3.6-6.11,5.21-3.01,2.28-4.51,2.08-6.51-1.14-7.83-12.63-15.67-25.26-23.3-38.01-11.09-18.53-22.06-37.13-32.94-55.79-2.3-3.94-4.18-8.17-5.93-12.39-1.46-3.52,.2-5.79,4.13-5.86,6-.11,12-.03,18.01-.03Z"/>
      <path class="cls-1" d="M274.58,66.53c-5.93,9.8-23.83,39.98-27.57,46.83-.14,.26-.6,1.1-1.28,2.19-1.2,1.93-2.39,3.51-3.39,4.73-.78,.92-2.3,2.47-3.93,2.22-1.22-.19-2.01-1.29-2.33-1.8-7.29-11.74-14.31-23.65-18.92-36.74-8.04-22.83-3.61-44.01,11.57-62.03C244.71,2.98,266.02-3.3,290.37,1.68c4.16,.85,8.23,2.3,12.2,3.85,4.07,1.59,4.97,4.09,2.82,7.9-25.2,44.51-25.56,44.66-25.89,45.18-1.01,1.59-2.77,4.37-4.92,7.93Z"/>
      <path class="cls-1" d="M413.47,30.94c5.15,8.1,8.07,16.94,8.56,26.57,.31,6.06-.85,7.57-6.94,7.58-8.66,.02-17.32-.17-25.99-.28-11.55-.15-23.1-.25-34.64-.53-4.66-.11-7.92,1.63-10.22,5.74-6.68,11.95-13.48,23.83-20.31,35.69-5.28,9.17-10.52,18.37-16.13,27.34-.97,1.56-3.61,2.65-5.6,2.87-5.08,.56-10.24,.72-15.36,.66-11.33-.12-22.66-.33-33.98-.78-5.82-.23-6.68-2.32-3.77-7.38,15.91-27.63,31.74-55.3,47.69-82.9,4.33-7.49,8.62-15.04,13.57-22.12,9.98-14.27,24.64-21.11,41.36-22.96,20.55-2.27,38.67,3.94,53.56,18.65,1.74,1.72,3.24,3.71,4.63,5.73,1.33,1.93,2.38,4.06,3.56,6.1Z"/>
    </g>
  </g>
</svg>