<?xml version="1.0" encoding="UTF-8" standalone="no"?><!DOCTYPE svg PUBLIC "-//W3C//DTD SVG 1.1//EN" "http://www.w3.org/Graphics/SVG/1.1/DTD/svg11.dtd"><svg width="100%" height="100%" viewBox="0 0 2000 834" version="1.1" xmlns="http://www.w3.org/2000/svg" xmlns:xlink="http://www.w3.org/1999/xlink" xml:space="preserve" xmlns:serif="http://www.serif.com/" style="fill-rule:evenodd;clip-rule:evenodd;stroke-linejoin:round;stroke-miterlimit:2;"><g><path d="M1072.76,627.848c0,-0.923 0.734,-1.751 1.751,-1.751l37.424,-0c1.017,-0 1.751,0.828 1.751,1.751l-0,7.539c-0,0.923 -0.734,1.751 -1.751,1.751l-27.221,0l-0,15.079l22.712,-0c0.923,-0 1.751,0.828 1.751,1.751l-0,7.633c-0,1.007 -0.828,1.741 -1.751,1.741l-22.712,0l-0,16.096l27.221,-0c1.017,-0 1.751,0.828 1.751,1.751l-0,7.539c-0,0.923 -0.734,1.74 -1.751,1.74l-37.424,0c-1.017,0 -1.751,-0.817 -1.751,-1.74l0,-60.88Z" style="fill:#efc059;fill-rule:nonzero;"/><path d="M1123.06,681.462l3.313,-5.704c0.734,-1.29 2.297,-1.29 3.125,-0.64c0.462,0.273 7.906,5.705 13.883,5.705c4.782,-0 8.368,-3.136 8.368,-7.089c-0,-4.687 -3.953,-7.906 -11.681,-11.031c-8.64,-3.491 -17.281,-9.017 -17.281,-19.87c0,-8.179 6.061,-17.647 20.689,-17.647c9.384,-0 16.556,4.781 18.391,6.155c0.923,0.556 1.196,2.118 0.556,3.041l-3.502,5.243c-0.734,1.101 -2.108,1.835 -3.219,1.101c-0.734,-0.462 -7.718,-5.065 -12.782,-5.065c-5.243,-0 -8.085,3.502 -8.085,6.438c0,4.32 3.398,7.267 10.843,10.308c8.923,3.586 19.22,8.912 19.22,20.782c-0,9.469 -8.179,18.203 -21.15,18.203c-11.586,0 -18.392,-5.421 -20.227,-7.172c-0.828,-0.828 -1.289,-1.29 -0.461,-2.758" style="fill:#efc059;fill-rule:nonzero;"/><path d="M1185.32,637.137l-14.071,0c-1.007,0 -1.741,-0.828 -1.741,-1.751l0,-7.539c0,-0.923 0.734,-1.741 1.741,-1.741l40.191,0c1.007,0 1.741,0.818 1.741,1.741l-0,7.539c-0,0.923 -0.734,1.751 -1.741,1.751l-14.072,0l0,51.59c0,0.923 -0.828,1.751 -1.751,1.751l-8.545,-0c-0.923,-0 -1.752,-0.828 -1.752,-1.751l0,-51.59Z" style="fill:#efc059;fill-rule:nonzero;"/><path d="M1222.65,676.221c4.141,-0 7.633,3.491 7.633,7.633c0,4.142 -3.492,7.539 -7.633,7.539c-4.142,0 -7.54,-3.397 -7.54,-7.539c0,-4.142 3.398,-7.633 7.54,-7.633" style="fill:#efc059;fill-rule:nonzero;"/><path d="M1256.67,686.612c6.072,-7.361 17.658,-22.44 23.813,-30.618c2.852,-3.503 4.698,-7.089 4.698,-10.213c-0,-4.142 -3.125,-8.368 -9.752,-8.368c-4.414,0 -8.179,3.125 -10.297,5.421c-0.734,0.745 -1.751,0.745 -2.485,0l-4.414,-4.414c-0.556,-0.546 -0.734,-1.647 -0.095,-2.391c0,-0 7.173,-9.007 18.12,-9.007c13.149,-0 20.51,8.367 20.51,18.297c-0,5.977 -2.58,9.752 -6.166,14.9c-3.953,5.61 -10.947,14.25 -15.812,20.416l19.859,-0c0.923,-0 1.752,0.828 1.752,1.741l-0,6.354c-0,0.912 -0.829,1.741 -1.752,1.741l-36.227,-0c-1.018,-0 -1.752,-0.829 -1.752,-1.741l0,-2.118Z" style="fill:#efc059;fill-rule:nonzero;"/><path d="M1341.37,659.208c0,-13.611 -4.047,-21.339 -11.125,-21.339c-7.088,0 -11.125,7.728 -11.125,21.339c-0,13.704 4.037,21.338 11.125,21.338c7.078,-0 11.125,-7.634 11.125,-21.338m-34.298,-0c-0,-20.143 8.461,-32.191 23.173,-32.191c14.711,-0 23.173,12.048 23.173,32.191c0,20.142 -8.462,32.191 -23.173,32.191c-14.712,-0 -23.173,-12.049 -23.173,-32.191" style="fill:#efc059;fill-rule:nonzero;"/><path d="M1371.99,644.677l-8.095,1.751c-0.828,0.178 -1.74,-0.367 -1.835,-1.196l-0.555,-4.509c-0.095,-0.734 0.094,-1.289 0.461,-1.656l13.243,-11.126l6.439,0c0.922,0 1.656,0.829 1.656,1.741l0,59.045c0,0.923 -0.734,1.751 -1.656,1.751l-7.907,-0c-1.017,-0 -1.751,-0.828 -1.751,-1.751l0,-44.05Z" style="fill:#efc059;fill-rule:nonzero;"/><path d="M1404.81,644.677l-8.095,1.751c-0.829,0.178 -1.741,-0.367 -1.835,-1.196l-0.556,-4.509c-0.094,-0.734 0.094,-1.289 0.461,-1.656l13.244,-11.126l6.438,0c0.923,0 1.657,0.829 1.657,1.741l-0,59.045c-0,0.923 -0.734,1.751 -1.657,1.751l-7.906,-0c-1.017,-0 -1.751,-0.828 -1.751,-1.751l-0,-44.05Z" style="fill:#efc059;fill-rule:nonzero;"/></g><g><path d="M224.635,440.88c28.802,-14.288 38.455,-47.344 24.045,-76.389c-14.288,-28.802 -46.44,-41.128 -75.243,-26.84l-24.479,12.135l51.216,103.23l24.461,-12.136Zm-131.614,-103.993c-1.268,-2.552 -0.365,-5.851 2.187,-7.118l62.188,-30.851c49.184,-24.392 109.305,-4.357 133.594,44.584c24.513,49.444 4.097,109.444 -45.087,133.837l-62.205,30.85c-2.535,1.268 -5.729,-0.017 -6.979,-2.569l-83.698,-168.733Z" style="fill:#efc059;fill-rule:nonzero;"/><path d="M293.894,243.205c-1.042,-2.656 0.417,-5.972 3.056,-7.014l31.788,-12.465c2.639,-1.042 5.972,0.416 6.996,3.055l68.802,175.347c1.042,2.639 -0.399,5.955 -3.055,6.997l-31.788,12.483c-2.639,1.024 -5.955,-0.417 -6.997,-3.073l-68.802,-175.33Z" style="fill:#efc059;fill-rule:nonzero;"/><path d="M411.139,194.413c-0.452,-2.535 1.458,-5.173 3.646,-5.798l4.357,-1.285c1.372,-0.399 4.15,-0.018 5.452,1.371l97.812,99.497l0.538,-0.156l28.924,-136.493c0.33,-1.875 2.483,-3.681 3.837,-4.08l4.375,-1.285c2.187,-0.642 5.208,0.556 6.198,2.934l84.444,174.531c1.58,3.386 -0.156,6.563 -3.437,7.518l-32.223,9.409c-2.465,0.712 -5.555,-0.746 -6.475,-2.847l-36.927,-80.816l-0.539,0.174l-20.052,101.875c-0.347,1.875 -2.413,3.958 -3.767,4.357l-4.913,1.441c-1.649,0.487 -4.236,-0.243 -5.521,-1.649l-71.997,-75.017l-0.555,0.156l12.621,87.917c0.365,2.257 -1.18,5.086 -3.906,5.885l-32.222,9.392c-3.281,0.973 -6.458,-0.781 -6.944,-4.479l-22.726,-192.552Z" style="fill:#efc059;fill-rule:nonzero;"/><path d="M728.792,288.769l9.826,-25.295c1.719,-3.993 7.153,-4.201 9.323,-3.09c1.215,0.399 23.663,12.361 42.239,9.652c11.268,-1.631 18.403,-9.861 16.962,-19.722c-1.718,-11.823 -12.899,-19.392 -33.142,-24.201c-25.608,-6.042 -58.767,-20.469 -63.698,-54.254c-4.062,-27.882 13.507,-59.201 56.875,-65.52c29.271,-4.271 53.976,7.378 63.316,12.326c3.663,1.493 3.854,6.632 3.003,8.767l-11.197,23.785c-1.511,3.368 -6.216,6.649 -9.028,5.052c-2.743,-1.042 -25.556,-13.524 -42.726,-11.024c-10.139,1.475 -16.753,9.34 -15.642,16.944c1.51,10.417 11.111,17.066 34.67,22.83c23.229,5.521 60.642,17.604 66.232,55.903c4.219,28.993 -16.562,61.927 -57.951,67.969c-36.597,5.329 -59.08,-6.91 -66.51,-12.448c-3.229,-2.396 -4.236,-3.403 -2.552,-7.674" style="fill:#efc059;fill-rule:nonzero;"/><path d="M881.797,99.543c-0.139,-2.847 2.309,-5.52 5.139,-5.659l34.965,-1.65c3.125,-0.139 5.521,2.309 5.66,5.139l5.434,115.104c0.937,19.896 16.458,35.122 36.649,34.167c20.451,-0.972 34.757,-17.604 33.819,-37.483l-5.434,-115.104c-0.121,-2.847 2.032,-5.503 5.157,-5.659l34.948,-1.65c2.847,-0.139 5.52,2.309 5.659,5.139l5.539,117.379c2.048,43.194 -32.639,80.729 -77.553,82.847c-44.618,2.101 -82.395,-31.997 -84.444,-75.191l-5.538,-117.379Z" style="fill:#efc059;fill-rule:nonzero;"/><path d="M1128,89.509c0.486,-2.535 3.195,-4.306 5.469,-4.132l4.531,0.364c1.424,0.104 3.889,1.441 4.601,3.212l56.094,127.743l0.573,0.052l75.503,-117.326c0.99,-1.632 3.629,-2.57 5.052,-2.448l4.531,0.365c2.275,0.173 4.671,2.361 4.74,4.93l16.962,193.142c0.26,3.733 -2.483,6.077 -5.886,5.816l-33.472,-2.656c-2.552,-0.208 -4.93,-2.673 -5.035,-4.965l-5.816,-88.646l-0.572,-0.052l-54.931,88.125c-0.972,1.632 -3.646,2.847 -5.069,2.743l-5.105,-0.417c-1.701,-0.121 -3.854,-1.718 -4.566,-3.489l-40.659,-95.695l-0.556,-0.052l-19.427,86.65c-0.469,2.257 -2.917,4.34 -5.747,4.114l-33.472,-2.656c-3.403,-0.261 -5.764,-3.021 -4.896,-6.667l47.153,-188.055Z" style="fill:#efc059;fill-rule:nonzero;"/><path d="M1437.28,131.483c0.59,-2.778 3.628,-4.757 6.423,-4.15l33.386,7.118c2.778,0.608 4.739,3.646 4.149,6.424l-39.358,184.201c-0.59,2.778 -3.628,4.757 -6.406,4.15l-33.385,-7.118c-2.795,-0.608 -4.757,-3.646 -4.167,-6.424l39.358,-184.201Z" style="fill:#efc059;fill-rule:nonzero;"/><path d="M1542.1,150.63c0.833,-2.725 3.941,-4.149 6.666,-3.316l6.806,2.084l76.58,137.691l0.277,0.086l29.549,-96.58c0.833,-2.725 3.767,-4.513 6.754,-3.593l32.656,9.982c2.726,0.834 4.427,4.046 3.594,6.754l-56.042,183.107c-0.833,2.726 -3.941,4.15 -6.667,3.316l-4.357,-1.336c-0.816,-0.243 -2.743,-1.719 -3.108,-2.431l-74.427,-140.903l-0.261,-0.086l-31.059,101.493c-0.833,2.708 -3.767,4.496 -6.753,3.576l-32.379,-9.896c-2.725,-0.833 -4.427,-4.045 -3.593,-6.753l55.764,-183.195Z" style="fill:#efc059;fill-rule:nonzero;"/><path d="M1849.87,254.13c26.146,11.233 41.996,27.656 52.812,51.493c1.459,3.108 0.104,6.25 -2.882,7.431l-29.496,12.413c-2.604,1.042 -5.486,-0.191 -6.528,-2.795c-5.972,-12.795 -16.753,-23.004 -29.566,-28.507c-29.531,-12.691 -61.788,2.552 -74.375,31.823c-12.465,29.028 -0.851,62.517 28.698,75.208c12.274,5.278 27.517,6.563 40.417,2.5c2.5,-0.781 5.902,0.677 6.684,3.195l11.059,30.451c1.041,2.622 -0.677,5.903 -3.299,6.944c-25.191,9.619 -51.146,8.056 -74.41,-1.944c-52.274,-22.465 -76.51,-82.118 -54.045,-134.392c22.483,-52.292 82.656,-76.285 134.931,-53.82" style="fill:#efc059;fill-rule:nonzero;"/><path d="M1892.74,441.387c13.177,6.719 18.646,23.559 11.927,36.736c-6.597,12.934 -23.316,18.143 -36.493,11.424c-12.916,-6.597 -18.264,-23.056 -11.666,-35.972c6.718,-13.195 23.316,-18.785 36.232,-12.188" style="fill:#efc059;fill-rule:nonzero;"/></g><g><path d="M618.391,611.29c-4.098,-9.705 5.59,-26.111 28.35,-48.49c1.493,-1.493 3.733,-1.111 5.226,0c1.493,1.493 1.493,4.098 -0,5.591c-29.097,28.732 -27.24,38.42 -26.858,39.913c1.111,2.239 4.479,2.604 6.702,2.604c8.212,-0 20.902,-5.208 31.718,-12.674c13.421,-9.323 23.49,-21.267 28.716,-33.941c4.843,-11.944 2.239,-22.378 -7.83,-32.448c-9.323,-9.704 -24.254,-17.534 -38.056,-25.364c-12.673,-7.083 -24.618,-13.438 -32.812,-20.886c-10.07,-8.958 -13.056,-18.281 -9.323,-27.986c12.309,-33.194 44.757,-53.698 69.739,-65.26c32.448,-14.931 64.532,-20.521 81.685,-20.521c12.309,-0.382 19.027,1.858 20.885,6.719c0.746,2.239 0.746,5.59 -3.715,10.069c-1.493,1.493 -3.733,1.493 -5.226,-0.382c-1.493,-1.493 -1.493,-3.732 -0,-5.208c1.111,-0.746 1.493,-1.493 1.858,-1.875c-0.747,-0.365 -2.987,-1.493 -9.688,-1.858c-6.354,-0.382 -14.549,0.365 -23.507,1.858c-24.618,3.733 -50.729,13.056 -71.979,24.618c-12.691,7.083 -23.507,14.913 -32.465,23.507c-9.323,9.323 -16.407,19.757 -20.504,30.573c-2.621,7.083 -0.382,13.437 7.466,20.139c7.447,6.719 18.645,13.055 30.954,19.774c14.549,8.212 29.827,16.406 39.914,26.493c5.954,5.955 9.687,11.927 11.18,18.264c1.858,7.083 1.493,14.549 -1.858,22.379c-5.607,14.184 -16.788,27.239 -30.972,37.309c-12.673,8.576 -26.475,14.166 -36.18,14.166c-8.941,0 -12.309,-4.479 -13.42,-7.083" style="fill:#efc059;fill-rule:nonzero;"/><path d="M779.526,464.328c-0,1.858 1.493,3.351 2.986,3.351c1.858,-0 3.351,-1.493 3.351,-3.351c-0,-1.858 -1.493,-3.351 -3.351,-3.351c-1.493,0 -2.986,1.493 -2.986,3.351m-7.465,0c-0,-5.972 4.861,-10.816 10.451,-10.816c5.972,0 10.816,4.844 10.816,10.816c0,5.972 -4.844,10.816 -10.816,10.816c-5.59,0 -10.451,-4.844 -10.451,-10.816m0.382,98.837l-3.368,-0c-7.084,-0 -11.927,-2.222 -14.914,-6.337c-8.211,-11.927 2.987,-35.798 10.07,-51.476l4.479,-9.687c0.365,-1.875 2.604,-2.986 4.479,-2.622c1.858,0.747 2.986,2.622 2.604,4.862c-0.746,2.239 -2.604,5.954 -4.479,10.434c-3.351,7.083 -7.83,16.406 -10.434,25c-3.368,11.562 -2.239,16.77 -0.746,19.01c1.857,2.621 5.972,3.733 11.562,3.368c18.281,-2.24 33.195,-11.944 46.615,-25.365c10.451,-10.069 18.281,-19.774 18.281,-20.138c1.128,-1.494 3.733,-1.875 5.226,-0.382c1.493,1.128 1.857,3.368 0.364,5.225c0,0.365 -7.83,10.07 -18.646,20.521c-14.166,14.913 -29.461,26.094 -51.093,27.587" style="fill:#efc059;fill-rule:nonzero;"/><path d="M863.448,520.278c-0.365,-0 -0.747,-0 -1.493,-0.365c-1.858,-0.746 -2.604,-2.986 -1.858,-4.861c1.858,-4.479 2.24,-8.576 0.365,-10.434c-1.111,-1.493 -2.986,-1.875 -4.844,-1.493c-2.24,0.747 -10.816,8.941 -20.521,21.632c-11.562,14.913 -14.913,24.236 -14.167,27.604c0,0.747 0.365,1.493 3.733,1.493c14.913,-0.382 28.333,-19.028 37.292,-30.972c0.382,-1.111 1.128,-1.858 1.493,-2.604m1.111,71.979c-2.969,0.746 -5.955,1.493 -8.941,2.621c-24.253,7.466 -46.632,23.49 -62.674,45.122c-13.038,16.788 -21.25,36.181 -23.489,54.097c-2.24,18.646 1.857,34.688 11.927,45.868c10.087,10.816 19.028,13.802 27.604,9.323c18.281,-9.687 35.816,-52.951 49.618,-121.215c2.24,-12.674 4.479,-24.983 5.955,-35.816m82.812,9.34c-0.746,1.858 -2.986,2.604 -4.843,1.858c-15.295,-7.465 -30.591,-11.927 -45.886,-13.056c-8.212,-0.746 -16.041,-0.364 -24.236,0.747c-2.239,16.041 -5.607,33.941 -9.323,51.476c-6.718,29.843 -13.802,54.461 -21.649,73.107c-10.069,23.49 -20.504,36.927 -32.066,41.389c-2.986,1.129 -5.59,1.875 -8.576,1.875c-8.212,0 -16.424,-4.844 -24.618,-13.802c-11.945,-13.056 -16.789,-30.955 -14.184,-51.84c2.621,-19.393 11.197,-39.914 25,-57.813c17.152,-23.125 40.659,-39.913 66.388,-47.743c4.098,-1.493 8.212,-2.621 12.674,-3.368c1.875,-13.42 3.368,-24.236 4.115,-31.701c1.857,-15.66 2.239,-26.111 2.604,-32.084l-4.844,6.355c-9.705,13.42 -24.253,33.94 -42.899,34.305c-9.688,0.382 -11.181,-5.955 -11.563,-8.576c-0.746,-4.844 1.875,-14.914 16.406,-33.941c4.48,-5.591 9.341,-10.816 13.438,-15.295c7.083,-7.084 9.323,-7.448 10.434,-7.83c4.861,-0.747 9.705,0.746 12.691,4.097c1.493,2.24 4.097,6.719 1.858,14.184l0.382,-0c1.493,-1.875 4.479,-5.226 8.194,-4.115c3.368,1.129 3.368,4.861 3.368,8.594c0,9.688 -1.875,33.941 -6.337,64.896c7.448,-1.129 15.66,-1.129 23.49,-0.382c16.041,1.128 32.448,5.972 48.489,13.802c1.858,1.129 2.605,2.986 1.493,4.861" style="fill:#efc059;fill-rule:nonzero;"/><path d="M1005.56,530.349c10.452,-10.069 18.281,-19.774 18.281,-20.139c1.112,-1.493 3.733,-1.875 5.226,-0.382c1.476,1.129 1.858,3.368 0.365,5.226c-0,0.382 -7.83,10.069 -18.646,20.521c-7.083,7.448 -27.24,26.475 -38.056,26.475l-2.604,0c-17.535,0 -10.069,-38.42 -7.83,-48.489c1.493,-5.591 2.986,-11.563 3.733,-16.042c0.747,-5.955 -0.382,-7.83 -0.382,-7.83c-0.746,-0.746 -1.858,-0.746 -2.604,-0.364c-17.899,2.239 -38.056,41.389 -44.392,56.319c-0.747,1.858 -2.605,2.604 -4.48,1.858c-1.857,-0.365 -2.986,-2.604 -2.239,-4.479l12.309,-46.25c0.382,-1.858 2.239,-2.969 4.479,-2.605c1.875,0.365 2.986,2.605 2.621,4.48l-4.114,14.548c12.309,-19.392 23.871,-29.844 34.687,-31.337c4.862,-0.746 7.466,1.111 8.959,2.605c5.225,5.607 2.239,17.534 -1.493,30.972c-1.111,5.59 -2.986,11.562 -3.351,16.406c-4.479,40.66 21.632,16.042 39.531,-1.493" style="fill:#efc059;fill-rule:nonzero;"/><path d="M1126.4,515.056c-1.111,1.857 -32.083,40.659 -54.826,46.25c-1.493,0.381 -3.368,0.381 -4.479,0.381c-2.986,0 -5.59,-0.746 -7.465,-2.621c-4.844,-4.844 -2.605,-15.295 -0.747,-24.236l1.493,-5.972l-5.59,5.972c-9.323,10.434 -23.872,26.111 -42.153,26.476c-9.323,0.381 -11.18,-5.973 -11.562,-8.577c-0.365,-4.844 1.875,-14.913 16.788,-33.941c4.097,-5.59 8.958,-10.816 13.055,-15.295c7.466,-7.083 9.705,-7.465 10.816,-7.83c4.844,-0.746 9.323,0.747 12.309,4.097c1.858,2.24 4.844,8.212 0.747,18.282c-0.747,1.857 -2.986,2.604 -4.844,1.857c-1.875,-0.746 -2.986,-2.986 -2.239,-4.843c2.239,-4.48 2.239,-8.577 0.746,-10.452c-1.128,-1.476 -2.986,-1.857 -5.226,-1.476c-2.239,0.73 -10.816,8.941 -20.52,21.632c-11.563,14.914 -14.549,24.237 -14.167,27.587c0.364,0.747 0.364,1.493 3.733,1.493c15.295,-0.364 28.35,-14.548 36.927,-24.236c6.701,-7.083 10.816,-11.562 15.295,-9.705c2.604,0.747 4.097,3.733 3.715,7.83l-1.858,8.958c-0.746,3.733 -1.857,7.83 -2.239,11.198c-0.365,4.462 0.382,5.591 1.128,5.955c0.365,0.747 2.222,0.747 4.462,0c8.212,-1.857 19.774,-10.069 32.83,-23.125c10.451,-10.434 18.281,-20.139 18.281,-20.139c1.111,-1.857 3.733,-1.857 5.226,-0.746c1.493,1.493 1.858,3.732 0.364,5.226" style="fill:#efc059;fill-rule:nonzero;"/><path d="M1181.23,387.12c42.153,-5.972 83.177,-10.452 101.823,4.097c1.493,1.493 1.875,3.733 0.747,5.226c-1.493,1.493 -3.733,1.875 -5.226,0.746c-17.899,-13.802 -65.642,-7.083 -107.795,-1.111c-1.858,0.365 -3.715,0.747 -5.59,0.747c-9.323,20.885 -17.9,43.264 -24.983,64.514c-25.365,73.854 -10.816,120.85 46.615,69.01c10.451,-10.069 18.281,-19.774 18.281,-20.139c1.128,-1.493 3.732,-1.875 5.226,-0.382c1.493,1.129 1.857,3.368 0.364,5.226c0,0.382 -7.83,10.069 -18.646,20.521c-74.965,66.389 -84.288,-9.705 -58.923,-76.476c7.448,-19.757 14.548,-41.024 23.489,-60.781c-13.802,1.475 -33.194,6.337 -46.25,-2.986c-1.857,-1.129 -2.239,-3.368 -0.746,-5.226c1.128,-1.493 3.35,-1.875 4.843,-0.747c9.341,6.337 15.678,4.844 45.504,0.747c7.847,-16.406 15.677,-31.701 23.871,-45.139c5.226,-7.83 11.58,-4.844 5.608,5.226c-6.719,11.562 -15.295,26.111 -21.267,38.784l13.055,-1.857Z" style="fill:#efc059;fill-rule:nonzero;"/><path d="M1257.7,553.847c8.212,-2.239 19.775,-10.069 32.83,-23.507c10.434,-10.069 18.264,-19.757 18.264,-20.139c1.129,-1.493 3.733,-1.857 5.226,-0.364c1.493,1.111 1.875,3.35 0.382,5.225c-0,0.365 -7.83,10.07 -18.663,20.504c-14.167,14.549 -26.094,22.76 -35.799,25.365c-4.479,0.746 -6.719,0.381 -8.958,-1.858c-5.591,-6.354 -1.858,-20.139 5.225,-40.66l2.986,-9.705c-3.35,4.479 -7.465,10.452 -10.816,15.677c-15.659,23.125 -25.364,36.927 -33.576,36.927c-5.59,0 -14.913,-2.239 -16.406,-17.534c-1.111,-11.198 2.604,-24.254 4.479,-29.462l5.226,-11.944c2.604,-4.098 4.843,-5.973 7.083,-6.719c2.24,-0.365 4.097,1.128 4.479,2.986c0.365,1.875 -0.746,3.733 -2.621,4.479c-1.493,0.747 -5.226,7.083 -8.195,17.535c-3.368,10.434 -4.114,20.521 -2.621,26.475c1.493,4.862 4.114,6.719 8.576,6.719c0.382,0 2.986,-0.364 10.816,-10.069c5.226,-6.719 10.816,-15.295 16.424,-23.507l11.927,-16.771c3.732,-4.861 7.083,-8.958 11.198,-7.465c4.479,1.493 2.986,7.83 2.239,10.816c-0.746,3.732 -2.621,8.576 -4.114,13.802c-2.605,7.083 -5.209,14.913 -6.702,21.632c-0.382,2.239 -2.986,12.309 1.111,11.562" style="fill:#efc059;fill-rule:nonzero;"/><path d="M1297.24,558.323c-0.365,1.493 -1.858,2.604 -3.351,2.604c-0.382,0 -0.747,0 -1.129,-0.365c-1.857,-0.381 -2.986,-2.604 -2.604,-4.479l22.743,-85.781c0.382,-1.875 2.622,-3.368 4.479,-2.621c1.875,0.381 3.368,2.621 2.622,4.479l-12.309,46.996c2.604,-4.844 5.59,-9.323 8.576,-14.166c9.688,-14.184 19.393,-24.618 29.462,-31.337c13.056,-8.577 26.111,-10.452 39.167,-5.972c1.857,0.746 2.986,2.986 2.239,4.861c-0.746,1.857 -2.986,2.986 -4.861,2.239c-47.361,-17.17 -84.67,82.431 -85.034,83.542" style="fill:#efc059;fill-rule:nonzero;"/><path d="M1377.81,528.111c3.733,-0.746 8.577,-2.604 13.802,-5.972c7.084,-4.097 14.549,-10.434 20.139,-16.406c5.972,-6.719 7.084,-10.452 7.084,-11.198c-0.365,-0 -0.747,-0.365 -2.24,-0.365c-15.278,2.604 -32.813,19.028 -38.785,33.941m38.785,-41.024c19.41,-0 10.816,10.816 4.861,18.646c-9.323,12.309 -30.972,29.097 -45.503,29.843l-0.382,0c-1.493,10.07 4.479,17.9 22.76,17.9c12.309,-0 26.476,-10.452 38.785,-23.125c10.451,-10.07 18.281,-19.775 18.281,-20.139c1.111,-1.493 3.733,-1.875 5.208,-0.382c1.493,1.128 1.875,3.368 0.382,5.226c0,0.381 -7.83,10.069 -18.646,20.52c-14.184,14.549 -31.336,25.365 -43.645,25.365c-60.052,-0 -24.618,-67.899 17.899,-73.854" style="fill:#efc059;fill-rule:nonzero;"/></g></svg>