<svg width="110" height="70" viewBox="0 0 110 70" fill="none" xmlns="http://www.w3.org/2000/svg">
<path d="M5.78943 23.1951V46.6672L54.8557 56.2314L103.911 46.6672V23.1951L54.8557 13.6309L5.78943 23.1951Z" fill="#231F20"/>
<path d="M52.0189 16.184C52.0189 16.184 52.0631 16.814 52.9399 18.0888C52.9399 18.0888 52.6194 19.3672 52.5494 19.8719L54.8484 17.223C54.8484 17.223 54.2221 17.4477 52.0189 16.184Z" fill="white"/>
<path d="M55.67 17.1456L55.2057 17.1825L52.5605 20.2588C52.5605 20.2588 53.4484 20.6677 54.4984 20.6898L55.4673 21.924L55.9721 21.3788L55.67 17.1493V17.1456Z" fill="white"/>
<path d="M55.95 17.1161L56.4252 17.0572L59.4352 19.8425C59.4352 19.8425 59.4905 19.9382 59.4352 20.023C59.4352 20.023 58.4736 20.6898 57.5526 20.7635L56.7236 21.8061L56.23 21.3604L55.9463 17.1161H55.95Z" fill="white"/>
<path d="M56.8121 17.0314C56.8121 17.0314 58.8089 15.974 59.0152 15.9629L58.9194 16.5745L58.7978 17.8493L59.2621 19.2898L56.8121 17.0277V17.0314Z" fill="white"/>
<path d="M56.0494 22.6535L55.6479 22.1303L56.1121 21.6072L56.5579 22.0161L56.0494 22.6535Z" fill="white"/>
<path d="M57.9799 20.9661C57.9799 20.9661 57.7957 21.0103 57.7036 21.0177L56.1747 22.9151L56.112 25.2067L57.9799 20.9661Z" fill="white"/>
<path d="M54.3694 20.944L55.9094 22.9224L55.8394 25.2066L54.2368 20.944H54.3694Z" fill="white"/>
<path d="M55.0105 23.7809L54.3436 24.5177L54.7821 24.8088L55.5447 25.2067L55.0105 23.7809Z" fill="white"/>
<path d="M53.8573 26.9714L55.0768 27.2624L56.7752 26.5514L56.0973 25.7814L54.8115 25.1256C54.8115 25.1256 54.5426 26.2345 53.861 26.9714H53.8573Z" fill="white"/>
<path d="M50.7184 21.9498L53.1536 20.7451C53.1536 20.7451 53.3821 20.8335 53.9384 20.9109L54.9036 23.5046L54.1079 24.3777C54.1079 24.3777 50.9247 22.2961 50.7184 21.9535V21.9498Z" fill="white"/>
<path d="M50.5673 22.3919L50.2579 24.1714L52.1663 26.5477L53.4447 26.8682C53.4447 26.8682 51.5031 24.5509 50.571 22.3919H50.5673Z" fill="white"/>
<path d="M50.9026 22.473C50.9026 22.473 52.6858 23.814 54.561 24.9893C54.561 24.9893 54.2847 26.1388 53.6952 26.7356C53.6952 26.7356 51.9747 24.6872 50.9026 22.473Z" fill="white"/>
<path d="M63.5357 24.8419H64.21V24.8308C64.21 24.7645 64.2284 24.7166 64.2615 24.6835C64.2984 24.6503 64.35 24.6356 64.42 24.6356C64.4752 24.6356 64.5194 24.6503 64.5526 24.6835C64.5821 24.7166 64.6005 24.7608 64.6005 24.8161V24.8419L64.5857 25.1403C64.5857 25.1993 64.5747 25.2361 64.5563 25.2508C64.5415 25.2656 64.5121 25.273 64.4715 25.273H63.0826C63.0089 25.273 62.95 25.2582 62.9094 25.2251C62.8689 25.1919 62.8468 25.1477 62.8468 25.0887C62.8468 25.0408 62.8578 24.993 62.8836 24.9451C62.9094 24.8972 62.95 24.8493 63.0052 24.794L63.79 24.0351C63.8747 23.954 63.9373 23.8693 63.9815 23.7882C64.0221 23.7072 64.0442 23.6224 64.0442 23.5414C64.0442 23.4272 64.0147 23.3387 63.9594 23.2835C63.9042 23.2282 63.8194 23.1987 63.7052 23.1987C63.6389 23.1987 63.58 23.2098 63.5284 23.2282C63.4768 23.2466 63.4363 23.2761 63.4068 23.313C63.3921 23.3314 63.3736 23.3572 63.3515 23.3977C63.2889 23.4972 63.2226 23.5487 63.1489 23.5487C63.0863 23.5487 63.0347 23.5266 63.0015 23.4861C62.9684 23.4419 62.9536 23.3793 62.9536 23.2982C62.9536 23.2172 62.9647 23.1472 62.9831 23.1066C63.0015 23.0661 63.0457 23.0219 63.1047 22.9777C63.2042 22.9114 63.311 22.8598 63.4215 22.8303C63.5321 22.7972 63.6536 22.7824 63.7826 22.7824C64.0257 22.7824 64.2173 22.8487 64.361 22.9777C64.5047 23.1066 64.5747 23.2835 64.5747 23.5082C64.5747 23.6556 64.5378 23.7993 64.4642 23.9319C64.3905 24.0682 64.2763 24.2045 64.1215 24.3372L63.5357 24.8419Z" fill="white"/>
<path fill-rule="evenodd" clip-rule="evenodd" d="M66.1551 22.7788C66.4497 22.7788 66.6857 22.8929 66.8588 23.1249C67.032 23.3533 67.1204 23.6666 67.1204 24.0607C67.1204 24.4549 67.032 24.7681 66.8588 24.9965C66.6857 25.2249 66.4498 25.3394 66.1551 25.3394C65.8604 25.3393 65.6283 25.2249 65.4589 24.9965C65.2858 24.7681 65.2009 24.4549 65.2009 24.0607C65.2009 23.6666 65.2858 23.3533 65.4589 23.1249C65.632 22.8966 65.8641 22.7824 66.1551 22.7824V22.7788ZM66.1626 23.2134C66.0263 23.2134 65.9195 23.2872 65.8385 23.4383C65.7611 23.5893 65.7205 23.7919 65.7205 24.0571C65.7205 24.3224 65.7611 24.5325 65.8385 24.6799C65.9158 24.8272 66.0263 24.9044 66.1626 24.9044C66.2989 24.9044 66.4094 24.8309 66.4868 24.6799C66.5642 24.5288 66.6048 24.3224 66.6048 24.0571C66.6048 23.7919 66.5641 23.5893 66.4868 23.4383C66.4094 23.2909 66.2989 23.2134 66.1626 23.2134Z" fill="white"/>
<path d="M68.8263 24.864H69.1394C69.2242 24.864 69.2868 24.8787 69.3273 24.9119C69.3642 24.9451 69.3863 24.9966 69.3863 25.0703C69.3863 25.144 69.3679 25.1956 69.331 25.225C69.2942 25.2545 69.2315 25.2729 69.1431 25.2729H68.0047C67.9163 25.2729 67.8536 25.2582 67.8168 25.225C67.78 25.1919 67.7615 25.1403 67.7615 25.0703C67.7615 25.0003 67.78 24.9451 67.8168 24.9119C67.8536 24.8787 67.9163 24.864 68.0047 24.864H68.3621V23.2356L68.1447 23.2908C68.1115 23.2982 68.0821 23.3056 68.06 23.3093C68.0379 23.3129 68.0231 23.3166 68.0121 23.3166C67.9605 23.3166 67.92 23.2982 67.8905 23.265C67.861 23.2319 67.8463 23.184 67.8463 23.1214C67.8463 23.0772 67.861 23.0366 67.8942 23.0072C67.9273 22.9777 67.9752 22.9519 68.0415 22.9372L68.5205 22.8045C68.561 22.7935 68.5942 22.7861 68.62 22.7824C68.6457 22.7787 68.6679 22.7751 68.6826 22.7751C68.7342 22.7751 68.771 22.7898 68.7931 22.8193C68.8152 22.8487 68.8263 22.8966 68.8263 22.9629V24.8677V24.864Z" fill="white"/>
<path fill-rule="evenodd" clip-rule="evenodd" d="M71.3536 22.7824C71.4863 22.7824 71.5821 22.7934 71.6411 22.8155C71.7 22.8376 71.7292 22.8745 71.7292 22.9223C71.7292 23.0402 71.6374 23.103 71.4569 23.1141C71.3795 23.1178 71.3205 23.1252 71.2763 23.1289C71.0774 23.151 70.9153 23.2245 70.7974 23.3498C70.6818 23.4726 70.5947 23.6556 70.5427 23.8988C70.6034 23.8341 70.6766 23.7825 70.7567 23.7477C70.8451 23.7109 70.9372 23.6923 71.0367 23.6923C71.243 23.6923 71.4161 23.7699 71.5598 23.9283C71.6998 24.0867 71.7735 24.2819 71.7735 24.514C71.7735 24.7609 71.6926 24.9599 71.5342 25.1109C71.3758 25.262 71.1658 25.3394 70.9043 25.3394C70.6427 25.3394 70.4179 25.2397 70.2595 25.0408C70.1011 24.8418 70.0235 24.5693 70.0235 24.2194C70.0235 23.7883 70.1452 23.4383 70.3883 23.1767C70.6315 22.9151 70.952 22.7824 71.3536 22.7824ZM70.9114 24.1125C70.801 24.1125 70.7162 24.1529 70.6463 24.2302C70.5763 24.3075 70.5394 24.4073 70.5394 24.5252C70.5395 24.654 70.5762 24.7572 70.6499 24.8382C70.7235 24.9192 70.8157 24.9598 70.9298 24.9598C71.0329 24.9598 71.1179 24.9231 71.1842 24.8458C71.2505 24.7684 71.2835 24.6687 71.2835 24.5471V24.5435C71.2835 24.4183 71.2505 24.3152 71.1806 24.2341C71.1106 24.1531 71.022 24.1125 70.9114 24.1125Z" fill="white"/>
<path d="M32.7026 47.894H34.3015C34.331 47.894 34.3568 47.9014 34.3715 47.9161C34.3863 47.9309 34.3973 47.953 34.3973 47.9824V48.2219C34.3973 48.2477 34.3863 48.2735 34.3679 48.2956C34.3494 48.3177 34.3273 48.3288 34.3015 48.3288H32.7026C32.6768 48.3288 32.6584 48.3177 32.64 48.2993C32.6215 48.2809 32.6179 48.2551 32.6179 48.2219V47.9824C32.6179 47.9566 32.6252 47.9345 32.64 47.9161C32.6547 47.8977 32.6768 47.8903 32.6989 47.8903L32.7026 47.894Z" fill="white"/>
<path d="M38.8221 47.3267C38.8368 47.2751 38.8626 47.2382 38.8957 47.2125C38.9289 47.1867 38.9694 47.1756 39.021 47.1756C39.091 47.1756 39.1389 47.1977 39.1684 47.2382C39.1978 47.2788 39.2126 47.3525 39.2126 47.4556V47.7725C39.2126 47.8498 39.1978 47.9088 39.1647 47.9456C39.1315 47.9825 39.0836 48.0009 39.0173 48.0009C38.9694 48.0009 38.9289 47.9898 38.8994 47.9677C38.8663 47.9456 38.8331 47.9051 38.7963 47.8425C38.7447 47.754 38.6784 47.6914 38.5936 47.6472C38.5089 47.603 38.4094 47.5846 38.2878 47.5846C38.1368 47.5846 38.0152 47.6325 37.9194 47.7319C37.8236 47.8314 37.7757 47.9567 37.7757 48.1077C37.7757 48.2698 37.8236 48.3988 37.9231 48.4946C38.0226 48.594 38.1552 48.6419 38.321 48.6419C38.4721 48.6419 38.6231 48.6014 38.7742 48.5167C38.9252 48.4319 39.0173 48.3914 39.0505 48.3914C39.0984 48.3914 39.1389 48.4098 39.1684 48.4467C39.2015 48.4835 39.2163 48.5277 39.2163 48.583C39.2163 48.7046 39.1242 48.8114 38.9399 48.9072C38.7557 49.003 38.5384 49.0509 38.2878 49.0509C37.9747 49.0509 37.7242 48.9625 37.5289 48.7893C37.3336 48.6125 37.2378 48.3877 37.2378 48.1151C37.2378 47.8425 37.3336 47.6214 37.5289 47.4446C37.7205 47.264 37.9636 47.1756 38.2584 47.1756C38.3578 47.1756 38.4536 47.1867 38.5494 47.2125C38.6452 47.2382 38.7373 47.2751 38.8294 47.3267H38.8221Z" fill="white"/>
<path fill-rule="evenodd" clip-rule="evenodd" d="M40.62 47.1791C40.9331 47.1791 41.1872 47.2679 41.3788 47.441C41.5703 47.6142 41.6698 47.8387 41.6698 48.1149C41.6698 48.3912 41.574 48.616 41.3788 48.7892C41.1835 48.9623 40.9331 49.0507 40.62 49.0507C40.3068 49.0507 40.0564 48.9623 39.8612 48.7892C39.6659 48.6123 39.5701 48.3876 39.5701 48.1149C39.5702 47.8424 39.666 47.6179 39.8612 47.441C40.0564 47.2679 40.3069 47.1791 40.6164 47.1791H40.62ZM40.62 47.5846C40.469 47.5846 40.3474 47.6324 40.248 47.7318C40.1522 47.8312 40.1004 47.9567 40.1004 48.1077C40.1005 48.2588 40.1485 48.3914 40.248 48.4909C40.3437 48.5903 40.469 48.642 40.62 48.642C40.771 48.642 40.8962 48.5903 40.992 48.4909C41.0914 48.3914 41.1395 48.2624 41.1395 48.1077C41.1395 47.953 41.0915 47.8275 40.992 47.7318C40.8925 47.636 40.771 47.5846 40.62 47.5846Z" fill="white"/>
<path d="M43.1142 47.2787H43.5305C43.6189 47.2787 43.6815 47.2934 43.7184 47.3266C43.7552 47.3598 43.7736 47.4113 43.7736 47.4887C43.7736 47.5661 43.7552 47.6177 43.7184 47.6508C43.6815 47.684 43.6189 47.7024 43.5305 47.7024H43.1142V48.5829H43.4973C43.5857 48.5829 43.6484 48.5977 43.6852 48.6308C43.722 48.664 43.7405 48.7156 43.7405 48.7929C43.7405 48.8703 43.722 48.9219 43.6815 48.955C43.6447 48.9882 43.5821 49.0066 43.4936 49.0066H42.4289C42.3405 49.0066 42.2778 48.9882 42.241 48.955C42.2042 48.9219 42.1857 48.8666 42.1857 48.7929C42.1857 48.7192 42.2042 48.664 42.241 48.6308C42.2778 48.5977 42.3405 48.5829 42.4326 48.5829H42.6352V47.7024H42.4326C42.3442 47.7024 42.2815 47.684 42.2447 47.6508C42.2078 47.6177 42.1894 47.5624 42.1894 47.4887C42.1894 47.415 42.2078 47.3598 42.2447 47.3266C42.2815 47.2934 42.3442 47.2787 42.4363 47.2787H42.6389V47.1682C42.6389 46.9177 42.7052 46.7371 42.8342 46.6303C42.9631 46.5235 43.1842 46.4719 43.4973 46.4719C43.6594 46.4719 43.7773 46.4903 43.8547 46.5308C43.9321 46.5677 43.9689 46.6303 43.9689 46.7113C43.9689 46.7666 43.9505 46.8071 43.9173 46.8403C43.8842 46.8735 43.8363 46.8882 43.781 46.8882C43.7368 46.8882 43.6778 46.8808 43.6005 46.8698C43.5231 46.8587 43.4678 46.8513 43.4384 46.8513C43.3205 46.8513 43.2357 46.8771 43.1878 46.9324C43.1399 46.9877 43.1142 47.0798 43.1142 47.2161V47.2787Z" fill="white"/>
<path d="M45.4868 47.2787H45.9031C45.9915 47.2787 46.0542 47.2934 46.091 47.3266C46.1278 47.3598 46.1463 47.4113 46.1463 47.4887C46.1463 47.5661 46.1278 47.6177 46.091 47.6508C46.0542 47.684 45.9915 47.7024 45.9031 47.7024H45.4868V48.5829H45.87C45.9584 48.5829 46.021 48.5977 46.0578 48.6308C46.0947 48.664 46.1131 48.7156 46.1131 48.7929C46.1131 48.8703 46.0947 48.9219 46.0578 48.955C46.021 48.9882 45.9584 49.0066 45.87 49.0066H44.8052C44.7168 49.0066 44.6542 48.9882 44.6173 48.955C44.5805 48.9219 44.5621 48.8666 44.5621 48.7929C44.5621 48.7192 44.5805 48.664 44.6173 48.6308C44.6542 48.5977 44.7168 48.5829 44.8089 48.5829H45.0152V47.7024H44.8089C44.7205 47.7024 44.6578 47.684 44.621 47.6508C44.5842 47.6177 44.5657 47.5624 44.5657 47.4887C44.5657 47.415 44.5842 47.3598 44.621 47.3266C44.6578 47.2934 44.7205 47.2787 44.8126 47.2787H45.0189V47.1682C45.0189 46.9177 45.0852 46.7371 45.2142 46.6303C45.3431 46.5235 45.5642 46.4719 45.8773 46.4719C46.0394 46.4719 46.1573 46.4903 46.2347 46.5308C46.3121 46.5677 46.3489 46.6303 46.3489 46.7113C46.3489 46.7666 46.3305 46.8071 46.2973 46.8403C46.2642 46.8735 46.2163 46.8882 46.1573 46.8882C46.1131 46.8882 46.0542 46.8808 45.9768 46.8698C45.8994 46.8587 45.8442 46.8513 45.8147 46.8513C45.6931 46.8513 45.6121 46.8771 45.5642 46.9324C45.5163 46.9877 45.4905 47.0798 45.4905 47.2161V47.2787H45.4868Z" fill="white"/>
<path fill-rule="evenodd" clip-rule="evenodd" d="M47.7711 47.1791C48.0474 47.1791 48.2795 47.2605 48.4637 47.4263C48.6478 47.5884 48.7364 47.7909 48.7364 48.0304C48.7364 48.1077 48.7178 48.1593 48.681 48.1851C48.6441 48.2146 48.5704 48.2293 48.4525 48.2293H47.212C47.2454 48.3711 47.3113 48.4769 47.4063 48.5463C47.502 48.6163 47.6311 48.6532 47.7894 48.6532C47.9478 48.6532 48.1064 48.6125 48.2611 48.5352C48.4158 48.4578 48.5116 48.4171 48.541 48.4171C48.5889 48.4172 48.6259 48.4358 48.659 48.469C48.6884 48.5057 48.7033 48.5498 48.7033 48.605C48.7033 48.7265 48.6147 48.8299 48.4342 48.9183C48.2537 49.0067 48.0326 49.0507 47.7711 49.0507C47.4616 49.0507 47.2072 48.9623 47.0119 48.7892C46.8168 48.6123 46.7209 48.3875 46.7209 48.1149C46.7209 47.8424 46.8168 47.6178 47.0119 47.441C47.2072 47.2642 47.4616 47.1791 47.7711 47.1791ZM47.7268 47.5515C47.5831 47.5515 47.4726 47.581 47.3879 47.6436C47.3032 47.7062 47.2441 47.7982 47.2109 47.9271H48.25C48.2278 47.8093 48.1726 47.7134 48.0805 47.6508C47.9884 47.5845 47.8705 47.5515 47.7268 47.5515Z" fill="white"/>
<path fill-rule="evenodd" clip-rule="evenodd" d="M50.1399 47.1791C50.4162 47.1791 50.6483 47.2605 50.8325 47.4263C51.0167 47.5884 51.1052 47.7909 51.1052 48.0304C51.1052 48.1077 51.0867 48.1593 51.0498 48.1851C51.013 48.2145 50.9394 48.2293 50.8217 48.2293H49.5812C49.6146 48.3711 49.6801 48.4769 49.7751 48.5463C49.8709 48.6163 49.9999 48.6531 50.1583 48.6532C50.3167 48.6532 50.4752 48.6125 50.6299 48.5352C50.7845 48.4579 50.8802 48.4172 50.9099 48.4171C50.9577 48.4171 50.9947 48.4358 51.0279 48.469C51.0573 48.5057 51.0721 48.5498 51.0721 48.605C51.0721 48.7265 50.9835 48.8299 50.803 48.9183C50.6225 49.0067 50.4014 49.0507 50.1399 49.0507C49.8305 49.0507 49.5764 48.9623 49.3811 48.7892C49.1859 48.6123 49.0901 48.3876 49.0901 48.1149C49.0901 47.8424 49.1859 47.6178 49.3811 47.441C49.5764 47.2642 49.8305 47.1791 50.1399 47.1791ZM50.0993 47.5515C49.9557 47.5515 49.845 47.581 49.7603 47.6436C49.6757 47.7062 49.6168 47.7983 49.5837 47.9271H50.6227C50.6006 47.8093 50.5453 47.7134 50.4533 47.6508C50.3612 47.5845 50.2429 47.5515 50.0993 47.5515Z" fill="white"/>
<path fill-rule="evenodd" clip-rule="evenodd" d="M54.7121 46.7888C54.7894 46.7888 54.8556 46.7999 54.9182 46.8183C54.9809 46.8367 55.0438 46.8661 55.1064 46.9104L55.1136 46.9068C55.132 46.9031 55.1467 46.8993 55.1614 46.8956H55.1945C55.2351 46.8956 55.272 46.9103 55.2978 46.9435C55.3236 46.9766 55.3384 47.0171 55.3385 47.0687C55.3385 47.135 55.3161 47.1942 55.2719 47.2421C55.2277 47.2935 55.1799 47.3194 55.1283 47.3194C55.0915 47.3194 55.0326 47.2971 54.9553 47.2493C54.8742 47.2014 54.8115 47.1791 54.7599 47.1791C54.7084 47.1791 54.6753 47.1941 54.6495 47.2162C54.62 47.242 54.6052 47.2752 54.6052 47.3194C54.6053 47.3746 54.631 47.4372 54.6862 47.5144C54.6972 47.5255 54.7047 47.5366 54.7121 47.5439L55.1726 48.1923C55.1873 48.1481 55.2057 48.0892 55.224 48.0156C55.2646 47.8536 55.3383 47.7761 55.4378 47.776H55.5853C55.6258 47.776 55.6591 47.7946 55.6885 47.8314C55.718 47.8682 55.7288 47.9126 55.7288 47.9678C55.7288 48.0267 55.714 48.071 55.6846 48.1041C55.6551 48.1372 55.6108 48.1557 55.5482 48.1667C55.5335 48.2367 55.5189 48.3031 55.4932 48.3657C55.4711 48.4283 55.4415 48.4835 55.4047 48.5388L55.5043 48.6568H55.5374C55.5926 48.6568 55.6333 48.6716 55.659 48.701C55.6884 48.7305 55.7033 48.771 55.7033 48.8262C55.7033 48.8851 55.6846 48.9292 55.6515 48.9586C55.6183 48.9918 55.5669 49.0065 55.5043 49.0065H55.3532C55.3091 49.0065 55.2796 49.003 55.2575 48.9957C55.2354 48.9883 55.2168 48.9735 55.2021 48.9514L55.1431 48.8741C55.0621 48.9367 54.9663 48.9844 54.8596 49.0212C54.7528 49.0581 54.6458 49.073 54.539 49.073C54.3475 49.073 54.189 49.0177 54.0637 48.9036C53.9422 48.7894 53.8795 48.6454 53.8795 48.4686C53.8796 48.325 53.9125 48.1998 53.9824 48.0894C54.0487 47.9789 54.1594 47.872 54.3142 47.7688L54.2073 47.5994C54.1778 47.5551 54.1558 47.5035 54.1411 47.4482C54.1264 47.3893 54.1152 47.3376 54.1152 47.2824C54.1152 47.1277 54.1668 47.0062 54.2735 46.9215C54.3767 46.8331 54.5242 46.7888 54.7121 46.7888ZM54.5498 48.071C54.4873 48.1115 54.4394 48.1556 54.4063 48.2034C54.3731 48.2513 54.3584 48.3067 54.3584 48.3657C54.3584 48.4467 54.3878 48.5166 54.443 48.5719C54.4982 48.6271 54.5684 48.6568 54.6531 48.6568C54.6936 48.6568 54.7341 48.6493 54.7783 48.6309C54.8225 48.6124 54.8668 48.5866 54.9146 48.5535L54.5498 48.071Z" fill="white"/>
<path d="M59.2842 47.9566L59.6931 47.5882C59.6526 47.5735 59.6268 47.5587 59.6121 47.5366C59.5973 47.5145 59.5899 47.4813 59.5899 47.4335C59.5899 47.3561 59.6084 47.3008 59.6415 47.2677C59.6747 47.2345 59.7373 47.2198 59.8257 47.2198H60.2531C60.3415 47.2198 60.4042 47.2345 60.4373 47.2677C60.4742 47.3008 60.4926 47.3524 60.4926 47.4298C60.4926 47.485 60.4815 47.5292 60.4594 47.555C60.4373 47.5808 60.3968 47.5992 60.3305 47.614C60.2715 47.625 60.2163 47.6435 60.1684 47.6729C60.1205 47.6987 60.0652 47.7466 60.0063 47.8092L59.8699 47.9529L60.3784 48.5866H60.4263C60.5 48.5866 60.5552 48.605 60.5957 48.6382C60.6363 48.6713 60.651 48.7266 60.651 48.7929C60.651 48.8703 60.6326 48.9219 60.5957 48.955C60.5589 48.9882 60.4963 49.0066 60.4078 49.0066H59.9363C59.8515 49.0066 59.7926 48.9919 59.7557 48.9624C59.7189 48.9329 59.7005 48.8887 59.7005 48.8261C59.7005 48.7782 59.7115 48.7414 59.7336 48.7156C59.7557 48.6861 59.7926 48.664 59.8405 48.6456L59.5273 48.2624L59.2915 48.4798V48.8777C59.2915 48.9256 59.2842 48.9587 59.2657 48.9771C59.251 48.9956 59.2178 49.0029 59.1736 49.0029H58.8273C58.7426 49.0029 58.68 48.9845 58.6431 48.9514C58.6063 48.9182 58.5878 48.8629 58.5878 48.7892C58.5878 48.7192 58.6063 48.6677 58.6394 48.6345C58.6726 48.5977 58.7242 48.5829 58.7942 48.5829H58.8236V46.9066H58.7942C58.7278 46.9066 58.6726 46.8882 58.6394 46.8514C58.6026 46.8145 58.5842 46.7629 58.5842 46.6929C58.5842 46.6192 58.6026 46.564 58.6394 46.5308C58.6763 46.4977 58.7389 46.4792 58.8236 46.4792H59.1699C59.2142 46.4792 59.2436 46.4866 59.2621 46.505C59.2805 46.5235 59.2878 46.5566 59.2878 46.6045V47.9566H59.2842Z" fill="white"/>
<path d="M62.2315 48.5829H62.6479C62.7363 48.5829 62.7989 48.5977 62.8357 48.6308C62.8726 48.664 62.891 48.7156 62.891 48.7929C62.891 48.8703 62.8726 48.9219 62.8357 48.955C62.7989 48.9882 62.7363 49.0066 62.6479 49.0066H61.3436C61.2552 49.0066 61.1926 48.9882 61.1557 48.955C61.1189 48.9219 61.0968 48.8666 61.0968 48.7929C61.0968 48.7193 61.1152 48.664 61.1521 48.6308C61.1889 48.5977 61.2515 48.5829 61.3436 48.5829H61.76V47.6472H61.5426C61.4579 47.6472 61.3952 47.6324 61.3584 47.5993C61.3215 47.5661 61.3031 47.5108 61.3031 47.4372C61.3031 47.3635 61.3215 47.3082 61.3584 47.275C61.3952 47.2419 61.4578 47.2272 61.5463 47.2272H62.1284C62.1652 47.2272 62.191 47.2345 62.2131 47.2493C62.2352 47.264 62.2426 47.2861 62.2426 47.3119V48.5903L62.2315 48.5829Z" fill="white"/>
<path d="M61.9515 46.3504C62.0436 46.3504 62.1063 46.3688 62.1394 46.4056C62.1689 46.4425 62.1873 46.5272 62.1873 46.6635C62.1873 46.7998 62.1726 46.8772 62.1468 46.9067C62.121 46.9361 62.0547 46.9546 61.9515 46.9546C61.8484 46.9546 61.7857 46.9398 61.7563 46.9104C61.7268 46.8809 61.7121 46.8219 61.7121 46.7335C61.7121 46.5677 61.7268 46.4646 61.7563 46.4204C61.7857 46.3761 61.8521 46.354 61.9515 46.354V46.3504Z" fill="white"/>
<path d="M64.1989 47.3303H64.7884C64.8768 47.3303 64.9394 47.3451 64.9763 47.3782C65.0131 47.4114 65.0315 47.463 65.0315 47.5367C65.0315 47.6103 65.0131 47.6656 64.9763 47.7025C64.9394 47.7356 64.8768 47.754 64.7884 47.754H64.1989V48.2477C64.1989 48.3877 64.221 48.4835 64.2615 48.5314C64.3057 48.583 64.3794 48.6088 64.4863 48.6088C64.5857 48.6088 64.7036 48.5793 64.8399 48.5203C64.9763 48.4614 65.0684 48.4319 65.1126 48.4319C65.1642 48.4319 65.2121 48.454 65.2489 48.4946C65.2857 48.5351 65.3078 48.5867 65.3078 48.6456C65.3078 48.7451 65.2194 48.8335 65.0389 48.9182C64.8584 48.9993 64.6557 49.0398 64.4273 49.0398C64.2947 49.0398 64.1805 49.0214 64.0773 48.9846C63.9742 48.9477 63.8968 48.8961 63.8415 48.8298C63.7973 48.7782 63.7678 48.7156 63.7494 48.6456C63.731 48.5719 63.7236 48.454 63.7236 48.2846V47.7467H63.5431C63.4547 47.7467 63.3921 47.7282 63.3589 47.6951C63.3221 47.6619 63.3036 47.6067 63.3036 47.5293C63.3036 47.4519 63.3221 47.4003 63.3589 47.3672C63.3957 47.334 63.4584 47.3193 63.5468 47.3193H63.7273V46.8661C63.7273 46.7777 63.7457 46.7151 63.7826 46.6782C63.8194 46.6414 63.8784 46.623 63.9668 46.623C64.0552 46.623 64.1142 46.6414 64.1473 46.6782C64.1842 46.7151 64.2026 46.7777 64.2026 46.8661V47.3193L64.1989 47.3303Z" fill="white"/>
<path d="M67.2752 47.3267C67.29 47.2751 67.3157 47.2382 67.3489 47.2125C67.3821 47.1867 67.4226 47.1756 67.4742 47.1756C67.5442 47.1756 67.5921 47.1977 67.6215 47.2382C67.651 47.2788 67.6657 47.3525 67.6657 47.4556V47.7725C67.6657 47.8498 67.651 47.9088 67.6179 47.9456C67.5847 47.9825 67.5368 48.0009 67.4705 48.0009C67.4226 48.0009 67.3821 47.9898 67.3489 47.9677C67.3157 47.9456 67.2826 47.9051 67.2457 47.8425C67.1942 47.754 67.1279 47.6914 67.0431 47.6472C66.9584 47.6067 66.8589 47.5846 66.7373 47.5846C66.5863 47.5846 66.4647 47.6325 66.3689 47.7319C66.2731 47.8314 66.2252 47.9567 66.2252 48.1077C66.2252 48.2698 66.2731 48.3988 66.3726 48.4946C66.4721 48.594 66.6047 48.6419 66.7705 48.6419C66.9215 48.6419 67.0726 48.6014 67.2236 48.5167C67.3747 48.4319 67.4668 48.3914 67.5 48.3914C67.5479 48.3914 67.5884 48.4098 67.6179 48.4467C67.6473 48.4835 67.6657 48.5277 67.6657 48.583C67.6657 48.7046 67.5736 48.8114 67.3894 48.9072C67.2052 49.003 66.9879 49.0509 66.7373 49.0509C66.4242 49.0509 66.1736 48.9625 65.9784 48.7893C65.7831 48.6125 65.6873 48.3877 65.6873 48.1151C65.6873 47.8425 65.7831 47.6214 65.9784 47.4446C66.17 47.264 66.4131 47.1756 66.7079 47.1756C66.8073 47.1756 66.9031 47.1867 66.9989 47.2125C67.0947 47.2382 67.1868 47.2751 67.2789 47.3267H67.2752Z" fill="white"/>
<path d="M68.7636 47.415C68.8078 47.3377 68.8705 47.275 68.9552 47.2345C69.04 47.194 69.1357 47.1719 69.25 47.1719C69.4526 47.1719 69.611 47.2308 69.7178 47.3487C69.8284 47.4666 69.8836 47.6361 69.8836 47.8571V48.5756H69.9168C69.9868 48.5756 70.0384 48.594 70.0715 48.6271C70.1084 48.664 70.1231 48.7156 70.1231 48.7819C70.1231 48.8592 70.1047 48.9108 70.0678 48.944C70.031 48.9771 69.9684 48.9956 69.8836 48.9956H69.4047C69.32 48.9956 69.2573 48.9771 69.2205 48.944C69.1836 48.9108 69.1652 48.8556 69.1652 48.7819C69.1652 48.7119 69.1836 48.6603 69.2168 48.6271C69.25 48.594 69.3052 48.5756 69.3715 48.5756H69.401V48.0156C69.401 47.8498 69.3826 47.7356 69.3384 47.6729C69.2979 47.6103 69.2278 47.5771 69.1321 47.5771C69.0289 47.5771 68.9405 47.6177 68.8668 47.7024C68.7931 47.7871 68.7563 47.8903 68.7563 48.0156V48.5756H68.7857C68.8557 48.5756 68.9073 48.594 68.9442 48.6271C68.981 48.664 68.9957 48.7156 68.9957 48.7819C68.9957 48.8592 68.9773 48.9108 68.9405 48.944C68.9036 48.9771 68.841 48.9956 68.7563 48.9956H68.2773C68.1889 48.9956 68.1263 48.9808 68.0894 48.9477C68.0526 48.9145 68.0342 48.8592 68.0342 48.7819C68.0342 48.7119 68.0526 48.6603 68.0857 48.6271C68.1226 48.5903 68.1742 48.5756 68.2405 48.5756H68.2736V46.8992H68.2405C68.1742 46.8992 68.1189 46.8808 68.0821 46.844C68.0452 46.8071 68.0268 46.7556 68.0268 46.6856C68.0268 46.6082 68.0452 46.5566 68.0821 46.5198C68.1189 46.4829 68.1815 46.4682 68.27 46.4682H68.631C68.6752 46.4682 68.7047 46.4756 68.7231 46.494C68.7379 46.5124 68.7489 46.5456 68.7489 46.5934V47.404L68.7636 47.415Z" fill="white"/>
<path fill-rule="evenodd" clip-rule="evenodd" d="M71.4824 47.1791C71.7587 47.1791 71.9912 47.2605 72.1754 47.4263C72.3595 47.5884 72.4477 47.791 72.4477 48.0304C72.4477 48.1077 72.4295 48.1593 72.3927 48.1851C72.3559 48.2146 72.2821 48.2293 72.1642 48.2293H70.9237C70.9571 48.3711 71.023 48.4769 71.118 48.5463C71.2137 48.6162 71.3428 48.6532 71.5011 48.6532C71.6595 48.6531 71.8178 48.6125 71.9725 48.5352C72.1272 48.4578 72.2233 48.4171 72.2527 48.4171C72.3006 48.4172 72.3373 48.4358 72.3704 48.469C72.3998 48.5058 72.4146 48.5498 72.4146 48.605C72.4146 48.7265 72.3264 48.8299 72.1459 48.9183C71.9653 49.0067 71.744 49.0507 71.4824 49.0507C71.173 49.0507 70.9189 48.9623 70.7236 48.7892C70.5284 48.6123 70.4326 48.3875 70.4326 48.1149C70.4326 47.8424 70.5285 47.6178 70.7236 47.441C70.9189 47.2642 71.173 47.1791 71.4824 47.1791ZM71.4385 47.5515C71.2948 47.5515 71.184 47.581 71.0993 47.6436C71.0146 47.7062 70.9557 47.7983 70.9226 47.9271H71.9617C71.9396 47.8093 71.8843 47.7134 71.7922 47.6508C71.7001 47.5845 71.5821 47.5515 71.4385 47.5515Z" fill="white"/>
<path d="M74.6289 48.5793H74.6547C74.7284 48.5793 74.78 48.5977 74.8168 48.6309C74.8536 48.664 74.8721 48.7193 74.8721 48.7893C74.8721 48.8667 74.8536 48.9183 74.8168 48.9514C74.78 48.9846 74.7173 49.003 74.6326 49.003H74.1573C74.0726 49.003 74.01 48.9846 73.9694 48.9514C73.9326 48.9183 73.9142 48.863 73.9142 48.7893C73.9142 48.7193 73.9326 48.664 73.9694 48.6309C74.0063 48.5977 74.0615 48.5793 74.1352 48.5793H74.1573V48.023C74.1573 47.8683 74.1352 47.7577 74.091 47.6951C74.0468 47.6325 73.9768 47.5993 73.8773 47.5993C73.7705 47.5993 73.6821 47.6398 73.6157 47.7172C73.5494 47.7946 73.5126 47.8977 73.5126 48.0267V48.583H73.5347C73.6084 48.583 73.6636 48.6014 73.7005 48.6346C73.7373 48.6677 73.7557 48.723 73.7557 48.793C73.7557 48.8704 73.7373 48.9219 73.7005 48.9551C73.6636 48.9883 73.601 49.0067 73.5163 49.0067H73.0373C72.9526 49.0067 72.89 48.9883 72.8531 48.9551C72.8163 48.9219 72.7979 48.8667 72.7979 48.793C72.7979 48.723 72.8163 48.6677 72.8531 48.6346C72.89 48.6014 72.9452 48.583 73.0189 48.583H73.041V47.6509H73.0079C72.9379 47.6509 72.8863 47.6325 72.8494 47.5993C72.8126 47.5625 72.7942 47.5109 72.7942 47.4446C72.7942 47.3672 72.8126 47.3156 72.8494 47.2788C72.8863 47.2456 72.9489 47.2272 73.0373 47.2272H73.3652C73.4021 47.2272 73.4278 47.2346 73.4463 47.2493C73.4647 47.264 73.4757 47.2825 73.4757 47.3119V47.463C73.5347 47.3709 73.6121 47.3009 73.7042 47.253C73.7963 47.2051 73.9031 47.183 74.0247 47.183C74.231 47.183 74.3821 47.2456 74.4852 47.3709C74.5847 47.4961 74.6363 47.6877 74.6363 47.9419V48.5867L74.6289 48.5793Z" fill="white"/>
<path d="M77.7531 47.894H79.3521C79.3815 47.894 79.4073 47.9014 79.4221 47.9161C79.4368 47.9309 79.4478 47.953 79.4478 47.9824V48.2219C79.4478 48.2477 79.4368 48.2735 79.4184 48.2956C79.3999 48.3177 79.3778 48.3288 79.3557 48.3288H77.7568C77.731 48.3288 77.7126 48.3177 77.6942 48.2993C77.6757 48.2809 77.6721 48.2551 77.6721 48.2219V47.9824C77.6721 47.9566 77.6794 47.9345 77.6942 47.9161C77.7089 47.8977 77.731 47.8903 77.7531 47.8903V47.894Z" fill="white"/>
<path d="M19.0673 41.9551C19.0673 42.5519 19.0673 43.1451 19.0673 43.7419C19.0673 43.9298 18.9863 44.0293 18.8279 44.0477C18.0542 44.1214 17.2768 44.2024 16.5031 44.2835C16.4921 44.2835 16.481 44.2835 16.47 44.2835C16.4626 44.2835 16.4589 44.2835 16.4515 44.2835C15.9394 44.3351 15.431 44.3903 14.9189 44.4456C14.7568 44.464 14.6794 44.3756 14.6794 44.1803V30.2614C14.6794 30.0698 14.7605 29.9703 14.9226 29.9703C15.4347 29.9703 15.9468 29.9703 16.4589 29.9703C16.621 29.9703 16.7021 30.0661 16.7021 30.254C16.7021 34.1261 16.7021 37.9982 16.6984 41.8666C17.4094 41.804 18.1205 41.7451 18.8352 41.6861C18.9973 41.6714 19.0747 41.7598 19.0747 41.9477L19.0673 41.9551Z" fill="white"/>
<path d="M28.5652 30.2282C28.5578 33.813 28.5542 37.394 28.5468 40.9787C28.5468 41.3066 28.4878 41.6198 28.3736 41.9182C28.2594 42.2166 28.101 42.4782 27.9057 42.7103C27.7105 42.9387 27.4784 43.1266 27.2168 43.274C26.9515 43.4214 26.6715 43.5061 26.3731 43.5282C26.1557 43.5466 25.9347 43.5614 25.7173 43.5798C25.4189 43.6019 25.1352 43.5614 24.8736 43.4545C24.6084 43.3477 24.3799 43.1893 24.1847 42.9866C23.9894 42.7803 23.8347 42.5335 23.7205 42.2461C23.6063 41.9551 23.5473 41.6419 23.551 41.303C23.5547 37.6187 23.5621 33.9309 23.5657 30.2466C23.5657 30.0661 23.6468 29.974 23.8089 29.974C24.321 29.974 24.8331 29.974 25.3452 29.974C25.5073 29.974 25.5847 30.0624 25.5847 30.243C25.581 33.8535 25.5736 37.464 25.5699 41.0745C25.5699 41.2035 25.6105 41.3103 25.6915 41.3951C25.7726 41.4798 25.8684 41.5166 25.9826 41.5093C26.0268 41.5093 26.0747 41.5019 26.1189 41.5019C26.2331 41.4945 26.3326 41.443 26.4136 41.3472C26.4947 41.2514 26.5352 41.1409 26.5352 41.0119C26.5426 37.4198 26.5463 33.8314 26.5536 30.2393C26.5536 30.0587 26.6347 29.9703 26.7968 29.9703C27.3089 29.9703 27.821 29.9703 28.3331 29.9703C28.4952 29.9703 28.5763 30.0587 28.5726 30.2356L28.5652 30.2282Z" fill="white"/>
<path d="M36.8989 30.0108C37.1642 30.1324 37.3926 30.2982 37.5878 30.5008C37.7831 30.7072 37.9378 30.9503 38.0521 31.2266C38.1663 31.5066 38.2252 31.8014 38.2215 32.1182C38.2215 32.6045 38.2215 33.0872 38.2215 33.5735C38.2215 33.743 38.1478 33.8535 37.9968 33.9051C37.4736 33.9972 36.9505 34.0893 36.4273 34.1851C36.2763 34.2366 36.2026 34.1777 36.2026 34.0045C36.2026 33.4114 36.2026 32.8182 36.2026 32.2287C36.2026 32.1072 36.1621 32.004 36.081 31.9193C36 31.8345 35.9042 31.794 35.7863 31.794C35.7384 31.794 35.6942 31.794 35.6463 31.794C35.5321 31.794 35.4326 31.8382 35.3515 31.9266C35.2705 32.0114 35.2299 32.1182 35.2299 32.2398C35.2263 35.0103 35.2226 37.7808 35.2152 40.5514C35.2152 40.673 35.2557 40.7761 35.3368 40.8572C35.4178 40.9382 35.5136 40.9787 35.6315 40.9714C35.6794 40.9714 35.7236 40.9677 35.7715 40.964C35.8857 40.9603 35.9852 40.9124 36.0663 40.824C36.1473 40.7356 36.1878 40.6287 36.1878 40.5072C36.1878 39.6524 36.1878 38.7977 36.1915 37.943C36.1915 37.7735 36.2652 37.7072 36.4163 37.7551C36.9394 37.814 37.4626 37.873 37.9857 37.9282C38.1368 37.9724 38.2105 38.0793 38.2105 38.2487C38.2105 39.0077 38.2105 39.763 38.2105 40.5219C38.2105 40.8387 38.1515 41.1372 38.0373 41.4208C37.9231 41.7045 37.7647 41.9551 37.5694 42.1687C37.3742 42.3824 37.1421 42.5593 36.8768 42.6919C36.6115 42.8245 36.3278 42.9019 36.0294 42.9166C35.8121 42.9277 35.591 42.9387 35.3736 42.9498C35.0752 42.9645 34.7915 42.9166 34.5263 42.8098C34.261 42.6993 34.0326 42.5482 33.8373 42.3493C33.6421 42.1503 33.4873 41.9108 33.3731 41.6345C33.2589 41.3582 33.2 41.0561 33.2036 40.7356C33.2073 37.8803 33.2147 35.0251 33.2184 32.1698C33.2184 31.8493 33.2773 31.5472 33.3915 31.2598C33.5057 30.9761 33.6642 30.7293 33.8594 30.5156C34.0547 30.3056 34.2868 30.1398 34.5521 30.0145C34.8173 29.893 35.0973 29.8303 35.3994 29.8303H36.0552C36.3536 29.8303 36.6373 29.893 36.8989 30.0145V30.0108Z" fill="white"/>
<path d="M48.5963 30.033C48.6184 30.0846 48.6184 30.1435 48.5963 30.2025C47.8263 31.9525 47.0526 33.7025 46.2789 35.4635C47.0378 37.6961 47.7968 39.9251 48.5557 42.1504C48.5778 42.2093 48.5742 42.2646 48.5373 42.3198C48.5042 42.3751 48.4526 42.4009 48.3826 42.4009C47.8115 42.4082 47.2405 42.4193 46.6731 42.4304C46.6031 42.4304 46.5405 42.4119 46.4815 42.3714C46.4226 42.3309 46.3821 42.283 46.36 42.2204C45.9399 40.8867 45.5199 39.5493 45.1036 38.2082C45.0042 38.4588 44.9084 38.713 44.8089 38.9635C44.8089 40.0467 44.8089 41.1335 44.8089 42.2167C44.8089 42.3825 44.7278 42.4672 44.5657 42.4746C44.0536 42.4856 43.5415 42.5004 43.0294 42.5151C42.8673 42.5188 42.7863 42.4377 42.7863 42.2719C42.7899 38.2488 42.7973 34.2293 42.801 30.2061C42.801 30.0404 42.8821 29.9556 43.0442 29.9556C43.5563 29.9556 44.0684 29.9556 44.5805 29.9556C44.7426 29.9556 44.8236 30.0404 44.82 30.2061C44.82 31.4882 44.82 32.7704 44.8163 34.0488C45.3468 32.7519 45.8773 31.4588 46.4078 30.1693C46.4668 30.0256 46.5736 29.9556 46.7357 29.9556C47.3105 29.9556 47.8852 29.9556 48.4599 29.9556C48.5299 29.9556 48.5742 29.9814 48.5963 30.0367V30.033Z" fill="white"/>
<path d="M58.6026 30.033C58.6357 30.0846 58.6431 30.1435 58.621 30.2025C57.9615 32.6561 57.3021 35.1061 56.6389 37.5525C56.6389 39.0777 56.6389 40.6067 56.6389 42.1319C56.6389 42.2977 56.5578 42.3788 56.3957 42.3788C55.8763 42.3751 55.3605 42.3714 54.841 42.3677C54.6789 42.3677 54.5978 42.283 54.5978 42.1172C54.5978 40.5919 54.5978 39.0667 54.5978 37.5414C53.9347 35.0914 53.2752 32.6451 52.6121 30.1988C52.5899 30.1398 52.5936 30.0846 52.6305 30.0293C52.6636 29.9777 52.7152 29.9482 52.7852 29.9482C53.3931 29.9482 54.0047 29.9482 54.6126 29.9482C54.7747 29.9482 54.8668 30.0293 54.8889 30.1951C55.121 31.6835 55.3494 33.1756 55.5815 34.6677C55.6036 34.6677 55.6257 34.6677 55.6515 34.6677C55.8799 33.1793 56.1121 31.6872 56.3405 30.1951C56.3626 30.0293 56.4547 29.9482 56.6168 29.9482C57.2247 29.9482 57.8363 29.9482 58.4442 29.9482C58.5142 29.9482 58.5657 29.974 58.5989 30.0293L58.6026 30.033Z" fill="white"/>
<path d="M72.2673 30.0145C72.5326 30.1361 72.761 30.3056 72.96 30.5156C73.1552 30.7256 73.3099 30.9724 73.4278 31.2598C73.5421 31.5435 73.601 31.8493 73.601 32.1698C73.601 32.6635 73.601 33.1608 73.601 33.6545C73.601 33.8277 73.5273 33.9382 73.3763 33.9861C72.8531 34.0635 72.3299 34.1408 71.8068 34.2182C71.6557 34.2661 71.5821 34.2035 71.5821 34.0303C71.5821 33.4372 71.5821 32.8403 71.5821 32.2472C71.5821 32.1256 71.5415 32.0187 71.4605 31.934C71.3794 31.8493 71.2799 31.8051 71.1657 31.8014C71.1178 31.8014 71.0736 31.8014 71.0257 31.8014C70.9115 31.8014 70.8121 31.8419 70.731 31.9266C70.6499 32.0114 70.6094 32.1145 70.6094 32.2361C70.6131 34.9993 70.6168 37.7587 70.6242 40.5219C70.6242 40.6435 70.6647 40.7503 70.7457 40.8387C70.8268 40.9272 70.9226 40.9751 71.0405 40.9787C71.0847 40.9787 71.1326 40.9824 71.1805 40.9861C71.2947 40.9898 71.3942 40.953 71.4752 40.8719C71.5563 40.7908 71.5968 40.6877 71.5968 40.5661C71.5968 39.7077 71.5968 38.8493 71.5931 37.9908C71.5931 37.8177 71.6668 37.7587 71.8178 37.814C72.341 37.9061 72.8642 37.9945 73.3873 38.0866C73.5384 38.1419 73.6121 38.2561 73.6121 38.4293C73.6121 39.203 73.6121 39.9766 73.6157 40.7466C73.6157 41.0672 73.5605 41.3693 73.4463 41.6456C73.3321 41.9256 73.1773 42.1614 72.9821 42.3603C72.7868 42.5593 72.5584 42.714 72.2931 42.8208C72.0278 42.9277 71.7478 42.9756 71.4457 42.9608C71.2284 42.9498 71.0073 42.9387 70.7899 42.9277C70.4915 42.913 70.2078 42.8393 69.9426 42.703C69.6773 42.5703 69.4489 42.3935 69.25 42.1798C69.0547 41.9661 68.8963 41.7156 68.7821 41.4319C68.6678 41.1482 68.6089 40.8498 68.6089 40.533C68.6052 37.7293 68.6015 34.9293 68.5978 32.1256C68.5978 31.8087 68.6531 31.514 68.771 31.234C68.8852 30.954 69.04 30.7145 69.2352 30.5082C69.4305 30.3019 69.6589 30.1398 69.9242 30.0145C70.1894 29.893 70.4694 29.8303 70.7678 29.8303H71.4236C71.7221 29.8303 72.0057 29.893 72.271 30.0145H72.2673Z" fill="white"/>
<path fill-rule="evenodd" clip-rule="evenodd" d="M81.78 29.963C81.9421 29.963 82.0343 30.0552 82.0564 30.2357C82.4948 34.5757 82.9294 38.9526 83.3678 43.3625H83.3642C83.3863 43.5466 83.32 43.6312 83.158 43.6165C82.6349 43.5723 82.1114 43.5282 81.5883 43.4877C81.4373 43.4766 81.3524 43.3808 81.3303 43.1966C81.2824 42.5004 81.2346 41.8004 81.1904 41.1041C80.8331 41.082 80.4795 41.0597 80.1222 41.0376C80.0779 41.7228 80.0337 42.4118 79.9858 43.097C79.9637 43.2738 79.8752 43.3588 79.7278 43.3478C79.2047 43.3072 78.6816 43.2702 78.1584 43.2333C77.9963 43.2223 77.9261 43.1303 77.9519 42.9534C78.3756 38.7387 78.7993 34.4981 79.2266 30.2282C79.2487 30.0514 79.341 29.963 79.503 29.963H81.78ZM80.2546 38.9044C80.5198 38.9191 80.7852 38.9303 81.0468 38.9451V38.9415C80.9363 37.1951 80.822 35.4524 80.7115 33.7134H80.5751C80.4683 35.4449 80.3614 37.1765 80.2546 38.9044Z" fill="white"/>
<path d="M92.0073 32.1072C92.0073 32.3024 91.9263 32.3945 91.7678 32.3908C91.3589 32.3835 90.95 32.3761 90.5447 32.3687C90.5447 36.2556 90.5447 40.1424 90.5447 44.0293C90.5447 44.2208 90.4636 44.3093 90.3052 44.2908C89.7931 44.2393 89.2847 44.184 88.7726 44.1324C88.7136 44.1251 88.6621 44.0956 88.6105 44.0366C88.5589 43.9777 88.5331 43.9077 88.5331 43.8266C88.5331 39.9951 88.5294 36.1635 88.5257 32.3319C88.1242 32.3245 87.7226 32.3172 87.3173 32.3098C87.1552 32.3098 87.0742 32.214 87.0742 32.0261C87.0742 31.433 87.0742 30.8398 87.0742 30.2466C87.0742 30.0587 87.1552 29.9666 87.3136 29.9666C88.7984 29.9666 90.2831 29.9666 91.7642 29.9703C91.9263 29.9703 92.0073 30.0661 92.0073 30.2614V32.1072Z" fill="white"/>
<path d="M37.0831 23.394H36.1879V23.8877H36.5268V23.8656C36.5268 23.7919 36.5452 23.7367 36.5747 23.7035C36.6042 23.6667 36.6557 23.6482 36.7221 23.6482C36.781 23.6482 36.8289 23.6667 36.8657 23.6961C36.8989 23.7293 36.9173 23.7698 36.9173 23.8214C36.9173 23.8214 36.9173 23.8324 36.9173 23.8472C36.9173 23.8619 36.9173 23.8767 36.9173 23.8914V24.2893C36.9173 24.3777 36.9026 24.4367 36.8731 24.4735C36.84 24.5103 36.7921 24.5288 36.7221 24.5288C36.6557 24.5288 36.6079 24.5103 36.5747 24.4772C36.5415 24.4403 36.5231 24.3924 36.5231 24.3224V24.2893H36.1842V24.8677H37.0794V24.6356C37.0794 24.5509 37.0979 24.4882 37.1273 24.4514C37.1605 24.4146 37.2157 24.3961 37.2894 24.3961C37.3631 24.3961 37.4147 24.4146 37.4442 24.4514C37.4773 24.4882 37.4921 24.5509 37.4921 24.6356V25.1035C37.4921 25.1735 37.4773 25.2177 37.4515 25.2435C37.4257 25.2656 37.3705 25.2767 37.2931 25.2767H35.7126C35.6279 25.2767 35.5689 25.2582 35.5321 25.2251C35.4952 25.1919 35.4768 25.1367 35.4768 25.063C35.4768 24.9967 35.4952 24.9451 35.5284 24.9082C35.5652 24.8714 35.6131 24.8567 35.6794 24.8567H35.7126V23.4161H35.6794C35.6131 23.4161 35.5615 23.3977 35.5284 23.3609C35.4952 23.324 35.4731 23.2724 35.4731 23.2024C35.4731 23.1288 35.4915 23.0735 35.5284 23.0403C35.5652 23.0072 35.6279 22.9888 35.7089 22.9888H37.2894C37.3668 22.9888 37.4184 22.9998 37.4479 23.0256C37.4736 23.0477 37.4884 23.0956 37.4884 23.1693V23.6003C37.4884 23.6888 37.4736 23.7514 37.4405 23.7882C37.4073 23.8251 37.3557 23.8435 37.2857 23.8435C37.2157 23.8435 37.1568 23.8251 37.1236 23.7846C37.0942 23.744 37.0757 23.6851 37.0757 23.5967V23.394H37.0831Z" fill="white"/>
<path d="M39.3821 23.0293C39.4042 22.9887 39.4263 22.9593 39.4484 22.9445C39.4742 22.9298 39.5073 22.9224 39.5589 22.9224C39.6326 22.9224 39.6805 22.9372 39.7026 22.963C39.7247 22.9924 39.7357 23.0477 39.7394 23.1287L39.7468 23.5008V23.523C39.7468 23.6003 39.7321 23.6519 39.7026 23.6814C39.6731 23.7108 39.6215 23.7256 39.5478 23.7256C39.4557 23.7256 39.3894 23.6777 39.3452 23.5782C39.3378 23.5635 39.3342 23.5524 39.3305 23.5451C39.29 23.464 39.2384 23.4051 39.1684 23.3645C39.1021 23.324 39.021 23.3056 38.9252 23.3056C38.811 23.3056 38.7152 23.3314 38.6452 23.383C38.5715 23.4382 38.5384 23.5045 38.5384 23.5893C38.5384 23.7072 38.7005 23.7993 39.0284 23.8693C39.0836 23.8803 39.1278 23.8914 39.161 23.8951C39.4078 23.9503 39.5847 24.0314 39.6952 24.1419C39.8057 24.2524 39.861 24.4035 39.861 24.5951C39.861 24.8308 39.78 25.0151 39.6178 25.144C39.4594 25.273 39.2273 25.3356 38.9252 25.3356C38.8073 25.3356 38.7042 25.3282 38.6121 25.3135C38.52 25.2987 38.4315 25.273 38.3468 25.2435C38.3247 25.2766 38.3026 25.3024 38.2731 25.3172C38.2473 25.3319 38.2105 25.3393 38.1626 25.3393C38.0815 25.3393 38.0263 25.3245 37.9931 25.2914C37.96 25.2619 37.9415 25.2066 37.9415 25.1293L37.9342 24.6761V24.654C37.9342 24.5693 37.9489 24.5103 37.9821 24.4772C38.0152 24.444 38.0668 24.4256 38.1442 24.4256C38.2289 24.4256 38.2989 24.4845 38.3542 24.6061C38.3689 24.6356 38.38 24.6577 38.3836 24.6724C38.4352 24.7719 38.5015 24.8456 38.5936 24.8935C38.6857 24.9414 38.7926 24.9672 38.9215 24.9672C39.0394 24.9672 39.1315 24.9414 39.1978 24.8935C39.2642 24.8456 39.2973 24.7756 39.2973 24.6872C39.2973 24.5472 39.15 24.444 38.8515 24.374C38.7631 24.3519 38.6931 24.3372 38.6415 24.3224C38.391 24.2561 38.2178 24.1751 38.1221 24.0756C38.0263 23.9761 37.9784 23.8435 37.9784 23.6703C37.9784 23.4493 38.0631 23.2724 38.2289 23.1324C38.3947 22.9924 38.6084 22.9224 38.87 22.9224C38.9584 22.9224 39.0431 22.9298 39.1278 22.9519C39.2126 22.9703 39.2973 22.9961 39.3784 23.033L39.3821 23.0293Z" fill="white"/>
<path d="M41.5226 23.4088V24.8493H41.8468C41.9352 24.8493 41.9942 24.864 42.0347 24.9009C42.0715 24.934 42.0899 24.9893 42.0899 25.063C42.0899 25.1367 42.0715 25.1956 42.0347 25.2251C41.9978 25.2582 41.9352 25.2767 41.8468 25.2767H40.701C40.6163 25.2767 40.5536 25.2582 40.5168 25.2251C40.4799 25.1919 40.4615 25.1367 40.4615 25.063C40.4615 24.9893 40.4799 24.934 40.5168 24.9009C40.5536 24.8677 40.6163 24.853 40.701 24.853H41.0252V23.4124H40.6199L40.6089 23.803V23.8509C40.6089 23.9135 40.5905 23.9614 40.5573 23.9945C40.5242 24.0314 40.4763 24.0461 40.4173 24.0461C40.3436 24.0461 40.2921 24.0277 40.2589 23.9909C40.2221 23.954 40.2073 23.8951 40.2073 23.814V23.7993L40.2294 23.2245C40.2331 23.1103 40.2515 23.0403 40.2773 23.0182C40.3068 22.9961 40.3621 22.9814 40.4468 22.9814H42.1047C42.1894 22.9814 42.2447 22.9961 42.2742 23.0182C42.2999 23.0403 42.3184 23.1103 42.3221 23.2245L42.3442 23.7993V23.814C42.3442 23.8951 42.3257 23.954 42.2963 23.9909C42.2631 24.0277 42.2152 24.0461 42.1378 24.0461C42.0678 24.0461 42.02 24.0277 41.9905 23.9909C41.9573 23.954 41.9426 23.8914 41.9426 23.7993L41.9315 23.4088H41.5226Z" fill="white"/>
<path fill-rule="evenodd" clip-rule="evenodd" d="M43.2799 22.963C43.4788 22.963 43.6227 22.9705 43.7149 22.9889C43.8069 23.0073 43.8843 23.0329 43.9469 23.0734C44.0611 23.1398 44.1495 23.2393 44.2085 23.3645C44.2674 23.4898 44.3006 23.6373 44.3006 23.8031C44.3006 23.9688 44.2673 24.1308 44.1973 24.2597C44.1273 24.3923 44.0279 24.4884 43.9027 24.5547C43.8437 24.5841 43.7774 24.6062 43.7001 24.6209C43.6227 24.6319 43.5084 24.6428 43.3536 24.6428H42.9298C42.8673 24.6428 42.8196 24.6318 42.7938 24.6061C42.7643 24.5803 42.7531 24.5435 42.7531 24.4845C42.7531 24.433 42.768 24.3963 42.7938 24.3705C42.8196 24.3447 42.8599 24.3298 42.9114 24.3298H42.9338L42.9298 24.3262V23.2724H42.9078C42.8563 23.2724 42.8193 23.2612 42.7898 23.2318C42.7641 23.206 42.7495 23.1655 42.7495 23.1177C42.7495 23.0624 42.7643 23.0218 42.7938 22.9997C42.8232 22.974 42.8673 22.963 42.9298 22.963H43.2799ZM43.2946 24.3262H43.3756C43.5561 24.3262 43.6851 24.2818 43.7735 24.1971C43.8582 24.1086 43.8991 23.9761 43.8991 23.7955C43.899 23.615 43.8546 23.486 43.7699 23.3976C43.6852 23.3093 43.5563 23.2652 43.3795 23.2652H43.2946V24.3262Z" fill="white"/>
<path d="M44.1089 24.9451C44.131 24.9451 44.1531 24.9524 44.1642 24.9635C44.1789 24.9745 44.1826 24.993 44.1826 25.0187V25.214C44.1826 25.2361 44.1715 25.2545 44.1568 25.2766C44.1421 25.2914 44.1236 25.3024 44.1052 25.3024H42.8121C42.7936 25.3024 42.7752 25.2951 42.7642 25.2766C42.7531 25.2619 42.7457 25.2398 42.7457 25.214V25.0187C42.7457 24.9966 42.7531 24.9782 42.7642 24.9635C42.7789 24.9524 42.7936 24.9451 42.8121 24.9451H44.1089Z" fill="white"/>
</svg>
