<svg width="110" height="70" viewBox="0 0 110 70" fill="none" xmlns="http://www.w3.org/2000/svg">
<path d="M87.0525 34.2636C87.0525 51.9671 72.7059 66.3162 55.0017 66.3162C37.2976 66.3162 22.9473 51.9635 22.9473 34.2636C22.9473 16.5636 37.2976 2.21094 55.0017 2.21094C72.7059 2.21094 87.0525 16.56 87.0525 34.2636Z" fill="white"/>
<path d="M55.002 1.6582C73.0113 1.65832 87.6055 16.255 87.6055 34.2637C87.6054 52.2723 73.0112 66.869 55.002 66.8691C36.9926 66.8691 22.3946 52.2688 22.3945 34.2637C22.3945 16.2585 36.9926 1.6582 55.002 1.6582Z" stroke="#231F20" stroke-width="1.10526"/>
<path d="M85.9472 34.2638C85.9472 51.3552 72.0916 65.2111 55.0017 65.2111C37.9119 65.2111 24.0525 51.3552 24.0525 34.2638C24.0525 17.1723 37.9081 3.31641 55.0017 3.31641C72.0954 3.31641 85.9472 17.1723 85.9472 34.2601V34.2638Z" fill="white"/>
<path d="M55.0017 3.50098C71.9935 3.50098 85.7632 17.2739 85.7634 34.2598V34.2637C85.7634 51.2534 71.9898 65.0273 55.0017 65.0273C38.0136 65.0273 24.2371 51.2533 24.2371 34.2637C24.2371 17.274 38.0099 3.50099 55.0017 3.50098Z" stroke="#231F20" stroke-width="0.368421"/>
<path d="M53.7761 52.8525C53.8452 52.8526 53.9044 52.8598 53.9626 52.8779C54.0168 52.896 54.0745 52.9222 54.1287 52.958C54.1361 52.9561 54.1578 52.9503 54.1667 52.9473H54.196C54.2323 52.9474 54.266 52.9622 54.2878 52.9912C54.3096 53.0202 54.3238 53.0572 54.324 53.1006C54.324 53.1588 54.3053 53.2105 54.2654 53.2578C54.2253 53.3014 54.1847 53.327 54.1375 53.3271C54.1046 53.3271 54.053 53.3056 53.9802 53.2656C53.9075 53.222 53.8485 53.1994 53.8083 53.1992C53.7686 53.1993 53.7316 53.2109 53.7097 53.2324C53.6844 53.2542 53.6737 53.2874 53.6736 53.3271C53.6736 53.3745 53.6995 53.4328 53.7468 53.502C53.7575 53.5126 53.7646 53.524 53.7683 53.5312L54.1814 54.1123C54.1959 54.0723 54.2111 54.0205 54.2292 53.9551C54.2658 53.8132 54.3313 53.7394 54.4187 53.7393H54.5505C54.5868 53.7394 54.6169 53.7545 54.6423 53.7871C54.6676 53.8197 54.6784 53.8602 54.6785 53.9072C54.6785 53.9616 54.664 54.0027 54.6423 54.0283C54.6205 54.0538 54.5758 54.0756 54.5212 54.083C54.5103 54.1447 54.4916 54.2033 54.4734 54.2578C54.4552 54.3123 54.426 54.3639 54.3933 54.4111L54.4812 54.5166H54.5105C54.5575 54.5167 54.5944 54.5314 54.6199 54.5566C54.6452 54.5821 54.6569 54.6193 54.657 54.6699C54.657 54.7207 54.642 54.7619 54.613 54.791C54.5839 54.8201 54.5394 54.8339 54.4812 54.834H54.3455C54.3093 54.834 54.2797 54.834 54.2615 54.8232C54.2434 54.8159 54.2255 54.8013 54.2146 54.7832L54.1599 54.7139C54.087 54.7685 54.0018 54.8129 53.907 54.8457C53.8123 54.8784 53.7172 54.8925 53.6189 54.8926C53.4473 54.8926 53.3047 54.8415 53.1951 54.7432C53.0855 54.641 53.03 54.5133 53.03 54.3564C53.0301 54.2289 53.0598 54.115 53.1218 54.0166C53.184 53.9184 53.2829 53.8231 53.4177 53.7285L53.323 53.5752C53.2975 53.5351 53.279 53.4914 53.2644 53.4404C53.2498 53.3894 53.2419 53.3413 53.2419 53.2939C53.2421 53.1557 53.2904 53.0499 53.3816 52.9697C53.4765 52.8934 53.6084 52.8525 53.7761 52.8525ZM39.7214 53.2002C39.7833 53.2002 39.8277 53.2186 39.8533 53.2549C39.8788 53.2914 39.8933 53.3581 39.8933 53.4492V53.7334C39.8933 53.8027 39.8785 53.8541 39.8494 53.8906C39.8201 53.9233 39.7759 53.9414 39.7175 53.9414C39.6739 53.9413 39.6412 53.9303 39.6121 53.9121C39.5828 53.8938 39.5531 53.8535 39.5203 53.7988C39.4728 53.7224 39.4142 53.6644 39.3376 53.6279C39.2609 53.5915 39.1692 53.5732 39.0632 53.5732C38.9283 53.5733 38.8188 53.6168 38.7312 53.7041C38.6435 53.7917 38.6033 53.9051 38.6033 54.04C38.6033 54.1823 38.6475 54.2992 38.7351 54.3867C38.8227 54.4741 38.943 54.5175 39.0925 54.5176C39.2277 54.5176 39.3636 54.4819 39.4988 54.4053C39.6339 54.3287 39.7147 54.292 39.7439 54.292C39.7874 54.2921 39.8203 54.3064 39.8494 54.3389C39.8785 54.3716 39.8932 54.4121 39.8933 54.4629C39.8933 54.5724 39.8126 54.668 39.6482 54.752C39.4838 54.8358 39.2897 54.8789 39.0632 54.8789C38.7857 54.8788 38.5589 54.8023 38.3835 54.6455C38.2084 54.4887 38.1209 54.2881 38.1208 54.0439C38.1209 53.7995 38.2089 53.6019 38.3806 53.4414C38.5523 53.2811 38.7719 53.2002 39.0349 53.2002C39.1224 53.2002 39.2099 53.2116 39.2937 53.2334C39.3766 53.255 39.4598 53.2876 39.5427 53.334C39.5573 53.2911 39.5793 53.2586 39.6082 53.2334C39.6373 53.2079 39.674 53.2002 39.7214 53.2002ZM65.1951 53.2002C65.257 53.2002 65.3013 53.2187 65.3269 53.2549C65.3525 53.2914 65.3669 53.3581 65.3669 53.4492V53.7334C65.3669 53.8027 65.3522 53.8541 65.323 53.8906C65.2938 53.9233 65.2495 53.9414 65.1912 53.9414C65.1476 53.9413 65.1148 53.9303 65.0857 53.9121C65.0565 53.8938 65.0267 53.8535 64.9939 53.7988C64.9464 53.7224 64.8879 53.6643 64.8113 53.6279C64.7347 53.5915 64.6436 53.5733 64.5378 53.5732C64.4027 53.5732 64.2925 53.6166 64.2048 53.7041C64.1171 53.7917 64.0769 53.9051 64.0769 54.04C64.0769 54.1823 64.1211 54.2992 64.2087 54.3867C64.2964 54.4741 64.4166 54.5175 64.5662 54.5176C64.7014 54.5176 64.8372 54.4819 64.9724 54.4053C65.1076 54.3287 65.1883 54.292 65.2175 54.292C65.261 54.2921 65.2939 54.3064 65.323 54.3389C65.3521 54.3716 65.3668 54.4121 65.3669 54.4629C65.3669 54.5724 65.2862 54.668 65.1218 54.752C64.9576 54.8357 64.764 54.8788 64.5378 54.8789C64.2601 54.8789 64.0326 54.8024 63.8572 54.6455C63.6821 54.4887 63.5946 54.2881 63.5945 54.0439C63.5945 53.7995 63.6825 53.6019 63.8542 53.4414C64.026 53.281 64.2456 53.2002 64.5085 53.2002C64.596 53.2002 64.6835 53.2116 64.7673 53.2334C64.8502 53.255 64.9335 53.2876 65.0164 53.334C65.031 53.2911 65.053 53.2586 65.0818 53.2334C65.111 53.208 65.1477 53.2002 65.1951 53.2002ZM47.5525 53.2041C47.8006 53.2042 48.009 53.2773 48.1697 53.4229C48.334 53.5687 48.4146 53.7479 48.4148 53.9629C48.4148 54.0322 48.3998 54.076 48.3669 54.1016C48.334 54.127 48.2679 54.1387 48.1658 54.1387H47.0515C47.0807 54.2661 47.1395 54.3611 47.2234 54.4268C47.3074 54.4887 47.4248 54.5214 47.5671 54.5215C47.7095 54.5214 47.8523 54.4889 47.991 54.416C48.1292 54.347 48.2134 54.3099 48.2429 54.3096C48.2866 54.3096 48.3202 54.3248 48.3494 54.3574C48.3747 54.3901 48.3893 54.4305 48.3894 54.4775C48.3894 54.5869 48.3088 54.6785 48.1482 54.7588C47.9875 54.8353 47.7898 54.8759 47.5525 54.876C47.2749 54.8759 47.0482 54.7985 46.8728 54.6416C46.6976 54.4847 46.6092 54.2844 46.6091 54.04C46.6092 53.7957 46.6975 53.5944 46.8728 53.4375C47.0481 53.2809 47.2751 53.2042 47.5525 53.2041ZM49.6833 53.2041C49.9315 53.2042 50.1362 53.2772 50.3005 53.4229C50.4648 53.5687 50.5455 53.7479 50.5457 53.9629C50.5457 54.032 50.5305 54.076 50.4978 54.1016C50.465 54.1271 50.3958 54.1386 50.2937 54.1387H49.1746C49.2038 54.2663 49.2627 54.3611 49.3503 54.4268C49.4344 54.4888 49.5516 54.5215 49.6941 54.5215C49.8365 54.5214 49.9791 54.489 50.1179 54.416C50.2565 54.3468 50.3405 54.3097 50.3699 54.3096C50.4136 54.3096 50.4471 54.3247 50.4763 54.3574C50.5017 54.3901 50.5162 54.4304 50.5164 54.4775C50.5164 54.587 50.4358 54.6785 50.2751 54.7588C50.1144 54.8354 49.917 54.8759 49.6833 54.876C49.4056 54.876 49.1781 54.7985 49.0027 54.6416C48.8277 54.4848 48.7439 54.2842 48.7439 54.04C48.744 53.7957 48.831 53.5944 49.0027 53.4375C49.1781 53.2807 49.4057 53.2041 49.6833 53.2041ZM68.7869 53.2041C69.0353 53.2041 69.2406 53.277 69.405 53.4229C69.5693 53.5687 69.649 53.7479 69.6492 53.9629C69.6492 54.032 69.6349 54.076 69.6023 54.1016C69.5694 54.1271 69.4995 54.1387 69.3972 54.1387H68.2791C68.3083 54.2662 68.3673 54.3611 68.4548 54.4268C68.5388 54.4886 68.6555 54.5214 68.7976 54.5215C68.9401 54.5215 69.0836 54.489 69.2224 54.416C69.3608 54.3469 69.445 54.3097 69.4744 54.3096C69.5179 54.3096 69.5507 54.3249 69.5798 54.3574C69.6053 54.3901 69.6207 54.4304 69.6208 54.4775C69.6208 54.5869 69.5401 54.6786 69.3796 54.7588C69.2188 54.8354 69.0207 54.876 68.7869 54.876C68.5093 54.8759 68.2825 54.7984 68.1072 54.6416C67.9321 54.4848 67.8474 54.2843 67.8474 54.04C67.8475 53.7957 67.9355 53.5944 68.1072 53.4375C68.2825 53.2808 68.5094 53.2042 68.7869 53.2041ZM41.1501 53.2041C41.4313 53.2041 41.6582 53.2808 41.8298 53.4375C42.0015 53.5943 42.0895 53.7957 42.0896 54.04C42.0895 54.2842 42.0013 54.4884 41.8298 54.6416C41.6545 54.7985 41.4278 54.875 41.1501 54.875C40.8725 54.875 40.6458 54.7984 40.4705 54.6416C40.2953 54.4848 40.2108 54.2843 40.2107 54.04C40.2108 53.7957 40.2988 53.5943 40.4705 53.4375C40.6458 53.2808 40.8726 53.2041 41.1501 53.2041ZM62.0447 52.7217C62.1213 52.7217 62.1768 52.7368 62.2097 52.7695C62.2425 52.8024 62.2566 52.8574 62.2566 52.9375V53.3428L62.2605 53.3389H62.7869C62.8671 53.3389 62.922 53.3537 62.9548 53.3828C62.9876 53.412 63.0056 53.4598 63.0056 53.5254C63.0055 53.5908 62.9876 53.6418 62.9548 53.6709C62.922 53.7001 62.8635 53.7148 62.7869 53.7148H62.2605V54.1562C62.2605 54.2802 62.279 54.3646 62.3191 54.4121C62.3593 54.4594 62.4254 54.4814 62.5203 54.4814C62.6115 54.4814 62.7173 54.4553 62.8376 54.4043C62.9582 54.3532 63.0426 54.3281 63.0828 54.3281C63.1302 54.3281 63.171 54.3464 63.2039 54.3828C63.2365 54.4192 63.2546 54.4667 63.2546 54.5176C63.2546 54.6051 63.1742 54.6858 63.0134 54.7588C62.8528 54.8317 62.67 54.8681 62.4656 54.8682C62.345 54.8682 62.2424 54.8531 62.1511 54.8203C62.0598 54.7875 61.9904 54.7437 61.9392 54.6816C61.9027 54.6342 61.8728 54.5796 61.8582 54.5176C61.8436 54.4519 61.8328 54.3457 61.8328 54.1963V53.7188H61.6726C61.5959 53.7188 61.5366 53.704 61.5037 53.6748C61.471 53.6456 61.4568 53.5938 61.4568 53.5283C61.4569 53.4632 61.4712 53.4123 61.5037 53.3867C61.5366 53.3612 61.5923 53.3428 61.6726 53.3428H61.8328V52.9375C61.8328 52.8573 61.8477 52.8024 61.8806 52.7695C61.9135 52.7368 61.9682 52.7217 62.0447 52.7217ZM43.7302 52.5684C43.8762 52.5684 43.9821 52.5873 44.0515 52.6201C44.1207 52.6529 44.1539 52.7075 44.1541 52.7803C44.1541 52.8277 44.1393 52.8683 44.1101 52.8975C44.0809 52.9266 44.0371 52.9413 43.9861 52.9414C43.9496 52.9414 43.8943 52.9377 43.825 52.9268C43.7556 52.9158 43.7077 52.9121 43.6785 52.9121C43.5728 52.9122 43.4957 52.9371 43.4519 52.9844C43.4081 53.0318 43.3865 53.1162 43.3865 53.2363V53.291H43.7595C43.8396 53.2911 43.8946 53.3059 43.9275 53.335C43.9603 53.3641 43.9782 53.4122 43.9783 53.4814C43.9782 53.5504 43.9601 53.5942 43.9275 53.627C43.8947 53.6561 43.8361 53.6708 43.7595 53.6709H43.3865V54.459H43.7302C43.8104 54.459 43.8653 54.4738 43.8982 54.5029C43.931 54.5321 43.9489 54.5799 43.949 54.6455C43.9489 54.7109 43.9308 54.7618 43.8982 54.791C43.8654 54.8202 43.8068 54.8349 43.7302 54.835H42.78C42.6997 54.835 42.645 54.8202 42.6121 54.791C42.5792 54.7618 42.5603 54.7111 42.5603 54.6455C42.5603 54.5799 42.5753 54.5321 42.6082 54.5029C42.6411 54.4738 42.6998 54.459 42.78 54.459H42.9626V53.6709H42.78C42.6997 53.6709 42.645 53.6561 42.6121 53.627C42.5793 53.5978 42.5603 53.5506 42.5603 53.4814C42.5603 53.4122 42.5753 53.3641 42.6082 53.335C42.6411 53.3059 42.6998 53.291 42.78 53.291H42.9626V53.1934C42.9627 52.9672 43.0215 52.8058 43.1384 52.7109C43.2554 52.6163 43.4529 52.5684 43.7302 52.5684ZM45.8572 52.5684C46.003 52.5684 46.1091 52.5873 46.1785 52.6201C46.2476 52.6529 46.2809 52.7076 46.281 52.7803C46.281 52.8277 46.266 52.8683 46.2332 52.8975C46.204 52.9265 46.1601 52.9413 46.1091 52.9414C46.0726 52.9414 46.0174 52.9377 45.948 52.9268C45.8787 52.9158 45.8307 52.9121 45.8015 52.9121C45.6959 52.9122 45.6188 52.9371 45.575 52.9844C45.5312 53.0318 45.5096 53.1162 45.5095 53.2363V53.291H45.8826C45.9627 53.2911 46.0177 53.3059 46.0505 53.335C46.0834 53.3641 46.1013 53.4122 46.1013 53.4814C46.1013 53.5504 46.0832 53.5942 46.0505 53.627C46.0177 53.6561 45.9592 53.6709 45.8826 53.6709H45.5095V54.459H45.8533C45.9335 54.459 45.9884 54.4738 46.0212 54.5029C46.0541 54.5321 46.072 54.5799 46.072 54.6455C46.072 54.7109 46.0539 54.7618 46.0212 54.791C45.9884 54.8202 45.9299 54.8349 45.8533 54.835H44.9031C44.8227 54.835 44.768 54.8202 44.7351 54.791C44.7023 54.7618 44.6834 54.711 44.6833 54.6455C44.6834 54.5799 44.6983 54.5321 44.7312 54.5029C44.7641 54.4738 44.8228 54.459 44.9031 54.459H45.0857V53.6709H44.9031C44.8227 53.6709 44.768 53.6561 44.7351 53.627C44.7023 53.5978 44.6834 53.5506 44.6833 53.4814C44.6834 53.4122 44.6983 53.3641 44.7312 53.335C44.7641 53.3059 44.8229 53.291 44.9031 53.291H45.0857V53.1934C45.0857 52.9672 45.1446 52.8058 45.2615 52.7109C45.3785 52.6163 45.5762 52.5684 45.8572 52.5684ZM66.2478 52.583C66.2875 52.5831 66.3133 52.5904 66.3279 52.6084C66.3425 52.6266 66.3493 52.6565 66.3494 52.7002V53.4102C66.3894 53.3435 66.4464 53.2904 66.5173 53.2549C66.5904 53.2184 66.6787 53.2002 66.781 53.2002C66.9635 53.2002 67.1023 53.2547 67.2009 53.3604C67.2995 53.4661 67.3473 53.6196 67.3474 53.8164V54.459H67.3767C67.4387 54.459 67.4825 54.4741 67.5154 54.5068C67.5481 54.5396 67.5632 54.5837 67.5632 54.6455C67.5632 54.7146 67.5481 54.7619 67.5154 54.791C67.4825 54.8202 67.4277 54.8349 67.3474 54.835H66.9197C66.8431 54.8349 66.7885 54.8201 66.7556 54.791C66.7228 54.7619 66.7078 54.711 66.7078 54.6455C66.7078 54.5835 66.7228 54.536 66.7556 54.5068C66.7885 54.4777 66.8322 54.459 66.8943 54.459H66.9236V53.9551C66.9235 53.8094 66.9054 53.7068 66.8689 53.6484C66.8324 53.5903 66.7698 53.5645 66.6824 53.5645C66.5947 53.5645 66.5108 53.6019 66.4451 53.6748C66.3794 53.7477 66.3465 53.8422 66.3464 53.9551V54.459H66.3757C66.4375 54.4591 66.4845 54.4742 66.5173 54.5068C66.5502 54.5396 66.5652 54.5836 66.5652 54.6455C66.5651 54.7145 66.5506 54.7618 66.5144 54.791C66.4779 54.8202 66.4261 54.835 66.3494 54.835H65.9226C65.8422 54.835 65.7866 54.8202 65.7537 54.791C65.7211 54.7618 65.7068 54.7108 65.7068 54.6455C65.7068 54.5838 65.7211 54.5396 65.7537 54.5068C65.7865 54.4741 65.8313 54.459 65.8933 54.459H65.9226V52.9629H65.8933C65.8312 52.9629 65.7836 52.9478 65.7507 52.915C65.718 52.8823 65.703 52.8352 65.7029 52.7734C65.7029 52.7043 65.7209 52.6561 65.7537 52.627C65.7866 52.5978 65.846 52.583 65.9226 52.583H66.2478ZM71.0457 53.2002C71.2282 53.2003 71.3674 53.2552 71.4587 53.3682C71.55 53.4812 71.5934 53.6493 71.5935 53.8789V54.4561L71.5974 54.4521H71.6189C71.6846 54.4522 71.7325 54.4672 71.7654 54.5C71.798 54.5328 71.8132 54.58 71.8132 54.6416C71.8132 54.7109 71.7982 54.7589 71.7654 54.7881C71.7325 54.8172 71.6776 54.832 71.5974 54.832H71.1736C71.0971 54.832 71.0422 54.8171 71.0056 54.7881C70.9728 54.7589 70.9539 54.7072 70.9539 54.6416C70.9539 54.5799 70.969 54.5328 71.0017 54.5C71.0346 54.4672 71.0825 54.4521 71.1482 54.4521H71.1697V53.9521C71.1697 53.8136 71.1512 53.7146 71.1111 53.6562C71.0709 53.5982 71.0087 53.5694 70.9177 53.5693C70.8228 53.5693 70.7418 53.6019 70.6833 53.6748C70.6213 53.7441 70.5926 53.8355 70.5925 53.9521V54.4521H70.614C70.6797 54.4522 70.7276 54.4672 70.7605 54.5C70.7931 54.5328 70.8083 54.58 70.8083 54.6416C70.8083 54.7109 70.7894 54.7589 70.7566 54.7881C70.7237 54.8171 70.669 54.832 70.5925 54.832H70.1648C70.0884 54.832 70.0337 54.817 70.0007 54.7881C69.9679 54.7589 69.949 54.7072 69.949 54.6416C69.949 54.5799 69.9641 54.5328 69.9968 54.5C70.0296 54.4673 70.0769 54.4522 70.1423 54.4521H70.1648V53.6162H70.1355C70.0734 53.6162 70.0258 53.6021 69.9929 53.5693C69.9601 53.5365 69.9451 53.4925 69.9451 53.4307C69.9451 53.3614 69.9603 53.3133 69.9968 53.2842C70.0298 53.2552 70.0883 53.2412 70.1648 53.2412H70.4568C70.4895 53.2412 70.5118 53.2479 70.53 53.2588C70.5482 53.2697 70.5553 53.2882 70.5554 53.3135V53.4482C70.6102 53.3645 70.6766 53.3028 70.7605 53.2627C70.8409 53.219 70.9398 53.2002 71.0457 53.2002ZM57.7664 52.5762C57.8062 52.5762 57.8319 52.5835 57.8464 52.6016C57.8609 52.6197 57.8679 52.649 57.8679 52.6924V53.8906L58.2263 53.5684C58.1899 53.5574 58.1641 53.5433 58.1531 53.5215C58.1385 53.5032 58.1345 53.4698 58.1345 53.4297C58.1346 53.3606 58.1496 53.3094 58.1824 53.2803C58.2116 53.2512 58.27 53.2364 58.3464 53.2363H58.7273C58.8038 53.2364 58.8624 53.2512 58.8953 53.2803C58.9281 53.3095 58.9421 53.3576 58.9421 53.4268C58.9421 53.4775 58.931 53.5143 58.9128 53.5361C58.8944 53.5578 58.8546 53.576 58.7966 53.5869C58.742 53.5978 58.6942 53.6159 58.6541 53.6377C58.6102 53.6632 58.5623 53.7041 58.5076 53.7588L58.3875 53.8857L58.8435 54.4521H58.8875C58.9531 54.4522 59.005 54.4662 59.0378 54.499C59.0706 54.5282 59.0885 54.5759 59.0886 54.6377C59.0886 54.7069 59.0706 54.755 59.0378 54.7842C59.005 54.8133 58.9464 54.8281 58.8699 54.8281H58.446C58.373 54.8281 58.3178 54.8165 58.2849 54.791C58.2521 54.7655 58.2332 54.7255 58.2332 54.6709C58.2332 54.6309 58.2443 54.5978 58.2625 54.5723C58.2807 54.5468 58.3144 54.528 58.3582 54.5098L58.0769 54.167L57.865 54.3604V54.7148C57.865 54.7584 57.857 54.7874 57.8425 54.8057C57.8279 54.8239 57.7989 54.831 57.7625 54.8311H57.4519C57.3752 54.8311 57.3198 54.8163 57.2869 54.7871C57.2543 54.7578 57.24 54.707 57.24 54.6416C57.24 54.5797 57.2541 54.5357 57.2869 54.5029C57.3197 54.4702 57.3645 54.4551 57.4265 54.4551H57.4548V52.959H57.4265C57.3644 52.959 57.3197 52.941 57.2869 52.9082C57.2541 52.8754 57.24 52.8275 57.24 52.7656C57.24 52.7002 57.2544 52.6493 57.2908 52.6201C57.3236 52.591 57.3784 52.5762 57.4548 52.5762H57.7664ZM60.4011 53.2363C60.4338 53.2364 60.4598 53.244 60.4744 53.2549C60.4888 53.2659 60.4997 53.2879 60.4998 53.3096V54.4551H60.8718C60.9521 54.4551 61.0079 54.4699 61.0408 54.499C61.0736 54.5282 61.0915 54.5761 61.0916 54.6416C61.0916 54.7072 61.0736 54.7589 61.0408 54.7881C61.0079 54.8173 60.9485 54.831 60.8718 54.8311H59.7029C59.6265 54.8311 59.5679 54.817 59.5349 54.7881C59.5021 54.7589 59.4832 54.7072 59.4832 54.6416C59.4832 54.576 59.4981 54.5282 59.531 54.499C59.564 54.47 59.6227 54.4551 59.7029 54.4551H60.0759V53.6162H59.8816C59.805 53.6162 59.7504 53.6014 59.7175 53.5723C59.6847 53.5431 59.6658 53.4958 59.6658 53.4268C59.6658 53.3575 59.6808 53.3094 59.7136 53.2803C59.7465 53.2512 59.8014 53.2364 59.8816 53.2363H60.4011ZM53.6228 54.0029C53.5647 54.0392 53.5241 54.0793 53.4949 54.1191C53.4657 54.1628 53.451 54.2111 53.4509 54.2656C53.451 54.3383 53.4763 54.4002 53.5271 54.4512C53.5782 54.4985 53.6407 54.5244 53.7136 54.5244C53.7499 54.5243 53.787 54.5174 53.8269 54.5029C53.8669 54.4883 53.9043 54.4663 53.948 54.4336L53.6228 54.0029ZM41.1482 53.5654C41.0141 53.5659 40.9053 53.6103 40.8181 53.6973C40.7305 53.7847 40.6864 53.8975 40.6863 54.0322C40.6863 54.1672 40.7305 54.2848 40.8181 54.376C40.9057 54.4669 41.0152 54.5107 41.1501 54.5107C41.2852 54.5107 41.3955 54.4671 41.4832 54.376C41.5707 54.2848 41.615 54.1708 41.615 54.0322C41.6149 53.894 41.5705 53.7847 41.4832 53.6973C41.3958 53.6101 41.2862 53.5658 41.1482 53.5654ZM35.4939 53.8428C35.5227 53.8428 35.5409 53.8499 35.5554 53.8643C35.57 53.8788 35.5779 53.8977 35.5779 53.9268V54.1416C35.5779 54.1669 35.5704 54.1889 35.5525 54.207C35.5343 54.2252 35.5157 54.2362 35.4939 54.2363H34.0613C34.0394 54.2363 34.0202 54.2292 34.0056 54.2109C33.9912 54.1928 33.988 54.1706 33.988 54.1416V53.9268C33.9881 53.9014 33.995 53.8827 34.0095 53.8682C34.0241 53.8537 34.0425 53.8458 34.0642 53.8457L34.0613 53.8428H35.4939ZM75.8289 53.8428C75.858 53.8428 75.8768 53.8497 75.8914 53.8643C75.9059 53.8788 75.9128 53.8977 75.9128 53.9268V54.1416C75.9128 54.167 75.9056 54.1888 75.8875 54.207C75.8692 54.2253 75.8508 54.2363 75.8289 54.2363H74.3962C74.3744 54.2363 74.3561 54.2291 74.3416 54.2109C74.327 54.1927 74.323 54.1707 74.323 54.1416V53.9268C74.323 53.9013 74.3309 53.8827 74.3455 53.8682C74.36 53.8537 74.3783 53.8457 74.4001 53.8457L74.3962 53.8428H75.8289ZM47.5125 53.5371C47.3812 53.5372 47.2854 53.5656 47.2087 53.6201C47.1322 53.6748 47.0769 53.7592 47.0476 53.8721H47.9802C47.9619 53.7665 47.9101 53.6823 47.8298 53.624C47.7496 53.566 47.6435 53.5372 47.5125 53.5371ZM49.6355 53.5361C49.504 53.5361 49.4085 53.5654 49.3318 53.6201C49.2552 53.6748 49.1999 53.7592 49.1707 53.8721H50.1033C50.085 53.7664 50.0332 53.6814 49.9529 53.623C49.8726 53.565 49.7666 53.5362 49.6355 53.5361ZM68.7429 53.5371C68.6119 53.5372 68.5168 53.5657 68.4402 53.6201C68.3636 53.6748 68.3083 53.7592 68.2791 53.8721H69.2107C69.1923 53.7666 69.1415 53.6823 69.0613 53.624C68.9809 53.5658 68.8743 53.5371 68.7429 53.5371ZM60.2507 52.4629C60.3347 52.4629 60.3894 52.478 60.4187 52.5107C60.4479 52.5436 60.4587 52.62 60.4587 52.7402C60.4587 52.8602 60.448 52.9296 60.4226 52.959C60.397 52.9882 60.3382 53.0029 60.2468 53.0029C60.1557 53.0029 60.1005 52.9884 60.075 52.9629C60.0496 52.9372 60.0349 52.8819 60.0349 52.8057C60.035 52.6605 60.0496 52.5657 60.075 52.5254C60.1006 52.4853 60.1595 52.4629 60.2507 52.4629ZM33.5525 41.377C33.6438 41.377 33.6911 41.4316 33.6912 41.541V48.2451C34.104 48.2086 34.5137 48.1754 34.9265 48.1426C35.0178 48.1353 35.0652 48.1872 35.0652 48.293L35.0623 48.2959V49.3291C35.0622 49.4385 35.0139 49.4966 34.9226 49.5039C34.4734 49.5477 34.0271 49.5922 33.5779 49.6396H33.5486C33.2529 49.6688 32.9605 49.7016 32.6648 49.7344C32.5737 49.7452 32.5262 49.6939 32.5261 49.5811V41.5449C32.5261 41.4319 32.5736 41.3771 32.6648 41.377H33.5525ZM77.0896 41.377C77.1843 41.3771 77.2283 41.432 77.2283 41.5449V42.6104C77.2283 42.7233 77.1807 42.7779 77.0896 42.7744C76.8523 42.7708 76.6179 42.7671 76.3806 42.7598V49.4932C76.3806 49.6026 76.3323 49.6535 76.241 49.6426C75.9453 49.6134 75.6492 49.5809 75.3572 49.5518C75.3245 49.5516 75.2915 49.5296 75.2625 49.4971C75.2333 49.4643 75.2185 49.4234 75.2185 49.376C75.2185 47.1647 75.2183 44.9534 75.2146 42.7422C74.9808 42.7385 74.7501 42.7341 74.5164 42.7305C74.4217 42.7303 74.3777 42.6757 74.3777 42.5664V41.5371C74.3778 41.4281 74.4254 41.3772 74.5164 41.377H77.0896ZM71.3162 41.373C71.407 41.3733 71.4617 41.4285 71.4763 41.5303C71.7285 44.0374 71.981 46.5631 72.2332 49.1104L72.2341 49.1758C72.2245 49.2341 72.1829 49.2612 72.1121 49.2559C71.8092 49.2303 71.5087 49.2045 71.2058 49.1826C71.1187 49.1751 71.071 49.1209 71.0564 49.0156C71.0308 48.6144 71.0019 48.2089 70.9763 47.8076C70.7719 47.793 70.5625 47.7822 70.3582 47.7676C70.3326 48.1651 70.3075 48.5595 70.282 48.957C70.2674 49.0589 70.2189 49.1067 70.1316 49.0996C69.8286 49.0777 69.5283 49.0551 69.2253 49.0332C69.1345 49.0257 69.0944 48.9749 69.1052 48.873C69.35 46.4426 69.5948 43.9933 69.8396 41.5264C69.8543 41.4246 69.906 41.3732 70.0007 41.373H71.3162ZM38.6873 41.377C38.7783 41.3771 38.8259 41.4285 38.8259 41.5342C38.8259 43.6178 38.8188 45.7015 38.8152 47.7852C38.8152 47.8581 38.8371 47.9206 38.8845 47.9717C38.9319 48.0188 38.987 48.0407 39.0525 48.0371C39.0779 48.0371 39.1072 48.0368 39.1326 48.0332C39.1981 48.0296 39.2567 48.0007 39.3005 47.9463C39.3479 47.8917 39.3698 47.8257 39.3699 47.7529C39.3699 45.6802 39.3779 43.6069 39.3816 41.5342C39.3816 41.4321 39.4291 41.381 39.5203 41.3809H40.408C40.4993 41.3809 40.5466 41.432 40.5466 41.5342L40.5544 41.5264C40.5544 43.5956 40.5464 45.6649 40.5427 47.7305C40.5427 47.9202 40.5099 48.1029 40.4441 48.2744C40.3784 48.4457 40.2877 48.5992 40.1746 48.7305C40.0613 48.8617 39.9295 48.9718 39.7761 49.0557C39.6227 49.1395 39.4612 49.1902 39.2859 49.2012C39.1582 49.2121 39.0337 49.2195 38.906 49.2305C38.7345 49.245 38.57 49.2192 38.4167 49.1572C38.2635 49.0952 38.1315 49.0043 38.0183 48.8877C37.9051 48.7709 37.8175 48.6278 37.7517 48.46C37.6861 48.2923 37.6531 48.1101 37.6531 47.917C37.6531 45.7895 37.6599 43.6617 37.6599 41.5342C37.6599 41.4286 37.7076 41.3772 37.7986 41.377H38.6873ZM44.8699 41.3066C45.0414 41.3067 45.2058 41.3439 45.3591 41.4131L45.3708 41.3984C45.5239 41.4677 45.6553 41.5626 45.7683 41.6826C45.8816 41.803 45.9701 41.942 46.0359 42.1025C46.1016 42.2631 46.1345 42.4347 46.1345 42.6172V43.457C46.1344 43.5553 46.0902 43.6173 46.0027 43.6465C45.6995 43.7012 45.3959 43.7519 45.0964 43.8066C45.009 43.8357 44.9647 43.8033 44.9646 43.7051V42.6797C44.9646 42.6104 44.9428 42.5474 44.8953 42.5C44.8479 42.4528 44.7929 42.4277 44.7273 42.4277H44.6472C44.5816 42.4278 44.5227 42.453 44.4753 42.5039C44.4279 42.555 44.406 42.6136 44.406 42.6865C44.406 44.2849 44.4018 45.8833 44.3982 47.4854C44.3982 47.5545 44.4204 47.6167 44.4675 47.6641C44.5148 47.7113 44.5701 47.7339 44.6355 47.7305H44.7166C44.7822 47.7304 44.8407 47.7003 44.8845 47.6494C44.9317 47.5985 44.9538 47.5368 44.9539 47.4678V45.9854C44.9539 45.8871 44.9983 45.8506 45.0857 45.876C45.3888 45.9088 45.6925 45.942 45.9919 45.9785C46.0793 46.0041 46.1234 46.0659 46.1199 46.1641V47.4785C46.1198 47.6608 46.0866 47.8321 46.0173 47.9961C45.9516 48.1602 45.86 48.3028 45.7468 48.4268C45.6336 48.5508 45.4981 48.6539 45.3484 48.7305C45.1952 48.8069 45.0342 48.8501 44.8591 48.8574C44.7315 48.8647 44.6069 48.8687 44.4792 48.876C44.3076 48.8832 44.1424 48.8579 43.989 48.7959C43.8357 48.7339 43.7038 48.6423 43.5906 48.5293C43.4775 48.4162 43.3894 48.2776 43.3201 48.1172C43.2543 47.9566 43.2214 47.7847 43.2214 47.5986C43.2214 45.9491 43.2292 44.3028 43.2292 42.6533C43.2293 42.4674 43.2624 42.292 43.3318 42.1279C43.3975 41.964 43.4883 41.8214 43.6013 41.7012C43.7144 41.5809 43.8465 41.4824 43.9998 41.4131C44.1531 41.3438 44.3147 41.3067 44.49 41.3066H44.8699ZM65.3406 41.2891C65.5122 41.2891 65.6774 41.3253 65.8308 41.3945L65.8191 41.4023C65.9724 41.4753 66.1043 41.5702 66.2175 41.6904C66.3307 41.8108 66.4223 41.957 66.488 42.1211C66.5538 42.2853 66.5869 42.4604 66.5906 42.6465V43.5039C66.5906 43.6024 66.5467 43.6688 66.4626 43.6943C66.1595 43.7381 65.8596 43.7814 65.5564 43.8252C65.4689 43.8506 65.4246 43.8179 65.4246 43.7158V42.6865C65.4245 42.6173 65.399 42.5549 65.3552 42.5039C65.3078 42.4532 65.2528 42.4277 65.1873 42.4277H65.1072C65.0415 42.4278 64.983 42.4536 64.9392 42.501C64.8918 42.5484 64.8699 42.6104 64.8699 42.6797C64.8699 44.2744 64.8731 45.8691 64.8767 47.4639C64.8767 47.5331 64.8987 47.5954 64.946 47.6465C64.9935 47.6975 65.0486 47.7229 65.1179 47.7266H65.198C65.2635 47.7266 65.3222 47.7082 65.366 47.6611C65.4134 47.6137 65.4362 47.5553 65.4363 47.4824V45.9971C65.4363 45.8987 65.4798 45.8657 65.5671 45.8945C65.8702 45.9456 66.1739 46.0007 66.4734 46.0518C66.5611 46.0846 66.6052 46.1505 66.6052 46.249V47.5879C66.6052 47.774 66.5724 47.9459 66.5066 48.1064C66.4409 48.2668 66.3495 48.4055 66.24 48.5186C66.1268 48.6352 65.9949 48.7231 65.8416 48.7852C65.6883 48.8471 65.5274 48.8761 65.3523 48.8652C65.2245 48.8579 65.0992 48.8503 64.9714 48.8467C64.8 48.8393 64.6354 48.7962 64.4822 48.7197C64.3288 48.6431 64.197 48.54 64.0837 48.416C63.9706 48.292 63.8789 48.1494 63.8132 47.9854C63.7476 47.8213 63.7144 47.65 63.7107 47.4678C63.7107 45.8512 63.7075 44.2308 63.7039 42.6143C63.7039 42.4319 63.7368 42.2601 63.8025 42.0996C63.8682 41.9391 63.9598 41.8001 64.073 41.6797C64.1862 41.5593 64.3181 41.4639 64.4714 41.3945C64.6247 41.3254 64.7856 41.2891 64.9607 41.2891H65.3406ZM49.8103 41.3662C49.9015 41.3662 49.9489 41.4134 49.949 41.5117V43.7305C50.2559 42.9825 50.563 42.2345 50.8699 41.4902C50.9027 41.4064 50.9655 41.3663 51.0603 41.3662H52.0574C52.0974 41.3662 52.1238 41.3805 52.1384 41.4131H52.1345C52.1491 41.4422 52.149 41.4754 52.1345 41.5117C51.6887 42.5226 51.2432 43.5343 50.7937 44.5488C51.2321 45.8368 51.6707 47.1248 52.1091 48.4092C52.1237 48.442 52.1193 48.475 52.0974 48.5078C52.0791 48.5405 52.0467 48.5556 52.0066 48.5557C51.678 48.5593 51.3489 48.5667 51.0203 48.5703C50.9802 48.5703 50.9427 48.5589 50.9099 48.5371C50.8773 48.5153 50.8551 48.4855 50.8406 48.4492C50.5995 47.6794 50.3551 46.9053 50.114 46.1318C50.0556 46.2777 50.0006 46.4242 49.9421 46.5664V48.4463C49.942 48.5408 49.8944 48.5919 49.8035 48.5957C49.5076 48.603 49.2107 48.6101 48.9148 48.6211C48.8202 48.6209 48.7761 48.5769 48.7761 48.4785L48.7839 41.5117C48.784 41.4171 48.8315 41.3663 48.9226 41.3662H49.8103ZM55.6208 41.3662C55.712 41.3663 55.7664 41.414 55.781 41.5088C55.9125 42.3699 56.0479 43.2314 56.1794 44.0889H56.2195C56.351 43.2278 56.4864 42.3699 56.6179 41.5088C56.6325 41.414 56.6842 41.3663 56.7791 41.3662H57.8347C57.8747 41.3662 57.9046 41.3805 57.9265 41.4131H57.9187C57.9369 41.4422 57.9412 41.4754 57.9304 41.5117C57.5504 42.9277 57.1659 44.3445 56.7859 45.7568V48.4023C56.7858 48.4971 56.7385 48.5449 56.6472 48.5449C56.3479 48.5449 56.0481 48.5408 55.7488 48.5371C55.654 48.537 55.6101 48.4893 55.6101 48.3945V45.7529C55.2264 44.3406 54.8463 42.924 54.4626 41.5117C54.4482 41.479 54.4516 41.4458 54.4734 41.4131C54.4916 41.3843 54.5245 41.3664 54.5642 41.3662H55.6208ZM70.4314 46.5332C70.5846 46.5405 70.7391 46.5474 70.8923 46.5547C70.8266 45.5477 70.7638 44.5405 70.698 43.5371H70.6179C70.5558 44.5369 70.4935 45.537 70.4314 46.5332ZM67.6433 11.7109L67.3464 14.8457L68.9802 19.8926C68.9802 19.8926 69.1114 20.3708 68.9802 20.8486C68.9717 20.8539 66.3511 22.466 65.3806 22.6445L60.0642 34.7207L62.574 37.5381L57.0203 39.8154L49.1453 37.8701L43.8943 31.3223L44.9646 25.1045L51.1589 22.0527C51.1312 22.0432 50.243 21.738 49.6531 21.4111C49.6638 21.3444 50.4378 16.5359 50.8152 15.6045L50.8074 15.6006C50.7471 15.5154 47.4041 10.7731 48.7947 9.59766C48.8408 9.62485 53.8899 12.5999 55.9783 12.6006L61.3982 12.0898C61.4576 12.0584 67.4099 8.90498 68.074 8.8418L67.6433 11.7109ZM56.3582 33.5996C56.3568 33.6052 55.6624 36.4515 53.9031 38.3438L57.0417 39.0957L61.4158 37.2744L59.6697 35.2891L56.3582 33.5996ZM45.4324 26.5605L44.6287 31.1328L49.5466 37.249L52.8396 38.0742C52.7777 38.0002 47.8254 32.0727 45.4324 26.5566V26.5605ZM46.2878 26.7715C49.0284 32.4376 53.4209 37.6727 53.4792 37.7422C54.9993 36.2021 55.7078 33.249 55.7078 33.249C50.8846 30.2275 46.2908 26.7715 46.2908 26.7715H46.2878ZM55.1638 32.0342L56.2888 32.7822L58.2585 33.8008L56.8777 30.1367L55.1638 32.0342ZM59.0154 33.8008L59.1902 27.9248L55.2253 22.8418H54.8933L59.0154 33.8008ZM64.533 22.8926C64.5165 22.8964 64.0569 23.0019 63.8201 23.0234L59.8884 27.9033L59.7166 33.8008L64.5369 22.8926H64.533ZM71.3123 29.125C71.637 29.1251 71.8938 29.2497 72.0837 29.501C72.2736 29.7525 72.3687 30.0927 72.3689 30.5264C72.3689 30.9601 72.2733 31.3 72.0837 31.5518C71.8938 31.8035 71.6336 31.9276 71.3123 31.9277C70.991 31.9276 70.7348 31.8034 70.5486 31.5518C70.359 31.3 70.2673 30.9565 70.2673 30.5264C70.2675 30.0963 70.3624 29.7525 70.5486 29.501C70.7348 29.2498 70.9912 29.1251 71.3123 29.125ZM77.0085 29.125C77.154 29.125 77.2607 29.1368 77.323 29.1621C77.3846 29.1875 77.4173 29.2243 77.4177 29.2783C77.4177 29.4061 77.3189 29.4754 77.1179 29.4863C77.0344 29.4936 76.968 29.4976 76.9207 29.5049C76.7019 29.5305 76.5256 29.6106 76.3943 29.749C76.2638 29.8866 76.1697 30.0899 76.1111 30.3604C76.1801 30.2847 76.2641 30.2234 76.3582 30.1836C76.4528 30.1436 76.5556 30.1222 76.6648 30.1221C76.891 30.1221 77.082 30.2099 77.239 30.3809C77.3922 30.5522 77.4722 30.7684 77.4724 31.0234C77.4723 31.2933 77.3852 31.509 77.2136 31.6768C77.0383 31.8409 76.8078 31.9247 76.5193 31.9248C76.2309 31.9246 75.9858 31.8145 75.8142 31.5957C75.6429 31.3768 75.5544 31.0773 75.5544 30.6982C75.5546 30.2242 75.6863 29.8438 75.9529 29.5557C76.2194 29.2678 76.5707 29.1252 77.0085 29.125ZM68.699 29.1299C68.9653 29.1299 69.1777 29.2028 69.3347 29.3447C69.4917 29.487 69.569 29.6815 69.5691 29.9258C69.569 30.0861 69.5282 30.2432 69.448 30.3926C69.3676 30.5421 69.24 30.6883 69.072 30.8379L68.4412 31.3848H69.1775V31.3701C69.1776 31.2977 69.1961 31.2463 69.2361 31.21C69.2762 31.1736 69.3315 31.1592 69.408 31.1592C69.4698 31.1592 69.5177 31.1774 69.5505 31.21C69.5833 31.2426 69.6011 31.2938 69.6013 31.3555V31.3848L69.5837 31.7139C69.5837 31.7792 69.569 31.8196 69.5544 31.8379C69.5362 31.8561 69.5062 31.8633 69.4587 31.8633H67.9353C67.8551 31.8632 67.7887 31.8453 67.7449 31.8125C67.7014 31.7761 67.6794 31.7275 67.6794 31.6621C67.6796 31.6078 67.6942 31.5566 67.7195 31.5059C67.7487 31.4548 67.7929 31.3991 67.8513 31.3408L68.7136 30.5088C68.8084 30.4177 68.8778 30.3303 68.9216 30.2393C68.969 30.1481 68.991 30.0599 68.991 29.9688C68.9908 29.8415 68.9621 29.7465 68.9001 29.6846C68.8381 29.6228 68.7464 29.5928 68.6189 29.5928C68.546 29.5928 68.48 29.6042 68.4216 29.626C68.3633 29.6478 68.319 29.6777 68.2898 29.7178C68.2716 29.736 68.2527 29.7687 68.2273 29.8086C68.1579 29.9179 68.085 29.9727 68.0046 29.9727C67.9355 29.9726 67.8809 29.9505 67.8445 29.9033C67.8082 29.8559 67.7888 29.7863 67.7888 29.6953C67.7889 29.6043 67.8001 29.5307 67.822 29.4834C67.8441 29.4362 67.8922 29.392 67.9578 29.3447C68.0672 29.2719 68.1841 29.2171 68.3044 29.1807C68.4249 29.1442 68.5603 29.1299 68.699 29.1299ZM36.2644 29.2168C36.3592 29.2168 36.4545 29.2279 36.5457 29.2461C36.6367 29.2671 36.7211 29.2957 36.8083 29.3301C36.8294 29.29 36.8541 29.2599 36.8816 29.2461C36.9107 29.2315 36.9475 29.2208 37.0056 29.2207C37.0856 29.2207 37.1407 29.2358 37.1628 29.2646C37.1846 29.2938 37.1956 29.3558 37.2029 29.4463L37.2107 29.8516V29.877C37.2107 29.9608 37.1918 30.0196 37.1589 30.0488C37.126 30.0852 37.0712 30.0996 36.991 30.0996C36.8926 30.0994 36.8157 30.045 36.7683 29.9395C36.7611 29.9252 36.7534 29.9106 36.7498 29.9033C36.706 29.8161 36.6478 29.7498 36.575 29.7061C36.502 29.6624 36.4134 29.6396 36.3113 29.6396C36.1837 29.6397 36.0812 29.6693 36.0046 29.7275C35.9244 29.7858 35.8876 29.8593 35.8875 29.9502C35.8875 30.0778 36.0669 30.1839 36.4246 30.2568C36.4865 30.2677 36.531 30.2788 36.571 30.2861C36.8408 30.3444 37.0347 30.4357 37.1589 30.5557C37.2758 30.676 37.3424 30.8449 37.3425 31.0527C37.3425 31.3117 37.2542 31.5127 37.0789 31.6514C36.9035 31.7899 36.6514 31.8593 36.3191 31.8594C36.1913 31.8594 36.0739 31.8512 35.9753 31.833C35.8733 31.8148 35.7781 31.7896 35.6833 31.7568C35.6614 31.7933 35.6315 31.8187 35.6023 31.8369C35.5731 31.8514 35.5331 31.8594 35.4822 31.8594C35.391 31.8593 35.3322 31.8441 35.2957 31.8076C35.2595 31.7746 35.2407 31.7124 35.2371 31.6289L35.2302 31.1328V31.1113C35.2303 31.0203 35.2484 30.9534 35.2849 30.917C35.3178 30.8809 35.3802 30.8624 35.4636 30.8623C35.5548 30.8623 35.632 30.9286 35.6941 31.0596C35.7085 31.092 35.72 31.1181 35.7273 31.1328C35.782 31.242 35.8585 31.3229 35.9568 31.374C36.0554 31.4287 36.1767 31.4541 36.3191 31.4541C36.4503 31.4541 36.5488 31.4285 36.6218 31.374C36.6949 31.3193 36.7322 31.2459 36.7322 31.1475C36.7318 30.9981 36.5705 30.8849 36.2419 30.8047C36.1472 30.7828 36.0662 30.7643 36.0115 30.7461C35.7379 30.6731 35.5509 30.585 35.4451 30.4756C35.3432 30.3698 35.2888 30.2198 35.2888 30.0342C35.289 29.7936 35.3797 29.5958 35.5623 29.4463C35.7449 29.2931 35.9796 29.2169 36.2644 29.2168ZM74.071 29.125C74.1254 29.125 74.1656 29.1405 74.1912 29.1729C74.2167 29.202 74.2282 29.2573 74.2283 29.3301V31.417L74.2351 31.4102H74.5789C74.6732 31.4102 74.7427 31.4285 74.783 31.4609C74.8267 31.4974 74.8454 31.5531 74.8455 31.6367C74.8454 31.7203 74.823 31.7712 74.783 31.8076C74.7427 31.844 74.6735 31.8584 74.575 31.8584H73.325C73.2267 31.8583 73.157 31.8404 73.1169 31.8076C73.0772 31.7712 73.0555 31.7164 73.0554 31.6367C73.0555 31.5567 73.0768 31.4974 73.1169 31.4609C73.1571 31.4245 73.2272 31.4102 73.322 31.4102H73.7166V29.625L73.4792 29.6875C73.4428 29.6948 73.413 29.7024 73.3875 29.7061C73.3623 29.7096 73.3475 29.7128 73.3367 29.7129C73.2784 29.7128 73.2338 29.6946 73.2009 29.6582C73.1684 29.6217 73.1541 29.57 73.1541 29.501C73.1542 29.4503 73.1721 29.4096 73.2048 29.377C73.2377 29.3443 73.2962 29.319 73.3689 29.3008L73.8953 29.1582C73.939 29.1473 73.9761 29.1401 74.0017 29.1328C74.0306 29.1256 74.0529 29.125 74.071 29.125ZM41.9871 31.4355C42.0123 31.4356 42.035 31.4433 42.0496 31.4541C42.0604 31.4686 42.067 31.491 42.0671 31.5127V31.7275C42.0671 31.7494 42.0563 31.7721 42.0417 31.7939C42.0236 31.812 42.0052 31.8232 41.9871 31.8232H40.5691C40.5473 31.8232 40.529 31.815 40.5144 31.7969C40.5036 31.7823 40.4958 31.7603 40.4958 31.7314V31.5166C40.4959 31.4913 40.5035 31.4725 40.5144 31.458C40.5289 31.4436 40.5474 31.4356 40.5691 31.4355H41.9871ZM34.5212 29.2822C34.6045 29.2822 34.663 29.2971 34.696 29.3223C34.7252 29.3477 34.7399 29.4029 34.74 29.4756V29.9502C34.74 30.0449 34.722 30.1144 34.6892 30.1582C34.6527 30.1983 34.5977 30.2197 34.5173 30.2197C34.4336 30.2197 34.3751 30.2018 34.3386 30.1582C34.3023 30.1144 34.2839 30.0484 34.2839 29.9502V29.7314H33.3005V30.2715H33.6736V30.2461C33.6737 30.1661 33.6919 30.1038 33.7283 30.0674C33.7611 30.0275 33.8194 30.0089 33.8884 30.0088C33.9503 30.0088 34.0019 30.0273 34.0457 30.0635C34.0821 30.0999 34.1041 30.1438 34.1042 30.1982V30.7129C34.1042 30.8075 34.0898 30.8732 34.0535 30.917C34.0206 30.9571 33.9652 30.9795 33.8884 30.9795C33.8194 30.9794 33.7647 30.9608 33.7283 30.9209C33.692 30.8808 33.6736 30.8293 33.6736 30.7529V30.7168H33.3005V31.3477H34.2839V31.0957C34.284 31.0013 34.3022 30.9353 34.3386 30.8916C34.3751 30.8517 34.4337 30.8301 34.5173 30.8301C34.5974 30.8301 34.6527 30.8481 34.6892 30.8916C34.722 30.9316 34.7399 30.9976 34.74 31.0957V31.6074C34.7399 31.6838 34.7252 31.7352 34.696 31.7607C34.6667 31.7824 34.6083 31.7969 34.5212 31.7969H32.7888C32.6977 31.7968 32.6278 31.7784 32.5876 31.7383C32.5479 31.7053 32.5261 31.643 32.5261 31.5596C32.5262 31.4832 32.548 31.4278 32.5808 31.3877C32.6209 31.3514 32.6761 31.3301 32.7488 31.3301H32.7849V29.7529H32.7488C32.6761 29.7529 32.6212 29.7312 32.5847 29.6914C32.5484 29.6513 32.5261 29.592 32.5261 29.5156C32.5262 29.4358 32.5476 29.3769 32.5876 29.3369C32.6278 29.3005 32.6977 29.2823 32.7888 29.2822H34.5212ZM39.7908 29.2783C39.8814 29.2784 39.944 29.2931 39.9734 29.3184C40.0026 29.3438 40.0243 29.4175 40.0281 29.541L40.0496 30.1768V30.1914C40.0495 30.2824 40.0313 30.3447 39.9949 30.3848C39.9583 30.4211 39.9032 30.4424 39.823 30.4424C39.7468 30.4423 39.6956 30.421 39.6628 30.3848C39.6302 30.3482 39.6111 30.2747 39.6111 30.1768L39.5964 29.7461L39.5935 29.749H39.1511V31.3262H39.5056C39.6001 31.3262 39.6695 31.3447 39.7097 31.3809C39.7498 31.4173 39.7721 31.4759 39.7722 31.5596C39.7722 31.6435 39.7499 31.7018 39.7097 31.7383C39.6695 31.7747 39.6004 31.7968 39.5056 31.7969H38.2488C38.1576 31.7968 38.0878 31.7783 38.0476 31.7383C38.0077 31.7053 37.989 31.6432 37.989 31.5596C37.9891 31.4759 38.0111 31.4173 38.0476 31.3809C38.0878 31.3409 38.1577 31.3262 38.2488 31.3262H38.6062V29.749H38.1648L38.1531 30.1797V30.2314C38.153 30.3005 38.1347 30.3513 38.0984 30.3877C38.0618 30.4242 38.0106 30.4463 37.9412 30.4463C37.8613 30.4462 37.8064 30.4246 37.7664 30.3848C37.7301 30.3446 37.7117 30.2785 37.7117 30.1914V30.1768L37.7332 29.541C37.7405 29.4175 37.7548 29.3438 37.7839 29.3184C37.8168 29.2929 37.8794 29.2784 37.9705 29.2783H39.7908ZM45.8269 25.4219C46.3542 26.2932 54.4709 31.5988 54.5574 31.6553L56.6111 29.4102L54.1218 22.7432C52.6974 22.5498 52.1013 22.3232 52.1013 22.3232L45.8269 25.4219ZM76.5222 30.585C76.4023 30.5852 76.3106 30.6295 76.2341 30.7129C76.1576 30.7966 76.1172 30.9069 76.1169 31.0342C76.1169 31.1722 76.1574 31.2859 76.2371 31.377C76.3173 31.4644 76.4207 31.5086 76.5447 31.5088C76.6579 31.5087 76.7529 31.4686 76.8259 31.3848C76.8989 31.3009 76.9352 31.1914 76.9353 31.0566H76.9314C76.9312 30.9184 76.8947 30.8042 76.8181 30.7168C76.7415 30.6299 76.6423 30.585 76.5222 30.585ZM71.3142 29.5996C71.1658 29.6004 71.0489 29.6811 70.9617 29.8438C70.874 30.0078 70.8299 30.2353 70.8298 30.5195C70.8299 30.8037 70.874 31.038 70.9578 31.2021C71.0417 31.366 71.1628 31.4461 71.3123 31.4463C71.4618 31.4461 71.583 31.366 71.6707 31.2021C71.7581 31.038 71.8025 30.8109 71.8025 30.5195C71.8024 30.228 71.7583 30.0042 71.6707 29.8438C71.5834 29.6845 71.4664 29.6004 71.3142 29.5996ZM41.0769 29.2617C41.2956 29.2617 41.4538 29.2692 41.5525 29.291C41.6506 29.3092 41.7353 29.342 41.8044 29.3818C41.9319 29.4547 42.0278 29.5647 42.0935 29.6992C42.1628 29.8341 42.1921 29.9956 42.1921 30.1777C42.1921 30.3673 42.1554 30.5355 42.0789 30.6777C42.0022 30.8199 41.8962 30.93 41.7576 31.0029C41.6919 31.0357 41.6178 31.0577 41.5339 31.0723C41.4499 31.0868 41.3215 31.0937 41.1541 31.0938H40.6902C40.6211 31.0937 40.569 31.0827 40.5398 31.0537C40.5073 31.0281 40.4929 30.9835 40.4929 30.9219C40.4931 30.8675 40.5078 30.8233 40.5369 30.7979C40.566 30.7691 40.6105 30.754 40.6648 30.7539H40.6902L40.6941 30.7578V29.6045H40.6677C40.6134 29.6044 40.5689 29.5895 40.5398 29.5605C40.5111 29.5315 40.4959 29.4912 40.4958 29.4336C40.4959 29.3718 40.5109 29.3309 40.5437 29.3018C40.5729 29.2728 40.625 29.2618 40.6941 29.2617H41.0769ZM41.0955 30.7578H41.1833C41.3803 30.7577 41.523 30.71 41.6179 30.6152C41.7091 30.5204 41.7566 30.3742 41.7566 30.1738C41.7565 29.9736 41.7097 29.8302 41.615 29.7354C41.5201 29.6409 41.3766 29.59 41.1873 29.5898H41.0955V30.7578ZM58.5222 25.8887L59.5525 27.2314L60.8611 25.5967L59.7166 24.542L58.5222 25.8887ZM57.3923 13.1631L50.5701 21.0791C50.5701 21.0791 52.8654 22.1334 55.5583 22.1846L58.0574 25.3555L59.3591 23.9512L58.5808 13.0645L57.3923 13.1631ZM59.2927 12.9912L59.2898 12.9951L60.0271 23.9102L61.2957 25.0566L63.4333 22.3701C65.7964 22.181 68.2643 20.4771 68.282 20.4648C68.4277 20.246 68.282 20.002 68.282 20.002L60.5212 12.8379L59.2927 12.9912ZM49.1667 10.5938C49.1746 10.6812 49.3471 12.2986 51.5457 15.4912C51.54 15.5137 50.7094 18.7898 50.5378 20.0781L56.4568 13.2646C56.4244 13.2757 54.7917 13.809 49.1667 10.5938ZM67.197 10.0283C66.6583 10.0555 61.5467 12.7595 61.5222 12.7725V12.7764L67.8328 18.5967L66.6453 14.8887L66.949 11.6045L67.197 10.0283Z" fill="#231F20"/>
</svg>
