<svg width="110" height="70" viewBox="0 0 110 70" fill="none" xmlns="http://www.w3.org/2000/svg">
    <path d="M41.7559 48.96C41.8429 48.96 41.9408 48.9705 42.0381 48.9961C42.1353 49.0217 42.2483 49.0575 42.3711 49.1035C42.3711 49.0576 42.3865 49.0273 42.4121 49.0068C42.4326 48.9915 42.4731 48.9805 42.5293 48.9805C42.6009 48.9805 42.6521 48.9913 42.6777 49.0117C42.7033 49.0322 42.7244 49.0834 42.7295 49.1602L42.7598 49.6621V49.6875C42.7597 49.7437 42.7445 49.7896 42.7139 49.8203C42.6832 49.851 42.6372 49.8661 42.5811 49.8662C42.4991 49.8662 42.4321 49.8051 42.3809 49.6875C42.3604 49.6212 42.3349 49.57 42.3145 49.5342C42.2633 49.4523 42.1864 49.3906 42.084 49.3496C41.9867 49.3087 41.874 49.2832 41.7461 49.2832C41.5515 49.2832 41.3922 49.3285 41.2744 49.4258C41.1567 49.523 41.0958 49.6462 41.0957 49.8047C41.0957 49.9275 41.1413 50.0253 41.2334 50.0918C41.3256 50.1634 41.4641 50.2098 41.6484 50.2354L42.0322 50.2812C42.3139 50.3171 42.5248 50.404 42.6631 50.5371C42.8063 50.6702 42.873 50.855 42.873 51.0801C42.8729 51.3512 42.775 51.5658 42.5703 51.7295C42.3706 51.8933 42.0994 51.9755 41.7666 51.9756C41.6488 51.9756 41.5355 51.9602 41.4229 51.9346C41.3103 51.909 41.1875 51.8629 41.0596 51.8066L41.0547 51.8115C41.0496 51.8832 41.0288 51.9344 40.998 51.96C40.9673 51.9907 40.9208 52.001 40.8594 52.001C40.793 52.0009 40.7416 51.9803 40.7109 51.9395C40.6803 51.8985 40.6604 51.8368 40.6553 51.75L40.624 51.1924V51.1514C40.624 51.0747 40.6393 51.018 40.6699 50.9873C40.7006 50.9566 40.7528 50.9414 40.8193 50.9414C40.9164 50.9416 40.9825 51.0136 41.0234 51.1465C41.0439 51.2179 41.0647 51.2689 41.0801 51.3047C41.1364 51.4173 41.2289 51.505 41.3467 51.5664C41.4694 51.6276 41.6126 51.6581 41.7812 51.6582C41.9859 51.6582 42.1552 51.6069 42.2832 51.5098C42.4112 51.4125 42.4785 51.2842 42.4785 51.1357C42.4785 51.0079 42.4371 50.9058 42.3604 50.8291C42.2784 50.7523 42.1654 50.7011 42.0117 50.6807L41.6533 50.6348C41.3207 50.5887 41.0804 50.5009 40.9268 50.373C40.7732 50.2452 40.6964 50.0663 40.6963 49.8311C40.6963 49.5853 40.7983 49.3799 40.998 49.2109C41.2028 49.0421 41.4539 48.96 41.7559 48.96ZM62.4883 48.7803C62.7852 48.7804 63.0308 48.9244 63.21 49.2109C63.3892 49.4976 63.4766 49.8866 63.4766 50.3779C63.4765 50.8693 63.3892 51.2583 63.21 51.5449C63.0308 51.8314 62.7903 51.9745 62.4883 51.9746C62.1861 51.9746 61.9446 51.8316 61.7705 51.5449C61.5914 51.2584 61.5049 50.8693 61.5049 50.373C61.5049 49.8768 61.5915 49.4876 61.7705 49.2061C61.9498 48.9194 62.1912 48.7803 62.4883 48.7803ZM50.7344 48.9697C50.8418 48.9697 50.9492 48.9801 51.0566 49.0107C51.1693 49.0363 51.2824 49.0777 51.4053 49.1289V49.1182C51.4207 49.0774 51.4462 49.0468 51.4717 49.0264C51.5024 49.011 51.5435 49.001 51.5947 49.001C51.6561 49.001 51.6973 49.0164 51.7178 49.042C51.7432 49.0728 51.7529 49.129 51.7529 49.2207V49.6611C51.7529 49.7942 51.7588 49.8554 51.7588 49.835C51.7588 49.9114 51.7482 49.9626 51.7178 49.9883C51.6922 50.0139 51.6457 50.0293 51.5791 50.0293C51.4716 50.0293 51.4048 49.953 51.374 49.8047C51.3638 49.7587 51.3538 49.7226 51.3486 49.7021C51.3179 49.5794 51.2465 49.482 51.1289 49.4053C51.0111 49.3285 50.8773 49.293 50.7236 49.293C50.4371 49.293 50.2121 49.4001 50.0381 49.6045C49.8691 49.8144 49.7812 50.0914 49.7812 50.4395C49.7813 50.7874 49.8689 51.0685 50.043 51.2783C50.2171 51.4882 50.4476 51.5908 50.7344 51.5908C50.8264 51.5908 50.9234 51.5753 51.0205 51.5498C51.1178 51.5242 51.2106 51.4838 51.3027 51.4326C51.3437 51.4122 51.4047 51.3705 51.4814 51.3193C51.5581 51.2683 51.6097 51.2374 51.6455 51.2373C51.6967 51.2373 51.7376 51.2533 51.7734 51.2891C51.8093 51.3198 51.8252 51.3609 51.8252 51.4121C51.8251 51.4632 51.8043 51.509 51.7686 51.5498C51.7327 51.5959 51.661 51.6473 51.5586 51.7139C51.4255 51.8008 51.2874 51.8673 51.1543 51.9082C51.016 51.9492 50.8722 51.9697 50.7236 51.9697C50.3294 51.9697 50.0014 51.8313 49.7402 51.5498C49.4843 51.2683 49.3516 50.9096 49.3516 50.4746C49.3516 50.0397 49.485 49.6818 49.7461 49.4004C50.0073 49.1138 50.34 48.9697 50.7344 48.9697ZM48.8232 49.0469C48.8793 49.0469 48.9255 49.0625 48.9512 49.0879C48.9818 49.1185 48.9921 49.1598 48.9922 49.2158C48.9922 49.2824 48.9773 49.324 48.9414 49.3496C48.9056 49.3752 48.844 49.3906 48.752 49.3906H48.7207V51.8164C48.7207 51.8625 48.7109 51.8936 48.6904 51.9141C48.67 51.9345 48.6187 51.9394 48.542 51.9395C48.4652 51.9395 48.4138 51.9392 48.3984 51.9238C48.378 51.9135 48.3474 51.873 48.3066 51.8018L47.0254 49.5947V51.5605H47.3281C47.4151 51.5606 47.4769 51.5709 47.5127 51.6016C47.5484 51.6271 47.5683 51.6682 47.5684 51.7295C47.5684 51.796 47.5534 51.8426 47.5176 51.8682C47.4817 51.8937 47.4097 51.9033 47.292 51.9033H46.5752C46.5189 51.9033 46.4729 51.8879 46.4473 51.8623C46.4166 51.8316 46.4062 51.7906 46.4062 51.7344C46.4063 51.6682 46.4214 51.6271 46.457 51.6016C46.4928 51.576 46.5545 51.5655 46.6465 51.5654H46.6934V49.3955H46.6318C46.4989 49.3955 46.4065 49.3851 46.3604 49.3545C46.3143 49.3289 46.2882 49.283 46.2881 49.2217C46.2881 49.1604 46.3088 49.1194 46.3496 49.0938C46.3906 49.0682 46.4576 49.0527 46.5498 49.0527H46.918C46.9948 49.0527 47.0467 49.0628 47.0723 49.0781C47.1029 49.0936 47.1391 49.1397 47.1748 49.2061L48.3877 51.2998V49.3955H48.1221C48.0351 49.3955 47.9736 49.38 47.9326 49.3545C47.8917 49.3289 47.8712 49.283 47.8711 49.2217C47.8711 49.1552 47.8861 49.1086 47.9219 49.083C47.9577 49.0574 48.0295 49.0469 48.1318 49.0469H48.8232ZM45.5664 49.0469C45.6225 49.0469 45.6685 49.0625 45.6992 49.0879C45.7299 49.1185 45.746 49.1597 45.7461 49.2158C45.7461 49.2823 45.7252 49.3289 45.6895 49.3545C45.6536 49.3801 45.5768 49.3906 45.4541 49.3906H44.9111V51.5605H45.4541C45.5768 51.5606 45.6588 51.5711 45.6895 51.5967C45.7252 51.6223 45.7402 51.6631 45.7402 51.7295C45.7402 51.796 45.7253 51.8426 45.6895 51.8682C45.6536 51.8937 45.5767 51.9033 45.4541 51.9033H43.876C43.8198 51.9033 43.7738 51.8879 43.7432 51.8623C43.7126 51.8316 43.6973 51.7906 43.6973 51.7344C43.6973 51.6681 43.7174 51.6271 43.748 51.6016C43.7839 51.576 43.8663 51.5654 43.9893 51.5654H44.5322V49.3955H43.9893C43.8715 49.3955 43.7888 49.385 43.7529 49.3594C43.7174 49.3338 43.6973 49.2878 43.6973 49.2217C43.6973 49.1603 43.7124 49.1186 43.7432 49.0879C43.7739 49.0574 43.8205 49.0469 43.8818 49.0469H45.5664ZM54.5547 49.042C54.611 49.042 54.6521 49.0569 54.6777 49.0928C54.7084 49.1286 54.7188 49.1749 54.7188 49.2363V49.8047C54.7187 49.8864 54.7082 49.9479 54.6826 49.9785C54.657 50.0091 54.616 50.0244 54.5547 50.0244C54.4933 50.0244 54.4416 50.0094 54.416 49.9736C54.3904 49.9378 54.3809 49.8553 54.3809 49.7324V49.3896H53.1006V50.2031H53.7305V50.0752C53.7305 49.9886 53.7402 49.9272 53.7656 49.8965C53.7912 49.8607 53.8274 49.8457 53.8887 49.8457C53.9501 49.8457 53.9863 49.8656 54.0068 49.9014C54.0273 49.9372 54.0371 50.0141 54.0371 50.1318V50.5771C54.0371 50.6998 54.0275 50.7768 54.002 50.8076C53.9815 50.8434 53.9402 50.8584 53.8789 50.8584C53.8175 50.8584 53.7812 50.8385 53.7607 50.8027C53.7403 50.7669 53.7305 50.6898 53.7305 50.5771V50.4951H53.1006V51.5605H54.3809V51.1709C54.3809 51.0485 54.3956 50.9667 54.416 50.9307C54.4416 50.8948 54.4881 50.8789 54.5547 50.8789C54.6161 50.8789 54.657 50.8948 54.6826 50.9307C54.7081 50.9614 54.7187 51.0275 54.7188 51.1143V51.7236C54.7188 51.7799 54.7033 51.8267 54.6777 51.8574C54.647 51.888 54.6058 51.9033 54.5547 51.9033H52.5625L52.5723 51.8975H52.46C52.4039 51.8975 52.3579 51.8828 52.3271 51.8574C52.2964 51.8267 52.2803 51.7848 52.2803 51.7285C52.2804 51.6622 52.3014 51.6212 52.332 51.5957C52.3679 51.5702 52.4447 51.5606 52.5674 51.5605H52.7217V49.3896H52.5674C52.4497 49.3896 52.3679 49.3791 52.332 49.3535C52.2963 49.3279 52.2754 49.2822 52.2754 49.2158C52.2754 49.1544 52.2906 49.1127 52.3213 49.082C52.352 49.0513 52.3988 49.042 52.4551 49.042H54.5547ZM59.4863 48.7764C59.7526 48.7764 59.978 48.8643 60.1572 49.0332C60.3365 49.2021 60.4238 49.4171 60.4238 49.668C60.4236 49.9853 60.1522 50.4 59.6045 50.9219C59.4665 51.0496 59.359 51.1518 59.2822 51.2285L58.9844 51.5156H60.0859C60.0911 51.444 60.1119 51.3923 60.1426 51.3564C60.1733 51.3208 60.2144 51.3008 60.2705 51.3008C60.3267 51.3008 60.368 51.3158 60.3936 51.3516C60.4242 51.3874 60.4395 51.4338 60.4395 51.4951V51.5459L60.4189 51.7305C60.4189 51.7816 60.3984 51.8179 60.3779 51.8486C60.3524 51.8741 60.3209 51.8887 60.2852 51.8887H58.6875V51.8994C58.6057 51.8994 58.539 51.8844 58.498 51.8486C58.4571 51.8128 58.4365 51.7611 58.4365 51.6895C58.4366 51.5871 58.5902 51.3872 58.8975 51.1006L58.9697 51.0342C59.0158 50.9882 59.0819 50.9266 59.1738 50.8398C59.7268 50.3179 60.0086 49.934 60.0088 49.6934C60.0088 49.5193 59.9628 49.3809 59.8604 49.2734C59.7631 49.166 59.6351 49.1143 59.4814 49.1143C59.3791 49.1143 59.2816 49.1348 59.1895 49.1758C59.0974 49.2167 59.0209 49.2732 58.9697 49.3447C58.9595 49.355 58.9433 49.3805 58.9229 49.4111C58.8614 49.5186 58.7953 49.5703 58.7236 49.5703C58.6674 49.5703 58.6262 49.5552 58.6006 49.5195C58.575 49.4837 58.5645 49.4168 58.5645 49.3145C58.5645 49.2583 58.5699 49.2122 58.5801 49.1865C58.5903 49.161 58.611 49.1303 58.6416 49.0996C58.744 49.0024 58.8721 48.9206 59.0205 48.8643C59.174 48.808 59.3277 48.7764 59.4863 48.7764ZM65.6123 48.792C65.6428 48.7921 65.6683 48.8076 65.6836 48.833C65.699 48.8637 65.709 48.9 65.709 48.9512V51.5566H66.0938C66.2369 51.5567 66.3294 51.5672 66.3652 51.5928C66.4058 51.6184 66.4209 51.6593 66.4209 51.7256C66.4209 51.7818 66.4057 51.8279 66.375 51.8535C66.3443 51.8842 66.2928 51.8945 66.2314 51.8945H64.793C64.7317 51.8945 64.6802 51.879 64.6494 51.8535C64.6187 51.8228 64.5977 51.7818 64.5977 51.7256C64.5977 51.6591 64.6185 51.6184 64.6543 51.5928C64.6953 51.5672 64.7824 51.5566 64.9258 51.5566H65.3252V49.2021L64.8691 49.3096L64.874 49.3145C64.8699 49.315 64.8377 49.3193 64.8281 49.3193H64.8027C64.7515 49.3193 64.7104 49.3039 64.6797 49.2783C64.6491 49.2527 64.6338 49.212 64.6338 49.166C64.6338 49.1251 64.6492 49.0942 64.6748 49.0635C64.7055 49.0328 64.7418 49.0124 64.793 48.9971L65.5098 48.8027C65.5124 48.802 65.5457 48.7921 65.5605 48.792H65.6123ZM68.5723 48.792C68.603 48.792 68.6292 48.8074 68.6445 48.833C68.6599 48.8637 68.6699 48.9 68.6699 48.9512V51.5566H69.0537C69.1971 51.5566 69.2893 51.5672 69.3252 51.5928C69.361 51.6184 69.3818 51.6591 69.3818 51.7256C69.3818 51.7817 69.3665 51.8279 69.3359 51.8535C69.3053 51.8842 69.2537 51.8945 69.1924 51.8945H67.7529C67.6864 51.8945 67.6401 51.8791 67.6094 51.8535C67.5787 51.8228 67.5586 51.7818 67.5586 51.7256C67.5586 51.6593 67.5787 51.6184 67.6143 51.5928C67.6501 51.5672 67.7426 51.5567 67.8857 51.5566H68.2852V49.2021L67.835 49.3096V49.3145C67.835 49.3145 67.7996 49.3193 67.7891 49.3193H67.7637C67.7125 49.3193 67.6713 49.3039 67.6406 49.2783C67.6099 49.2476 67.5938 49.2121 67.5938 49.166C67.5938 49.1251 67.6092 49.0941 67.6348 49.0635C67.6604 49.0328 67.7017 49.0124 67.7529 48.9971L68.4697 48.8027C68.4697 48.8027 68.5061 48.792 68.5215 48.792H68.5723ZM62.4883 49.124C62.3039 49.124 62.16 49.2311 62.0576 49.4512C61.9552 49.6713 61.9043 49.9787 61.9043 50.3779C61.9043 50.7771 61.9552 51.0846 62.0576 51.3047C62.16 51.5246 62.304 51.6318 62.4883 51.6318C62.6724 51.6317 62.8205 51.5244 62.9229 51.3047C63.0253 51.0846 63.0771 50.7771 63.0771 50.3779C63.0771 49.9787 63.0253 49.6713 62.9229 49.4512C62.8205 49.2314 62.6775 49.1241 62.4883 49.124ZM43.9834 38.7021C44.7824 38.7021 45.0284 39.5516 44.1885 40.3604L43.2207 41.3125C43.1951 41.7066 43.1904 42.1726 43.1904 42.71C43.1904 44.6602 42.2631 46.2782 40.4912 46.2783C39.544 46.2783 38.8934 45.8891 38.5195 45.3672C37.8947 45.5208 37.29 45.4227 36.8291 45.0029L37.0801 44.6914L37.0752 44.6807C37.408 44.9058 37.8276 44.9882 38.2627 44.9014C37.7915 43.6575 38.4782 42.0196 40.1631 42.0195C40.6138 42.0195 40.993 42.1987 41.2695 42.4648L42.458 41.3027C42.5604 39.6803 42.9338 38.7024 43.9834 38.7021ZM25.623 39.7051C30.1454 39.7051 28.5985 46.1396 25.2695 46.1396C24.5118 46.1396 23.9999 45.8472 23.5391 45.5811C23.1601 46.0571 22.7087 46.252 22.1914 46.252C21.4953 46.2518 21.1477 45.8324 21.1475 45.3975C21.1475 44.9624 21.5365 44.4707 22.3252 44.4707C22.6733 44.4708 22.9704 44.5779 23.252 44.7109L23.3389 44.5527L23.3438 44.542L25.7764 40.3447C25.7356 40.3447 25.6949 40.3399 25.6592 40.3398C24.01 40.3398 23.1855 41.8651 23.8564 42.7148L23.3701 43.1494C22.2895 42.182 23.1853 39.7052 25.623 39.7051ZM59.374 40.7666C59.8042 41.0021 59.9884 41.5647 59.6914 42.1533H58.8672L58.9385 42.0361C59.4455 41.1659 58.6417 40.7663 58.0527 41.7695L57.9551 41.9385C57.6735 42.4247 57.971 42.6914 58.2783 42.6914L58.0527 43.0801C57.812 43.0801 57.2952 43.1059 56.9316 43.7197L56.6494 44.2061C56.1475 45.0763 57.1105 45.2091 57.5049 44.5283L57.6641 44.2471L58.498 44.2373L58.4678 44.3037L58.3809 44.4619C57.9507 45.204 57.3053 45.5373 56.7676 45.5527L56.3984 46.208H55.7686L56.2139 45.4248L56.1992 45.4141C55.7537 45.1633 55.569 44.5699 56.0605 43.71C56.4344 43.0547 56.7981 42.8085 57.2334 42.7266C57.0389 42.4706 57.0136 42.0767 57.29 41.5957C57.7407 40.8126 58.2118 40.6687 58.8008 40.6533L59.1797 39.999H59.8096L59.374 40.7666ZM66.7031 39.1895C68.3725 39.1895 68.2447 41.3132 66.5498 41.8867C68.1626 42.9619 66.9996 45.9717 64.4902 45.9717C61.5509 45.9715 61.0336 42.7367 62.7949 41.6104L63.1338 42.04H63.1387C62.3244 42.5621 62.1549 43.76 62.7334 44.5586C62.846 44.4204 62.9491 44.2672 63.0566 44.083L65.3154 40.1768C65.6944 39.5166 66.2423 39.1895 66.7031 39.1895ZM41.5869 42.8945C41.8839 43.4934 41.828 44.2512 41.2646 44.7119L40.916 44.3584C41.2794 44.0105 41.3362 43.6114 41.1982 43.2686L39.9121 44.5273C39.6765 44.7525 39.4355 44.9421 39.1846 45.0752H39.1904C39.4567 45.3873 39.8867 45.5976 40.4805 45.5977C41.7659 45.5977 42.4111 44.3535 42.4111 42.7002V42.0801L41.5869 42.8945ZM22.248 45.1055C22.0075 45.1055 21.8849 45.228 21.8848 45.3457C21.8848 45.4737 22.0125 45.5967 22.2891 45.5967C22.6373 45.5967 22.7965 45.4789 22.9502 45.2588C22.7351 45.1718 22.5092 45.1055 22.248 45.1055ZM83.916 39.1895C84.5407 39.1895 85.033 39.6802 85.0332 40.4375C85.0332 40.7651 84.9308 41.1548 84.6953 41.5693C84.0347 42.7209 83.0153 43.1815 82.1191 43.1816C81.9502 43.1816 81.7962 43.1662 81.6426 43.1406L81.4072 43.5557C80.9053 44.4105 81.2535 44.9834 81.8271 44.9834C82.6567 44.9832 83.3994 44.4258 84.0088 43.7246L84.0537 43.6699L84.3926 43.0938L84.8027 42.377C85.2891 41.5378 85.7856 41.2814 86.4307 41.2812C87.2194 41.2812 87.6909 42.1159 87.1787 42.9912L86.3906 44.3525C86.8105 44.3422 87.2813 44.1427 87.6602 43.7334L87.7168 43.667C87.8295 43.7182 87.9779 43.8464 88.0342 43.959C87.6091 44.4656 86.8153 44.7724 86.3135 44.7725H86.1289V44.7676C85.2128 45.9234 83.7134 45.7045 83.7344 44.6182C83.1755 45.1229 82.5139 45.4951 81.627 45.4951C80.4388 45.4951 80.0956 44.3641 80.6846 43.3506L80.9355 42.916C80.2545 42.5577 79.8761 41.9124 79.876 41.2471C79.876 40.684 80.142 40.1107 80.7412 39.6807L81.0127 40.1719C80.6491 40.4534 80.4697 40.8426 80.4697 41.2266C80.4698 41.6974 80.726 42.1628 81.2227 42.4238L82.5332 40.1719L82.5283 40.1768C82.9072 39.5166 83.4552 39.1896 83.916 39.1895ZM35.7842 41.3027C36.2349 41.3027 36.599 41.7637 36.2354 42.3984L35.0264 44.5225C34.8317 44.8552 34.9396 44.9834 35.124 44.9834C35.4979 44.983 36.0863 44.4247 36.6904 43.7236L36.7422 43.6631C36.8547 43.7143 37.0032 43.8416 37.0596 43.9541C36.3632 44.7627 35.5644 45.4997 34.873 45.5C34.1817 45.5 33.9455 44.927 34.2988 44.3076L35.3896 42.4082C35.7941 41.7172 35.0415 41.5388 33.459 43.7705L32.5117 45.418H31.6562L33.3926 42.4082C33.7866 41.7225 33.0546 41.5437 31.498 43.7236L30.5244 45.418H29.6748L29.8916 45.042C29.5227 45.3209 29.1546 45.501 28.8135 45.501C28.1223 45.5008 27.8869 44.9279 28.2402 44.3086L29.9248 41.3857H30.7646L28.9619 44.5234C28.7674 44.8561 28.8753 44.9843 29.0596 44.9844C29.4283 44.9844 30.0226 44.4259 30.627 43.7246L30.6836 43.6582V43.6641C30.6852 43.6648 30.6869 43.6653 30.6885 43.666L32.0098 41.3848H32.8496L32.3477 42.2549C32.8803 41.5843 33.3567 41.3027 33.792 41.3027C34.2273 41.3027 34.5751 41.7275 34.2832 42.3213C34.8414 41.6098 35.3335 41.3028 35.7842 41.3027ZM88.3877 44.5742C88.6437 44.5744 88.8584 44.7842 88.8584 45.04C88.8583 45.2958 88.6487 45.5009 88.3877 45.501C88.1266 45.501 87.9269 45.301 87.9268 45.04C87.9268 44.779 88.1316 44.5742 88.3877 44.5742ZM52.9053 41.3027C53.356 41.3027 53.7201 41.7637 53.3564 42.3984L52.1475 44.5225C51.9528 44.8552 52.0607 44.9834 52.2451 44.9834C52.619 44.9832 53.2082 44.4248 53.8125 43.7236L53.8682 43.6572V43.6631C53.9807 43.7142 54.1293 43.8416 54.1807 43.9541C53.4893 44.7628 52.6906 45.4999 51.9941 45.5C51.2977 45.5 51.0667 44.9269 51.4199 44.3076L52.5117 42.4082C52.9158 41.7175 52.1623 41.5391 50.5801 43.7705L49.6328 45.418H48.7773L50.5137 42.4082C50.913 41.7224 50.1758 41.5435 48.6191 43.7236L47.6455 45.418H46.7959L47.0107 45.0449C46.6443 45.3215 46.2798 45.5 45.9404 45.5C45.4078 45.5 45.1417 45.147 45.2236 44.6914C44.819 45.0804 44.3066 45.5 43.8457 45.5C43.2875 45.5 43.0933 44.9734 43.5234 44.2363L45.1719 41.3896H46.0117L44.373 44.2461C44.2655 44.4201 44.0558 44.7372 44.2656 44.8242C44.4295 44.8959 44.9216 44.5736 45.5566 43.9951L47.0518 41.3896H47.8916L46.0986 44.5273C45.9041 44.86 46.012 44.9882 46.1963 44.9883C46.5701 44.9883 47.1594 44.4307 47.7637 43.7295L47.7949 43.6914L49.1309 41.3848H49.9707L49.4688 42.2549C50.0013 41.5844 50.4778 41.3029 50.9131 41.3027C51.3484 41.3027 51.697 41.7276 51.4053 42.3213C51.9633 41.6101 52.4547 41.3029 52.9053 41.3027ZM76.0088 40.873C75.84 41.0316 75.8396 41.2052 75.957 41.3535L76.4238 41.917C76.7003 42.2496 76.8329 42.5471 76.541 43.0537L75.7012 44.5225C75.5066 44.8551 75.6096 44.9834 75.7939 44.9834C76.1678 44.983 76.7563 44.4246 77.3604 43.7236L77.417 43.6572C77.5297 43.7084 77.6732 43.8366 77.7295 43.9492C77.0382 44.7578 76.2343 45.4948 75.543 45.4951C74.8517 45.4951 74.6157 44.922 74.9688 44.3027L75.8604 42.7617L75.8652 42.7666C75.9624 42.5978 75.9216 42.4291 75.8193 42.291L75.7061 42.1523C75.0352 43.0634 74.7178 43.4832 74.3184 43.9541C74.3163 43.9527 74.3146 43.9506 74.3125 43.9492C73.6161 44.7577 72.6749 45.4949 71.7227 45.4951C71.062 45.4951 70.6225 45.0987 70.5898 44.5586C69.9937 45.0933 69.2951 45.495 68.5928 45.4951C67.6402 45.4951 67.1485 44.671 67.6709 43.7803L68.5518 42.2705C68.9051 41.6562 69.448 41.3027 70.124 41.3027C70.8 41.3028 71.2455 41.8812 70.7949 42.6592L70.6768 42.8691C70.0469 43.9593 69.028 44.062 68.4902 43.8369V43.8418L68.4082 43.9854C68.0243 44.6609 68.3263 44.9834 68.8486 44.9834C69.4376 44.9834 70.2111 44.4249 70.8154 43.7236L70.8721 43.6572L71.6816 42.2705C72.035 41.6562 72.5779 41.3027 73.2539 41.3027C73.9297 41.3029 74.3752 41.8814 73.9248 42.6592L73.8018 42.8691C73.1718 43.9595 72.152 44.0621 71.6143 43.8369V43.8418L71.5332 43.9854C71.144 44.6609 71.4507 44.9833 71.9678 44.9834C72.5567 44.9834 73.33 44.4249 73.9395 43.7236L73.9961 43.6572C73.9997 43.6589 74.0032 43.6613 74.0068 43.6631L74.0059 43.6621C74.5537 43.0173 75.0559 42.3063 75.4297 41.7842L75.3584 41.6865C75.0613 41.2975 75.0969 40.8214 75.5732 40.3965L76.0088 40.873ZM26.5195 40.4834L23.8867 45.0488C24.2912 45.2843 24.7114 45.4843 25.249 45.4844C27.354 45.4844 28.7628 41.3017 26.5195 40.4775V40.4834ZM63.6865 44.4414C63.5585 44.6563 63.4099 44.8661 63.2666 45.04C63.579 45.2191 63.9789 45.332 64.4756 45.332C66.5136 45.3316 67.2917 42.4339 65.3252 42.0244V42.0195L65.0996 41.9941L63.6865 44.4414ZM86.5439 42.6689C87.051 41.7987 86.2464 41.4042 85.6523 42.4023L85.248 43.0889L84.6133 44.1943C84.1114 45.0645 85.0744 45.1974 85.4688 44.5166V44.501C85.4278 44.4191 85.3965 44.3221 85.3965 44.2197C85.3965 43.9433 85.6173 43.7178 85.8887 43.7178H85.9297L86.5439 42.6689ZM40.1582 42.5869C39.052 42.5869 38.5807 43.7594 38.9238 44.6348V44.6396C39.108 44.5271 39.2926 44.3894 39.4717 44.2207L40.875 42.8379C40.6804 42.6844 40.4295 42.5869 40.1582 42.5869ZM70.1133 42.6641C70.6151 41.7939 69.76 41.6561 69.2734 42.4854L68.7305 43.4268C69.0429 43.5394 69.5866 43.5548 69.9912 42.874L70.1133 42.6641ZM73.2383 42.6641C73.7398 41.7941 72.8849 41.6562 72.3984 42.4854L71.8604 43.4268C72.1779 43.5394 72.7155 43.5548 73.1201 42.874L73.2383 42.6641ZM83.9111 39.916C83.6756 39.9161 83.4042 40.1004 83.1533 40.5303L81.9395 42.624H82.1084L82.1133 42.6289C83.4193 42.6289 84.3721 41.2158 84.3721 40.4326C84.372 40.1256 84.2286 39.916 83.9111 39.916ZM67.0361 40.6943C67.4561 39.9009 66.6722 39.2812 66.0576 40.3408L65.377 41.5029L65.3818 41.498C66.2369 41.4827 66.7135 41.2981 67.0361 40.6943ZM30.873 39.9834C31.1443 39.9836 31.3643 40.1983 31.3643 40.4746C31.3642 40.7509 31.1494 40.9559 30.873 40.9561C30.5965 40.9561 30.3858 40.7459 30.3857 40.4746C30.3857 40.2033 30.5965 39.9834 30.873 39.9834ZM43.8457 39.3418C43.5794 39.3418 43.3949 39.6902 43.2822 40.4785L43.6201 40.1455C44.1629 39.6286 44.0863 39.3419 43.8457 39.3418ZM41.8994 18.0059C44.3629 18.0059 46.0684 19.4548 46.0684 21.5996V22.7256H43.1953V22.0596C43.1952 20.9337 42.5956 20.3096 41.9043 20.3096C41.1672 20.3098 40.6145 20.8416 40.6143 21.5732C40.6143 22.2643 40.7523 22.792 41.418 23.5547L44.2969 26.8457C45.4492 28.1561 46.1611 29.0319 46.1611 30.9463C46.1611 33.2703 44.2041 34.5605 41.8994 34.5605C39.5948 34.5605 37.7051 33.2497 37.7051 30.9463V29.2676H40.6094V30.7617C40.6094 31.7496 41.162 32.2363 41.8994 32.2363C42.6369 32.2363 43.1904 31.7087 43.1904 30.7617C43.1903 29.9122 42.8472 29.2671 42.248 28.5762L39.8506 26.1143C38.3296 24.3177 37.6846 23.8107 37.6846 21.5996C37.6846 19.3883 39.436 18.0059 41.8994 18.0059ZM50.96 30.9209C50.96 31.4072 51.3952 32.2314 52.4092 32.2314C53.2387 32.2313 53.6992 31.4021 53.6992 30.9209V18.2109H56.583V30.9463C56.583 32.5792 55.2924 34.54 52.4141 34.54C49.2592 34.54 48.0811 32.5843 48.0811 30.9463V18.2109H50.96V30.9209ZM96.9971 18C99.9009 18.0001 101.212 19.9814 101.212 21.6143V22.8779H98.3076V21.6191C98.3076 21.138 97.8267 20.3087 96.9971 20.3086C95.983 20.3086 95.5479 21.138 95.5479 21.6191V30.9199C95.5479 31.4062 95.983 32.2305 96.9971 32.2305C97.8267 32.2304 98.3076 31.4011 98.3076 30.9199V29.6553H101.212V30.9199C101.212 32.5528 99.9009 34.5341 96.9971 34.5342C93.8166 34.5342 92.6182 32.5529 92.6182 30.9404V21.6143C92.6182 19.9813 93.8166 18 96.9971 18ZM9.20898 18.2168C10.8427 18.2169 12.2045 19.3428 12.5732 20.8887C12.7115 21.508 12.8037 22.1528 12.8037 22.8232V29.7285C12.8037 32.1907 11.6979 34.3358 9.20898 34.3359H4V18.2168H9.20898ZM17.7822 34.3301H14.9043V18.2109H17.7822V34.3301ZM25.7314 27.8594H25.7773L27.6416 18.2109H31.5127V34.3301H28.6348V24.4043L26.7451 34.3301H24.7627L22.9189 24.4043H22.873V34.3301H19.9951V18.2109H23.8877L25.7314 27.8594ZM64.5312 27.8594H64.5771L66.4414 18.2109H70.3135V34.3301H67.4355V24.4043L65.5459 34.3301H63.5635L61.7197 24.4043H61.6738V34.3301H58.7949V18.2109H62.6875L64.5312 27.8594ZM79.666 34.3301H76.7871V18.2109H79.666V34.3301ZM87.5986 27.1436H87.6445V18.2109H90.5186V34.3301H87.6396L84.8076 25.0957H84.7617V34.3301H81.8828V18.2109H84.9258L87.5986 27.1436ZM106.001 34.3291H103.122V31.4521H106.001V34.3291ZM6.88867 32.0225H8.61426V32.0273C9.7666 32.0273 10.0645 31.0136 10.0645 29.7236V22.8135C10.0645 21.5235 9.76148 20.5098 8.61426 20.5098H6.88867V32.0225Z"
          fill="#110f0e"/>
</svg>
