<?xml version="1.0" encoding="utf-8"?>
<svg width="110" height="70" viewBox="0 0 110 70" fill="none" xmlns="http://www.w3.org/2000/svg" xmlns:bx="https://boxy-svg.com">
  <defs>
    <bx:export>
      <bx:file format="png" path="lucky_cat.png" width="402" height="256" dpi="300"/>
    </bx:export>
  </defs>
  <path d="M52.7822 44.8018C52.9215 44.8018 53.0398 44.8171 53.1572 44.8545C53.2664 44.8917 53.3839 44.9437 53.4932 45.0176C53.5082 45.0137 53.5512 45.0032 53.5693 44.9971H53.6289C53.7021 44.9973 53.7686 45.0281 53.8125 45.0879C53.8564 45.1477 53.8856 45.2229 53.8857 45.3125C53.8857 45.4324 53.8491 45.5383 53.7686 45.6357C53.6878 45.7257 53.6061 45.7781 53.5107 45.7783C53.4446 45.7783 53.3412 45.7338 53.1943 45.6514C53.0476 45.5615 52.9295 45.5159 52.8486 45.5156C52.7682 45.5156 52.6946 45.5385 52.6504 45.583C52.599 45.6279 52.5763 45.696 52.5762 45.7783C52.5762 45.8759 52.6282 45.9961 52.7236 46.1387C52.7456 46.1611 52.7602 46.1842 52.7676 46.1992L53.5986 47.3936C53.628 47.311 53.6576 47.2052 53.6943 47.0703C53.7679 46.7778 53.9008 46.6271 54.0771 46.627H54.3418C54.415 46.6271 54.475 46.6573 54.5264 46.7246C54.5777 46.7921 54.5995 46.8753 54.5996 46.9727C54.5996 47.0849 54.5702 47.1681 54.5264 47.2207C54.4823 47.2732 54.3933 47.3179 54.2832 47.333C54.2612 47.4603 54.2242 47.581 54.1875 47.6934C54.1508 47.8058 54.0914 47.9113 54.0254 48.0088L54.2021 48.2275H54.2617C54.3568 48.2278 54.4311 48.2572 54.4824 48.3096C54.5337 48.3621 54.5556 48.4382 54.5557 48.543C54.5556 48.6476 54.5252 48.7301 54.4668 48.79C54.408 48.85 54.3195 48.8808 54.2021 48.8809H53.9307C53.8573 48.8809 53.7976 48.8808 53.7607 48.8584C53.724 48.8434 53.6871 48.8129 53.665 48.7754L53.5547 48.6328C53.4078 48.7452 53.2378 48.8358 53.0469 48.9033C52.8559 48.9707 52.6641 49.0009 52.4658 49.001C52.1202 49.0009 51.8329 48.895 51.6123 48.6924C51.3918 48.4822 51.2813 48.2192 51.2812 47.8965C51.2813 47.6338 51.3408 47.4009 51.4658 47.1982C51.5909 46.9957 51.7896 46.7996 52.0615 46.6045L51.8701 46.2891C51.8188 46.2066 51.7823 46.1165 51.7529 46.0117C51.7236 45.9067 51.708 45.8085 51.708 45.7109C51.7081 45.4258 51.8045 45.2081 51.9883 45.043C52.1795 44.8856 52.4443 44.8018 52.7822 44.8018ZM24.4873 45.5156C24.6122 45.5157 24.7005 45.5529 24.752 45.6279C24.8034 45.7031 24.833 45.8387 24.833 46.0264V46.6113C24.833 46.7538 24.8038 46.8595 24.7451 46.9346C24.6863 47.0021 24.5972 47.04 24.4795 47.04C24.3914 47.04 24.3254 47.0169 24.2666 46.9795C24.2077 46.9419 24.1482 46.8597 24.082 46.7471C23.9864 46.5895 23.8692 46.4687 23.7148 46.3936C23.5603 46.3185 23.3755 46.2813 23.1621 46.2812C22.8901 46.2813 22.6697 46.3717 22.4932 46.5518C22.3166 46.7319 22.2354 46.9645 22.2354 47.2422C22.2354 47.535 22.3235 47.7758 22.5 47.9561C22.6766 48.1363 22.92 48.2266 23.2217 48.2266C23.4937 48.2265 23.766 48.1517 24.0381 47.9941C24.3103 47.8365 24.4724 47.7608 24.5312 47.7607C24.6195 47.7608 24.6863 47.7908 24.7451 47.8584C24.8038 47.9259 24.833 48.0092 24.833 48.1143C24.8328 48.3394 24.6707 48.5344 24.3398 48.707C24.0087 48.8798 23.6183 48.9697 23.1621 48.9697C22.6031 48.9696 22.1471 48.8121 21.7939 48.4893C21.4408 48.1663 21.2637 47.7532 21.2637 47.25C21.2637 46.7469 21.4404 46.3412 21.7861 46.0107C22.1319 45.6803 22.5738 45.5157 23.1035 45.5156C23.28 45.5156 23.4568 45.538 23.626 45.583C23.7931 45.6275 23.9608 45.6934 24.1279 45.7891C24.1573 45.7011 24.2009 45.6348 24.2588 45.583C24.3176 45.5305 24.3917 45.5156 24.4873 45.5156ZM75.7744 45.5156C75.8992 45.5157 75.9876 45.5529 76.0391 45.6279C76.0905 45.7031 76.1201 45.8388 76.1201 46.0264V46.6113C76.1201 46.754 76.0901 46.8595 76.0312 46.9346C75.9724 47.0021 75.8842 47.04 75.7666 47.04C75.6784 47.04 75.6116 47.017 75.5527 46.9795C75.494 46.9418 75.4352 46.8594 75.3691 46.7471C75.2735 46.5894 75.1554 46.4687 75.001 46.3936C74.8466 46.3186 74.6624 46.2813 74.4492 46.2812C74.1772 46.2813 73.9568 46.3717 73.7803 46.5518C73.6038 46.7319 73.5225 46.9645 73.5225 47.2422C73.5225 47.5351 73.6105 47.7758 73.7871 47.9561C73.9636 48.1362 74.2064 48.2265 74.5078 48.2266C74.78 48.2265 75.053 48.1518 75.3252 47.9941C75.5974 47.8364 75.7595 47.7607 75.8184 47.7607C75.9064 47.7608 75.9725 47.791 76.0312 47.8584C76.0901 47.926 76.1201 48.0091 76.1201 48.1143C76.1199 48.3393 75.9577 48.5344 75.627 48.707C75.2958 48.8798 74.9054 48.9697 74.4492 48.9697C73.8902 48.9697 73.4342 48.8121 73.0811 48.4893C72.7278 48.1663 72.5508 47.7532 72.5508 47.25C72.5508 46.7468 72.7274 46.3412 73.0732 46.0107C73.4191 45.6803 73.8608 45.5156 74.3906 45.5156C74.5672 45.5156 74.7439 45.538 74.9131 45.583C75.08 45.6275 75.2472 45.6936 75.4141 45.7891C75.4435 45.7009 75.4879 45.6348 75.5459 45.583C75.6048 45.5305 75.6788 45.5156 75.7744 45.5156ZM27.3633 45.5225C27.9296 45.5225 28.3857 45.6801 28.7314 46.0029C29.0771 46.3258 29.2539 46.7392 29.2539 47.2422C29.2538 47.7449 29.0769 48.1652 28.7314 48.4805C28.3784 48.8032 27.9222 48.9619 27.3633 48.9619C26.8043 48.9619 26.3482 48.8032 25.9951 48.4805C25.6421 48.1577 25.4728 47.745 25.4727 47.2422C25.4727 46.7392 25.6495 46.3258 25.9951 46.0029C26.3482 45.6802 26.8043 45.5225 27.3633 45.5225ZM40.2529 45.5225C40.7533 45.5225 41.1733 45.6723 41.4971 45.9727C41.8279 46.2729 41.9892 46.6412 41.9893 47.084C41.9892 47.2265 41.9597 47.3176 41.8936 47.3701C41.8271 47.4223 41.6945 47.4453 41.4893 47.4453H39.2451C39.304 47.7078 39.4218 47.903 39.5908 48.0381C39.76 48.1657 39.9955 48.2333 40.2822 48.2334C40.569 48.2334 40.8563 48.1656 41.1357 48.0156C41.4146 47.8733 41.5843 47.7983 41.6436 47.7979C41.7318 47.7979 41.7986 47.8279 41.8574 47.8955C41.9088 47.9631 41.9385 48.046 41.9385 48.1436C41.9383 48.3687 41.7757 48.5566 41.4521 48.7217C41.1285 48.8792 40.7309 48.9619 40.2529 48.9619C39.694 48.9619 39.2379 48.8041 38.8848 48.4814C38.5316 48.1586 38.3546 47.7453 38.3545 47.2422C38.3545 46.7391 38.5317 46.3259 38.8848 46.0029C39.2379 45.6802 39.694 45.5225 40.2529 45.5225ZM44.543 45.5225C45.043 45.5225 45.4551 45.6725 45.7861 45.9727C46.1169 46.2729 46.2792 46.6412 46.2793 47.084C46.2793 47.2265 46.2497 47.3176 46.1836 47.3701C46.1173 47.4225 45.977 47.4453 45.7715 47.4453H43.5205C43.5794 47.7077 43.6967 47.903 43.873 48.0381C44.0423 48.1656 44.2787 48.2334 44.5654 48.2334C44.8521 48.2333 45.1396 48.1657 45.4189 48.0156C45.6983 47.8731 45.8679 47.7979 45.9268 47.7979C46.0146 47.798 46.081 47.8282 46.1396 47.8955C46.191 47.963 46.2207 48.0461 46.2207 48.1436C46.2205 48.3686 46.0586 48.5566 45.7354 48.7217C45.4117 48.8794 45.0137 48.9619 44.543 48.9619C43.9839 48.9619 43.527 48.8042 43.1738 48.4814C42.8208 48.1586 42.6514 47.7452 42.6514 47.2422C42.6514 46.7391 42.8281 46.3259 43.1738 46.0029C43.527 45.68 43.9837 45.5225 44.543 45.5225ZM83.0049 45.5225C83.5052 45.5225 83.9179 45.6723 84.249 45.9727C84.5799 46.273 84.7411 46.6411 84.7412 47.084C84.7412 47.2264 84.7125 47.3176 84.6465 47.3701C84.5802 47.4224 84.4398 47.4453 84.2344 47.4453H81.9824C82.0413 47.7076 82.1588 47.903 82.335 48.0381C82.5041 48.1657 82.7406 48.2333 83.0273 48.2334C83.3141 48.2333 83.6015 48.1656 83.8809 48.0156C84.1598 47.8733 84.3295 47.7982 84.3887 47.7979C84.4767 47.7979 84.5428 47.8282 84.6016 47.8955C84.653 47.9631 84.6826 48.046 84.6826 48.1436C84.6824 48.3686 84.5207 48.5566 84.1973 48.7217C83.8736 48.8793 83.4756 48.9619 83.0049 48.9619C82.446 48.9618 81.9898 48.8041 81.6367 48.4814C81.2836 48.1586 81.1143 47.7452 81.1143 47.2422C81.1143 46.7391 81.2911 46.3258 81.6367 46.0029C81.9898 45.6802 82.446 45.5226 83.0049 45.5225ZM69.4316 44.5312C69.5859 44.5313 69.6965 44.5614 69.7627 44.6289C69.8285 44.6965 69.8584 44.8089 69.8584 44.9736V45.8076L69.8652 45.7998H70.9248C71.0866 45.7998 71.1975 45.8306 71.2637 45.8906C71.3296 45.9508 71.3662 46.0488 71.3662 46.1836C71.3661 46.3183 71.3296 46.4233 71.2637 46.4834C71.1975 46.5435 71.0792 46.5732 70.9248 46.5732H69.8652V47.4824C69.8652 47.7377 69.9025 47.9102 69.9834 48.0078C70.0643 48.1054 70.1965 48.1514 70.3877 48.1514C70.5715 48.1513 70.7848 48.0982 71.0273 47.9932C71.2698 47.8881 71.4395 47.836 71.5205 47.8359C71.6161 47.836 71.6975 47.8732 71.7637 47.9482C71.8297 48.0232 71.8661 48.1207 71.8662 48.2256C71.8662 48.4058 71.7045 48.5715 71.3809 48.7217C71.0572 48.8719 70.6893 48.9473 70.2773 48.9473C70.0346 48.9473 69.8284 48.9172 69.6445 48.8496C69.4608 48.7821 69.3207 48.692 69.2178 48.5645C69.1442 48.4668 69.0851 48.3532 69.0557 48.2256C69.0263 48.0904 69.0049 47.8728 69.0049 47.5654V46.5811H68.6807C68.5265 46.581 68.409 46.5511 68.3428 46.4912C68.2766 46.4311 68.2471 46.3256 68.2471 46.1904C68.2471 46.0553 68.2766 45.95 68.3428 45.8975C68.409 45.8451 68.5192 45.8077 68.6807 45.8076H69.0049V44.9736C69.0049 44.8086 69.0345 44.6965 69.1006 44.6289C69.1668 44.5613 69.2772 44.5312 69.4316 44.5312ZM32.5576 44.2148C32.8518 44.2149 33.0653 44.2527 33.2051 44.3203C33.3446 44.3879 33.4111 44.5003 33.4111 44.6504C33.4111 44.748 33.3811 44.8306 33.3223 44.8906C33.2634 44.9506 33.1751 44.9804 33.0723 44.9805C32.9988 44.9804 32.8885 44.9736 32.749 44.9512C32.6093 44.9287 32.513 44.9209 32.4541 44.9209C32.241 44.921 32.0863 44.9737 31.998 45.0713C31.91 45.1689 31.8663 45.3415 31.8662 45.5889V45.7021H32.6162C32.778 45.7022 32.8889 45.7319 32.9551 45.792C33.0212 45.8521 33.0576 45.9502 33.0576 46.0928C33.0576 46.235 33.021 46.3251 32.9551 46.3926C32.8889 46.4526 32.7707 46.4834 32.6162 46.4834H31.8662V48.1055H32.5576C32.7191 48.1055 32.8293 48.1355 32.8955 48.1953C32.9617 48.2554 32.999 48.3532 32.999 48.4883C32.999 48.6234 32.9617 48.729 32.8955 48.7891C32.8293 48.8489 32.7117 48.8789 32.5576 48.8789H30.6445C30.4831 48.8789 30.3729 48.8489 30.3066 48.7891C30.2404 48.729 30.2031 48.6235 30.2031 48.4883C30.2031 48.3531 30.2326 48.2554 30.2988 48.1953C30.365 48.1353 30.4828 48.1055 30.6445 48.1055H31.0127V46.4834H30.6445C30.4829 46.4834 30.3729 46.4526 30.3066 46.3926C30.2405 46.3325 30.2032 46.2353 30.2031 46.0928C30.2031 45.9501 30.2326 45.8521 30.2988 45.792C30.365 45.732 30.4828 45.7022 30.6445 45.7021H31.0127V45.499C31.0127 45.0336 31.13 44.7031 31.3652 44.5078C31.6007 44.3126 31.9985 44.2148 32.5576 44.2148ZM36.8389 44.2148C37.133 44.2149 37.3466 44.2528 37.4863 44.3203C37.626 44.3879 37.6924 44.5002 37.6924 44.6504C37.6924 44.748 37.6629 44.8306 37.5967 44.8906C37.5378 44.9506 37.4496 44.9804 37.3467 44.9805C37.2732 44.9805 37.1629 44.9736 37.0234 44.9512C36.8837 44.9287 36.7874 44.9209 36.7285 44.9209C36.5153 44.9209 36.3607 44.9737 36.2725 45.0713C36.1844 45.1689 36.1407 45.3414 36.1406 45.5889V45.7021H36.8906C37.0524 45.7022 37.1633 45.7319 37.2295 45.792C37.2955 45.8521 37.332 45.9503 37.332 46.0928C37.332 46.235 37.2954 46.3251 37.2295 46.3926C37.1633 46.4526 37.0451 46.4834 36.8906 46.4834H36.1406V48.1055H36.832C36.9935 48.1055 37.1037 48.1354 37.1699 48.1953C37.2361 48.2554 37.2734 48.3532 37.2734 48.4883C37.2734 48.6234 37.2361 48.729 37.1699 48.7891C37.1037 48.8489 36.9861 48.8789 36.832 48.8789H34.9189C34.7572 48.8789 34.6463 48.8491 34.5801 48.7891C34.514 48.729 34.4775 48.6234 34.4775 48.4883C34.4776 48.3531 34.507 48.2554 34.5732 48.1953C34.6395 48.1353 34.7572 48.1055 34.9189 48.1055H35.2871V46.4834H34.9189C34.7572 46.4834 34.6463 46.4526 34.5801 46.3926C34.5142 46.3325 34.4776 46.235 34.4775 46.0928C34.4775 45.9501 34.507 45.8521 34.5732 45.792C34.6395 45.732 34.7572 45.7022 34.9189 45.7021H35.2871V45.499C35.2871 45.0336 35.4044 44.7031 35.6396 44.5078C35.875 44.3126 36.2726 44.2149 36.8389 44.2148ZM77.8916 44.2432C77.9725 44.2432 78.0243 44.2584 78.0537 44.2959C78.0831 44.3334 78.0976 44.3934 78.0977 44.4834V45.9453C78.1783 45.8077 78.2931 45.6982 78.4365 45.625C78.5835 45.55 78.7601 45.5127 78.9658 45.5127C79.3336 45.5127 79.6139 45.625 79.8125 45.8428C80.0111 46.0606 80.1064 46.3767 80.1064 46.7822V48.1035H80.165C80.29 48.1035 80.3791 48.1336 80.4453 48.2012C80.5113 48.2687 80.541 48.359 80.541 48.4863C80.541 48.6288 80.5113 48.727 80.4453 48.7871C80.3791 48.8472 80.2682 48.8769 80.1064 48.877H79.2461C79.0918 48.877 78.9813 48.847 78.915 48.7871C78.8488 48.727 78.8193 48.6215 78.8193 48.4863C78.8194 48.3588 78.8489 48.2612 78.915 48.2012C78.9812 48.1413 79.0695 48.1035 79.1943 48.1035H79.2529V47.0674C79.2529 46.7671 79.2161 46.5567 79.1426 46.4365C79.069 46.3164 78.944 46.2637 78.7676 46.2637C78.591 46.2637 78.4215 46.3391 78.2891 46.4893C78.1568 46.6394 78.0908 46.8347 78.0908 47.0674V48.1035H78.1494C78.2744 48.1035 78.3703 48.1336 78.4365 48.2012C78.5026 48.2687 78.5322 48.3589 78.5322 48.4863C78.5322 48.629 78.5022 48.727 78.4287 48.7871C78.3552 48.8471 78.2519 48.8769 78.0977 48.877H77.2373C77.0755 48.877 76.9647 48.8471 76.8984 48.7871C76.8324 48.727 76.8027 48.6214 76.8027 48.4863C76.8028 48.3589 76.8324 48.2687 76.8984 48.2012C76.9646 48.1336 77.0537 48.1035 77.1787 48.1035H77.2373V45.0244H77.1787C77.0538 45.0244 76.9578 44.9942 76.8916 44.9268C76.8254 44.8592 76.7959 44.7614 76.7959 44.6338C76.7959 44.4911 76.8322 44.3931 76.8984 44.333C76.9647 44.273 77.0828 44.2432 77.2373 44.2432H77.8916ZM87.5518 45.5156C87.9194 45.5156 88.1989 45.6278 88.3828 45.8604C88.5667 46.0931 88.6553 46.4391 88.6553 46.9121V48.0986L88.6631 48.0908H88.707C88.8393 48.0908 88.9348 48.121 89.001 48.1885C89.0671 48.2561 89.0967 48.3538 89.0967 48.4814C89.0967 48.6239 89.0671 48.7212 89.001 48.7812C88.9348 48.8413 88.8247 48.872 88.6631 48.8721H87.8096C87.6551 48.8721 87.5443 48.8413 87.4707 48.7812C87.4047 48.7211 87.3682 48.6163 87.3682 48.4814C87.3682 48.3538 87.3977 48.2561 87.4639 48.1885C87.5301 48.121 87.6255 48.0908 87.7578 48.0908H87.8018V47.0625C87.8018 46.7775 87.7653 46.5743 87.6846 46.4541C87.6037 46.334 87.4778 46.2735 87.2939 46.2734C87.1029 46.2735 86.9409 46.3412 86.8232 46.4912C86.6982 46.6339 86.6396 46.8222 86.6396 47.0625V48.0908H86.6836C86.816 48.0908 86.9123 48.1209 86.9785 48.1885C87.0445 48.256 87.0732 48.354 87.0732 48.4814C87.0732 48.6238 87.0367 48.7212 86.9707 48.7812C86.9045 48.8413 86.7941 48.8721 86.6396 48.8721H85.7793C85.6249 48.8721 85.5145 48.8412 85.4482 48.7812C85.3821 48.7212 85.3448 48.6165 85.3447 48.4814C85.3447 48.3538 85.3742 48.2561 85.4404 48.1885C85.5066 48.121 85.6021 48.0909 85.7344 48.0908H85.7793V46.3711H85.7197C85.5948 46.3711 85.4988 46.3409 85.4326 46.2734C85.3666 46.2059 85.3379 46.1157 85.3379 45.9883C85.3379 45.8456 85.3669 45.7476 85.4404 45.6875C85.5067 45.6276 85.625 45.5977 85.7793 45.5977H86.3672C86.4333 45.5977 86.4779 45.6132 86.5146 45.6357C86.5512 45.6583 86.5664 45.6957 86.5664 45.748V46.0254C86.6767 45.8529 86.8095 45.7251 86.9785 45.6426C87.1402 45.5527 87.3387 45.5156 87.5518 45.5156ZM60.8164 44.2285C60.8968 44.2286 60.9481 44.2441 60.9775 44.2812C61.0069 44.3188 61.0225 44.3797 61.0225 44.4697V46.9346L61.7432 46.2715C61.6697 46.249 61.6178 46.2188 61.5957 46.1738C61.5665 46.1362 61.5596 46.0686 61.5596 45.9863C61.5596 45.8437 61.5891 45.7388 61.6553 45.6787C61.7142 45.6187 61.832 45.5889 61.9863 45.5889H62.751C62.9054 45.5889 63.0236 45.6186 63.0898 45.6787C63.1557 45.7388 63.1855 45.8363 63.1855 45.9785C63.1855 46.0836 63.1627 46.159 63.126 46.2041C63.0892 46.2491 63.0082 46.287 62.8906 46.3096C62.7804 46.3321 62.6844 46.37 62.6035 46.415C62.5154 46.4676 62.4196 46.5498 62.3096 46.6621L62.0664 46.9258L62.9863 48.0898H63.0752C63.2073 48.0899 63.3099 48.12 63.376 48.1875C63.4421 48.2476 63.4795 48.345 63.4795 48.4727C63.4795 48.6152 63.4421 48.7124 63.376 48.7725C63.3098 48.8325 63.1925 48.8633 63.0381 48.8633H62.1846C62.0378 48.8633 61.9276 48.8404 61.8613 48.7881C61.7951 48.7355 61.7578 48.6527 61.7578 48.54C61.7578 48.4575 61.7796 48.3895 61.8164 48.3369C61.8532 48.2845 61.9198 48.2474 62.0078 48.21L61.4414 47.5039L61.0146 47.9014V48.6299C61.0146 48.72 61.0001 48.7808 60.9707 48.8184C60.9412 48.8558 60.882 48.8701 60.8086 48.8701H60.1836C60.0292 48.8701 59.9188 48.8403 59.8525 48.7803C59.7864 48.7203 59.7569 48.6154 59.7568 48.4805C59.7568 48.3528 59.7863 48.2619 59.8525 48.1943C59.9187 48.127 60.007 48.0967 60.1318 48.0967H60.1904V45.0176H60.1318C60.0069 45.0176 59.9187 44.9796 59.8525 44.9121C59.7864 44.8445 59.7568 44.7468 59.7568 44.6191C59.7569 44.4843 59.7861 44.3794 59.8594 44.3193C59.9255 44.2593 60.0362 44.2286 60.1904 44.2285H60.8164ZM66.1211 45.5859C66.1872 45.586 66.2392 45.6015 66.2686 45.624C66.2977 45.6467 66.3193 45.6916 66.3193 45.7363V48.0947H67.0703C67.2318 48.0948 67.342 48.1247 67.4082 48.1846C67.4744 48.2446 67.5117 48.3425 67.5117 48.4775C67.5117 48.6127 67.4744 48.7182 67.4082 48.7783C67.3419 48.8381 67.2244 48.8681 67.0703 48.8682H64.7158C64.5614 48.8682 64.4432 48.8383 64.377 48.7783C64.3107 48.7182 64.2744 48.6127 64.2744 48.4775C64.2744 48.3425 64.303 48.2447 64.3691 48.1846C64.4354 48.1245 64.554 48.0947 64.7158 48.0947H65.4658V46.3672H65.0762C64.9219 46.3672 64.8114 46.3372 64.7451 46.2773C64.6789 46.2173 64.6416 46.1192 64.6416 45.9766C64.6416 45.8339 64.6711 45.7359 64.7373 45.6758C64.8035 45.6158 64.9144 45.5859 65.0762 45.5859H66.1211ZM52.4736 47.1699C52.3564 47.2447 52.2756 47.3279 52.2168 47.4102C52.158 47.5002 52.128 47.5985 52.1279 47.7109C52.128 47.861 52.1794 47.9887 52.2822 48.0938C52.3852 48.1913 52.5111 48.2441 52.6582 48.2441C52.7314 48.244 52.8053 48.2291 52.8857 48.1992C52.9664 48.1692 53.0409 48.124 53.1289 48.0566L52.4736 47.1699ZM27.3594 46.2656C27.089 46.2665 26.8691 46.3568 26.6934 46.5361C26.5171 46.7163 26.4288 46.949 26.4287 47.2266C26.4288 47.5042 26.517 47.745 26.6934 47.9326C26.8699 48.1203 27.0911 48.2109 27.3633 48.2109C27.6354 48.2109 27.8567 48.1202 28.0332 47.9326C28.2095 47.745 28.2978 47.5117 28.2979 47.2266C28.2978 46.9415 28.2095 46.7162 28.0332 46.5361C27.8574 46.3567 27.6373 46.2664 27.3594 46.2656ZM15.9756 46.8359C16.0341 46.836 16.0713 46.8509 16.1006 46.8809C16.1298 46.9109 16.1445 46.9489 16.1445 47.0088V47.4512C16.1445 47.5037 16.1295 47.5494 16.0928 47.5869C16.0562 47.6242 16.0194 47.6463 15.9756 47.6465H13.0908C13.0469 47.6465 13.0098 47.6319 12.9805 47.5947C12.951 47.5572 12.9434 47.5112 12.9434 47.4512V47.0088C12.9434 46.9564 12.9581 46.9187 12.9873 46.8887C13.0167 46.8587 13.0536 46.8438 13.0977 46.8438L13.0908 46.8359H15.9756ZM97.1836 46.8359C97.2422 46.836 97.2792 46.8509 97.3086 46.8809C97.3379 46.9109 97.3525 46.9489 97.3525 47.0088V47.4512C97.3525 47.5037 97.3375 47.5494 97.3008 47.5869C97.2642 47.6242 97.2275 47.6463 97.1836 47.6465H94.2988C94.2548 47.6465 94.2179 47.632 94.1885 47.5947C94.159 47.5572 94.1514 47.5112 94.1514 47.4512V47.0088C94.1514 46.9564 94.1661 46.9187 94.1953 46.8887C94.2247 46.8587 94.2617 46.8438 94.3057 46.8438L94.2988 46.8359H97.1836ZM40.1719 46.2051C39.9072 46.2051 39.716 46.2654 39.5615 46.3779C39.4072 46.4906 39.2961 46.6629 39.2373 46.8955H41.1143C41.0774 46.6778 40.9743 46.5049 40.8125 46.3848C40.6506 46.2646 40.4367 46.2051 40.1719 46.2051ZM82.917 46.2051C82.6524 46.2051 82.4611 46.2654 82.3066 46.3779C82.1524 46.4906 82.0413 46.663 81.9824 46.8955H83.8584C83.8216 46.678 83.7193 46.5049 83.5576 46.3848C83.3958 46.2647 83.1818 46.2051 82.917 46.2051ZM44.4473 46.2031C44.1824 46.2031 43.9905 46.2634 43.8359 46.376C43.6816 46.4886 43.5715 46.661 43.5127 46.8936H45.3887C45.3519 46.676 45.2485 46.5029 45.0869 46.3828C44.9252 46.2629 44.7117 46.2032 44.4473 46.2031ZM65.8193 43.9961C65.9882 43.9961 66.0984 44.0263 66.1572 44.0938C66.216 44.1613 66.2383 44.3189 66.2383 44.5664C66.2383 44.8141 66.2165 44.9575 66.165 45.0176C66.1135 45.0777 65.9954 45.1074 65.8115 45.1074C65.628 45.1074 65.5174 45.0778 65.4658 45.0254C65.4143 44.9728 65.3848 44.8598 65.3848 44.7021C65.3848 44.402 65.4144 44.2068 65.4658 44.124C65.5173 44.0414 65.6354 43.9961 65.8193 43.9961ZM12.0674 21.1787C12.2511 21.1788 12.3466 21.2915 12.3467 21.5166V35.3135C13.1778 35.2384 14.0019 35.1711 14.833 35.1035C15.0169 35.0885 15.1132 35.1934 15.1133 35.4111L15.1055 35.4189V37.5439C15.1055 37.7692 15.01 37.8892 14.8262 37.9043C13.9214 37.9944 13.023 38.085 12.1182 38.1826H12.0596C11.4638 38.2427 10.875 38.3104 10.2793 38.3779C10.0957 38.4002 10.0001 38.295 10 38.0625V21.5234C10.0001 21.2911 10.0958 21.1789 10.2793 21.1787H12.0674ZM99.7197 21.1787C99.9109 21.1787 99.9999 21.2909 100 21.5234V23.7168C100 23.9496 99.9037 24.0622 99.7197 24.0547C99.2418 24.0472 98.7709 24.0394 98.293 24.0244V37.8818C98.293 38.107 98.1974 38.2118 98.0137 38.1895C97.4179 38.1294 96.8209 38.062 96.2324 38.002C96.1666 38.0016 96.1005 37.9568 96.042 37.8896C95.9833 37.8221 95.9531 37.7391 95.9531 37.6416C95.9531 33.0902 95.9536 28.5387 95.9463 23.9873C95.4757 23.9798 95.0116 23.9724 94.541 23.9648C94.3501 23.9647 94.2608 23.852 94.2607 23.627V21.5088C94.2608 21.2837 94.3574 21.1789 94.541 21.1787H99.7197ZM88.0957 21.1738C88.2793 21.174 88.3904 21.2872 88.4199 21.4971C88.9275 26.6567 89.4348 31.8544 89.9424 37.0967V37.0889C89.9718 37.3064 89.891 37.4122 89.7002 37.3975C89.0898 37.3449 88.4854 37.2921 87.875 37.2471C87.6989 37.2318 87.6026 37.1189 87.5732 36.9014C87.5218 36.0754 87.4636 35.241 87.4121 34.415C87.0005 34.385 86.5806 34.363 86.1689 34.333C86.1175 35.1514 86.0652 35.9628 86.0137 36.7812C85.9842 36.9913 85.8882 37.0891 85.7119 37.0742C85.1017 37.0292 84.4979 36.9835 83.8877 36.9385C83.7041 36.9233 83.6225 36.8185 83.6445 36.6084C84.1374 31.6064 84.6311 26.5663 85.124 21.4893C85.1535 21.2796 85.2566 21.1741 85.4473 21.1738H88.0957ZM22.4043 21.1787C22.588 21.1788 22.6835 21.2835 22.6836 21.501C22.6836 25.7895 22.6685 30.0786 22.6611 34.3672C22.6612 34.5172 22.7063 34.6449 22.8018 34.75C22.8972 34.8474 23.0075 34.8921 23.1396 34.8848C23.191 34.8848 23.2503 34.8854 23.3018 34.8779C23.4341 34.8704 23.5514 34.8098 23.6396 34.6973C23.7352 34.5847 23.7802 34.4499 23.7803 34.2998C23.7803 30.0338 23.7944 25.767 23.8018 21.501C23.8019 21.2912 23.8978 21.1859 24.0811 21.1855H25.8691C26.053 21.1855 26.1483 21.2909 26.1484 21.501L26.1641 21.4863C26.1641 25.7446 26.149 30.0031 26.1416 34.2539C26.1416 34.6443 26.0757 35.0202 25.9434 35.373C25.8109 35.726 25.6265 36.0421 25.3984 36.3125C25.1705 36.5827 24.9055 36.8078 24.5967 36.9805C24.2878 37.1531 23.9634 37.2587 23.6104 37.2812C23.3532 37.3037 23.1029 37.3183 22.8457 37.3408C22.5001 37.3708 22.1683 37.319 21.8594 37.1914C21.5506 37.0637 21.2856 36.875 21.0576 36.6348C20.8299 36.3946 20.6528 36.1019 20.5205 35.7568C20.3882 35.4115 20.3223 35.0356 20.3223 34.6377C20.3223 30.259 20.3369 25.8797 20.3369 21.501C20.337 21.2836 20.4327 21.1789 20.6162 21.1787H22.4043ZM34.8516 21.0381C35.1972 21.0381 35.529 21.1133 35.8379 21.2559L35.8604 21.2266C36.169 21.3692 36.4342 21.5649 36.6621 21.8125C36.89 22.0602 37.0669 22.3456 37.1992 22.6758C37.3316 23.0061 37.3974 23.3591 37.3975 23.7344V25.4619C37.3975 25.6646 37.3093 25.7924 37.1328 25.8525C36.5224 25.9652 35.9116 26.071 35.3086 26.1836C35.1322 26.2435 35.043 26.1753 35.043 25.9727V23.8623C35.0429 23.7197 34.9989 23.5917 34.9033 23.4941C34.8079 23.3969 34.6975 23.3448 34.5654 23.3447H34.4033C34.2711 23.3448 34.1531 23.397 34.0576 23.502C33.9621 23.607 33.918 23.7278 33.918 23.8779C33.918 27.1674 33.9107 30.457 33.9033 33.7539C33.9033 33.8965 33.9475 34.0245 34.043 34.1221C34.1384 34.2195 34.2488 34.2642 34.3809 34.2568H34.543C34.6753 34.2568 34.7936 34.1969 34.8818 34.0918C34.9772 33.9868 35.0214 33.8592 35.0215 33.7168V30.667C35.0216 30.4646 35.11 30.3891 35.2861 30.4414C35.8965 30.509 36.5073 30.5773 37.1104 30.6523C37.2869 30.7049 37.3755 30.8325 37.3682 31.0352V33.7393C37.3681 34.1147 37.3019 34.4677 37.1621 34.8057C37.0298 35.1434 36.846 35.4362 36.6182 35.6914C36.3901 35.9467 36.117 36.1577 35.8154 36.3154C35.5067 36.4729 35.1829 36.5631 34.8301 36.5781C34.5727 36.5931 34.3218 36.6002 34.0645 36.6152C33.7189 36.6302 33.3879 36.5778 33.0791 36.4502C32.7704 36.3226 32.5053 36.1349 32.2773 35.9023C32.0494 35.6696 31.8721 35.384 31.7324 35.0537C31.6001 34.7234 31.5342 34.3701 31.5342 33.9873C31.5342 30.5925 31.5488 27.2044 31.5488 23.8096C31.5489 23.4267 31.6152 23.0663 31.7549 22.7285C31.8873 22.3906 32.0709 22.0974 32.2988 21.8496C32.5268 21.6019 32.7918 21.3986 33.1006 21.2559C33.4095 21.1132 33.7339 21.0381 34.0869 21.0381H34.8516ZM76.0674 21C76.4128 21.0001 76.744 21.0753 77.0527 21.2178L77.0303 21.2324C77.3392 21.3826 77.605 21.5784 77.833 21.8262C78.061 22.0739 78.2446 22.3751 78.377 22.7129C78.5093 23.0507 78.5756 23.4111 78.583 23.7939V25.5586C78.583 25.7614 78.4944 25.8966 78.3252 25.9492C77.7148 26.0393 77.1114 26.1296 76.501 26.2197C76.3246 26.2721 76.2363 26.2043 76.2363 25.9941V23.877C76.2363 23.7343 76.1849 23.6061 76.0967 23.501C76.0011 23.396 75.8901 23.3438 75.7578 23.3438H75.5957C75.4637 23.344 75.3459 23.3959 75.2578 23.4932C75.1623 23.5907 75.1182 23.7188 75.1182 23.8613C75.1182 27.1434 75.1255 30.4259 75.1328 33.708C75.1328 33.8506 75.177 33.9789 75.2725 34.084C75.368 34.1889 75.4787 34.2414 75.6182 34.249H75.7803C75.9125 34.249 76.0299 34.2108 76.1182 34.1133C76.2137 34.0158 76.2577 33.8961 76.2578 33.7461V30.6885C76.2579 30.4862 76.3473 30.4187 76.5234 30.4785C77.1338 30.5836 77.7446 30.6966 78.3477 30.8018C78.5241 30.8694 78.6123 31.0044 78.6123 31.207V33.9639C78.6123 34.3467 78.5464 34.6999 78.4141 35.0303C78.2816 35.3606 78.0976 35.6461 77.877 35.8789C77.649 36.1191 77.384 36.2991 77.0752 36.4268C76.7663 36.5544 76.4419 36.6143 76.0889 36.5918C75.8317 36.5768 75.5814 36.5622 75.3242 36.5547C74.9786 36.5396 74.6468 36.4497 74.3379 36.292C74.0291 36.1343 73.7641 35.9232 73.5361 35.668C73.3083 35.4127 73.1236 35.12 72.9912 34.7822C72.8589 34.4444 72.7935 34.0912 72.7861 33.7158C72.7861 30.3887 72.7779 27.0537 72.7705 23.7266C72.7705 23.3511 72.8373 22.9974 72.9697 22.667C73.1021 22.3368 73.2858 22.0514 73.5137 21.8037C73.7417 21.5559 74.0075 21.3605 74.3164 21.2178C74.6252 21.0752 74.9489 21.0001 75.3018 21H76.0674ZM44.7988 21.1562C44.9826 21.1562 45.079 21.2536 45.0791 21.4561V26.0225C45.697 24.4829 46.3147 22.9431 46.9326 21.4111C46.9988 21.2386 47.1244 21.1564 47.3154 21.1562H49.3242C49.4048 21.1564 49.456 21.1866 49.4854 21.2539H49.4785C49.5077 21.3138 49.5077 21.3812 49.4785 21.4561C48.581 23.5364 47.6832 25.6172 46.7783 27.7051C47.6611 30.3562 48.5439 33.0077 49.4268 35.6514C49.4562 35.719 49.4484 35.7869 49.4043 35.8545C49.3675 35.9219 49.3015 35.9521 49.2207 35.9521C48.5587 35.9597 47.8964 35.9749 47.2344 35.9824C47.1536 35.9823 47.0798 35.9591 47.0137 35.9141C46.9478 35.8691 46.9034 35.8092 46.874 35.7344C46.3885 34.1497 45.8957 32.557 45.4102 30.9648C45.2925 31.2651 45.1821 31.5656 45.0645 31.8584V35.7266C45.0645 35.9218 44.9681 36.0267 44.7842 36.0342C44.1886 36.0492 43.5926 36.0644 42.9971 36.0869C42.8061 36.0868 42.7168 35.9966 42.7168 35.7939L42.7314 21.4561C42.7316 21.2612 42.8282 21.1564 43.0117 21.1562H44.7988ZM56.4971 21.1562C56.6808 21.1563 56.7909 21.2541 56.8203 21.4492C57.0851 23.2215 57.3572 24.994 57.6221 26.7588H57.7031C57.968 24.9865 58.2401 23.2215 58.5049 21.4492C58.5343 21.2541 58.6381 21.1564 58.8291 21.1562H60.9551C61.0359 21.1562 61.0955 21.1865 61.1396 21.2539H61.124C61.1608 21.3139 61.1684 21.3811 61.1465 21.4561C60.3813 24.3702 59.6089 27.2848 58.8438 30.1914V35.6367C58.8437 35.8318 58.7482 35.9296 58.5645 35.9297C57.9613 35.9297 57.3571 35.9216 56.7539 35.9141C56.5632 35.9138 56.4746 35.8161 56.4746 35.6211V30.1836C55.7022 27.2771 54.9375 24.3625 54.165 21.4561C54.1359 21.3887 54.1427 21.3212 54.1865 21.2539C54.2232 21.1939 54.2903 21.1564 54.3711 21.1562H56.4971ZM86.3164 31.7949C86.625 31.8099 86.9345 31.8248 87.2432 31.8398C87.1107 29.7671 86.9859 27.6932 86.8535 25.6279H86.6914C86.5663 27.6857 86.4415 29.7447 86.3164 31.7949Z" fill="#2C180D"/>
</svg>