<svg width="110" height="70" viewBox="0 0 110 70" fill="none" xmlns="http://www.w3.org/2000/svg">
<path d="M86.9996 34.9998C86.9996 52.6719 72.6727 66.9996 55.0015 66.9996C37.3303 66.9996 23 52.6754 23 34.9998C23 17.3241 37.3269 3 54.9981 3C72.6692 3 86.9961 17.3276 86.9961 34.9998H86.9996Z" fill="#231F20"/>
<path d="M65.5212 46.2451C66.0513 46.2451 66.5411 46.293 66.9939 46.3955C67.4465 46.4944 67.8663 46.6438 68.2527 46.8379H68.2566C68.4846 46.6222 68.7236 46.5158 68.9626 46.5156C69.2349 46.5156 69.4637 46.6147 69.6404 46.8086C69.8171 47.0027 69.905 47.3258 69.905 47.7764V48.999C69.905 49.4568 69.8171 49.7832 69.6404 49.9736C69.4638 50.164 69.232 50.2597 68.9451 50.2598C68.6837 50.2598 68.4624 50.1863 68.282 50.0361C68.1531 49.9226 68.0499 49.6988 67.9763 49.3545C67.9027 49.0103 67.7224 48.7573 67.4353 48.5889C66.931 48.2923 66.2905 48.1465 65.5066 48.1465C64.6047 48.1465 63.8827 48.4098 63.3416 48.9336C62.7969 49.4609 62.5281 50.1238 62.5281 50.9258C62.5281 51.6657 62.7895 52.2524 63.3123 52.6846C63.835 53.113 64.7001 53.3291 65.9109 53.3291C66.706 53.3291 67.3548 53.2481 67.8591 53.0869C68.1571 52.988 68.4409 52.82 68.7058 52.582C68.9708 52.344 69.2133 52.2227 69.4304 52.2227C69.6917 52.2227 69.9165 52.3177 70.1042 52.5117C70.2956 52.7021 70.3874 52.9295 70.3875 53.1895C70.3875 53.6107 70.0965 54.0102 69.5222 54.3838C68.6645 54.9477 67.4093 55.2295 65.7566 55.2295C64.2731 55.2295 63.1171 54.9222 62.2888 54.3105C61.1699 53.4902 60.6102 52.3621 60.6101 50.9375C60.6101 49.5823 61.0631 48.4643 61.9724 47.5742C62.878 46.688 64.0636 46.2451 65.5212 46.2451ZM45.2634 43.6777C45.7234 43.6778 46.0508 43.7627 46.2458 43.9385C46.4409 44.1106 46.5407 44.3411 46.5408 44.623C46.5408 44.9051 46.4446 45.1396 46.2458 45.3154C46.0508 45.4912 45.7234 45.5791 45.2634 45.5791H43.3337V53.0146H45.2634C45.7233 53.0147 46.0508 53.1026 46.2458 53.2783C46.4409 53.4541 46.5407 53.6849 46.5408 53.9668C46.5408 54.2488 46.4446 54.4726 46.2458 54.6484C46.0508 54.8242 45.7233 54.9121 45.2634 54.9121H39.4949C39.0347 54.9121 38.7066 54.8243 38.5115 54.6484C38.3164 54.4726 38.2175 54.2417 38.2175 53.9561C38.2175 53.6704 38.3127 53.4502 38.5115 53.2744C38.7066 53.0987 39.0348 53.0107 39.4949 53.0107H41.4236V45.5752H39.4949C39.0347 45.5752 38.7066 45.4873 38.5115 45.3115C38.3165 45.1357 38.2175 44.9047 38.2175 44.6191C38.2176 44.3336 38.3128 44.1064 38.5115 43.9307C38.7066 43.7549 39.0348 43.667 39.4949 43.667L45.2634 43.6777ZM54.4109 46.2451C55.541 46.2451 56.4355 46.597 57.0945 47.293C57.6171 47.8497 57.8748 48.5785 57.8748 49.4795V53.0098C58.2797 53.0098 58.5779 53.0986 58.7693 53.2744C58.9607 53.4502 59.0564 53.6809 59.0564 53.9629C59.0563 54.2447 58.961 54.4678 58.7625 54.6436C58.5673 54.8194 58.2392 54.9072 57.7791 54.9072H56.0564C55.5963 54.9072 55.2691 54.8193 55.074 54.6436C54.8789 54.4677 54.7791 54.2369 54.7791 53.9512C54.7791 53.6658 54.8749 53.4462 55.0662 53.2705C55.2576 53.0947 55.5558 53.0069 55.9607 53.0068V49.4209C55.9607 49.0071 55.8502 48.7032 55.6257 48.5127C55.3349 48.2673 54.8966 48.1426 54.3113 48.1426C53.8697 48.1426 53.4833 48.2271 53.1521 48.3955C52.8208 48.564 52.3973 48.9263 51.8894 49.4756V53.0068C52.379 53.0068 52.696 53.0539 52.8396 53.1455C53.145 53.3286 53.2957 53.604 53.2957 53.9629C53.2956 54.2411 53.1994 54.4678 53.0007 54.6436C52.8056 54.8193 52.4784 54.9072 52.0183 54.9072H49.8503C49.3902 54.9072 49.0621 54.8194 48.8669 54.6436C48.672 54.4678 48.573 54.2368 48.573 53.9512C48.5731 53.6071 48.7233 53.3359 49.0212 53.1455C49.1685 53.054 49.489 53.0069 49.9822 53.0068V48.3916C49.5774 48.3916 49.279 48.3035 49.0876 48.124C48.8964 47.9446 48.8006 47.7176 48.8005 47.4395C48.8005 47.1611 48.9004 46.9336 49.0955 46.7578C49.2905 46.5821 49.6179 46.4942 50.0779 46.4941H51.8933V47.1348C52.2393 46.8382 52.6261 46.6152 53.0457 46.4688C53.4652 46.3223 53.9177 46.2451 54.4109 46.2451ZM52.6921 37.9395C52.6922 38.342 52.7912 38.6348 52.9861 38.8252C53.1812 39.0157 53.4833 39.1074 53.8845 39.1074C54.2857 39.1074 54.6834 39.031 55.1287 38.8809C55.5741 38.7307 56.1226 38.4552 56.7742 38.0596V34.1846H56.0857C55.6257 34.1845 55.2983 34.0966 55.1033 33.9209C54.9082 33.7451 54.8083 33.5142 54.8083 33.2285C54.8084 32.943 54.9083 32.7236 55.1033 32.5479C55.2983 32.3721 55.6257 32.2832 56.0857 32.2832H58.6853L58.6814 32.2871V38.8037C59.0863 38.8037 59.3845 38.8955 59.5759 39.0713C59.7709 39.2507 59.8669 39.4776 59.8669 39.7559C59.8669 40.0342 59.7671 40.2617 59.572 40.4375C59.3769 40.6131 59.0494 40.7011 58.5896 40.7012H56.7742V40.2646C56.2257 40.51 55.7067 40.6968 55.2097 40.8213C54.7128 40.9458 54.2418 41.0088 53.7927 41.0088C53.167 41.0088 52.622 40.8769 52.1619 40.6133C51.7018 40.3496 51.3371 39.9868 51.072 39.5254C50.8806 39.1921 50.7849 38.7742 50.7849 38.2725V34.1846H50.4578C49.9976 34.1846 49.6695 34.0967 49.4744 33.9209C49.2793 33.7451 49.1794 33.5142 49.1794 33.2285C49.1795 32.943 49.2758 32.7236 49.4744 32.5479C49.6695 32.372 49.9976 32.2832 50.4578 32.2832H52.6921V37.9395ZM43.1355 29.1738C43.6249 29.1738 44.0812 29.2288 44.5007 29.335C44.9204 29.4448 45.3 29.6093 45.6423 29.8291C45.8889 29.5875 46.1392 29.4669 46.3894 29.4668C46.6691 29.4668 46.8973 29.5657 47.074 29.7598C47.2507 29.9539 47.3396 30.2761 47.3396 30.7266V32.1553C47.3396 32.613 47.2507 32.9387 47.074 33.1328C46.8973 33.3269 46.6692 33.4258 46.3894 33.4258C46.154 33.4257 45.9481 33.3565 45.7751 33.2139C45.639 33.1077 45.5355 32.8988 45.4656 32.584C45.3956 32.269 45.3106 32.0418 45.2039 31.9062C45.0235 31.6719 44.755 31.4737 44.3943 31.3125C44.0335 31.1514 43.6174 31.0713 43.1462 31.0713C42.4579 31.0713 41.909 31.2282 41.5115 31.5469C41.1105 31.8654 40.912 32.1989 40.9119 32.543C40.9119 32.7774 40.9933 33.0048 41.1589 33.2246C41.3245 33.4442 41.5633 33.6167 41.8796 33.7412C42.0895 33.8291 42.6866 33.9677 43.6658 34.1582C44.6449 34.3487 45.396 34.562 45.9187 34.7891C46.4449 35.0162 46.8796 35.3746 47.2292 35.8652C47.5753 36.3524 47.7517 36.9354 47.7517 37.6094C47.7516 38.5469 47.4199 39.301 46.7537 39.8613C45.8738 40.6012 44.7473 40.9756 43.3816 40.9756C42.8554 40.9756 42.3401 40.9133 41.8396 40.7852C41.3389 40.657 40.8528 40.4659 40.3816 40.2168V40.2207C40.2162 40.4182 40.0803 40.5465 39.9773 40.6016C39.8742 40.6565 39.7483 40.6855 39.5974 40.6855C39.3067 40.6855 39.0709 40.5867 38.8943 40.3926C38.7177 40.1984 38.6296 39.8759 38.6296 39.4219V38.1436C38.6297 37.686 38.7177 37.3601 38.8943 37.166C39.0709 36.9719 39.3067 36.877 39.5974 36.877C39.822 36.877 40.01 36.9355 40.1609 37.0527C40.3116 37.1699 40.4296 37.3672 40.5105 37.6416C40.5914 37.916 40.6723 38.1032 40.7605 38.2021C40.9409 38.3926 41.2613 38.5874 41.7214 38.7852C42.1816 38.9829 42.6827 39.0811 43.2312 39.0811C44.0815 39.081 44.7811 38.8838 45.3259 38.4883C45.6719 38.2465 45.8484 37.9493 45.8484 37.5977C45.8483 37.3635 45.7637 37.1441 45.5984 36.9355C45.4291 36.7304 45.1563 36.5581 44.7771 36.4189C44.5268 36.3274 43.9705 36.1992 43.1091 36.0381C42.064 35.8477 41.2766 35.6127 40.7429 35.3418C40.2091 35.0707 39.7855 34.6859 39.4763 34.1914C39.1635 33.697 39.0085 33.1619 39.0085 32.5869C39.0087 31.6788 39.3913 30.884 40.1531 30.1992C40.9151 29.5179 41.9133 29.1738 43.1355 29.1738ZM64.8396 32.0264C65.1194 32.0264 65.3963 32.0923 65.6687 32.2314C65.9409 32.3669 66.2093 32.572 66.4705 32.8428C66.7981 32.5717 67.1337 32.3709 67.4724 32.2354C67.8111 32.1035 68.1571 32.0371 68.5105 32.0371C69.2172 32.0371 69.7914 32.228 70.2332 32.6016C70.8184 33.096 71.1091 33.7441 71.1091 34.5498V38.8066C71.5067 38.8066 71.8017 38.8974 71.9968 39.0732C72.1882 39.2527 72.2869 39.4804 72.2869 39.7588C72.2868 40.0369 72.1916 40.2637 71.9968 40.4395C71.8054 40.6153 71.4774 40.7031 71.0173 40.7031H69.2019V34.7041C69.2019 34.4147 69.1505 34.2132 69.0437 34.0996C68.937 33.9862 68.7754 33.9307 68.5583 33.9307C68.3412 33.9307 68.1528 33.9861 67.9724 34.0996C67.7406 34.2535 67.4647 34.5434 67.1335 34.9717V38.7988C67.531 38.7988 67.8252 38.8907 68.0203 39.0664C68.2116 39.2458 68.3073 39.4727 68.3074 39.751C68.3074 40.0294 68.2117 40.2568 68.0203 40.4326C67.8288 40.6082 67.5015 40.6963 67.0417 40.6963H65.2234V34.6963C65.2234 34.4109 65.1679 34.2132 65.0613 34.0996C64.9508 33.9861 64.7882 33.9277 64.571 33.9277C64.354 33.9278 64.1259 33.9967 63.9089 34.1357C63.6918 34.2749 63.4305 34.5501 63.1287 34.9639V38.792C63.526 38.792 63.8206 38.8829 64.0193 39.0586C64.2144 39.2381 64.3132 39.4658 64.3132 39.7441C64.3132 40.0223 64.2178 40.2491 64.0193 40.4248C63.8242 40.6006 63.496 40.6885 63.0359 40.6885H61.3132C60.8532 40.6885 60.5259 40.6006 60.3308 40.4248C60.1357 40.249 60.0359 40.0184 60.0359 39.7363C60.0359 39.4545 60.1318 39.2314 60.323 39.0557C60.5144 38.8799 60.8127 38.792 61.2175 38.792V34.1729C60.8127 34.1728 60.5144 34.0845 60.323 33.9014C60.1317 33.7219 60.0359 33.495 60.0359 33.2168C60.0359 32.9384 60.1357 32.711 60.3308 32.5352C60.5259 32.3595 60.8534 32.2715 61.3132 32.2715H63.1316L63.1248 32.2861V32.8252C63.434 32.5212 63.7172 32.3118 63.9675 32.1982C64.2177 32.0848 64.5085 32.0264 64.8396 32.0264ZM42.988 15.5596C43.6102 15.5596 44.2176 15.6735 44.8103 15.9043C45.4029 16.1314 45.8783 16.4248 46.239 16.7764C46.5113 17.0437 46.7982 17.4062 47.0925 17.8711C47.387 18.3362 47.6076 18.7942 47.7585 19.252C47.9058 19.7098 47.9832 20.2668 47.9832 20.9297V21.8379C47.9831 22.64 47.8471 23.3547 47.571 23.9736C47.2987 24.5961 46.9375 25.1014 46.4958 25.4932C46.0506 25.8849 45.6348 26.1746 45.241 26.3613C44.6189 26.6506 43.8163 26.7978 42.8298 26.7979H38.99C38.53 26.7978 38.2026 26.709 38.0076 26.5332C37.8126 26.3574 37.7127 26.1266 37.7126 25.8447C37.7127 25.5629 37.8126 25.3395 38.0076 25.1602C38.2027 24.9808 38.5008 24.8931 38.8982 24.9004V17.4609C38.4935 17.4536 38.1951 17.3622 38.0037 17.1865C37.8123 17.0108 37.7127 16.7831 37.7126 16.5049C37.7126 16.2266 37.8126 15.9922 38.0076 15.8164C38.2026 15.6407 38.5301 15.5528 38.99 15.5527L42.988 15.5596ZM64.8396 18.1191C65.1194 18.1191 65.3963 18.185 65.6687 18.3242C65.941 18.4597 66.2092 18.6656 66.4705 18.9365C66.7981 18.6655 67.1337 18.4636 67.4724 18.3281C67.811 18.1963 68.1572 18.1309 68.5105 18.1309C69.2171 18.1309 69.7915 18.3172 70.2332 18.6943C70.8185 19.1888 71.1091 19.8377 71.1091 20.6436V24.8994C71.5067 24.8994 71.8017 24.9875 71.9968 25.167C72.188 25.3464 72.2868 25.5734 72.2869 25.8516C72.2869 26.1299 72.1918 26.3574 71.9968 26.5332C71.8054 26.709 71.4774 26.7969 71.0173 26.7969H69.2019V20.8008C69.2019 20.5114 69.1505 20.3101 69.0437 20.2002C68.937 20.0868 68.7754 20.0313 68.5583 20.0312C68.3412 20.0312 68.1528 20.0866 67.9724 20.2002C67.7406 20.3541 67.4647 20.6439 67.1335 21.0723V24.8994C67.531 24.8994 67.8252 24.9876 68.0203 25.167C68.2116 25.3464 68.3073 25.5733 68.3074 25.8516C68.3074 26.1299 68.2117 26.3574 68.0203 26.5332C67.8288 26.7088 67.5015 26.7968 67.0417 26.7969H65.2234V20.8008C65.2234 20.5154 65.1678 20.3177 65.0613 20.2041C64.9508 20.0906 64.7882 20.0312 64.571 20.0312C64.354 20.0313 64.126 20.1012 63.9089 20.2402C63.6917 20.3794 63.4305 20.6547 63.1287 21.0723V24.8994C63.526 24.8995 63.8206 24.9876 64.0193 25.167C64.2142 25.3464 64.3132 25.5734 64.3132 25.8516C64.3132 26.1299 64.2181 26.3574 64.0193 26.5332C63.8242 26.709 63.496 26.7969 63.0359 26.7969H61.3132C60.8534 26.7969 60.5259 26.7089 60.3308 26.5332C60.1358 26.3574 60.036 26.1266 60.0359 25.8447C60.0359 25.5627 60.1316 25.3389 60.323 25.1631C60.5144 24.9873 60.8127 24.8994 61.2175 24.8994V20.2842C60.8127 20.2842 60.5144 20.1924 60.323 20.0166C60.1317 19.8372 60.0359 19.6103 60.0359 19.332C60.0359 19.0537 60.1357 18.8262 60.3308 18.6504C60.5259 18.4748 60.8534 18.3867 61.3132 18.3867H63.1248V18.918C63.4339 18.6141 63.7173 18.4055 63.9675 18.292C64.2177 18.1785 64.5085 18.1192 64.8396 18.1191ZM55.5671 24.8955H57.8601C58.3203 24.8955 58.6484 24.9834 58.8435 25.1592C59.0383 25.3349 59.1373 25.5652 59.1375 25.8506C59.1375 26.1362 59.0385 26.3564 58.8435 26.5322C58.6484 26.708 58.3203 26.7959 57.8601 26.7959H51.3669C50.9068 26.7959 50.5787 26.708 50.3835 26.5322C50.1886 26.3564 50.0896 26.1257 50.0896 25.8438C50.0896 25.5617 50.1848 25.3379 50.3835 25.1621C50.5787 24.9863 50.9068 24.8984 51.3669 24.8984H53.6599V20.2832H52.1218C51.6691 20.2832 51.3414 20.1953 51.1462 20.0195C50.9475 19.8437 50.8474 19.6128 50.8474 19.3271C50.8475 19.0417 50.9436 18.8222 51.1423 18.6465C51.3374 18.4707 51.6648 18.3828 52.1248 18.3828H55.5671V24.8955ZM40.8123 24.8955H42.8406C43.5988 24.8955 44.1699 24.7854 44.5564 24.5693C45.0606 24.2874 45.4401 23.9247 45.6941 23.4854C45.948 23.0459 46.0768 22.4777 46.0769 21.7783V20.8809C46.0769 20.2802 45.9621 19.7562 45.7302 19.3057C45.3695 18.6025 44.9645 18.1192 44.5154 17.8555C44.0663 17.5918 43.5032 17.46 42.8259 17.46H40.8123V24.8955ZM63.1316 18.3867H63.1248V18.3799L63.1316 18.3867ZM55.574 18.3828H55.5671V18.3789L55.574 18.3828ZM55.3054 16.7822H53.0339V14.7715H55.3054V16.7822Z" fill="white"/>
<path d="M29.2515 61.8496C29.9626 61.8496 30.6075 62.1365 31.0747 62.6035C31.5383 63.0706 31.8275 63.7157 31.8276 64.4268C31.8276 65.1378 31.5382 65.7795 31.0747 66.2432C30.6075 66.7103 29.9626 67 29.2515 67C28.5403 67 27.9018 66.7103 27.4312 66.2432C26.9677 65.7795 26.6783 65.1342 26.6782 64.4268C26.6784 63.7194 26.9643 63.0706 27.4312 62.6035C27.8983 62.14 28.5404 61.8496 29.2515 61.8496ZM29.2515 62.4912C28.7149 62.4912 28.2407 62.7113 27.8921 63.0596C27.5401 63.4081 27.3269 63.8897 27.3267 64.4229C27.3267 64.9562 27.5401 65.4375 27.8921 65.7861C28.2407 66.1312 28.7216 66.3516 29.2515 66.3516C29.7813 66.3515 30.2656 66.1312 30.6177 65.7861C30.9697 65.4375 31.1831 64.9527 31.1831 64.4229C31.1829 63.8932 30.9696 63.4046 30.6177 63.0596C30.2691 62.7113 29.788 62.4912 29.2515 62.4912ZM29.2202 63.0879C30.0772 63.088 30.224 63.4058 30.2241 63.8447H30.2202V64.2979C30.2202 64.601 30.1543 64.8141 29.8618 64.9014L30.2485 65.668H29.6206L29.2476 64.9326C29.164 64.9152 29.0872 64.9008 29.021 64.8799V65.668H28.394V63.1611C28.7353 63.1124 28.9171 63.0879 29.2202 63.0879ZM29.0249 63.5518V64.4053C29.0929 64.434 29.161 64.463 29.2437 64.4756L29.3354 64.4824C29.5514 64.4823 29.6001 64.3809 29.6001 64.252V63.8447C29.6 63.6706 29.551 63.545 29.2515 63.5449C29.1609 63.5449 29.1119 63.5448 29.0249 63.5518Z" fill="#231F20"/>
</svg>
