<svg width="18" height="18" viewBox="0 0 18 18" fill="none" xmlns="http://www.w3.org/2000/svg">
    <path d="M12.5928 0C15.5738 7.48924e-05 17.9989 2.42541 17.999 5.40625V12.5928C17.999 15.5737 15.5739 17.9989 12.5928 17.999H5.40625C2.42506 17.999 0 15.5738 0 12.5928V5.40625C0.000163629 2.42537 2.42516 0 5.40625 0H12.5928ZM5.40625 1.69336C3.35842 1.69336 1.69255 3.35857 1.69238 5.40625V12.5928C1.69238 14.6406 3.35832 16.3057 5.40625 16.3057H12.5928C14.6399 16.3056 16.3057 14.6405 16.3057 12.5928V5.40625C16.3055 3.35861 14.6398 1.69343 12.5928 1.69336H5.40625ZM9.07227 4.56738C11.5163 4.56738 13.5057 6.55515 13.5059 8.99902C13.5059 11.4438 11.5164 13.4326 9.07227 13.4326C6.6282 13.4325 4.63965 11.4437 4.63965 8.99902C4.63983 6.55522 6.62831 4.56751 9.07227 4.56738ZM9.07227 6.16016C7.50714 6.16028 6.2326 7.434 6.23242 8.99902C6.23242 10.5649 7.50703 11.8387 9.07227 11.8389C10.6383 11.8389 11.9121 10.565 11.9121 8.99902C11.9119 7.43392 10.6382 6.16016 9.07227 6.16016ZM13.7646 3.21387C14.3473 3.21394 14.8193 3.68595 14.8193 4.26855C14.8193 4.85122 14.3473 5.32415 13.7646 5.32422C13.1819 5.32422 12.709 4.85126 12.709 4.26855C12.7091 3.68591 13.182 3.21387 13.7646 3.21387Z" fill="#110F0E"/>
</svg>
