<svg width="18" height="18" viewBox="0 0 18 18" fill="none" xmlns="http://www.w3.org/2000/svg">
    <g clip-path="url(#clip0_362_30638)">
        <path d="M9.16406 0.799805C13.6086 0.799805 17.2001 4.37337 17.2002 8.76855C17.2002 13.1628 13.6079 16.7363 9.16406 16.7363C7.75241 16.7363 6.42818 16.3769 5.27734 15.7451L4.97754 15.5801L4.65039 15.6836L1.26562 16.7578L2.35254 13.5527L2.47266 13.1982L2.27832 12.8799C1.54775 11.6801 1.12695 10.2726 1.12695 8.76758C1.12801 4.37348 4.71952 0.799912 9.16406 0.799805Z" stroke="black" stroke-width="1.6"/>
        <path fill-rule="evenodd" clip-rule="evenodd" d="M13.6261 10.7877C13.5718 10.6981 13.427 10.6438 13.2107 10.537C12.9944 10.4293 11.9283 9.90895 11.7301 9.83836C11.5319 9.76686 11.3861 9.73066 11.2432 9.94515C11.0983 10.1605 10.6838 10.6447 10.5562 10.7877C10.4304 10.9316 10.3046 10.9488 10.0874 10.8411C9.87023 10.7343 9.17246 10.5063 8.34527 9.775C7.7018 9.20484 7.26738 8.50164 7.13978 8.28624C7.01398 8.07175 7.12711 7.955 7.2348 7.84821C7.33255 7.75137 7.45201 7.59752 7.55971 7.47263C7.66831 7.34683 7.70451 7.25633 7.77601 7.11333C7.84841 6.96943 7.81221 6.84454 7.75791 6.73775C7.70451 6.63005 7.271 5.57298 7.09 5.14219C6.91081 4.71231 6.7298 4.7286 6.6031 4.7286C6.47639 4.7286 6.2429 4.7657 6.2429 4.7657C6.2429 4.7657 5.80849 4.8191 5.61029 5.03449C5.41209 5.24898 4.85278 5.76937 4.85278 6.82644C4.85278 7.88351 5.62839 8.90618 5.73609 9.04918C5.84469 9.19307 7.2339 11.4339 9.43672 12.2946C11.6386 13.1553 11.6386 12.8675 12.036 12.8313C12.4324 12.796 13.3175 12.3118 13.4976 11.8095C13.6786 11.3072 13.6786 10.8773 13.6243 10.7877H13.6261Z" fill="black"/>
    </g>
    <defs>
        <clipPath id="clip0_362_30638">
            <rect width="18" height="18" fill="white"/>
        </clipPath>
    </defs>
</svg>
