<svg width="12" height="14" viewBox="0 0 12 14" fill="none" xmlns="http://www.w3.org/2000/svg">
    <path d="M5.8232 0.525391C6.49061 0.887844 7.18051 1.04412 7.91992 1.36393C8.28283 1.52517 8.66228 1.74779 8.9787 2.07822C9.29813 2.40469 9.508 2.84746 9.56799 3.2925C9.76122 5.12586 8.2319 6.43983 7.14611 7.2553C6.58372 7.68835 6.07963 8.08933 5.73168 8.51572C5.38076 8.93677 5.18887 9.40714 5.14834 9.96141C5.07335 11.0754 5.61432 12.3244 6.44522 13.477C5.74785 13.1586 5.14479 12.6769 4.64388 12.1013C4.15509 11.5217 3.78018 10.8196 3.66471 10.0269C3.53273 9.24334 3.74429 8.3488 4.22573 7.65188C4.70115 6.94843 5.33445 6.43959 5.90281 5.99191C6.19221 5.77076 6.46783 5.55986 6.72275 5.35203C6.97621 5.15348 7.18027 4.95508 7.37974 4.73521L7.37677 4.7367C7.76822 4.30229 8.04907 3.81183 8.08956 3.36542C8.14803 2.9217 7.91359 2.47938 7.38867 2.03432C6.89523 1.58659 6.19214 1.15434 5.8232 0.525391Z" fill="#110F0E"/>
    <path d="M11.5896 5.01126C11.7575 5.3897 11.756 5.84444 11.5955 6.25754C11.4305 6.66912 11.144 7.02884 10.8351 7.33789C10.2203 7.95872 9.50504 8.45171 9.08361 9.01126C8.66366 9.5696 8.53026 10.2577 8.69224 10.9666C8.85275 11.6741 9.24553 12.3699 9.76442 13.0321C8.97552 12.6243 8.32138 11.9643 7.98242 11.1474C7.80557 10.7398 7.73958 10.2868 7.78004 9.8312C7.82504 9.37413 8.01296 8.92749 8.29492 8.54772H8.2979C8.8873 7.7896 9.67309 7.3632 10.321 6.87286C10.9764 6.39715 11.5326 5.84542 11.5896 5.01126Z" fill="#110F0E"/>
    <path d="M3.69596 3.25902C4.13236 3.50018 4.51933 3.93434 4.54641 4.47926C4.55991 5.0162 4.29498 5.4989 3.99507 5.90262C3.39221 6.71806 2.53717 7.32444 1.90876 7.94801C1.30134 8.55032 1.01278 9.33819 1.12677 10.163C1.2393 10.9891 1.69265 11.802 2.31501 12.5455H2.31352C1.42414 12.0578 0.690786 11.2646 0.401322 10.2866C0.248378 9.80022 0.252998 9.26742 0.384953 8.75977C0.528912 8.25215 0.825593 7.78574 1.19596 7.39667C1.9608 6.67317 2.76312 6.15715 3.40951 5.50828C3.71845 5.18582 4.00184 4.8432 4.08585 4.45545C4.18033 4.06768 3.99893 3.6428 3.69596 3.25902Z" fill="#110F0E"/>
</svg>
