<svg width="14" height="14" viewBox="0 0 14 14" fill="none" xmlns="http://www.w3.org/2000/svg">
    <path d="M7.00061 0.941406C7.25874 0.941534 7.48159 1.14292 7.48206 1.40625V2.18848L8.276 1.43457C8.46315 1.25691 8.76459 1.25698 8.95178 1.43457C9.1429 1.61646 9.14272 1.91467 8.95178 2.09668L7.48108 3.49414V6.20117L9.96057 4.84082L10.4987 2.93262C10.5699 2.68102 10.8364 2.54239 11.0856 2.60547C11.3374 2.66967 11.499 2.92162 11.4274 3.17676L11.1403 4.19336L11.859 3.79883C12.0848 3.67498 12.3773 3.74637 12.5123 3.96777C12.6501 4.19458 12.5653 4.48104 12.3356 4.60742L11.6364 4.99023L12.6998 5.26172C12.9517 5.32586 13.1132 5.57798 13.0416 5.83301C12.9819 6.04398 12.784 6.17578 12.5768 6.17578C12.5364 6.17575 12.4951 6.17078 12.4537 6.16016L10.4401 5.64746L7.97522 7L10.4401 8.35156L12.4537 7.83984C12.7032 7.77632 12.9702 7.91434 13.0416 8.16602C13.1137 8.42142 12.9518 8.67402 12.6998 8.73828L11.6364 9.00781L12.3356 9.3916C12.5651 9.51774 12.6499 9.80443 12.5123 10.0312C12.4215 10.1808 12.2595 10.2606 12.0973 10.2607C12.0168 10.2607 11.9342 10.2414 11.859 10.2002L11.1403 9.80469L11.4274 10.8223C11.4994 11.0778 11.3376 11.3303 11.0856 11.3945C11.0452 11.4047 11.0043 11.4091 10.9635 11.4092C10.7564 11.4091 10.5583 11.2783 10.4987 11.0674L9.96057 9.15723L7.48108 7.79785V10.5039L8.95178 11.9023C9.14314 12.0843 9.1431 12.3834 8.95178 12.5654C8.85734 12.6552 8.73436 12.6982 8.61389 12.6982C8.49345 12.6982 8.37042 12.6551 8.276 12.5654L7.48206 11.8105V12.5928C7.48206 12.8565 7.25901 13.0575 7.00061 13.0576C6.74214 13.0576 6.51917 12.8566 6.51917 12.5928V11.8096L5.72424 12.5654C5.53709 12.743 5.2366 12.743 5.04944 12.5654C4.85817 12.3834 4.85798 12.0843 5.04944 11.9023L6.51917 10.5049V7.79883L4.03967 9.1582L3.50159 11.0674C3.44176 11.2781 3.2448 11.4092 3.03772 11.4092C3.01744 11.4092 2.99681 11.4088 2.9762 11.4062L2.91467 11.3945C2.66262 11.3303 2.50083 11.0775 2.57288 10.8223L2.85901 9.80566L2.14124 10.2002C2.06609 10.2414 1.98436 10.2607 1.90393 10.2607C1.74164 10.2607 1.57882 10.1809 1.48792 10.0312C1.35073 9.80443 1.43587 9.5177 1.66565 9.3916L2.36389 9.00781L1.30139 8.73828C1.04931 8.67412 0.887542 8.42127 0.959595 8.16602C1.03103 7.91482 1.29735 7.77559 1.54651 7.83887L3.56018 8.35156L6.026 6.99902L3.56018 5.64746L1.54651 6.16016C1.50597 6.17036 1.46445 6.17578 1.42346 6.17578C1.21634 6.17564 1.01913 6.04398 0.959595 5.83301C0.88783 5.57775 1.04955 5.32592 1.30139 5.26172L2.36389 4.99023L1.66565 4.60742C1.43618 4.48118 1.35011 4.19459 1.48792 3.96777C1.62292 3.74619 1.91562 3.67533 2.14124 3.79883L2.85901 4.19238L2.57288 3.17676C2.50126 2.92159 2.66294 2.66968 2.91467 2.60547C3.16441 2.54188 3.43029 2.68102 3.50159 2.93262L4.03967 4.84082L6.51917 6.2002V3.49316L5.04944 2.09668C4.85826 1.91461 4.85801 1.61649 5.04944 1.43457C5.23659 1.25692 5.53706 1.25698 5.72424 1.43457L6.51917 2.18945V1.40625C6.51963 1.14287 6.74241 0.941455 7.00061 0.941406Z" fill="#110F0E"/>
</svg>