<svg width="53" height="16" viewBox="0 0 53 16" fill="none" xmlns="http://www.w3.org/2000/svg">
    <path d="M5.02563 6.79883V13.9988" stroke="black" stroke-width="1.5" stroke-linecap="round" stroke-linejoin="round"/>
    <path d="M9.86687 4.328L9.26172 6.8H12.7897C12.9776 6.8 13.1629 6.84337 13.331 6.92669C13.499 7.01 13.6452 7.13097 13.7579 7.28C13.8707 7.42904 13.9469 7.60205 13.9805 7.78534C14.0141 7.96863 14.0042 8.15716 13.9516 8.336L12.5416 13.136C12.4683 13.3853 12.3154 13.6042 12.1059 13.76C11.8964 13.9158 11.6416 14 11.3797 14H3.21029C2.8893 14 2.58146 13.8736 2.35448 13.6485C2.12751 13.4235 2 13.1183 2 12.8V8C2 7.68174 2.12751 7.37652 2.35448 7.15147C2.58146 6.92643 2.8893 6.8 3.21029 6.8H4.88048C5.10565 6.79988 5.32632 6.73749 5.51767 6.61983C5.70903 6.50218 5.86349 6.33393 5.96369 6.134L8.05144 2C8.33681 2.0035 8.61769 2.0709 8.8731 2.19716C9.12851 2.32341 9.35185 2.50526 9.52642 2.72912C9.70099 2.95298 9.82228 3.21306 9.88123 3.48992C9.94019 3.76679 9.93528 4.05328 9.86687 4.328Z" stroke="black" stroke-width="1.5" stroke-linecap="round" stroke-linejoin="round"/>
    <path d="M20.5057 5.18182H22.0227L23.625 9.09091H23.6932L25.2955 5.18182H26.8125V11H25.6193V7.21307H25.571L24.0653 10.9716H23.2528L21.7472 7.19886H21.6989V11H20.5057V5.18182ZM30.6016 9.14205V6.63636H31.8118V11H30.6499V10.2074H30.6044C30.5059 10.4631 30.3421 10.6686 30.1129 10.8239C29.8857 10.9792 29.6082 11.0568 29.2805 11.0568C28.9889 11.0568 28.7322 10.9905 28.5107 10.858C28.2891 10.7254 28.1158 10.5369 27.9908 10.2926C27.8677 10.0483 27.8052 9.75568 27.8033 9.41477V6.63636H29.0135V9.19886C29.0154 9.45644 29.0845 9.66004 29.2209 9.80966C29.3572 9.95928 29.54 10.0341 29.7692 10.0341C29.915 10.0341 30.0514 10.0009 30.1783 9.93466C30.3052 9.86648 30.4074 9.7661 30.4851 9.63352C30.5646 9.50095 30.6035 9.33712 30.6016 9.14205ZM36.4105 7.88068L35.3026 7.94886C35.2836 7.85417 35.2429 7.76894 35.1804 7.69318C35.1179 7.61553 35.0355 7.55398 34.9332 7.50852C34.8329 7.46117 34.7126 7.4375 34.5724 7.4375C34.3849 7.4375 34.2268 7.47727 34.098 7.55682C33.9692 7.63447 33.9048 7.73864 33.9048 7.86932C33.9048 7.97348 33.9465 8.06155 34.0298 8.13352C34.1132 8.20549 34.2562 8.26326 34.4588 8.30682L35.2486 8.46591C35.6728 8.55303 35.9891 8.69318 36.1974 8.88636C36.4058 9.07955 36.5099 9.33333 36.5099 9.64773C36.5099 9.93371 36.4257 10.1847 36.2571 10.4006C36.0904 10.6165 35.8613 10.785 35.5696 10.9062C35.2798 11.0256 34.9455 11.0852 34.5668 11.0852C33.9891 11.0852 33.5289 10.965 33.1861 10.7244C32.8452 10.482 32.6454 10.1525 32.5866 9.7358L33.777 9.6733C33.813 9.84943 33.9001 9.9839 34.0384 10.0767C34.1766 10.1676 34.3537 10.2131 34.5696 10.2131C34.7817 10.2131 34.9522 10.1723 35.081 10.0909C35.2116 10.0076 35.2779 9.90057 35.2798 9.76989C35.2779 9.66004 35.2315 9.57008 35.1406 9.5C35.0497 9.42803 34.9096 9.37311 34.7202 9.33523L33.9645 9.18466C33.5384 9.09943 33.2211 8.9517 33.0128 8.74148C32.8063 8.53125 32.7031 8.26326 32.7031 7.9375C32.7031 7.6572 32.7789 7.41572 32.9304 7.21307C33.0838 7.01042 33.2988 6.85417 33.5753 6.74432C33.8537 6.63447 34.1795 6.57955 34.5526 6.57955C35.1037 6.57955 35.5374 6.69602 35.8537 6.92898C36.1719 7.16193 36.3575 7.47917 36.4105 7.88068ZM39.593 6.63636V7.54545H36.9652V6.63636H39.593ZM37.5618 5.59091H38.772V9.65909C38.772 9.77083 38.7891 9.85795 38.8232 9.92045C38.8572 9.98106 38.9046 10.0237 38.9652 10.0483C39.0277 10.0729 39.0997 10.0852 39.1811 10.0852C39.2379 10.0852 39.2947 10.0805 39.3516 10.071C39.4084 10.0597 39.4519 10.0511 39.4822 10.0455L39.6726 10.946C39.612 10.965 39.5268 10.9867 39.4169 11.0114C39.3071 11.0379 39.1735 11.054 39.0163 11.0597C38.7247 11.071 38.469 11.0322 38.2493 10.9432C38.0315 10.8542 37.862 10.7159 37.7408 10.5284C37.6196 10.3409 37.5599 10.1042 37.5618 9.81818V5.59091ZM44.554 6.63636V7.54545H41.9261V6.63636H44.554ZM42.5227 5.59091H43.733V9.65909C43.733 9.77083 43.75 9.85795 43.7841 9.92045C43.8182 9.98106 43.8655 10.0237 43.9261 10.0483C43.9886 10.0729 44.0606 10.0852 44.142 10.0852C44.1989 10.0852 44.2557 10.0805 44.3125 10.071C44.3693 10.0597 44.4129 10.0511 44.4432 10.0455L44.6335 10.946C44.5729 10.965 44.4877 10.9867 44.3778 11.0114C44.268 11.0379 44.1345 11.054 43.9773 11.0597C43.6856 11.071 43.4299 11.0322 43.2102 10.9432C42.9924 10.8542 42.8229 10.7159 42.7017 10.5284C42.5805 10.3409 42.5208 10.1042 42.5227 9.81818V5.59091ZM45.3423 11V6.63636H46.5156V7.39773H46.5611C46.6406 7.12689 46.7741 6.92235 46.9616 6.78409C47.1491 6.64394 47.3651 6.57386 47.6094 6.57386C47.67 6.57386 47.7353 6.57765 47.8054 6.58523C47.8755 6.5928 47.937 6.60322 47.9901 6.61648V7.69034C47.9332 7.6733 47.8546 7.65814 47.7543 7.64489C47.6539 7.63163 47.562 7.625 47.4787 7.625C47.3007 7.625 47.1416 7.66383 47.0014 7.74148C46.8632 7.81723 46.7533 7.9233 46.6719 8.05966C46.5923 8.19602 46.5526 8.35322 46.5526 8.53125V11H45.3423ZM49.4957 12.6364C49.3423 12.6364 49.1984 12.6241 49.0639 12.5994C48.9313 12.5767 48.8215 12.5473 48.7344 12.5114L49.0071 11.608C49.1491 11.6515 49.277 11.6752 49.3906 11.679C49.5062 11.6828 49.6056 11.6563 49.6889 11.5994C49.7741 11.5426 49.8433 11.446 49.8963 11.3097L49.9673 11.125L48.402 6.63636H49.6747L50.5781 9.84091H50.6236L51.5355 6.63636H52.8168L51.1207 11.4716C51.0393 11.7064 50.9285 11.911 50.7884 12.0852C50.6501 12.2614 50.4749 12.3968 50.2628 12.4915C50.0507 12.5881 49.795 12.6364 49.4957 12.6364Z" fill="#110F0E"/>
</svg>