<svg width="10" height="12" viewBox="0 0 10 12" fill="none" xmlns="http://www.w3.org/2000/svg">
    <path d="M8.42961 2.72684C8.62245 4.18102 7.20706 4.84731 7.20706 4.84731C7.27073 -0.0607698 3.21648 3.55468e-05 3.21648 3.55468e-05C4.05335 0.605516 5.01847 2.78679 2.57337 4.18017C2.5379 4.20072 2.50242 4.22127 2.46694 4.24183C-1.00423 6.30149 0.251069 11.1719 3.96875 12C3.39295 11.0383 2.60248 8.87414 5.16674 6.58068C7.68553 8.83475 6.96691 10.9629 6.39475 11.9486C8.41142 11.4091 9.87411 9.6569 9.90777 7.57754C9.94415 5.33974 8.42961 2.72684 8.42961 2.72684Z" fill="#110F0E"/>
</svg>
