<svg width="16" height="16" viewBox="0 0 16 16" fill="none" xmlns="http://www.w3.org/2000/svg">
    <path d="M0.499023 5.26172C4.00768 5.11608 5.9158 5.43626 7.39062 6.72656C8.01922 7.27657 8.52146 7.96837 8.76562 8.74512C9.00977 9.52176 8.98269 10.3848 8.62109 11.1191C8.5801 11.202 8.53545 11.2832 8.48633 11.3613C6.42922 8.42315 3.86585 7.5569 3.83887 7.54785C3.85418 7.55771 6.2082 9.07543 8.07324 11.5566C8.11793 11.6161 8.16192 11.6768 8.20605 11.7373C8.48096 12.115 8.7438 12.5142 8.98438 12.9326L8.56641 13.2314C8.56641 13.2314 8.32867 12.5458 7.88379 12.0547C7.21659 12.6255 6.29986 12.9478 5.39551 12.9121C4.0754 12.86 2.77305 12.1261 2.16211 11.0166C1.01582 8.93372 1.2104 6.85382 0.499023 5.26172ZM8.48535 5.52441C9.98678 4.21084 11.9291 3.88494 15.501 4.0332C14.7767 5.65394 14.9745 7.77038 13.8076 9.89062C13.1859 11.0202 11.8606 11.7672 10.5166 11.8203C9.92722 11.8436 9.33232 11.7179 8.80273 11.4717C8.84529 11.401 8.88484 11.3274 8.92188 11.2529C9.27147 10.5426 9.3496 9.68241 9.14258 8.86328C10.671 7.2801 12.1016 6.36035 12.1016 6.36035C12.1016 6.36035 10.617 6.85534 8.98535 8.37891C8.71336 7.69258 8.24459 7.04655 7.61719 6.49707C7.86036 6.13996 8.15561 5.81284 8.48535 5.52441Z" fill="#110F0E"/>
</svg>
