<svg width="16" height="16" viewBox="0 0 16 16" fill="none" xmlns="http://www.w3.org/2000/svg">
<path d="M13.3333 6.66732C13.3333 10.6673 7.99996 14.6673 7.99996 14.6673C7.99996 14.6673 2.66663 10.6673 2.66663 6.66732C2.66663 5.25283 3.22853 3.89628 4.22872 2.89608C5.22892 1.89589 6.58547 1.33398 7.99996 1.33398C9.41445 1.33398 10.771 1.89589 11.7712 2.89608C12.7714 3.89628 13.3333 5.25283 13.3333 6.66732Z" stroke="#110F0E" stroke-width="2" stroke-linecap="round" stroke-linejoin="round"/>
<path d="M8 8.66602C9.10457 8.66602 10 7.77059 10 6.66602C10 5.56145 9.10457 4.66602 8 4.66602C6.89543 4.66602 6 5.56145 6 6.66602C6 7.77059 6.89543 8.66602 8 8.66602Z" stroke="#110F0E" stroke-width="2" stroke-linecap="round" stroke-linejoin="round"/>
</svg>
