<svg width="67" height="24" viewBox="0 0 67 24" fill="none" xmlns="http://www.w3.org/2000/svg">
    <rect x="0.5" width="66" height="24" rx="12" fill="white"/>
    <g clip-path="url(#clip0_239_72086)">
        <path d="M19.5171 11.1101C19.5775 11.1711 19.6234 11.2424 19.6541 11.3189L20.513 11.3149C20.7615 11.3136 20.986 11.1664 21.0863 10.939C21.2167 10.6432 21.1016 10.3012 20.8294 10.1414L20.7739 10.113L21.4061 9.8996C21.5642 9.84613 21.6947 9.7321 21.7689 9.58254C21.9235 9.27067 21.7961 8.89246 21.4842 8.73779L21.2363 8.61439L21.4141 8.4372C21.7811 8.07024 21.7811 7.47527 21.4141 7.10831C21.0471 6.74135 20.4522 6.74135 20.0852 7.10831L19.8999 7.29304L19.7619 7.01551C19.6878 6.86595 19.5573 6.75192 19.3991 6.69845C19.0694 6.58694 18.7116 6.76389 18.6001 7.09367L18.4046 7.67016L18.3997 7.65605C18.3095 7.41076 18.0765 7.24725 17.8152 7.24584C17.4692 7.24398 17.1873 7.52292 17.1854 7.86887L17.1806 8.81922C17.2391 8.84849 17.2937 8.88719 17.3419 8.93491M19.5171 11.1101C19.2722 10.8626 18.8731 10.8604 18.6257 11.1053L12.3945 17.2696C12.2412 17.4212 12.0211 17.484 11.8109 17.436M19.5171 11.1101C19.7005 11.2955 19.7506 11.5745 19.6438 11.812L20.1895 11.5423C20.5016 11.3879 20.8796 11.5158 21.034 11.8278C21.108 11.9774 21.1196 12.1503 21.0663 12.3085L20.9544 12.6404L21.5611 12.6404C22.0504 12.6404 22.447 13.0371 22.447 13.5264C22.447 14.0156 22.0504 14.4123 21.5611 14.4123L20.9544 14.4117L21.0663 14.7442C21.1775 15.0741 21.0002 15.4316 20.6703 15.5428C20.5121 15.5961 20.3392 15.5845 20.1895 15.5105L19.5924 15.215L19.6108 15.2737C19.6902 15.5791 19.5299 15.9024 19.2285 16.0193C18.9968 16.1092 18.7339 16.0545 18.5572 15.8797L17.0738 14.4123L13.4828 17.9648C12.9916 18.4508 12.2008 18.4508 11.7096 17.9648L10.9842 17.2472L11.8109 17.436M11.8109 17.436L11.1641 17.288L11.016 16.6411M11.016 16.6411C10.968 16.4309 11.0308 16.2107 11.1824 16.0575M11.016 16.6411L11.2047 17.4678L10.4871 16.7424C10.0012 16.2512 10.0012 15.4604 10.4871 14.9692L14.0397 11.3781L12.5722 9.89477C12.3975 9.71809 12.3428 9.45519 12.4327 9.22349C12.5496 8.92212 12.8728 8.76175 13.1783 8.8412L13.2369 8.85961L12.9415 8.26245C12.8675 8.11281 12.8559 7.93992 12.9092 7.78172C13.0203 7.45183 13.3779 7.2745 13.7078 7.38566L14.0403 7.49761L14.0397 6.89087C14.0397 6.40159 14.4363 6.00495 14.9256 6.00495C15.4149 6.00495 15.8115 6.40159 15.8115 6.89087L15.8116 7.49761L16.1435 7.38566C16.3017 7.33235 16.4745 7.34399 16.6242 7.418C16.9362 7.57234 17.0641 7.95042 16.9097 8.26245L16.64 8.80818C16.8775 8.70134 17.1565 8.75148 17.3419 8.93491M11.1824 16.0575L15.5189 11.6736L17.1738 10.0192L17.1735 10.001L17.3467 9.82631M11.1824 16.0575L17.3467 9.82631M17.3467 9.82631C17.5915 9.57883 17.5894 9.17974 17.3419 8.93491M19.6997 8.80005L19.0664 9.43328M14.9256 8.69154L14.9256 9.58707M13.3637 12.5009L16.0215 15.1587M19.7604 13.5264L18.8649 13.5264" stroke="black" stroke-linecap="round"/>
    </g>
    <path d="M31.7262 16.1101C31.1983 16.1101 30.7437 15.9905 30.3626 15.7514C29.9838 15.5099 29.6926 15.1773 29.489 14.7536C29.2854 14.3298 29.1836 13.8445 29.1836 13.2976C29.1836 12.7436 29.2878 12.2547 29.4961 11.831C29.7044 11.4048 29.998 11.0722 30.3768 10.8331C30.7556 10.594 31.2018 10.4744 31.7156 10.4744C32.1299 10.4744 32.4992 10.5514 32.8235 10.7053C33.1478 10.8568 33.4094 11.0698 33.6083 11.3445C33.8095 11.6191 33.9291 11.9399 33.967 12.3068H32.9336C32.8768 12.0511 32.7466 11.831 32.543 11.6463C32.3417 11.4616 32.0719 11.3693 31.7333 11.3693C31.4374 11.3693 31.1781 11.4474 30.9556 11.6037C30.7354 11.7576 30.5638 11.9777 30.4407 12.2642C30.3176 12.5483 30.256 12.8845 30.256 13.2727C30.256 13.6705 30.3164 14.0137 30.4371 14.3026C30.5579 14.5914 30.7283 14.8151 30.9485 14.9737C31.171 15.1323 31.4326 15.2116 31.7333 15.2116C31.9345 15.2116 32.1168 15.175 32.2802 15.1016C32.4459 15.0258 32.5844 14.9181 32.6957 14.7784C32.8093 14.6387 32.8886 14.4706 32.9336 14.2741H33.967C33.9291 14.6269 33.8143 14.9418 33.6225 15.2188C33.4308 15.4957 33.1739 15.7135 32.8519 15.8722C32.5323 16.0308 32.1571 16.1101 31.7262 16.1101ZM37.4533 16.1101C36.9159 16.1101 36.4531 15.9953 36.0648 15.7656C35.6789 15.5336 35.3806 15.2081 35.1699 14.7891C34.9616 14.3677 34.8574 13.8741 34.8574 13.3082C34.8574 12.7495 34.9616 12.2571 35.1699 11.831C35.3806 11.4048 35.6742 11.0722 36.0506 10.8331C36.4294 10.594 36.8721 10.4744 37.3787 10.4744C37.6865 10.4744 37.9848 10.5253 38.2736 10.6271C38.5624 10.7289 38.8217 10.8887 39.0513 11.1065C39.281 11.3243 39.4621 11.6072 39.5946 11.9553C39.7272 12.3009 39.7935 12.7211 39.7935 13.2159V13.5923H35.4576V12.7969H38.753C38.753 12.5175 38.6962 12.2701 38.5826 12.0547C38.4689 11.8369 38.3091 11.6652 38.1032 11.5398C37.8996 11.4143 37.6605 11.3516 37.3858 11.3516C37.0875 11.3516 36.8271 11.425 36.6046 11.5717C36.3844 11.7161 36.214 11.9055 36.0932 12.1399C35.9748 12.3719 35.9157 12.6241 35.9157 12.8963V13.5178C35.9157 13.8823 35.9796 14.1925 36.1074 14.4482C36.2376 14.7038 36.4187 14.8991 36.6507 15.0341C36.8828 15.1667 37.1538 15.233 37.464 15.233C37.6652 15.233 37.8487 15.2045 38.0144 15.1477C38.1801 15.0885 38.3233 15.0009 38.4441 14.8849C38.5648 14.7689 38.6571 14.6257 38.7211 14.4553L39.726 14.6364C39.6455 14.9323 39.5011 15.1915 39.2928 15.4141C39.0868 15.6342 38.8276 15.8059 38.5151 15.929C38.205 16.0497 37.851 16.1101 37.4533 16.1101ZM42.0334 8.72727V16H40.9716V8.72727H42.0334ZM45.8127 16.1101C45.2753 16.1101 44.8124 15.9953 44.4242 15.7656C44.0383 15.5336 43.74 15.2081 43.5293 14.7891C43.321 14.3677 43.2168 13.8741 43.2168 13.3082C43.2168 12.7495 43.321 12.2571 43.5293 11.831C43.74 11.4048 44.0336 11.0722 44.41 10.8331C44.7888 10.594 45.2315 10.4744 45.7381 10.4744C46.0459 10.4744 46.3442 10.5253 46.633 10.6271C46.9218 10.7289 47.181 10.8887 47.4107 11.1065C47.6403 11.3243 47.8214 11.6072 47.954 11.9553C48.0866 12.3009 48.1529 12.7211 48.1529 13.2159V13.5923H43.8169V12.7969H47.1124C47.1124 12.5175 47.0556 12.2701 46.9419 12.0547C46.8283 11.8369 46.6685 11.6652 46.4625 11.5398C46.2589 11.4143 46.0198 11.3516 45.7452 11.3516C45.4469 11.3516 45.1865 11.425 44.964 11.5717C44.7438 11.7161 44.5733 11.9055 44.4526 12.1399C44.3342 12.3719 44.275 12.6241 44.275 12.8963V13.5178C44.275 13.8823 44.339 14.1925 44.4668 14.4482C44.597 14.7038 44.7781 14.8991 45.0101 15.0341C45.2421 15.1667 45.5132 15.233 45.8233 15.233C46.0246 15.233 46.208 15.2045 46.3738 15.1477C46.5395 15.0885 46.6827 15.0009 46.8034 14.8849C46.9242 14.7689 47.0165 14.6257 47.0804 14.4553L48.0854 14.6364C48.0049 14.9323 47.8605 15.1915 47.6522 15.4141C47.4462 15.6342 47.187 15.8059 46.8745 15.929C46.5643 16.0497 46.2104 16.1101 45.8127 16.1101ZM49.331 16V10.5455H50.3572V11.4119H50.4141C50.5135 11.1184 50.6887 10.8875 50.9396 10.7195C51.1929 10.549 51.4794 10.4638 51.799 10.4638C51.8653 10.4638 51.9434 10.4661 52.0334 10.4709C52.1257 10.4756 52.1979 10.4815 52.25 10.4886V11.5043C52.2074 11.4924 52.1316 11.4794 52.0227 11.4652C51.9138 11.4486 51.8049 11.4403 51.696 11.4403C51.4451 11.4403 51.2214 11.4936 51.0249 11.6001C50.8307 11.7043 50.6768 11.8499 50.5632 12.0369C50.4496 12.2216 50.3928 12.4323 50.3928 12.669V16H49.331ZM54.006 18.0455C53.8474 18.0455 53.703 18.0324 53.5728 18.0064C53.4426 17.9827 53.3455 17.9567 53.2816 17.9283L53.5373 17.0582C53.7314 17.1103 53.9042 17.1328 54.0558 17.1257C54.2073 17.1186 54.341 17.0618 54.457 16.9553C54.5754 16.8487 54.6796 16.6747 54.7695 16.4332L54.9009 16.071L52.9052 10.5455H54.0415L55.4229 14.7784H55.4798L56.8612 10.5455H58.0011L55.7532 16.728C55.649 17.0121 55.5165 17.2524 55.3555 17.4489C55.1945 17.6477 55.0027 17.7969 54.7802 17.8963C54.5576 17.9957 54.2996 18.0455 54.006 18.0455Z" fill="black"/>
    <defs>
        <clipPath id="clip0_239_72086">
            <rect width="16" height="16" fill="white" transform="translate(8.5 4)"/>
        </clipPath>
    </defs>
</svg>
