<?xml version="1.0" encoding="utf-8"?>
<!-- Generator: Adobe Illustrator 27.5.0, SVG Export Plug-In . SVG Version: 6.00 Build 0)  -->
<svg version="1.1" id="Layer_1" xmlns="http://www.w3.org/2000/svg" xmlns:xlink="http://www.w3.org/1999/xlink" x="0px" y="0px"
	 viewBox="0 0 4000 4000" style="enable-background:new 0 0 4000 4000;" xml:space="preserve">
<g>
	<g>
		<rect style="fill:#E6EBED;" width="4000" height="4000"/>
	</g>
	<g style="opacity:0.2;">
		<path style="fill:#491212;" d="M2511.492,2827.965c-159.111,0-302.371,17.704-402.577,45.974
			c-100.204-28.27-243.466-45.974-402.577-45.974c-302.977,0-548.591,64.167-548.591,143.319
			c0,79.154,245.614,143.322,548.591,143.322c159.111,0,302.373-17.704,402.577-45.973
			c100.207,28.269,243.466,45.973,402.577,45.973c302.979,0,548.591-64.167,548.591-143.322
			C3060.083,2892.133,2814.472,2827.965,2511.492,2827.965z"/>
	</g>
	<g>
		<g>
			<g>
				<path style="fill:#F9EDD4;" d="M2438.869,2302.396c-52.53,465.545-383.988,674.741-758.969,632.43
					c-374.982-42.311-651.489-320.108-598.959-785.653c52.53-465.545,414.206-942.545,789.187-900.233
					C2245.109,1291.251,2491.399,1836.852,2438.869,2302.396z"/>
			</g>
			<g>
				<path style="fill:#EFC88F;" d="M2400.557,2286.303c-21.515,190.898-94.101,346.581-209.808,450.294
					c-107.037,95.898-248.347,146.609-408.656,146.609c-29.016,0-58.886-1.707-88.666-5.076
					c-180.567-20.392-328.928-95.449-429.003-217.039c-48.51-58.886-84.175-127.609-106.498-204.418
					c112.068,104.208,261.238,167.72,429.048,186.631c396.977,44.782,747.825-176.659,803.432-669.49
					c0.27-2.291,0.494-4.536,0.719-6.827C2408.552,2074.205,2412.191,2183.398,2400.557,2286.303z"/>
			</g>
			<g>
				
					<ellipse transform="matrix(0.5525 -0.8335 0.8335 0.5525 -709.9314 2017.3932)" style="fill:#F2D19C;" cx="1523.848" cy="1669.861" rx="49.012" ry="30.949"/>
			</g>
			<g>
				
					<ellipse transform="matrix(0.3488 -0.9372 0.9372 0.3488 -1004.9963 2487.6382)" style="fill:#F2D19C;" cx="1287.541" cy="1966.988" rx="44.371" ry="28.018"/>
			</g>
			<g>
				
					<ellipse transform="matrix(0.9267 -0.3759 0.3759 0.9267 -481.1534 926.643)" style="fill:#F2D19C;" cx="2134.267" cy="1696.443" rx="25.861" ry="40.956"/>
			</g>
			<g>
				
					<ellipse transform="matrix(0.9045 -0.4264 0.4264 0.9045 -450.7 943.1319)" style="fill:#F2D19C;" cx="1880.779" cy="1478.034" rx="15.163" ry="24.013"/>
			</g>
			<g>
				
					<ellipse transform="matrix(0.3015 -0.9535 0.9535 0.3015 -430.9152 2951.1133)" style="fill:#F2D19C;" cx="1798.779" cy="1769.671" rx="24.013" ry="15.163"/>
			</g>
			<g>
				
					<ellipse transform="matrix(0.3015 -0.9535 0.9535 0.3015 -1250.5398 2922.9321)" style="fill:#F2D19C;" cx="1369.741" cy="2315.007" rx="26.149" ry="16.512"/>
			</g>
			<g>
				<path style="fill:#491212;" d="M1772.047,2969.802c-31.411,0-63.272-1.797-95.483-5.43
					c-197.568-22.295-367.832-109.219-479.414-244.76c-121.108-147.115-171.509-345.523-145.757-573.774
					c26.592-235.65,128.799-474.859,280.41-656.289c163.125-195.215,355.459-291.196,541.66-270.156
					c186.167,21.011,352.314,157.407,467.842,384.063c107.368,210.654,153.696,466.621,127.109,702.275l-29.546-3.335l29.546,3.335
					c-25.757,228.252-119.102,410.439-269.946,526.865C2082.144,2922.375,1933.311,2969.802,1772.047,2969.802z M1822.999,1276.028
					c-152.202,0-308.823,88.003-445.566,251.646c-142.212,170.181-242.002,403.765-266.948,624.834
					c-23.911,211.885,21.934,394.917,132.573,529.312c103.184,125.342,255.396,202.617,440.176,223.462
					c31.543,3.56,62.451,5.313,92.524,5.317c346.099,0.029,590.713-231.763,633.564-611.538
					c24.946-221.069-20.288-471.011-120.996-668.603c-106.162-208.281-255.864-333.281-421.533-351.973
					C1852.252,1276.843,1837.647,1276.028,1822.999,1276.028z"/>
			</g>
			<g style="opacity:0.5;">
				<path style="fill:#FFFFFF;" d="M1928.229,1435.313c100.66,11.358,192.916,55.519,274.158,123.146
					c-38.84-60.436-82.818-112.335-129.669-152.55c-68.832-59.079-143.033-93.468-220.543-102.215
					c-13.089-1.476-26.441-2.226-39.682-2.226c-149.027,0-304.307,92.435-437.233,260.274
					c-118.865,150.085-202.754,340.353-234.679,529.677C1291.997,1709.362,1605.649,1398.915,1928.229,1435.313z"/>
			</g>
		</g>
		<g>
			<g>
				<path style="fill:#F9EDD4;" d="M3046.214,2258.984c67.447,396.633-156.261,648.127-475.737,702.454
					s-613.739-109.086-681.186-505.719c-67.447-396.633,117.462-876.289,436.938-930.615S2978.767,1862.351,3046.214,2258.984z"/>
			</g>
			<g>
				<path style="fill:#EFC88F;" d="M3010.772,2254.823c27.677,162.634,4.835,308.366-65.956,421.479
					c-65.497,104.601-170.026,180.073-302.301,218.223c-23.942,6.906-48.995,12.605-74.368,16.913
					c-153.843,26.146-294.121-0.478-405.632-76.989c-54.041-37.044-99.823-85.261-136.522-143.325
					c117.269,59.314,255.468,76.22,398.432,51.888c338.212-57.523,575.006-323.734,503.604-743.614
					c-0.323-1.954-0.672-3.861-1.031-5.804C2966.894,2077.913,2995.882,2167.145,3010.772,2254.823z"/>
			</g>
			<g>
				
					<ellipse transform="matrix(0.2999 -0.954 0.954 0.2999 -299.3562 3389.5339)" style="fill:#F2D19C;" cx="2159.592" cy="1898.717" rx="42.09" ry="26.577"/>
			</g>
			<g>
				
					<ellipse transform="matrix(0.0754 -0.9972 0.9972 0.0754 -385.4207 4096.79)" style="fill:#F2D19C;" cx="2016.406" cy="2256.226" rx="38.104" ry="24.061"/>
			</g>
			<g>
				
					<ellipse transform="matrix(0.7862 -0.618 0.618 0.7862 -561.6242 2054.156)" style="fill:#F2D19C;" cx="2687.92" cy="1838.755" rx="22.209" ry="35.171"/>
			</g>
			<g>
				<path style="fill:#F2D19C;" d="M2480.829,1687.845c7.521,8.552,9.24,19.335,3.84,24.084c-5.4,4.749-15.875,1.666-23.396-6.886
					c-7.521-8.552-9.24-19.335-3.84-24.084C2462.833,1676.209,2473.308,1679.292,2480.829,1687.845z"/>
			</g>
			<g>
				
					<ellipse transform="matrix(0.0255 -0.9997 0.9997 0.0255 177.9674 4327.8101)" style="fill:#F2D19C;" cx="2308.79" cy="2072.623" rx="20.621" ry="13.021"/>
			</g>
			<g>
				
					<ellipse transform="matrix(0.0255 -0.9997 0.9997 0.0255 -411.2097 4625.8101)" style="fill:#F2D19C;" cx="2167.053" cy="2523.822" rx="22.456" ry="14.18"/>
			</g>
			<g>
				<path style="fill:#491212;" d="M2454.215,3001.159c-124.497,0-240.713-33.823-335.659-98.955
					c-135.898-93.223-225.312-245.889-258.574-441.499c-34.273-201.563-6.763-424.136,75.479-610.654
					c88.73-201.23,225.742-327.041,385.786-354.258c160.02-27.178,330.938,46.23,481.196,206.826
					c139.272,148.848,238.809,349.819,273.086,551.377l0,0c33.262,195.615-0.664,369.258-98.11,502.158
					c-89.795,122.475-232.549,205.786-401.953,234.595C2534.498,2997.717,2493.927,3001.159,2454.215,3001.159z M2387.11,1549.724
					c-18.804,0-37.451,1.553-55.894,4.692c-139.712,23.755-260.938,137.271-341.348,319.624
					c-76.519,173.54-103.159,389.126-71.265,576.694c59.375,349.16,313.315,538.14,646.89,481.392
					c333.574-56.724,510.752-319.028,451.411-668.159l0,0c-31.895-187.569-128.301-382.232-257.881-520.723
					C2640.831,1616.931,2510.753,1549.724,2387.11,1549.724z"/>
			</g>
			<g style="opacity:0.5;">
				<path style="fill:#FFFFFF;" d="M2439.277,1662.397c85.76-14.583,172.392-0.101,255.52,36.366
					c-46.43-40.624-95.069-72.981-143.297-95.014c-70.854-32.366-140.263-43.084-206.301-31.855
					c-11.151,1.897-22.347,4.456-33.272,7.607c-122.966,35.466-229.093,148.69-298.831,318.811
					c-62.36,152.126-86.3,329.085-67.586,492.898C1979.526,2039.933,2164.446,1709.132,2439.277,1662.397z"/>
			</g>
		</g>
	</g>
</g>
</svg>
