<svg width="55" height="24" viewBox="0 0 55 24" fill="none" xmlns="http://www.w3.org/2000/svg">
    <rect width="55" height="24" rx="12" fill="white"/>
    <g clip-path="url(#clip0_239_72081)">
        <path d="M14.075 16.1366C15.2394 16.1366 16.1833 15.1926 16.1833 14.0282C16.1833 12.8638 15.2394 11.9199 14.075 11.9199C12.9106 11.9199 11.9667 12.8638 11.9667 14.0282C11.9667 15.1926 12.9106 16.1366 14.075 16.1366Z" stroke="black" stroke-linecap="round" stroke-linejoin="round"/>
        <path d="M18.5666 13.5246C18.5666 14.7159 18.0934 15.8583 17.251 16.7007C16.4087 17.543 15.2662 18.0163 14.0749 18.0163C12.8836 18.0163 11.7412 17.543 10.8988 16.7007C10.0565 15.8583 9.58325 14.7159 9.58325 13.5246C9.58325 11.0496 11.5999 6.78711 14.0749 6.78711C16.5499 6.78711 18.5666 11.0496 18.5666 13.5246Z" stroke="black" stroke-linecap="round" stroke-linejoin="round"/>
        <path d="M18.3832 6.05315C20.2623 5.82398 22.1873 8.89484 22.4165 10.774C22.4852 11.4984 22.3283 12.2263 21.9673 12.8581C21.6063 13.4898 21.0588 13.9945 20.3998 14.3031" stroke="black" stroke-linecap="round" stroke-linejoin="round"/>
    </g>
    <path d="M31.4582 16.1101C30.9208 16.1101 30.4579 15.9953 30.0697 15.7656C29.6838 15.5336 29.3855 15.2081 29.1748 14.7891C28.9665 14.3677 28.8623 13.8741 28.8623 13.3082C28.8623 12.7495 28.9665 12.2571 29.1748 11.831C29.3855 11.4048 29.6791 11.0722 30.0555 10.8331C30.4343 10.594 30.877 10.4744 31.3836 10.4744C31.6914 10.4744 31.9897 10.5253 32.2785 10.6271C32.5673 10.7289 32.8266 10.8887 33.0562 11.1065C33.2858 11.3243 33.4669 11.6072 33.5995 11.9553C33.7321 12.3009 33.7984 12.7211 33.7984 13.2159V13.5923H29.4624V12.7969H32.7579C32.7579 12.5175 32.7011 12.2701 32.5874 12.0547C32.4738 11.8369 32.314 11.6652 32.108 11.5398C31.9044 11.4143 31.6653 11.3516 31.3907 11.3516C31.0924 11.3516 30.832 11.425 30.6095 11.5717C30.3893 11.7161 30.2188 11.9055 30.0981 12.1399C29.9797 12.3719 29.9205 12.6241 29.9205 12.8963V13.5178C29.9205 13.8823 29.9845 14.1925 30.1123 14.4482C30.2425 14.7038 30.4236 14.8991 30.6556 15.0341C30.8876 15.1667 31.1587 15.233 31.4688 15.233C31.6701 15.233 31.8535 15.2045 32.0193 15.1477C32.185 15.0885 32.3282 15.0009 32.449 14.8849C32.5697 14.7689 32.662 14.6257 32.7259 14.4553L33.7309 14.6364C33.6504 14.9323 33.506 15.1915 33.2977 15.4141C33.0917 15.6342 32.8325 15.8059 32.52 15.929C32.2098 16.0497 31.8559 16.1101 31.4582 16.1101ZM37.2634 18.1591C36.8302 18.1591 36.4573 18.1023 36.1448 17.9886C35.8347 17.875 35.5814 17.7247 35.3849 17.5376C35.1884 17.3506 35.0416 17.1458 34.9445 16.9233L35.8572 16.5469C35.9211 16.651 36.0063 16.7611 36.1128 16.8771C36.2217 16.9955 36.3685 17.0961 36.5532 17.179C36.7402 17.2618 36.9805 17.3033 37.2741 17.3033C37.6765 17.3033 38.0091 17.205 38.2719 17.0085C38.5347 16.8144 38.6661 16.5043 38.6661 16.0781V15.0057H38.5986C38.5347 15.1217 38.4424 15.2507 38.3216 15.3928C38.2033 15.5348 38.0399 15.6579 37.8316 15.7621C37.6233 15.8662 37.3522 15.9183 37.0184 15.9183C36.5875 15.9183 36.1992 15.8177 35.8536 15.6165C35.5103 15.4129 35.2381 15.1134 35.0368 14.718C34.838 14.3203 34.7385 13.8314 34.7385 13.2514C34.7385 12.6714 34.8368 12.1742 35.0333 11.7599C35.2322 11.3456 35.5044 11.0284 35.8501 10.8082C36.1957 10.5857 36.5875 10.4744 37.0255 10.4744C37.364 10.4744 37.6375 10.5312 37.8458 10.6449C38.0541 10.7562 38.2163 10.8864 38.3323 11.0355C38.4507 11.1847 38.5418 11.3161 38.6057 11.4297H38.6839V10.5455H39.7243V16.1207C39.7243 16.5895 39.6154 16.9742 39.3976 17.2749C39.1798 17.5755 38.8851 17.7981 38.5134 17.9425C38.1441 18.0869 37.7274 18.1591 37.2634 18.1591ZM37.2528 15.0376C37.5581 15.0376 37.8162 14.9666 38.0269 14.8246C38.24 14.6802 38.401 14.4742 38.5099 14.2067C38.6211 13.9368 38.6768 13.6136 38.6768 13.2372C38.6768 12.8703 38.6223 12.5471 38.5134 12.2678C38.4045 11.9884 38.2447 11.7706 38.034 11.6143C37.8233 11.4557 37.5629 11.3764 37.2528 11.3764C36.9331 11.3764 36.6668 11.4593 36.4537 11.625C36.2407 11.7884 36.0797 12.0109 35.9708 12.2926C35.8643 12.5743 35.811 12.8892 35.811 13.2372C35.811 13.5947 35.8654 13.9084 35.9743 14.1783C36.0832 14.4482 36.2442 14.6589 36.4573 14.8104C36.6727 14.9619 36.9379 15.0376 37.2528 15.0376ZM43.4353 18.1591C43.002 18.1591 42.6292 18.1023 42.3167 17.9886C42.0065 17.875 41.7532 17.7247 41.5567 17.5376C41.3602 17.3506 41.2135 17.1458 41.1164 16.9233L42.029 16.5469C42.093 16.651 42.1782 16.7611 42.2847 16.8771C42.3936 16.9955 42.5404 17.0961 42.7251 17.179C42.9121 17.2618 43.1524 17.3033 43.4459 17.3033C43.8484 17.3033 44.181 17.205 44.4438 17.0085C44.7066 16.8144 44.838 16.5043 44.838 16.0781V15.0057H44.7705C44.7066 15.1217 44.6143 15.2507 44.4935 15.3928C44.3751 15.5348 44.2118 15.6579 44.0035 15.7621C43.7951 15.8662 43.5241 15.9183 43.1903 15.9183C42.7594 15.9183 42.3711 15.8177 42.0255 15.6165C41.6822 15.4129 41.4099 15.1134 41.2087 14.718C41.0099 14.3203 40.9104 13.8314 40.9104 13.2514C40.9104 12.6714 41.0087 12.1742 41.2052 11.7599C41.404 11.3456 41.6763 11.0284 42.0219 10.8082C42.3676 10.5857 42.7594 10.4744 43.1974 10.4744C43.5359 10.4744 43.8093 10.5312 44.0177 10.6449C44.226 10.7562 44.3882 10.8864 44.5042 11.0355C44.6225 11.1847 44.7137 11.3161 44.7776 11.4297H44.8557V10.5455H45.8962V16.1207C45.8962 16.5895 45.7873 16.9742 45.5695 17.2749C45.3517 17.5755 45.057 17.7981 44.6853 17.9425C44.316 18.0869 43.8993 18.1591 43.4353 18.1591ZM43.4246 15.0376C43.73 15.0376 43.9881 14.9666 44.1988 14.8246C44.4118 14.6802 44.5728 14.4742 44.6817 14.2067C44.793 13.9368 44.8486 13.6136 44.8486 13.2372C44.8486 12.8703 44.7942 12.5471 44.6853 12.2678C44.5764 11.9884 44.4166 11.7706 44.2059 11.6143C43.9952 11.4557 43.7348 11.3764 43.4246 11.3764C43.105 11.3764 42.8387 11.4593 42.6256 11.625C42.4126 11.7884 42.2516 12.0109 42.1427 12.2926C42.0361 12.5743 41.9829 12.8892 41.9829 13.2372C41.9829 13.5947 42.0373 13.9084 42.1462 14.1783C42.2551 14.4482 42.4161 14.6589 42.6292 14.8104C42.8446 14.9619 43.1098 15.0376 43.4246 15.0376Z" fill="black"/>
    <defs>
        <clipPath id="clip0_239_72081">
            <rect width="16" height="16" fill="white" transform="translate(8 4)"/>
        </clipPath>
    </defs>
</svg>
