<svg width="55" height="24" viewBox="0 0 55 24" fill="none" xmlns="http://www.w3.org/2000/svg">
    <rect x="0.5" width="54" height="24" rx="12" fill="white"/>
    <g clip-path="url(#clip0_239_72089)">
        <path d="M22.3032 14.6515C22.0638 14.9168 21.788 15.1467 21.4839 15.3343C20.7976 15.81 20.0144 16.1276 19.1906 16.2643C18.3668 16.401 17.523 16.3534 16.7199 16.1249C15.9167 15.8963 15.1742 15.4926 14.5458 14.9426C13.9174 14.3927 13.4188 13.7103 13.0858 12.9446C12.9757 12.7168 12.8954 12.4759 12.8468 12.2276L12.7444 11.8521C12.7785 11.818 12.7785 11.7497 12.8127 11.7156C13.0471 11.2069 13.3708 10.7444 13.7686 10.35L13.9734 10.1452C14.0453 10.0173 14.1375 9.90204 14.2465 9.80381C15.0882 8.95656 16.175 8.39529 17.3531 8.19931C17.1517 7.55726 16.8007 6.97222 16.3289 6.49238L16.09 6.25341C16.614 6.23907 17.1355 6.33157 17.6226 6.52525C18.1097 6.71893 18.5523 7.00974 18.9235 7.37998C19.1905 7.64326 19.4203 7.94191 19.6062 8.26758C20.6301 8.52018 21.5637 9.052 22.3032 9.80382C22.9856 10.4778 23.49 11.3106 23.7711 12.2276C23.4846 13.1422 22.9809 13.9738 22.3032 14.6515Z" stroke="black" stroke-linecap="round" stroke-linejoin="round"/>
        <path d="M12.7103 11.8189L11.5838 12.6723L10.4572 13.5941L10.4572 11.8189V10.0437L11.5838 10.9654L12.7103 11.8189Z" stroke="black" stroke-linecap="round" stroke-linejoin="round"/>
        <path d="M19.6404 16.0174C18.6685 15.0275 18.1267 13.6937 18.1331 12.3064C18.1395 10.919 18.6935 9.59034 19.6746 8.60938" stroke="black" stroke-linecap="round" stroke-linejoin="round"/>
        <path d="M20.6645 11.8512C20.8719 12.0586 21.2082 12.0586 21.4156 11.8512C21.623 11.6438 21.623 11.3075 21.4156 11.1001C21.2082 10.8927 20.8719 10.8927 20.6645 11.1001C20.4571 11.3075 20.4571 11.6438 20.6645 11.8512Z" fill="black"/>
    </g>
    <path d="M32.0304 10.5455V11.3977H28.948V10.5455H32.0304ZM29.7931 16V9.91335C29.7931 9.57244 29.8677 9.28954 30.0169 9.06463C30.166 8.83736 30.3637 8.66809 30.6099 8.55682C30.8561 8.44318 31.1236 8.38636 31.4125 8.38636C31.6255 8.38636 31.8078 8.40412 31.9593 8.43963C32.1109 8.47277 32.2233 8.50355 32.2967 8.53196L32.0481 9.39134C31.9984 9.37713 31.9345 9.36056 31.8564 9.34162C31.7782 9.32031 31.6835 9.30966 31.5723 9.30966C31.3142 9.30966 31.1296 9.37358 31.0183 9.50142C30.9094 9.62926 30.8549 9.81392 30.8549 10.0554V16H29.7931ZM33.1259 16V10.5455H34.1877V16H33.1259ZM33.6621 9.70384C33.4775 9.70384 33.3188 9.64228 33.1863 9.51918C33.056 9.3937 32.9909 9.24455 32.9909 9.07173C32.9909 8.89654 33.056 8.7474 33.1863 8.62429C33.3188 8.49882 33.4775 8.43608 33.6621 8.43608C33.8468 8.43608 34.0042 8.49882 34.1344 8.62429C34.267 8.7474 34.3333 8.89654 34.3333 9.07173C34.3333 9.24455 34.267 9.3937 34.1344 9.51918C34.0042 9.64228 33.8468 9.70384 33.6621 9.70384ZM39.7035 11.8771L38.7411 12.0476C38.7009 11.9245 38.637 11.8073 38.5494 11.696C38.4641 11.5848 38.3481 11.4936 38.2013 11.4226C38.0546 11.3516 37.8711 11.3161 37.6509 11.3161C37.3503 11.3161 37.0993 11.3835 36.8981 11.5185C36.6969 11.651 36.5962 11.8227 36.5962 12.0334C36.5962 12.2157 36.6637 12.3625 36.7987 12.4737C36.9336 12.585 37.1514 12.6761 37.4521 12.7472L38.3185 12.946C38.8204 13.062 39.1945 13.2408 39.4407 13.4822C39.6869 13.7237 39.81 14.0374 39.81 14.4233C39.81 14.75 39.7153 15.0412 39.5259 15.2969C39.3389 15.5502 39.0773 15.7491 38.7411 15.8935C38.4073 16.0379 38.0202 16.1101 37.5799 16.1101C36.9691 16.1101 36.4708 15.9799 36.0849 15.7195C35.699 15.4567 35.4622 15.0838 35.3746 14.6009L36.4009 14.4446C36.4648 14.7121 36.5962 14.9145 36.7951 15.0518C36.994 15.1868 37.2532 15.2543 37.5728 15.2543C37.9208 15.2543 38.199 15.1821 38.4073 15.0376C38.6156 14.8909 38.7198 14.7121 38.7198 14.5014C38.7198 14.331 38.6559 14.1877 38.5281 14.0717C38.4026 13.9557 38.2096 13.8681 37.9492 13.8089L37.0259 13.6065C36.5169 13.4905 36.1405 13.3059 35.8967 13.0526C35.6552 12.7992 35.5344 12.4785 35.5344 12.0902C35.5344 11.7682 35.6244 11.4865 35.8043 11.245C35.9843 11.0036 36.2328 10.8153 36.5501 10.6804C36.8673 10.5431 37.2307 10.4744 37.6403 10.4744C38.2298 10.4744 38.6938 10.6023 39.0323 10.858C39.3709 11.1113 39.5946 11.451 39.7035 11.8771ZM42.0392 12.7614V16H40.9775V8.72727H42.025V11.4332H42.0925C42.2203 11.1397 42.4157 10.9065 42.6784 10.7337C42.9412 10.5608 43.2845 10.4744 43.7083 10.4744C44.0823 10.4744 44.409 10.5514 44.6884 10.7053C44.9701 10.8591 45.1879 11.0888 45.3418 11.3942C45.498 11.6972 45.5762 12.076 45.5762 12.5305V16H44.5144V12.6584C44.5144 12.2583 44.4114 11.9482 44.2054 11.728C43.9995 11.5054 43.713 11.3942 43.3461 11.3942C43.0951 11.3942 42.8702 11.4474 42.6713 11.554C42.4748 11.6605 42.3198 11.8168 42.2061 12.0227C42.0949 12.2263 42.0392 12.4725 42.0392 12.7614Z" fill="black"/>
    <defs>
        <clipPath id="clip0_239_72089">
            <rect width="16" height="16" fill="white" transform="translate(8.5 4)"/>
        </clipPath>
    </defs>
</svg>
