<svg width="70" height="24" viewBox="0 0 70 24" fill="none" xmlns="http://www.w3.org/2000/svg">
    <rect x="0.5" width="69" height="24" rx="12" fill="white"/>
    <path fill-rule="evenodd" clip-rule="evenodd" d="M10.638 16H22.3619C22.546 16 22.6952 16.1492 22.6952 16.3333C22.6952 16.4217 22.6601 16.5065 22.5976 16.569L21.8333 17.3333H11.1666L10.4023 16.569C10.2721 16.4389 10.2721 16.2278 10.4023 16.0976C10.4648 16.0351 10.5496 16 10.638 16Z" stroke="black" stroke-linecap="round"/>
    <path d="M13.6648 10.3873L13.6884 10.2735C13.7551 10.0131 13.9022 9.78801 14.1009 9.62399C13.8825 9.442 13.6023 9.33398 13.3 9.33398C12.6854 9.33398 12.1619 9.78041 12.0648 10.3873L11.1666 16.0007H12.7666M13.6648 10.3873L12.7666 16.0007M13.6648 10.3873C13.7619 9.78041 14.2854 9.33398 14.9 9.33398C15.2104 9.33398 15.4975 9.44787 15.7183 9.63878C15.5102 9.8301 15.3723 10.0964 15.3482 10.3973M12.7666 16.0007H14.9M20.2333 16.0007H21.8333L20.9351 10.3873C20.8381 9.78041 20.3145 9.33398 19.7 9.33398C19.398 9.33398 19.118 9.44178 18.9009 9.62399C19.1264 9.81198 19.2858 10.0789 19.3351 10.3873M20.2333 16.0007L19.3351 10.3873M20.2333 16.0007H18.1M19.3351 10.3873C19.2381 9.78041 18.7145 9.33398 18.1 9.33398C17.8108 9.33398 17.5417 9.43285 17.3278 9.60077L17.2831 9.63984L17.35 9.70676C17.5195 9.8907 17.6303 10.1304 17.6517 10.3973M17.6517 10.3973C17.6037 9.79679 17.1023 9.33398 16.5 9.33398C15.8976 9.33398 15.3963 9.79679 15.3482 10.3973M17.6517 10.3973L18.1 16.0007M18.1 16.0007H14.9M14.9 16.0007L15.3482 10.3973" stroke="black" stroke-linecap="round"/>
    <path fill-rule="evenodd" clip-rule="evenodd" d="M14.7744 8.32155C13.8395 8.13458 13.1666 7.31375 13.1666 6.36039V6L14.8922 6.34511C15.827 6.53208 16.5 7.35291 16.5 8.30627C16.5 7.35291 17.1729 6.53208 18.1077 6.34511L19.8333 6V6.36039C19.8333 7.31375 19.1604 8.13458 18.2255 8.32155L16.5 8.66667L14.7744 8.32155Z" stroke="black" stroke-linecap="round"/>
    <path d="M31.7947 18.1591C31.3614 18.1591 30.9885 18.1023 30.676 17.9886C30.3659 17.875 30.1126 17.7247 29.9161 17.5376C29.7196 17.3506 29.5728 17.1458 29.4758 16.9233L30.3884 16.5469C30.4523 16.651 30.5376 16.7611 30.6441 16.8771C30.753 16.9955 30.8998 17.0961 31.0844 17.179C31.2715 17.2618 31.5117 17.3033 31.8053 17.3033C32.2078 17.3033 32.5404 17.205 32.8032 17.0085C33.066 16.8144 33.1974 16.5043 33.1974 16.0781V15.0057H33.1299C33.066 15.1217 32.9736 15.2507 32.8529 15.3928C32.7345 15.5348 32.5712 15.6579 32.3628 15.7621C32.1545 15.8662 31.8834 15.9183 31.5496 15.9183C31.1188 15.9183 30.7305 15.8177 30.3849 15.6165C30.0416 15.4129 29.7693 15.1134 29.5681 14.718C29.3692 14.3203 29.2698 13.8314 29.2698 13.2514C29.2698 12.6714 29.368 12.1742 29.5645 11.7599C29.7634 11.3456 30.0357 11.0284 30.3813 10.8082C30.7269 10.5857 31.1188 10.4744 31.5567 10.4744C31.8953 10.4744 32.1687 10.5312 32.377 10.6449C32.5854 10.7562 32.7475 10.8864 32.8635 11.0355C32.9819 11.1847 33.0731 11.3161 33.137 11.4297H33.2151V10.5455H34.2556V16.1207C34.2556 16.5895 34.1467 16.9742 33.9289 17.2749C33.7111 17.5755 33.4163 17.7981 33.0447 17.9425C32.6753 18.0869 32.2587 18.1591 31.7947 18.1591ZM31.784 15.0376C32.0894 15.0376 32.3474 14.9666 32.5581 14.8246C32.7712 14.6802 32.9322 14.4742 33.0411 14.2067C33.1524 13.9368 33.208 13.6136 33.208 13.2372C33.208 12.8703 33.1536 12.5471 33.0447 12.2678C32.9358 11.9884 32.776 11.7706 32.5653 11.6143C32.3546 11.4557 32.0941 11.3764 31.784 11.3764C31.4644 11.3764 31.1981 11.4593 30.985 11.625C30.7719 11.7884 30.6109 12.0109 30.502 12.2926C30.3955 12.5743 30.3422 12.8892 30.3422 13.2372C30.3422 13.5947 30.3967 13.9084 30.5056 14.1783C30.6145 14.4482 30.7755 14.6589 30.9885 14.8104C31.204 14.9619 31.4691 15.0376 31.784 15.0376ZM38.0305 16.1101C37.493 16.1101 37.0302 15.9953 36.642 15.7656C36.2561 15.5336 35.9578 15.2081 35.7471 14.7891C35.5387 14.3677 35.4346 13.8741 35.4346 13.3082C35.4346 12.7495 35.5387 12.2571 35.7471 11.831C35.9578 11.4048 36.2513 11.0722 36.6278 10.8331C37.0065 10.594 37.4492 10.4744 37.9559 10.4744C38.2636 10.4744 38.5619 10.5253 38.8508 10.6271C39.1396 10.7289 39.3988 10.8887 39.6285 11.1065C39.8581 11.3243 40.0392 11.6072 40.1718 11.9553C40.3044 12.3009 40.3707 12.7211 40.3707 13.2159V13.5923H36.0347V12.7969H39.3302C39.3302 12.5175 39.2733 12.2701 39.1597 12.0547C39.0461 11.8369 38.8863 11.6652 38.6803 11.5398C38.4767 11.4143 38.2376 11.3516 37.963 11.3516C37.6647 11.3516 37.4043 11.425 37.1817 11.5717C36.9616 11.7161 36.7911 11.9055 36.6704 12.1399C36.552 12.3719 36.4928 12.6241 36.4928 12.8963V13.5178C36.4928 13.8823 36.5567 14.1925 36.6846 14.4482C36.8148 14.7038 36.9959 14.8991 37.2279 15.0341C37.4599 15.1667 37.731 15.233 38.0411 15.233C38.2423 15.233 38.4258 15.2045 38.5915 15.1477C38.7573 15.0885 38.9005 15.0009 39.0212 14.8849C39.142 14.7689 39.2343 14.6257 39.2982 14.4553L40.3032 14.6364C40.2227 14.9323 40.0783 15.1915 39.8699 15.4141C39.664 15.6342 39.4047 15.8059 39.0922 15.929C38.7821 16.0497 38.4282 16.1101 38.0305 16.1101ZM42.6105 8.72727V16H41.5487V8.72727H42.6105ZM45.6263 16.1207C45.2807 16.1207 44.9682 16.0568 44.6888 15.929C44.4095 15.7988 44.1881 15.6106 44.0248 15.3643C43.8638 15.1181 43.7833 14.8163 43.7833 14.4588C43.7833 14.151 43.8425 13.8977 43.9608 13.6989C44.0792 13.5 44.239 13.3426 44.4403 13.2266C44.6415 13.1106 44.8664 13.023 45.115 12.9638C45.3635 12.9046 45.6169 12.8596 45.8749 12.8288C46.2016 12.791 46.4668 12.7602 46.6704 12.7365C46.874 12.7105 47.0219 12.669 47.1143 12.6122C47.2066 12.5554 47.2528 12.4631 47.2528 12.3352V12.3104C47.2528 12.0002 47.1652 11.7599 46.99 11.5895C46.8171 11.419 46.5591 11.3338 46.2158 11.3338C45.8583 11.3338 45.5766 11.4131 45.3706 11.5717C45.1671 11.728 45.0262 11.902 44.9481 12.0938L43.9502 11.8665C44.0686 11.535 44.2414 11.2675 44.4687 11.0639C44.6983 10.858 44.9623 10.7088 45.2606 10.6165C45.5589 10.5218 45.8725 10.4744 46.2016 10.4744C46.4194 10.4744 46.6502 10.5005 46.8941 10.5526C47.1403 10.6023 47.3699 10.6946 47.583 10.8295C47.7984 10.9645 47.9748 11.1574 48.1121 11.4084C48.2494 11.657 48.3181 11.9801 48.3181 12.3778V16H47.2812V15.2543H47.2385C47.1699 15.3916 47.0669 15.5265 46.9296 15.6591C46.7923 15.7917 46.6159 15.9018 46.4005 15.9893C46.185 16.0769 45.927 16.1207 45.6263 16.1207ZM45.8572 15.2685C46.1507 15.2685 46.4017 15.2105 46.61 15.0945C46.8207 14.9785 46.9805 14.8269 47.0894 14.6399C47.2007 14.4505 47.2563 14.2481 47.2563 14.0327V13.3295C47.2184 13.3674 47.145 13.4029 47.0361 13.4361C46.9296 13.4669 46.8077 13.4941 46.6704 13.5178C46.5331 13.5391 46.3993 13.5592 46.2691 13.5781C46.1389 13.5947 46.03 13.6089 45.9424 13.6207C45.7364 13.6468 45.5482 13.6906 45.3778 13.7521C45.2097 13.8137 45.0747 13.9025 44.9729 14.0185C44.8735 14.1321 44.8238 14.2836 44.8238 14.473C44.8238 14.7358 44.9208 14.9347 45.115 15.0696C45.3091 15.2022 45.5565 15.2685 45.8572 15.2685ZM52.2785 10.5455V11.3977H49.2991V10.5455H52.2785ZM50.0981 9.23864H51.1599V14.3984C51.1599 14.6044 51.1907 14.7595 51.2522 14.8636C51.3138 14.9654 51.3931 15.0353 51.4901 15.0732C51.5896 15.1087 51.6973 15.1264 51.8133 15.1264C51.8985 15.1264 51.9731 15.1205 52.037 15.1087C52.1009 15.0968 52.1507 15.0874 52.1862 15.0803L52.3779 15.9574C52.3164 15.9811 52.2288 16.0047 52.1151 16.0284C52.0015 16.0545 51.8595 16.0687 51.689 16.071C51.4097 16.0758 51.1492 16.026 50.9078 15.9219C50.6663 15.8177 50.471 15.6567 50.3218 15.4389C50.1727 15.2211 50.0981 14.9477 50.0981 14.6186V9.23864ZM53.453 16V10.5455H54.5148V16H53.453ZM53.9893 9.70384C53.8046 9.70384 53.646 9.64228 53.5134 9.51918C53.3832 9.3937 53.3181 9.24455 53.3181 9.07173C53.3181 8.89654 53.3832 8.7474 53.5134 8.62429C53.646 8.49882 53.8046 8.43608 53.9893 8.43608C54.1739 8.43608 54.3314 8.49882 54.4616 8.62429C54.5941 8.7474 54.6604 8.89654 54.6604 9.07173C54.6604 9.24455 54.5941 9.3937 54.4616 9.51918C54.3314 9.64228 54.1739 9.70384 53.9893 9.70384ZM57.0051 12.7614V16H55.9433V10.5455H56.9624V11.4332H57.0299C57.1554 11.1444 57.3519 10.9124 57.6194 10.7372C57.8893 10.562 58.229 10.4744 58.6386 10.4744C59.0103 10.4744 59.3358 10.5526 59.6151 10.7088C59.8945 10.8627 60.1111 11.0923 60.265 11.3977C60.4189 11.7031 60.4958 12.0807 60.4958 12.5305V16H59.434V12.6584C59.434 12.263 59.3311 11.9541 59.1251 11.7315C58.9191 11.5066 58.6362 11.3942 58.2764 11.3942C58.0302 11.3942 57.8112 11.4474 57.6194 11.554C57.43 11.6605 57.2797 11.8168 57.1684 12.0227C57.0595 12.2263 57.0051 12.4725 57.0051 12.7614Z" fill="black"/>
</svg>
