<svg width="68" height="24" viewBox="0 0 68 24" fill="none" xmlns="http://www.w3.org/2000/svg">
<rect x="0.5" width="67" height="24" rx="12" fill="white"/>
<path d="M11.7714 16.7286L11.9127 16.6162C12.0966 16.4612 12.2624 16.2857 12.407 16.093C13.4602 14.6888 13.1756 12.6967 11.7714 11.6435L11.6302 11.7559C11.4463 11.9109 11.2804 12.0864 11.1359 12.2791C10.0827 13.6833 10.3672 15.6754 11.7714 16.7286ZM11.7714 16.7286L11.8838 16.8698C12.0388 17.0538 12.2143 17.2197 12.4071 17.3642C13.8112 18.4173 15.8032 18.1327 16.8563 16.7286L16.7439 16.5873C16.5889 16.4033 16.4133 16.2374 16.2206 16.0929C14.8165 15.0398 12.8245 15.3244 11.7714 16.7286ZM14.3138 14.186L14.4551 14.0737C14.639 13.9187 14.8049 13.7432 14.9494 13.5505C16.0026 12.1463 15.718 10.1542 14.3138 9.10103L14.1726 9.21338C13.9887 9.36837 13.8228 9.54387 13.6783 9.73659C12.6251 11.1408 12.9097 13.1329 14.3138 14.186ZM14.3138 14.186L14.4262 14.3273C14.5812 14.5113 14.7568 14.6772 14.9495 14.8217C16.3537 15.8748 18.3456 15.5902 19.3987 14.186L19.2863 14.0448C19.1313 13.8608 18.9558 13.6949 18.763 13.5504C17.3589 12.4973 15.3669 12.7819 14.3138 14.186ZM16.8563 11.6435L16.9975 11.5312C17.1814 11.3762 17.3473 11.2007 17.4918 11.008C18.545 9.60378 18.2605 7.61169 16.8563 6.55851L16.715 6.67087C16.5311 6.82586 16.3652 7.00136 16.2207 7.19408C15.1675 8.59827 15.4521 10.5904 16.8563 11.6435ZM16.8563 11.6435L16.9686 11.7848C17.1237 11.9688 17.2992 12.1346 17.4919 12.2792C18.8961 13.3323 20.888 13.0477 21.9411 11.6435L21.8288 11.5023C21.6737 11.3183 21.4982 11.1524 21.3054 11.0079C19.9013 9.95479 17.9093 10.2394 16.8563 11.6435ZM22.4677 6.03194C22.7159 7.76962 21.5086 9.37939 19.771 9.6276C19.5325 9.66167 19.2911 9.66848 19.0515 9.64804L18.8721 9.62746C18.6239 7.88992 19.8312 6.28015 21.5688 6.03194C21.8669 5.98935 22.1696 5.98935 22.4677 6.03194Z" stroke="black" stroke-linecap="round"/>
<path d="M31.9421 18.1591C31.5089 18.1591 31.136 18.1023 30.8235 17.9886C30.5134 17.875 30.2601 17.7247 30.0636 17.5376C29.8671 17.3506 29.7203 17.1458 29.6232 16.9233L30.5359 16.5469C30.5998 16.651 30.685 16.7611 30.7915 16.8771C30.9004 16.9955 31.0472 17.0961 31.2319 17.179C31.4189 17.2618 31.6592 17.3033 31.9528 17.3033C32.3552 17.3033 32.6879 17.205 32.9506 17.0085C33.2134 16.8144 33.3448 16.5043 33.3448 16.0781V15.0057H33.2773C33.2134 15.1217 33.1211 15.2507 33.0004 15.3928C32.882 15.5348 32.7186 15.6579 32.5103 15.7621C32.302 15.8662 32.0309 15.9183 31.6971 15.9183C31.2662 15.9183 30.878 15.8177 30.5323 15.6165C30.189 15.4129 29.9168 15.1134 29.7156 14.718C29.5167 14.3203 29.4173 13.8314 29.4173 13.2514C29.4173 12.6714 29.5155 12.1742 29.712 11.7599C29.9109 11.3456 30.1831 11.0284 30.5288 10.8082C30.8744 10.5857 31.2662 10.4744 31.7042 10.4744C32.0427 10.4744 32.3162 10.5312 32.5245 10.6449C32.7328 10.7562 32.895 10.8864 33.011 11.0355C33.1294 11.1847 33.2205 11.3161 33.2844 11.4297H33.3626V10.5455H34.4031V16.1207C34.4031 16.5895 34.2942 16.9742 34.0763 17.2749C33.8585 17.5755 33.5638 17.7981 33.1921 17.9425C32.8228 18.0869 32.4061 18.1591 31.9421 18.1591ZM31.9315 15.0376C32.2369 15.0376 32.4949 14.9666 32.7056 14.8246C32.9187 14.6802 33.0797 14.4742 33.1886 14.2067C33.2998 13.9368 33.3555 13.6136 33.3555 13.2372C33.3555 12.8703 33.301 12.5471 33.1921 12.2678C33.0832 11.9884 32.9234 11.7706 32.7127 11.6143C32.502 11.4557 32.2416 11.3764 31.9315 11.3764C31.6119 11.3764 31.3455 11.4593 31.1325 11.625C30.9194 11.7884 30.7584 12.0109 30.6495 12.2926C30.543 12.5743 30.4897 12.8892 30.4897 13.2372C30.4897 13.5947 30.5442 13.9084 30.6531 14.1783C30.762 14.4482 30.9229 14.6589 31.136 14.8104C31.3514 14.9619 31.6166 15.0376 31.9315 15.0376ZM36.8888 8.72727V16H35.8271V8.72727H36.8888ZM41.7725 13.7379V10.5455H42.8379V16H41.7939V15.0554H41.737C41.6116 15.3466 41.4103 15.5893 41.1333 15.7834C40.8587 15.9751 40.5166 16.071 40.1071 16.071C39.7567 16.071 39.4466 15.9941 39.1767 15.8402C38.9092 15.6839 38.6984 15.4531 38.5446 15.1477C38.3931 14.8423 38.3173 14.4647 38.3173 14.0149V10.5455H39.3791V13.8871C39.3791 14.2588 39.4821 14.5547 39.688 14.7749C39.894 14.995 40.1615 15.1051 40.4906 15.1051C40.6895 15.1051 40.8871 15.0554 41.0836 14.956C41.2825 14.8565 41.447 14.7062 41.5772 14.505C41.7098 14.3037 41.7749 14.0481 41.7725 13.7379ZM46.8107 10.5455V11.3977H43.8313V10.5455H46.8107ZM44.6303 9.23864H45.6921V14.3984C45.6921 14.6044 45.7229 14.7595 45.7844 14.8636C45.846 14.9654 45.9253 15.0353 46.0224 15.0732C46.1218 15.1087 46.2295 15.1264 46.3455 15.1264C46.4308 15.1264 46.5053 15.1205 46.5692 15.1087C46.6332 15.0968 46.6829 15.0874 46.7184 15.0803L46.9102 15.9574C46.8486 15.9811 46.761 16.0047 46.6474 16.0284C46.5337 16.0545 46.3917 16.0687 46.2212 16.071C45.9419 16.0758 45.6815 16.026 45.44 15.9219C45.1985 15.8177 45.0032 15.6567 44.854 15.4389C44.7049 15.2211 44.6303 14.9477 44.6303 14.6186V9.23864ZM50.2775 16.1101C49.7401 16.1101 49.2773 15.9953 48.889 15.7656C48.5031 15.5336 48.2048 15.2081 47.9941 14.7891C47.7858 14.3677 47.6816 13.8741 47.6816 13.3082C47.6816 12.7495 47.7858 12.2571 47.9941 11.831C48.2048 11.4048 48.4984 11.0722 48.8748 10.8331C49.2536 10.594 49.6963 10.4744 50.2029 10.4744C50.5107 10.4744 50.809 10.5253 51.0978 10.6271C51.3867 10.7289 51.6459 10.8887 51.8755 11.1065C52.1052 11.3243 52.2863 11.6072 52.4189 11.9553C52.5514 12.3009 52.6177 12.7211 52.6177 13.2159V13.5923H48.2818V12.7969H51.5772C51.5772 12.5175 51.5204 12.2701 51.4068 12.0547C51.2931 11.8369 51.1333 11.6652 50.9274 11.5398C50.7238 11.4143 50.4847 11.3516 50.21 11.3516C49.9118 11.3516 49.6513 11.425 49.4288 11.5717C49.2086 11.7161 49.0382 11.9055 48.9174 12.1399C48.7991 12.3719 48.7399 12.6241 48.7399 12.8963V13.5178C48.7399 13.8823 48.8038 14.1925 48.9316 14.4482C49.0618 14.7038 49.243 14.8991 49.475 15.0341C49.707 15.1667 49.978 15.233 50.2882 15.233C50.4894 15.233 50.6729 15.2045 50.8386 15.1477C51.0043 15.0885 51.1475 15.0009 51.2683 14.8849C51.389 14.7689 51.4814 14.6257 51.5453 14.4553L52.5502 14.6364C52.4698 14.9323 52.3253 15.1915 52.117 15.4141C51.911 15.6342 51.6518 15.8059 51.3393 15.929C51.0292 16.0497 50.6752 16.1101 50.2775 16.1101ZM54.8576 12.7614V16H53.7958V10.5455H54.815V11.4332H54.8825C55.0079 11.1444 55.2044 10.9124 55.4719 10.7372C55.7418 10.562 56.0816 10.4744 56.4911 10.4744C56.8628 10.4744 57.1883 10.5526 57.4677 10.7088C57.747 10.8627 57.9637 11.0923 58.1175 11.3977C58.2714 11.7031 58.3484 12.0807 58.3484 12.5305V16H57.2866V12.6584C57.2866 12.263 57.1836 11.9541 56.9776 11.7315C56.7717 11.5066 56.4888 11.3942 56.1289 11.3942C55.8827 11.3942 55.6637 11.4474 55.4719 11.554C55.2826 11.6605 55.1322 11.8168 55.021 12.0227C54.9121 12.2263 54.8576 12.4725 54.8576 12.7614Z" fill="black"/>
</svg>
