<svg width="56" height="24" viewBox="0 0 56 24" fill="none" xmlns="http://www.w3.org/2000/svg">
    <rect width="56" height="24" rx="12" fill="white"/>
    <path d="M19.3334 16.6667V11.7157C19.3334 11.4658 19.2631 11.221 19.1307 11.0091L18.5 10C17.9511 9.12167 17.6002 8.13425 17.4717 7.10648L17.3334 6H15.3334L15.1804 7.18141C15.0495 8.192 14.7005 9.16206 14.1576 10.0244L13.5384 11.0077C13.4045 11.2204 13.3334 11.4667 13.3334 11.7181V16.6667M19.3334 16.6667C19.3334 17.403 18.7364 18 18 18H14.6667C13.9303 18 13.3334 17.403 13.3334 16.6667M19.3334 16.6667V12.6667L19.1958 12.6032C18.4083 12.2693 17.4978 12.3767 16.8075 12.8944L16.6667 13C15.8317 13.6263 14.7425 13.803 13.7522 13.473L13.3334 13.3333V16.6667M14.6667 6H18" stroke="black" stroke-linecap="round"/>
    <path d="M29.0214 16V10.5455H30.0406V11.4332H30.108C30.2217 11.1326 30.4075 10.8982 30.6656 10.7301C30.9236 10.5597 31.2326 10.4744 31.5924 10.4744C31.957 10.4744 32.2624 10.5597 32.5086 10.7301C32.7572 10.9006 32.9407 11.1349 33.059 11.4332H33.1159C33.2461 11.142 33.4532 10.91 33.7373 10.7372C34.0214 10.562 34.3599 10.4744 34.7529 10.4744C35.2477 10.4744 35.6514 10.6295 35.9639 10.9396C36.2787 11.2498 36.4362 11.7173 36.4362 12.3423V16H35.3744V12.4418C35.3744 12.0724 35.2738 11.8049 35.0725 11.6392C34.8713 11.4735 34.631 11.3906 34.3517 11.3906C34.006 11.3906 33.7373 11.4972 33.5455 11.7102C33.3538 11.9209 33.2579 12.192 33.2579 12.5234V16H32.1997V12.3743C32.1997 12.0784 32.1073 11.8404 31.9227 11.6605C31.738 11.4806 31.4977 11.3906 31.2018 11.3906C31.0006 11.3906 30.8147 11.4439 30.6443 11.5504C30.4762 11.6546 30.3401 11.8002 30.2359 11.9872C30.1341 12.1742 30.0832 12.3909 30.0832 12.6371V16H29.0214ZM37.8593 16V10.5455H38.9211V16H37.8593ZM38.3955 9.70384C38.2108 9.70384 38.0522 9.64228 37.9197 9.51918C37.7894 9.3937 37.7243 9.24455 37.7243 9.07173C37.7243 8.89654 37.7894 8.7474 37.9197 8.62429C38.0522 8.49882 38.2108 8.43608 38.3955 8.43608C38.5802 8.43608 38.7376 8.49882 38.8678 8.62429C39.0004 8.7474 39.0667 8.89654 39.0667 9.07173C39.0667 9.24455 39.0004 9.3937 38.8678 9.51918C38.7376 9.64228 38.5802 9.70384 38.3955 9.70384ZM41.4113 8.72727V16H40.3495V8.72727H41.4113ZM43.8163 14.1499L43.8092 12.8537H43.9939L46.1672 10.5455H47.4385L44.9598 13.1733H44.7929L43.8163 14.1499ZM42.8398 16V8.72727H43.9015V16H42.8398ZM46.2844 16L44.3312 13.4077L45.0628 12.6655L47.5876 16H46.2844Z" fill="black"/>
</svg>
