<svg width="88" height="24" viewBox="0 0 88 24" fill="none" xmlns="http://www.w3.org/2000/svg">
    <rect x="0.5" width="87" height="24" rx="12" fill="white"/>
    <path d="M17.562 10.0149C18.3194 9.86515 19.0746 9.94024 19.7537 10.1978C19.6939 9.8221 19.4994 9.46667 19.1789 9.21033L17.6655 7.99957C16.2046 6.83087 14.1288 6.83087 12.6679 7.99957L11.1545 9.21033C10.8635 9.44315 10.6639 9.77114 10.5908 10.1366C10.4192 10.9945 10.9755 11.829 11.8334 12.0005C12.9994 12.2338 14.1838 12.3434 15.3676 12.3296M17.562 10.0149L16.9658 10.1328C16.711 10.1832 16.4685 10.2827 16.2518 10.4258M17.562 10.0149C19.5278 9.6262 21.4779 10.7521 22.1242 12.649L22.3202 13.2242C22.6764 14.2697 22.1176 15.4061 21.072 15.7623C20.8754 15.8293 20.6698 15.8652 20.4627 15.8689L20.3049 15.8655C20.1654 15.345 19.9223 14.859 19.5911 14.4362L18.4835 16.3535C18.1153 16.9912 17.2999 17.2097 16.6621 16.8415C16.0244 16.4733 15.8059 15.6579 16.1741 15.0202M16.2518 10.4258C15.6 10.8562 15.2821 11.6027 15.3676 12.3296M16.2518 10.4258C15.33 11.0344 15.0762 12.275 15.6861 13.1988M15.3676 12.3296C14.7439 12.3247 14.1203 12.286 13.4999 12.2125L13.5001 14.3339C13.5001 15.2544 14.2462 16.0005 15.1667 16.0005C15.46 16.0005 15.7436 15.9452 16.0046 15.8431C15.9718 15.5674 16.0246 15.2791 16.1741 15.0202M15.3676 12.3296C15.4028 12.6297 15.5073 12.9281 15.6861 13.1988M15.6861 13.1988L15.8867 13.1505M15.8867 13.1505C16.3178 13.0586 16.7608 13.0387 17.1978 13.0914L17.2299 13.1912L16.1741 15.0202M15.8867 13.1505C16.3452 13.0527 16.8173 13.0365 17.2813 13.1024L16.1741 15.0202M17.2634 11.8001C18.7205 11.6149 20.1593 12.4456 20.7275 13.8001" stroke="black" stroke-linecap="round"/>
    <path d="M29.3671 16V10.5455H30.3863V11.4332H30.4537C30.5674 11.1326 30.7532 10.8982 31.0113 10.7301C31.2693 10.5597 31.5783 10.4744 31.9381 10.4744C32.3027 10.4744 32.6081 10.5597 32.8543 10.7301C33.1029 10.9006 33.2864 11.1349 33.4047 11.4332H33.4616C33.5918 11.142 33.7989 10.91 34.083 10.7372C34.3671 10.562 34.7056 10.4744 35.0986 10.4744C35.5934 10.4744 35.9971 10.6295 36.3096 10.9396C36.6244 11.2498 36.7819 11.7173 36.7819 12.3423V16H35.7201V12.4418C35.7201 12.0724 35.6195 11.8049 35.4182 11.6392C35.217 11.4735 34.9767 11.3906 34.6974 11.3906C34.3517 11.3906 34.083 11.4972 33.8912 11.7102C33.6995 11.9209 33.6036 12.192 33.6036 12.5234V16H32.5454V12.3743C32.5454 12.0784 32.453 11.8404 32.2684 11.6605C32.0837 11.4806 31.8434 11.3906 31.5475 11.3906C31.3463 11.3906 31.1604 11.4439 30.99 11.5504C30.8219 11.6546 30.6858 11.8002 30.5816 11.9872C30.4798 12.1742 30.4289 12.3909 30.4289 12.6371V16H29.3671ZM41.6602 13.7379V10.5455H42.7256V16H41.6816V15.0554H41.6247C41.4993 15.3466 41.298 15.5893 41.021 15.7834C40.7464 15.9751 40.4043 16.071 39.9948 16.071C39.6444 16.071 39.3343 15.9941 39.0644 15.8402C38.7968 15.6839 38.5861 15.4531 38.4323 15.1477C38.2807 14.8423 38.205 14.4647 38.205 14.0149V10.5455H39.2668V13.8871C39.2668 14.2588 39.3698 14.5547 39.5757 14.7749C39.7817 14.995 40.0492 15.1051 40.3783 15.1051C40.5771 15.1051 40.7748 15.0554 40.9713 14.956C41.1702 14.8565 41.3347 14.7062 41.4649 14.505C41.5975 14.3037 41.6626 14.0481 41.6602 13.7379ZM48.2396 11.8771L47.2773 12.0476C47.237 11.9245 47.1731 11.8073 47.0855 11.696C47.0003 11.5848 46.8843 11.4936 46.7375 11.4226C46.5907 11.3516 46.4072 11.3161 46.1871 11.3161C45.8864 11.3161 45.6354 11.3835 45.4342 11.5185C45.233 11.651 45.1324 11.8227 45.1324 12.0334C45.1324 12.2157 45.1998 12.3625 45.3348 12.4737C45.4697 12.585 45.6875 12.6761 45.9882 12.7472L46.8547 12.946C47.3566 13.062 47.7306 13.2408 47.9768 13.4822C48.223 13.7237 48.3461 14.0374 48.3461 14.4233C48.3461 14.75 48.2515 15.0412 48.0621 15.2969C47.875 15.5502 47.6134 15.7491 47.2773 15.8935C46.9434 16.0379 46.5564 16.1101 46.116 16.1101C45.5052 16.1101 45.0069 15.9799 44.621 15.7195C44.2351 15.4567 43.9984 15.0838 43.9108 14.6009L44.9371 14.4446C45.001 14.7121 45.1324 14.9145 45.3312 15.0518C45.5301 15.1868 45.7893 15.2543 46.1089 15.2543C46.4569 15.2543 46.7351 15.1821 46.9434 15.0376C47.1518 14.8909 47.2559 14.7121 47.2559 14.5014C47.2559 14.331 47.192 14.1877 47.0642 14.0717C46.9387 13.9557 46.7458 13.8681 46.4854 13.8089L45.5621 13.6065C45.0531 13.4905 44.6766 13.3059 44.4328 13.0526C44.1913 12.7992 44.0706 12.4785 44.0706 12.0902C44.0706 11.7682 44.1605 11.4865 44.3405 11.245C44.5204 11.0036 44.769 10.8153 45.0862 10.6804C45.4034 10.5431 45.7668 10.4744 46.1764 10.4744C46.7659 10.4744 47.2299 10.6023 47.5684 10.858C47.907 11.1113 48.1307 11.451 48.2396 11.8771ZM50.5754 12.7614V16H49.5136V8.72727H50.5612V11.4332H50.6286C50.7565 11.1397 50.9518 10.9065 51.2146 10.7337C51.4774 10.5608 51.8206 10.4744 52.2444 10.4744C52.6185 10.4744 52.9452 10.5514 53.2245 10.7053C53.5062 10.8591 53.724 11.0888 53.8779 11.3942C54.0342 11.6972 54.1123 12.076 54.1123 12.5305V16H53.0505V12.6584C53.0505 12.2583 52.9475 11.9482 52.7416 11.728C52.5356 11.5054 52.2491 11.3942 51.8822 11.3942C51.6312 11.3942 51.4063 11.4474 51.2075 11.554C51.011 11.6605 50.8559 11.8168 50.7423 12.0227C50.631 12.2263 50.5754 12.4725 50.5754 12.7614ZM55.5292 16V10.5455H56.5555V11.4119H56.6123C56.7117 11.1184 56.8869 10.8875 57.1379 10.7195C57.3912 10.549 57.6776 10.4638 57.9972 10.4638C58.0635 10.4638 58.1417 10.4661 58.2316 10.4709C58.324 10.4756 58.3962 10.4815 58.4482 10.4886V11.5043C58.4056 11.4924 58.3299 11.4794 58.221 11.4652C58.1121 11.4486 58.0032 11.4403 57.8943 11.4403C57.6433 11.4403 57.4196 11.4936 57.2231 11.6001C57.029 11.7043 56.8751 11.8499 56.7615 12.0369C56.6478 12.2216 56.591 12.4323 56.591 12.669V16H55.5292ZM61.4694 16.1101C60.958 16.1101 60.5117 15.9929 60.1306 15.7585C59.7494 15.5241 59.4535 15.1963 59.2428 14.7749C59.0321 14.3535 58.9268 13.861 58.9268 13.2976C58.9268 12.7318 59.0321 12.237 59.2428 11.8132C59.4535 11.3894 59.7494 11.0604 60.1306 10.826C60.5117 10.5916 60.958 10.4744 61.4694 10.4744C61.9807 10.4744 62.427 10.5916 62.8081 10.826C63.1893 11.0604 63.4852 11.3894 63.6959 11.8132C63.9066 12.237 64.012 12.7318 64.012 13.2976C64.012 13.861 63.9066 14.3535 63.6959 14.7749C63.4852 15.1963 63.1893 15.5241 62.8081 15.7585C62.427 15.9929 61.9807 16.1101 61.4694 16.1101ZM61.4729 15.2188C61.8044 15.2188 62.079 15.1312 62.2968 14.956C62.5146 14.7808 62.6756 14.5476 62.7797 14.2564C62.8863 13.9652 62.9395 13.6444 62.9395 13.294C62.9395 12.946 62.8863 12.6264 62.7797 12.3352C62.6756 12.0417 62.5146 11.8061 62.2968 11.6286C62.079 11.451 61.8044 11.3622 61.4729 11.3622C61.1391 11.3622 60.8621 11.451 60.642 11.6286C60.4242 11.8061 60.262 12.0417 60.1555 12.3352C60.0513 12.6264 59.9992 12.946 59.9992 13.294C59.9992 13.6444 60.0513 13.9652 60.1555 14.2564C60.262 14.5476 60.4242 14.7808 60.642 14.956C60.8621 15.1312 61.1391 15.2188 61.4729 15.2188ZM67.4948 16.1101C66.9834 16.1101 66.5371 15.9929 66.156 15.7585C65.7748 15.5241 65.4789 15.1963 65.2682 14.7749C65.0575 14.3535 64.9521 13.861 64.9521 13.2976C64.9521 12.7318 65.0575 12.237 65.2682 11.8132C65.4789 11.3894 65.7748 11.0604 66.156 10.826C66.5371 10.5916 66.9834 10.4744 67.4948 10.4744C68.0061 10.4744 68.4524 10.5916 68.8335 10.826C69.2147 11.0604 69.5106 11.3894 69.7213 11.8132C69.932 12.237 70.0374 12.7318 70.0374 13.2976C70.0374 13.861 69.932 14.3535 69.7213 14.7749C69.5106 15.1963 69.2147 15.5241 68.8335 15.7585C68.4524 15.9929 68.0061 16.1101 67.4948 16.1101ZM67.4983 15.2188C67.8298 15.2188 68.1044 15.1312 68.3222 14.956C68.54 14.7808 68.701 14.5476 68.8051 14.2564C68.9117 13.9652 68.9649 13.6444 68.9649 13.294C68.9649 12.946 68.9117 12.6264 68.8051 12.3352C68.701 12.0417 68.54 11.8061 68.3222 11.6286C68.1044 11.451 67.8298 11.3622 67.4983 11.3622C67.1645 11.3622 66.8875 11.451 66.6673 11.6286C66.4495 11.8061 66.2874 12.0417 66.1808 12.3352C66.0767 12.6264 66.0246 12.946 66.0246 13.294C66.0246 13.6444 66.0767 13.9652 66.1808 14.2564C66.2874 14.5476 66.4495 14.7808 66.6673 14.956C66.8875 15.1312 67.1645 15.2188 67.4983 15.2188ZM71.2226 16V10.5455H72.2417V11.4332H72.3092C72.4229 11.1326 72.6087 10.8982 72.8667 10.7301C73.1248 10.5597 73.4337 10.4744 73.7936 10.4744C74.1582 10.4744 74.4636 10.5597 74.7098 10.7301C74.9584 10.9006 75.1418 11.1349 75.2602 11.4332H75.317C75.4472 11.142 75.6544 10.91 75.9385 10.7372C76.2226 10.562 76.5611 10.4744 76.9541 10.4744C77.4489 10.4744 77.8525 10.6295 78.165 10.9396C78.4799 11.2498 78.6373 11.7173 78.6373 12.3423V16H77.5756V12.4418C77.5756 12.0724 77.4749 11.8049 77.2737 11.6392C77.0725 11.4735 76.8322 11.3906 76.5528 11.3906C76.2072 11.3906 75.9385 11.4972 75.7467 11.7102C75.555 11.9209 75.4591 12.192 75.4591 12.5234V16H74.4008V12.3743C74.4008 12.0784 74.3085 11.8404 74.1238 11.6605C73.9392 11.4806 73.6989 11.3906 73.403 11.3906C73.2017 11.3906 73.0159 11.4439 72.8454 11.5504C72.6773 11.6546 72.5412 11.8002 72.4371 11.9872C72.3353 12.1742 72.2844 12.3909 72.2844 12.6371V16H71.2226Z" fill="black"/>
</svg>
