<svg width="57" height="24" viewBox="0 0 57 24" fill="none" xmlns="http://www.w3.org/2000/svg">
    <rect width="57" height="24" rx="12" fill="white"/>
    <path fill-rule="evenodd" clip-rule="evenodd" d="M16 17.9993C18.6667 17.1105 20 15.6268 20 13.5484V11.9993H12V13.5484C12 15.6268 13.3334 17.1105 16 17.9993ZM13 8.66602L14.8498 8.1375C15.136 8.05573 15.3334 7.79413 15.3334 7.49648V7.1753C15.3334 6.89403 15.5614 6.66602 15.8426 6.66602H16.0071C16.3101 6.66602 16.5072 6.98495 16.3717 7.25601V7.25601C16.207 7.58533 16.3405 7.98578 16.6698 8.15044C16.7133 8.17219 16.7591 8.18912 16.8063 8.20091L18.6667 8.66602C20.0948 9.02305 20.9801 10.4372 20.6967 11.8654L20.6667 11.9993H11.3334L11.2553 11.6869C10.9271 10.3742 11.699 9.03774 13 8.66602Z" stroke="black" stroke-linecap="square"/>
    <path d="M29.8166 12.7614V16H28.7548V10.5455H29.774V11.4332H29.8414C29.9669 11.1444 30.1634 10.9124 30.4309 10.7372C30.7008 10.562 31.0405 10.4744 31.4501 10.4744C31.8218 10.4744 32.1473 10.5526 32.4267 10.7088C32.706 10.8627 32.9226 11.0923 33.0765 11.3977C33.2304 11.7031 33.3074 12.0807 33.3074 12.5305V16H32.2456V12.6584C32.2456 12.263 32.1426 11.9541 31.9366 11.7315C31.7306 11.5066 31.4477 11.3942 31.0879 11.3942C30.8417 11.3942 30.6227 11.4474 30.4309 11.554C30.2415 11.6605 30.0912 11.8168 29.9799 12.0227C29.871 12.2263 29.8166 12.4725 29.8166 12.7614ZM38.1866 13.7379V10.5455H39.252V16H38.2079V15.0554H38.1511C38.0256 15.3466 37.8244 15.5893 37.5474 15.7834C37.2728 15.9751 36.9307 16.071 36.5211 16.071C36.1708 16.071 35.8606 15.9941 35.5907 15.8402C35.3232 15.6839 35.1125 15.4531 34.9586 15.1477C34.8071 14.8423 34.7314 14.4647 34.7314 14.0149V10.5455H35.7931V13.8871C35.7931 14.2588 35.8961 14.5547 36.1021 14.7749C36.3081 14.995 36.5756 15.1051 36.9047 15.1051C37.1035 15.1051 37.3012 15.0554 37.4977 14.956C37.6966 14.8565 37.8611 14.7062 37.9913 14.505C38.1239 14.3037 38.189 14.0481 38.1866 13.7379ZM43.2248 10.5455V11.3977H40.2454V10.5455H43.2248ZM41.0444 9.23864H42.1062V14.3984C42.1062 14.6044 42.137 14.7595 42.1985 14.8636C42.2601 14.9654 42.3394 15.0353 42.4364 15.0732C42.5359 15.1087 42.6436 15.1264 42.7596 15.1264C42.8448 15.1264 42.9194 15.1205 42.9833 15.1087C43.0472 15.0968 43.0969 15.0874 43.1325 15.0803L43.3242 15.9574C43.2627 15.9811 43.1751 16.0047 43.0614 16.0284C42.9478 16.0545 42.8058 16.0687 42.6353 16.071C42.3559 16.0758 42.0955 16.026 41.854 15.9219C41.6126 15.8177 41.4173 15.6567 41.2681 15.4389C41.119 15.2211 41.0444 14.9477 41.0444 14.6186V9.23864ZM48.3988 11.8771L47.4364 12.0476C47.3962 11.9245 47.3323 11.8073 47.2447 11.696C47.1594 11.5848 47.0434 11.4936 46.8967 11.4226C46.7499 11.3516 46.5664 11.3161 46.3462 11.3161C46.0456 11.3161 45.7946 11.3835 45.5934 11.5185C45.3922 11.651 45.2915 11.8227 45.2915 12.0334C45.2915 12.2157 45.359 12.3625 45.494 12.4737C45.6289 12.585 45.8467 12.6761 46.1474 12.7472L47.0138 12.946C47.5157 13.062 47.8898 13.2408 48.136 13.4822C48.3822 13.7237 48.5053 14.0374 48.5053 14.4233C48.5053 14.75 48.4106 15.0412 48.2212 15.2969C48.0342 15.5502 47.7726 15.7491 47.4364 15.8935C47.1026 16.0379 46.7156 16.1101 46.2752 16.1101C45.6644 16.1101 45.1661 15.9799 44.7802 15.7195C44.3943 15.4567 44.1576 15.0838 44.07 14.6009L45.0962 14.4446C45.1602 14.7121 45.2915 14.9145 45.4904 15.0518C45.6893 15.1868 45.9485 15.2543 46.2681 15.2543C46.6161 15.2543 46.8943 15.1821 47.1026 15.0376C47.311 14.8909 47.4151 14.7121 47.4151 14.5014C47.4151 14.331 47.3512 14.1877 47.2234 14.0717C47.0979 13.9557 46.9049 13.8681 46.6445 13.8089L45.7212 13.6065C45.2122 13.4905 44.8358 13.3059 44.592 13.0526C44.3505 12.7992 44.2298 12.4785 44.2298 12.0902C44.2298 11.7682 44.3197 11.4865 44.4996 11.245C44.6796 11.0036 44.9281 10.8153 45.2454 10.6804C45.5626 10.5431 45.926 10.4744 46.3356 10.4744C46.9251 10.4744 47.3891 10.6023 47.7276 10.858C48.0662 11.1113 48.2899 11.451 48.3988 11.8771Z" fill="black"/>
</svg>
