<svg width="59" height="24" viewBox="0 0 59 24" fill="none" xmlns="http://www.w3.org/2000/svg">
    <rect x="0.5" width="58" height="24" rx="12" fill="white"/>
    <g clip-path="url(#clip0_239_72091)">
        <path d="M13.7525 15.0238C13.592 14.8633 13.4479 14.6924 13.3203 14.5134L12.103 15.7312C12.0554 15.6312 11.9901 15.5376 11.9074 15.4548C11.5168 15.0643 10.8837 15.0643 10.4931 15.4548C10.1026 15.8453 10.1026 16.4785 10.4931 16.869C10.8009 17.1768 11.2593 17.242 11.631 17.0647L11.7117 17.1454C11.5344 17.517 11.5996 17.9755 11.9074 18.2832C12.2979 18.6738 12.931 18.6738 13.3216 18.2832C13.7121 17.8927 13.7121 17.2595 13.3216 16.869C13.239 16.7864 13.1455 16.7213 13.0458 16.6736L14.2635 15.4565C14.0843 15.3288 13.9133 15.1846 13.7525 15.0238ZM13.7525 15.0238C15.3146 16.5859 17.8473 16.5859 19.4094 15.0238L22.4331 12.0002M13.7525 15.0238C12.1904 13.4617 12.1904 10.9291 13.7525 9.36699L16.7673 6.3532L16.7762 6.3433M16.7762 6.3433C17.5573 5.56225 19.4568 6.19541 21.0189 7.75751C22.581 9.31961 23.2141 11.2191 22.4331 12.0002M16.7762 6.3433C15.9952 7.12435 16.6283 9.02384 18.1904 10.5859C19.7525 12.148 21.652 12.7812 22.4331 12.0002M18.6618 8.22891C18.4015 8.48926 18.6125 9.12243 19.1332 9.64313C19.6539 10.1638 20.2871 10.3749 20.5475 10.1145C20.8078 9.85418 20.5968 9.22102 20.0761 8.70032C19.5554 8.17962 18.9222 7.96857 18.6618 8.22891Z" stroke="black" stroke-linecap="round"/>
    </g>
    <path d="M29.413 18.0455V10.5455H30.4499V11.4297H30.5387C30.6003 11.3161 30.689 11.1847 30.805 11.0355C30.921 10.8864 31.082 10.7562 31.288 10.6449C31.494 10.5312 31.7662 10.4744 32.1048 10.4744C32.5451 10.4744 32.9381 10.5857 33.2837 10.8082C33.6294 11.0308 33.9004 11.3516 34.0969 11.7706C34.2958 12.1896 34.3952 12.6939 34.3952 13.2834C34.3952 13.8729 34.297 14.3783 34.1005 14.7997C33.904 15.2187 33.6341 15.5419 33.2908 15.7692C32.9476 15.9941 32.5558 16.1065 32.1154 16.1065C31.784 16.1065 31.5129 16.0509 31.3022 15.9396C31.0939 15.8284 30.9305 15.6982 30.8121 15.549C30.6938 15.3999 30.6026 15.2673 30.5387 15.1513H30.4748V18.0455H29.413ZM30.4535 13.2727C30.4535 13.6562 30.5091 13.9924 30.6204 14.2812C30.7317 14.5701 30.8926 14.7962 31.1033 14.9595C31.314 15.1205 31.5721 15.201 31.8775 15.201C32.1947 15.201 32.4599 15.117 32.6729 14.9489C32.886 14.7784 33.047 14.5476 33.1559 14.2564C33.2672 13.9652 33.3228 13.6373 33.3228 13.2727C33.3228 12.9129 33.2683 12.5897 33.1594 12.3033C33.0529 12.0168 32.8919 11.7907 32.6765 11.625C32.4634 11.4593 32.1971 11.3764 31.8775 11.3764C31.5697 11.3764 31.3093 11.4557 31.0962 11.6143C30.8855 11.773 30.7257 11.9943 30.6168 12.2784C30.5079 12.5625 30.4535 12.8939 30.4535 13.2727ZM37.8825 16.1101C37.3711 16.1101 36.9248 15.9929 36.5437 15.7585C36.1625 15.5241 35.8666 15.1963 35.6559 14.7749C35.4452 14.3535 35.3398 13.861 35.3398 13.2976C35.3398 12.7318 35.4452 12.237 35.6559 11.8132C35.8666 11.3894 36.1625 11.0604 36.5437 10.826C36.9248 10.5916 37.3711 10.4744 37.8825 10.4744C38.3938 10.4744 38.8401 10.5916 39.2212 10.826C39.6024 11.0604 39.8983 11.3894 40.109 11.8132C40.3197 12.237 40.4251 12.7318 40.4251 13.2976C40.4251 13.861 40.3197 14.3535 40.109 14.7749C39.8983 15.1963 39.6024 15.5241 39.2212 15.7585C38.8401 15.9929 38.3938 16.1101 37.8825 16.1101ZM37.886 15.2188C38.2174 15.2188 38.4921 15.1312 38.7099 14.956C38.9277 14.7808 39.0887 14.5476 39.1928 14.2564C39.2994 13.9652 39.3526 13.6444 39.3526 13.294C39.3526 12.946 39.2994 12.6264 39.1928 12.3352C39.0887 12.0417 38.9277 11.8061 38.7099 11.6286C38.4921 11.451 38.2174 11.3622 37.886 11.3622C37.5522 11.3622 37.2752 11.451 37.055 11.6286C36.8372 11.8061 36.6751 12.0417 36.5685 12.3352C36.4644 12.6264 36.4123 12.946 36.4123 13.294C36.4123 13.6444 36.4644 13.9652 36.5685 14.2564C36.6751 14.5476 36.8372 14.7808 37.055 14.956C37.2752 15.1312 37.5522 15.2188 37.886 15.2188ZM41.6103 16V10.5455H42.6365V11.4119H42.6934C42.7928 11.1184 42.968 10.8875 43.2189 10.7195C43.4722 10.549 43.7587 10.4638 44.0783 10.4638C44.1446 10.4638 44.2227 10.4661 44.3127 10.4709C44.405 10.4756 44.4772 10.4815 44.5293 10.4886V11.5043C44.4867 11.4924 44.4109 11.4794 44.302 11.4652C44.1931 11.4486 44.0842 11.4403 43.9753 11.4403C43.7244 11.4403 43.5007 11.4936 43.3042 11.6001C43.11 11.7043 42.9561 11.8499 42.8425 12.0369C42.7289 12.2216 42.6721 12.4323 42.6721 12.669V16H41.6103ZM46.4247 14.1499L46.4176 12.8537H46.6023L48.7756 10.5455H50.0469L47.5682 13.1733H47.4013L46.4247 14.1499ZM45.4482 16V8.72727H46.5099V16H45.4482ZM48.8928 16L46.9396 13.4077L47.6712 12.6655L50.196 16H48.8928Z" fill="black"/>
    <defs>
        <clipPath id="clip0_239_72091">
            <rect width="16" height="16" fill="white" transform="translate(8.5 4)"/>
        </clipPath>
    </defs>
</svg>
