<svg width="70" height="24" viewBox="0 0 70 24" fill="none" xmlns="http://www.w3.org/2000/svg">
    <rect x="0.5" width="69" height="24" rx="12" fill="white"/>
    <path d="M18.8333 16.3333L18.7728 16.4657C18.1593 17.7254 16.7426 18.394 15.3705 18.051L15.1667 18L15.1702 17.8904C15.2266 17.021 15.9497 16.3333 16.8333 16.3333C15.9129 16.3333 15.1667 15.5871 15.1667 14.6667L15.3705 14.6157C16.7899 14.2609 18.257 14.9886 18.8333 16.3333ZM18.8333 16.3333L19.2251 14.1785C19.3786 13.3342 18.8377 12.5195 18 12.3333C17.0016 12.1115 16.0229 11.8092 15.0733 11.4293L14.8333 11.3333C13.8267 10.9307 13.1667 9.95576 13.1667 8.87161V8.66667M18.8333 16.3333L19.7965 15.9206C20.6812 15.5414 21.4029 14.8609 21.8333 14L21.8854 13.8959C22.282 13.1027 22.3818 12.1937 22.1667 11.3333C21.9563 10.4918 21.3701 9.7941 20.5774 9.44182L20.3333 9.33333C19.3443 8.89378 18.2741 8.66667 17.1919 8.66667H15.1667M13.1667 8.66667C12.4303 8.66667 11.8333 8.06971 11.8333 7.33333V6.66667M13.1667 8.66667H15.1667M15.1667 8.66667H11.8333C11.097 8.66667 10.5 8.06971 10.5 7.33333V6M22.2669 12.5163L22.1933 12.6344C21.6635 13.444 20.7299 13.931 19.7293 13.8685L19.2503 13.8383M21.8538 10.5746L20.6485 11.6458L20.5185 11.7549C19.8557 12.2804 19.0013 12.5021 18.1666 12.3655M19.7033 9.08572L17.8282 10.7925L17.7096 10.8947C16.9435 11.5185 15.9086 11.7042 14.9732 11.3851L15.0892 11.4213" stroke="black" stroke-linecap="round"/>
    <path d="M15.8334 10H15.9" stroke="black" stroke-width="1.5" stroke-linecap="round"/>
    <path d="M33.4437 11.8771L32.4814 12.0476C32.4411 11.9245 32.3772 11.8073 32.2896 11.696C32.2044 11.5848 32.0884 11.4936 31.9416 11.4226C31.7948 11.3516 31.6113 11.3161 31.3912 11.3161C31.0905 11.3161 30.8395 11.3835 30.6383 11.5185C30.4371 11.651 30.3365 11.8227 30.3365 12.0334C30.3365 12.2157 30.4039 12.3625 30.5389 12.4737C30.6738 12.585 30.8916 12.6761 31.1923 12.7472L32.0588 12.946C32.5607 13.062 32.9347 13.2408 33.1809 13.4822C33.4271 13.7237 33.5502 14.0374 33.5502 14.4233C33.5502 14.75 33.4556 15.0412 33.2662 15.2969C33.0791 15.5502 32.8175 15.7491 32.4814 15.8935C32.1475 16.0379 31.7605 16.1101 31.3201 16.1101C30.7093 16.1101 30.211 15.9799 29.8251 15.7195C29.4392 15.4567 29.2025 15.0838 29.1149 14.6009L30.1412 14.4446C30.2051 14.7121 30.3365 14.9145 30.5353 15.0518C30.7342 15.1868 30.9934 15.2543 31.313 15.2543C31.661 15.2543 31.9392 15.1821 32.1475 15.0376C32.3559 14.8909 32.46 14.7121 32.46 14.5014C32.46 14.331 32.3961 14.1877 32.2683 14.0717C32.1428 13.9557 31.9499 13.8681 31.6895 13.8089L30.7662 13.6065C30.2572 13.4905 29.8807 13.3059 29.6369 13.0526C29.3954 12.7992 29.2747 12.4785 29.2747 12.0902C29.2747 11.7682 29.3646 11.4865 29.5446 11.245C29.7245 11.0036 29.9731 10.8153 30.2903 10.6804C30.6075 10.5431 30.9709 10.4744 31.3805 10.4744C31.97 10.4744 32.434 10.6023 32.7725 10.858C33.1111 11.1113 33.3348 11.451 33.4437 11.8771ZM35.7795 12.7614V16H34.7177V8.72727H35.7653V11.4332H35.8327C35.9606 11.1397 36.1559 10.9065 36.4187 10.7337C36.6815 10.5608 37.0247 10.4744 37.4485 10.4744C37.8226 10.4744 38.1493 10.5514 38.4286 10.7053C38.7103 10.8591 38.9281 11.0888 39.082 11.3942C39.2383 11.6972 39.3164 12.076 39.3164 12.5305V16H38.2546V12.6584C38.2546 12.2583 38.1516 11.9482 37.9457 11.728C37.7397 11.5054 37.4532 11.3942 37.0863 11.3942C36.8353 11.3942 36.6104 11.4474 36.4116 11.554C36.2151 11.6605 36.06 11.8168 35.9464 12.0227C35.8351 12.2263 35.7795 12.4725 35.7795 12.7614ZM40.7333 16V10.5455H41.7596V11.4119H41.8164C41.9158 11.1184 42.091 10.8875 42.342 10.7195C42.5953 10.549 42.8817 10.4638 43.2013 10.4638C43.2676 10.4638 43.3458 10.4661 43.4357 10.4709C43.5281 10.4756 43.6003 10.4815 43.6523 10.4886V11.5043C43.6097 11.4924 43.534 11.4794 43.4251 11.4652C43.3162 11.4486 43.2073 11.4403 43.0984 11.4403C42.8474 11.4403 42.6237 11.4936 42.4272 11.6001C42.2331 11.7043 42.0792 11.8499 41.9656 12.0369C41.8519 12.2216 41.7951 12.4323 41.7951 12.669V16H40.7333ZM44.5712 16V10.5455H45.633V16H44.5712ZM45.1074 9.70384C44.9228 9.70384 44.7641 9.64228 44.6316 9.51918C44.5014 9.3937 44.4363 9.24455 44.4363 9.07173C44.4363 8.89654 44.5014 8.7474 44.6316 8.62429C44.7641 8.49882 44.9228 8.43608 45.1074 8.43608C45.2921 8.43608 45.4495 8.49882 45.5797 8.62429C45.7123 8.7474 45.7786 8.89654 45.7786 9.07173C45.7786 9.24455 45.7123 9.3937 45.5797 9.51918C45.4495 9.64228 45.2921 9.70384 45.1074 9.70384ZM47.0614 16V10.5455H48.0806V11.4332H48.1481C48.2617 11.1326 48.4476 10.8982 48.7056 10.7301C48.9637 10.5597 49.2726 10.4744 49.6325 10.4744C49.997 10.4744 50.3024 10.5597 50.5487 10.7301C50.7972 10.9006 50.9807 11.1349 51.0991 11.4332H51.1559C51.2861 11.142 51.4933 10.91 51.7773 10.7372C52.0614 10.562 52.4 10.4744 52.793 10.4744C53.2878 10.4744 53.6914 10.6295 54.0039 10.9396C54.3188 11.2498 54.4762 11.7173 54.4762 12.3423V16H53.4144V12.4418C53.4144 12.0724 53.3138 11.8049 53.1126 11.6392C52.9113 11.4735 52.671 11.3906 52.3917 11.3906C52.046 11.3906 51.7773 11.4972 51.5856 11.7102C51.3938 11.9209 51.2979 12.192 51.2979 12.5234V16H50.2397V12.3743C50.2397 12.0784 50.1474 11.8404 49.9627 11.6605C49.7781 11.4806 49.5378 11.3906 49.2418 11.3906C49.0406 11.3906 48.8548 11.4439 48.6843 11.5504C48.5162 11.6546 48.3801 11.8002 48.2759 11.9872C48.1741 12.1742 48.1232 12.3909 48.1232 12.6371V16H47.0614ZM55.8993 18.0455V10.5455H56.9363V11.4297H57.025C57.0866 11.3161 57.1754 11.1847 57.2914 11.0355C57.4074 10.8864 57.5684 10.7562 57.7743 10.6449C57.9803 10.5312 58.2525 10.4744 58.5911 10.4744C59.0314 10.4744 59.4244 10.5857 59.7701 10.8082C60.1157 11.0308 60.3868 11.3516 60.5833 11.7706C60.7821 12.1896 60.8816 12.6939 60.8816 13.2834C60.8816 13.8729 60.7833 14.3783 60.5868 14.7997C60.3903 15.2187 60.1204 15.5419 59.7772 15.7692C59.4339 15.9941 59.0421 16.1065 58.6017 16.1065C58.2703 16.1065 57.9992 16.0509 57.7885 15.9396C57.5802 15.8284 57.4168 15.6982 57.2985 15.549C57.1801 15.3999 57.089 15.2673 57.025 15.1513H56.9611V18.0455H55.8993ZM56.9398 13.2727C56.9398 13.6562 56.9954 13.9924 57.1067 14.2812C57.218 14.5701 57.379 14.7962 57.5897 14.9595C57.8004 15.1205 58.0584 15.201 58.3638 15.201C58.681 15.201 58.9462 15.117 59.1593 14.9489C59.3723 14.7784 59.5333 14.5476 59.6422 14.2564C59.7535 13.9652 59.8091 13.6373 59.8091 13.2727C59.8091 12.9129 59.7547 12.5897 59.6458 12.3033C59.5392 12.0168 59.3783 11.7907 59.1628 11.625C58.9498 11.4593 58.6834 11.3764 58.3638 11.3764C58.056 11.3764 57.7956 11.4557 57.5826 11.6143C57.3719 11.773 57.2121 11.9943 57.1032 12.2784C56.9943 12.5625 56.9398 12.8939 56.9398 13.2727Z" fill="black"/>
</svg>
