<svg width="58" height="24" viewBox="0 0 58 24" fill="none" xmlns="http://www.w3.org/2000/svg">
    <rect x="0.5" width="57" height="24" rx="12" fill="white"/>
    <path d="M15.1667 6H18.5M15.8334 10.7154V6H17.8334V10.6667L21.196 15.9508C21.5914 16.5721 21.4082 17.3962 20.787 17.7915C20.573 17.9277 20.3247 18 20.0711 18H13.6043C12.8679 18 12.271 17.403 12.271 16.6667C12.271 16.4117 12.3441 16.1621 12.4816 15.9474L15.8334 10.7154ZM13.7334 14H19.9667L21.2038 15.9533C21.5978 16.5754 21.4128 17.3991 20.7907 17.7931C20.5773 17.9282 20.3299 18 20.0773 18H13.6065C12.8701 18 12.2731 17.403 12.2731 16.6667C12.2731 16.4114 12.3464 16.1615 12.4843 15.9466L13.7334 14Z" stroke="black" stroke-linecap="round"/>
    <path d="M33.6387 10.6378C33.6008 10.3016 33.4445 10.0412 33.1699 9.85653C32.8953 9.66951 32.5497 9.57599 32.133 9.57599C31.8347 9.57599 31.5766 9.62334 31.3588 9.71804C31.141 9.81037 30.9718 9.93821 30.851 10.1016C30.7327 10.2625 30.6735 10.446 30.6735 10.652C30.6735 10.8248 30.7137 10.974 30.7942 11.0994C30.8771 11.2249 30.9848 11.3303 31.1174 11.4155C31.2523 11.4983 31.3967 11.5682 31.5506 11.625C31.7045 11.6795 31.8525 11.7244 31.9945 11.7599L32.7047 11.9446C32.9367 12.0014 33.1747 12.0784 33.4185 12.1754C33.6623 12.2725 33.8884 12.4003 34.0968 12.5589C34.3051 12.7176 34.4732 12.9141 34.601 13.1484C34.7312 13.3828 34.7963 13.6634 34.7963 13.9901C34.7963 14.402 34.6898 14.7678 34.4767 15.0874C34.266 15.407 33.9595 15.6591 33.557 15.8438C33.1569 16.0284 32.6728 16.1207 32.1046 16.1207C31.5601 16.1207 31.089 16.0343 30.6912 15.8615C30.2935 15.6887 29.9822 15.4437 29.7573 15.1264C29.5324 14.8068 29.4081 14.428 29.3844 13.9901H30.4853C30.5066 14.2528 30.5918 14.4718 30.7409 14.647C30.8925 14.8198 31.0854 14.9489 31.3198 15.0341C31.5565 15.117 31.8158 15.1584 32.0975 15.1584C32.4076 15.1584 32.6834 15.1098 32.9249 15.0128C33.1687 14.9134 33.3605 14.776 33.5002 14.6009C33.6399 14.4233 33.7097 14.2161 33.7097 13.9794C33.7097 13.764 33.6481 13.5876 33.525 13.4503C33.4043 13.313 33.2398 13.1993 33.0314 13.1094C32.8255 13.0194 32.5923 12.9401 32.3319 12.8714L31.4725 12.6371C30.8901 12.4785 30.4284 12.2453 30.0875 11.9375C29.749 11.6297 29.5797 11.2225 29.5797 10.7159C29.5797 10.2969 29.6934 9.93111 29.9206 9.61861C30.1479 9.30611 30.4557 9.06345 30.8439 8.89062C31.2322 8.71544 31.6702 8.62784 32.1578 8.62784C32.6503 8.62784 33.0847 8.71425 33.4611 8.88707C33.8399 9.0599 34.1382 9.29782 34.356 9.60085C34.5738 9.90151 34.6874 10.2472 34.6969 10.6378H33.6387ZM42.4251 12.3636C42.4251 13.1402 42.283 13.8078 41.9989 14.3665C41.7148 14.9228 41.3254 15.3513 40.8306 15.652C40.3382 15.9503 39.7783 16.0994 39.1509 16.0994C38.5212 16.0994 37.9589 15.9503 37.4641 15.652C36.9717 15.3513 36.5835 14.9216 36.2994 14.3629C36.0153 13.8042 35.8732 13.1378 35.8732 12.3636C35.8732 11.5871 36.0153 10.9207 36.2994 10.3643C36.5835 9.80563 36.9717 9.37713 37.4641 9.07884C37.9589 8.77817 38.5212 8.62784 39.1509 8.62784C39.7783 8.62784 40.3382 8.77817 40.8306 9.07884C41.3254 9.37713 41.7148 9.80563 41.9989 10.3643C42.283 10.9207 42.4251 11.5871 42.4251 12.3636ZM41.3384 12.3636C41.3384 11.7718 41.2425 11.2734 41.0508 10.8686C40.8614 10.4614 40.601 10.1536 40.2695 9.94531C39.9405 9.73461 39.5676 9.62926 39.1509 9.62926C38.7319 9.62926 38.3578 9.73461 38.0288 9.94531C37.6997 10.1536 37.4393 10.4614 37.2475 10.8686C37.0581 11.2734 36.9634 11.7718 36.9634 12.3636C36.9634 12.9555 37.0581 13.455 37.2475 13.8622C37.4393 14.267 37.6997 14.5748 38.0288 14.7855C38.3578 14.9938 38.7319 15.098 39.1509 15.098C39.5676 15.098 39.9405 14.9938 40.2695 14.7855C40.601 14.5748 40.8614 14.267 41.0508 13.8622C41.2425 13.455 41.3384 12.9555 41.3384 12.3636ZM43.6937 16V15.2045L46.1547 12.6548C46.4174 12.3778 46.6341 12.1352 46.8045 11.9268C46.9773 11.7161 47.1064 11.5161 47.1916 11.3267C47.2768 11.1373 47.3194 10.9361 47.3194 10.723C47.3194 10.4815 47.2626 10.2732 47.149 10.098C47.0353 9.92045 46.8803 9.78433 46.6838 9.68963C46.4873 9.59257 46.2659 9.54403 46.0197 9.54403C45.7593 9.54403 45.532 9.5973 45.3379 9.70384C45.1438 9.81037 44.9946 9.9607 44.8904 10.1548C44.7863 10.349 44.7342 10.5762 44.7342 10.8366H43.6866C43.6866 10.3939 43.7884 10.0069 43.992 9.67543C44.1956 9.34399 44.475 9.08712 44.8301 8.90483C45.1852 8.72017 45.5888 8.62784 46.041 8.62784C46.4979 8.62784 46.9004 8.71899 47.2484 8.90128C47.5988 9.0812 47.8722 9.32741 48.0687 9.63991C48.2652 9.95005 48.3635 10.3004 48.3635 10.6911C48.3635 10.9609 48.3126 11.2249 48.2108 11.483C48.1113 11.741 47.9373 12.0286 47.6887 12.3459C47.4402 12.6607 47.0945 13.0431 46.6518 13.4929L45.2065 15.0057V15.0589H48.4806V16H43.6937Z" fill="black"/>
</svg>
