<svg width="81" height="24" viewBox="0 0 81 24" fill="none" xmlns="http://www.w3.org/2000/svg">
    <rect x="0.5" width="80" height="24" rx="12" fill="white"/>
    <path d="M14.1262 16.3738C13.9452 16.1928 13.8333 15.9428 13.8333 15.6667C13.8333 15.1144 14.281 14.6667 14.8333 14.6667C15.1094 14.6667 15.3594 14.7786 15.5404 14.9596M16.5572 13.9428C16.3159 13.7015 16.1666 13.3682 16.1666 13C16.1666 12.2636 16.7636 11.6667 17.5 11.6667C17.8681 11.6667 18.2015 11.8159 18.4428 12.0572M19.1262 11.0404C18.9452 10.8595 18.8333 10.6095 18.8333 10.3333C18.8333 9.78105 19.281 9.33333 19.8333 9.33333C20.1094 9.33333 20.3594 9.44526 20.5404 9.62623M21.8333 10.1315C21.8333 10.8823 21.458 11.5835 20.8333 12C20.2085 12.4165 19.8333 13.1177 19.8333 13.8685V14C19.8333 14.7836 19.3 15.4667 18.5398 15.6567L18.3326 15.7085C17.5823 15.8961 16.9289 16.3565 16.5 17C16.0835 17.6247 15.3823 18 14.6314 18H11.8333C12.2602 17.5731 12.5 16.9942 12.5 16.3905V15.8685C12.5 15.1177 12.8752 14.4165 13.5 14C14.1434 13.571 14.6039 12.9176 14.7915 12.1674L14.9241 11.6368C15.0666 11.0666 15.5789 10.6667 16.1666 10.6667C16.7795 10.6667 17.3398 10.3204 17.6138 9.77224L17.9037 9.19257C18.2691 8.46168 19.0161 8 19.8333 8H20.2238C20.8275 8 21.4064 7.76019 21.8333 7.33333V10.1315ZM12.1666 11.3333C12.7189 11.3333 13.1666 10.8856 13.1666 10.3333C13.1666 9.78105 12.7189 9.33333 12.1666 9.33333C11.6143 9.33333 11.1666 9.78105 11.1666 10.3333C11.1666 10.8856 11.6143 11.3333 12.1666 11.3333ZM12.1666 8C12.7189 8 13.1666 7.55228 13.1666 7C13.1666 6.44772 12.7189 6 12.1666 6C11.6143 6 11.1666 6.44772 11.1666 7C11.1666 7.55228 11.6143 8 12.1666 8ZM15.5 8.66667C16.0522 8.66667 16.5 8.21895 16.5 7.66667C16.5 7.11438 16.0522 6.66667 15.5 6.66667C14.9477 6.66667 14.5 7.11438 14.5 7.66667C14.5 8.21895 14.9477 8.66667 15.5 8.66667Z" stroke="black" stroke-linecap="round"/>
    <path d="M33.6459 11.8771L32.6835 12.0476C32.6433 11.9245 32.5793 11.8073 32.4917 11.696C32.4065 11.5848 32.2905 11.4936 32.1437 11.4226C31.997 11.3516 31.8135 11.3161 31.5933 11.3161C31.2926 11.3161 31.0417 11.3835 30.8405 11.5185C30.6392 11.651 30.5386 11.8227 30.5386 12.0334C30.5386 12.2157 30.6061 12.3625 30.741 12.4737C30.876 12.585 31.0938 12.6761 31.3944 12.7472L32.2609 12.946C32.7628 13.062 33.1369 13.2408 33.3831 13.4822C33.6293 13.7237 33.7524 14.0374 33.7524 14.4233C33.7524 14.75 33.6577 15.0412 33.4683 15.2969C33.2813 15.5502 33.0197 15.7491 32.6835 15.8935C32.3497 16.0379 31.9626 16.1101 31.5223 16.1101C30.9115 16.1101 30.4131 15.9799 30.0273 15.7195C29.6414 15.4567 29.4046 15.0838 29.317 14.6009L30.3433 14.4446C30.4072 14.7121 30.5386 14.9145 30.7375 15.0518C30.9363 15.1868 31.1956 15.2543 31.5152 15.2543C31.8632 15.2543 32.1414 15.1821 32.3497 15.0376C32.558 14.8909 32.6622 14.7121 32.6622 14.5014C32.6622 14.331 32.5983 14.1877 32.4704 14.0717C32.345 13.9557 32.152 13.8681 31.8916 13.8089L30.9683 13.6065C30.4593 13.4905 30.0829 13.3059 29.839 13.0526C29.5976 12.7992 29.4768 12.4785 29.4768 12.0902C29.4768 11.7682 29.5668 11.4865 29.7467 11.245C29.9266 11.0036 30.1752 10.8153 30.4925 10.6804C30.8097 10.5431 31.1731 10.4744 31.5827 10.4744C32.1721 10.4744 32.6362 10.6023 32.9747 10.858C33.3132 11.1113 33.537 11.451 33.6459 11.8771ZM37.2174 16.1101C36.7061 16.1101 36.2598 15.9929 35.8786 15.7585C35.4975 15.5241 35.2016 15.1963 34.9909 14.7749C34.7802 14.3535 34.6748 13.861 34.6748 13.2976C34.6748 12.7318 34.7802 12.237 34.9909 11.8132C35.2016 11.3894 35.4975 11.0604 35.8786 10.826C36.2598 10.5916 36.7061 10.4744 37.2174 10.4744C37.7288 10.4744 38.175 10.5916 38.5562 10.826C38.9374 11.0604 39.2333 11.3894 39.444 11.8132C39.6547 12.237 39.76 12.7318 39.76 13.2976C39.76 13.861 39.6547 14.3535 39.444 14.7749C39.2333 15.1963 38.9374 15.5241 38.5562 15.7585C38.175 15.9929 37.7288 16.1101 37.2174 16.1101ZM37.221 15.2188C37.5524 15.2188 37.827 15.1312 38.0448 14.956C38.2626 14.7808 38.4236 14.5476 38.5278 14.2564C38.6343 13.9652 38.6876 13.6444 38.6876 13.294C38.6876 12.946 38.6343 12.6264 38.5278 12.3352C38.4236 12.0417 38.2626 11.8061 38.0448 11.6286C37.827 11.451 37.5524 11.3622 37.221 11.3622C36.8872 11.3622 36.6102 11.451 36.39 11.6286C36.1722 11.8061 36.01 12.0417 35.9035 12.3352C35.7993 12.6264 35.7472 12.946 35.7472 13.294C35.7472 13.6444 35.7993 13.9652 35.9035 14.2564C36.01 14.5476 36.1722 14.7808 36.39 14.956C36.6102 15.1312 36.8872 15.2188 37.221 15.2188ZM41.4308 18.0455C41.2722 18.0455 41.1278 18.0324 40.9976 18.0064C40.8674 17.9827 40.7703 17.9567 40.7064 17.9283L40.9621 17.0582C41.1562 17.1103 41.329 17.1328 41.4806 17.1257C41.6321 17.1186 41.7658 17.0618 41.8818 16.9553C42.0002 16.8487 42.1044 16.6747 42.1943 16.4332L42.3257 16.071L40.33 10.5455H41.4664L42.8477 14.7784H42.9046L44.286 10.5455H45.4259L43.178 16.728C43.0738 17.0121 42.9413 17.2524 42.7803 17.4489C42.6193 17.6477 42.4275 17.7969 42.205 17.8963C41.9825 17.9957 41.7244 18.0455 41.4308 18.0455ZM49.1555 16V8.72727H50.2172V11.4297H50.2812C50.3427 11.3161 50.4315 11.1847 50.5475 11.0355C50.6635 10.8864 50.8245 10.7562 51.0305 10.6449C51.2364 10.5312 51.5087 10.4744 51.8472 10.4744C52.2876 10.4744 52.6805 10.5857 53.0262 10.8082C53.3718 11.0308 53.6429 11.3516 53.8394 11.7706C54.0383 12.1896 54.1377 12.6939 54.1377 13.2834C54.1377 13.8729 54.0394 14.3783 53.843 14.7997C53.6465 15.2187 53.3766 15.5419 53.0333 15.7692C52.69 15.9941 52.2982 16.1065 51.8579 16.1065C51.5264 16.1065 51.2554 16.0509 51.0447 15.9396C50.8363 15.8284 50.673 15.6982 50.5546 15.549C50.4362 15.3999 50.3451 15.2673 50.2812 15.1513H50.1924V16H49.1555ZM50.1959 13.2727C50.1959 13.6562 50.2516 13.9924 50.3628 14.2812C50.4741 14.5701 50.6351 14.7962 50.8458 14.9595C51.0565 15.1205 51.3145 15.201 51.6199 15.201C51.9372 15.201 52.2023 15.117 52.4154 14.9489C52.6285 14.7784 52.7894 14.5476 52.8983 14.2564C53.0096 13.9652 53.0653 13.6373 53.0653 13.2727C53.0653 12.9129 53.0108 12.5897 52.9019 12.3033C52.7954 12.0168 52.6344 11.7907 52.4189 11.625C52.2059 11.4593 51.9395 11.3764 51.6199 11.3764C51.3122 11.3764 51.0518 11.4557 50.8387 11.6143C50.628 11.773 50.4682 11.9943 50.3593 12.2784C50.2504 12.5625 50.1959 12.8939 50.1959 13.2727ZM57.6808 16.1101C57.1434 16.1101 56.6806 15.9953 56.2923 15.7656C55.9065 15.5336 55.6082 15.2081 55.3975 14.7891C55.1891 14.3677 55.085 13.8741 55.085 13.3082C55.085 12.7495 55.1891 12.2571 55.3975 11.831C55.6082 11.4048 55.9017 11.0722 56.2781 10.8331C56.6569 10.594 57.0996 10.4744 57.6063 10.4744C57.914 10.4744 58.2123 10.5253 58.5012 10.6271C58.79 10.7289 59.0492 10.8887 59.2789 11.1065C59.5085 11.3243 59.6896 11.6072 59.8222 11.9553C59.9548 12.3009 60.021 12.7211 60.021 13.2159V13.5923H55.6851V12.7969H58.9806C58.9806 12.5175 58.9237 12.2701 58.8101 12.0547C58.6965 11.8369 58.5367 11.6652 58.3307 11.5398C58.1271 11.4143 57.888 11.3516 57.6134 11.3516C57.3151 11.3516 57.0547 11.425 56.8321 11.5717C56.6119 11.7161 56.4415 11.9055 56.3208 12.1399C56.2024 12.3719 56.1432 12.6241 56.1432 12.8963V13.5178C56.1432 13.8823 56.2071 14.1925 56.335 14.4482C56.4652 14.7038 56.6463 14.8991 56.8783 15.0341C57.1103 15.1667 57.3814 15.233 57.6915 15.233C57.8927 15.233 58.0762 15.2045 58.2419 15.1477C58.4076 15.0885 58.5509 15.0009 58.6716 14.8849C58.7923 14.7689 58.8847 14.6257 58.9486 14.4553L59.9536 14.6364C59.8731 14.9323 59.7287 15.1915 59.5203 15.4141C59.3144 15.6342 59.0551 15.8059 58.7426 15.929C58.4325 16.0497 58.0786 16.1101 57.6808 16.1101ZM62.7865 16.1207C62.4408 16.1207 62.1283 16.0568 61.849 15.929C61.5696 15.7988 61.3483 15.6106 61.1849 15.3643C61.0239 15.1181 60.9434 14.8163 60.9434 14.4588C60.9434 14.151 61.0026 13.8977 61.121 13.6989C61.2394 13.5 61.3992 13.3426 61.6004 13.2266C61.8016 13.1106 62.0265 13.023 62.2751 12.9638C62.5237 12.9046 62.777 12.8596 63.0351 12.8288C63.3618 12.791 63.6269 12.7602 63.8305 12.7365C64.0341 12.7105 64.1821 12.669 64.2744 12.6122C64.3667 12.5554 64.4129 12.4631 64.4129 12.3352V12.3104C64.4129 12.0002 64.3253 11.7599 64.1501 11.5895C63.9773 11.419 63.7193 11.3338 63.376 11.3338C63.0185 11.3338 62.7368 11.4131 62.5308 11.5717C62.3272 11.728 62.1863 11.902 62.1082 12.0938L61.1104 11.8665C61.2287 11.535 61.4015 11.2675 61.6288 11.0639C61.8585 10.858 62.1224 10.7088 62.4207 10.6165C62.719 10.5218 63.0327 10.4744 63.3618 10.4744C63.5796 10.4744 63.8104 10.5005 64.0542 10.5526C64.3005 10.6023 64.5301 10.6946 64.7432 10.8295C64.9586 10.9645 65.135 11.1574 65.2723 11.4084C65.4096 11.657 65.4782 11.9801 65.4782 12.3778V16H64.4413V15.2543H64.3987C64.33 15.3916 64.2271 15.5265 64.0898 15.6591C63.9524 15.7917 63.7761 15.9018 63.5606 15.9893C63.3452 16.0769 63.0872 16.1207 62.7865 16.1207ZM63.0173 15.2685C63.3109 15.2685 63.5618 15.2105 63.7702 15.0945C63.9809 14.9785 64.1407 14.8269 64.2496 14.6399C64.3608 14.4505 64.4165 14.2481 64.4165 14.0327V13.3295C64.3786 13.3674 64.3052 13.4029 64.1963 13.4361C64.0898 13.4669 63.9678 13.4941 63.8305 13.5178C63.6932 13.5391 63.5595 13.5592 63.4292 13.5781C63.299 13.5947 63.1901 13.6089 63.1025 13.6207C62.8966 13.6468 62.7084 13.6906 62.5379 13.7521C62.3698 13.8137 62.2349 13.9025 62.1331 14.0185C62.0336 14.1321 61.9839 14.2836 61.9839 14.473C61.9839 14.7358 62.081 14.9347 62.2751 15.0696C62.4693 15.2022 62.7166 15.2685 63.0173 15.2685ZM67.9543 12.7614V16H66.8925V10.5455H67.9117V11.4332H67.9791C68.1046 11.1444 68.3011 10.9124 68.5686 10.7372C68.8385 10.562 69.1782 10.4744 69.5878 10.4744C69.9595 10.4744 70.285 10.5526 70.5644 10.7088C70.8437 10.8627 71.0603 11.0923 71.2142 11.3977C71.3681 11.7031 71.445 12.0807 71.445 12.5305V16H70.3833V12.6584C70.3833 12.263 70.2803 11.9541 70.0743 11.7315C69.8683 11.5066 69.5854 11.3942 69.2256 11.3942C68.9794 11.3942 68.7604 11.4474 68.5686 11.554C68.3792 11.6605 68.2289 11.8168 68.1176 12.0227C68.0087 12.2263 67.9543 12.4725 67.9543 12.7614Z" fill="black"/>
</svg>
