<svg width="59" height="24" viewBox="0 0 59 24" fill="none" xmlns="http://www.w3.org/2000/svg">
    <rect width="59" height="24" rx="12" fill="white"/>
    <path fill-rule="evenodd" clip-rule="evenodd" d="M13 6H16.3905C16.9942 6 17.5731 6.23981 18 6.66667C18.4269 7.09353 18.6667 7.67247 18.6667 8.27614V8.33333C18.6667 8.98244 18.8772 9.61404 19.2667 10.1333L19.6667 10.6667C20.2713 11.4729 20.3277 12.565 19.8092 13.4292L19.3527 14.19C18.9038 14.9381 18.6667 15.7942 18.6667 16.6667C18.6667 17.4317 18.1041 18.0804 17.3467 18.1886L14 18.6667V16.2761C14 15.7228 14.2015 15.1902 14.5639 14.7765L14.6767 14.6566C15.076 14.2573 15.2027 13.6604 15 13.1333L14.9778 13.0756C14.7962 12.6036 14.7863 12.0845 14.9468 11.6082L15 11.4667C15.2017 10.9826 15.0913 10.4247 14.7205 10.0538L14.6667 10C14.2398 9.57314 14 8.99419 14 8.39052V7C14 6.44772 13.5523 6 13 6ZM16.3333 17.3333C16.8856 17.3333 17.3333 16.8856 17.3333 16.3333C17.3333 15.781 16.8856 15.3333 16.3333 15.3333C15.781 15.3333 15.3333 15.781 15.3333 16.3333C15.3333 16.8856 15.781 17.3333 16.3333 17.3333ZM17.3333 13.6667C18.0697 13.6667 18.6667 13.0697 18.6667 12.3333C18.6667 11.597 18.0697 11 17.3333 11C16.597 11 16 11.597 16 12.3333C16 13.0697 16.597 13.6667 17.3333 13.6667ZM16.3333 9.66667C16.8856 9.66667 17.3333 9.21895 17.3333 8.66667C17.3333 8.11438 16.8856 7.66667 16.3333 7.66667C15.781 7.66667 15.3333 8.11438 15.3333 8.66667C15.3333 9.21895 15.781 9.66667 16.3333 9.66667Z" stroke="black" stroke-linecap="round"/>
    <path d="M33.1 11.8771L32.1376 12.0476C32.0974 11.9245 32.0334 11.8073 31.9458 11.696C31.8606 11.5848 31.7446 11.4936 31.5978 11.4226C31.4511 11.3516 31.2676 11.3161 31.0474 11.3161C30.7467 11.3161 30.4958 11.3835 30.2946 11.5185C30.0933 11.651 29.9927 11.8227 29.9927 12.0334C29.9927 12.2157 30.0602 12.3625 30.1951 12.4737C30.3301 12.585 30.5479 12.6761 30.8485 12.7472L31.715 12.946C32.2169 13.062 32.591 13.2408 32.8372 13.4822C33.0834 13.7237 33.2065 14.0374 33.2065 14.4233C33.2065 14.75 33.1118 15.0412 32.9224 15.2969C32.7354 15.5502 32.4738 15.7491 32.1376 15.8935C31.8038 16.0379 31.4167 16.1101 30.9764 16.1101C30.3656 16.1101 29.8672 15.9799 29.4814 15.7195C29.0955 15.4567 28.8587 15.0838 28.7711 14.6009L29.7974 14.4446C29.8613 14.7121 29.9927 14.9145 30.1916 15.0518C30.3904 15.1868 30.6497 15.2543 30.9693 15.2543C31.3173 15.2543 31.5955 15.1821 31.8038 15.0376C32.0121 14.8909 32.1163 14.7121 32.1163 14.5014C32.1163 14.331 32.0524 14.1877 31.9245 14.0717C31.7991 13.9557 31.6061 13.8681 31.3457 13.8089L30.4224 13.6065C29.9134 13.4905 29.537 13.3059 29.2931 13.0526C29.0517 12.7992 28.9309 12.4785 28.9309 12.0902C28.9309 11.7682 29.0209 11.4865 29.2008 11.245C29.3807 11.0036 29.6293 10.8153 29.9466 10.6804C30.2638 10.5431 30.6272 10.4744 31.0368 10.4744C31.6262 10.4744 32.0903 10.6023 32.4288 10.858C32.7673 11.1113 32.9911 11.451 33.1 11.8771ZM36.6715 16.1101C36.1602 16.1101 35.7139 15.9929 35.3327 15.7585C34.9516 15.5241 34.6557 15.1963 34.445 14.7749C34.2343 14.3535 34.1289 13.861 34.1289 13.2976C34.1289 12.7318 34.2343 12.237 34.445 11.8132C34.6557 11.3894 34.9516 11.0604 35.3327 10.826C35.7139 10.5916 36.1602 10.4744 36.6715 10.4744C37.1829 10.4744 37.6291 10.5916 38.0103 10.826C38.3915 11.0604 38.6874 11.3894 38.8981 11.8132C39.1088 12.237 39.2141 12.7318 39.2141 13.2976C39.2141 13.861 39.1088 14.3535 38.8981 14.7749C38.6874 15.1963 38.3915 15.5241 38.0103 15.7585C37.6291 15.9929 37.1829 16.1101 36.6715 16.1101ZM36.6751 15.2188C37.0065 15.2188 37.2811 15.1312 37.4989 14.956C37.7167 14.7808 37.8777 14.5476 37.9819 14.2564C38.0884 13.9652 38.1417 13.6444 38.1417 13.294C38.1417 12.946 38.0884 12.6264 37.9819 12.3352C37.8777 12.0417 37.7167 11.8061 37.4989 11.6286C37.2811 11.451 37.0065 11.3622 36.6751 11.3622C36.3413 11.3622 36.0643 11.451 35.8441 11.6286C35.6263 11.8061 35.4641 12.0417 35.3576 12.3352C35.2534 12.6264 35.2013 12.946 35.2013 13.294C35.2013 13.6444 35.2534 13.9652 35.3576 14.2564C35.4641 14.5476 35.6263 14.7808 35.8441 14.956C36.0643 15.1312 36.3413 15.2188 36.6751 15.2188ZM40.8849 18.0455C40.7263 18.0455 40.5819 18.0324 40.4517 18.0064C40.3215 17.9827 40.2244 17.9567 40.1605 17.9283L40.4162 17.0582C40.6103 17.1103 40.7831 17.1328 40.9347 17.1257C41.0862 17.1186 41.2199 17.0618 41.3359 16.9553C41.4543 16.8487 41.5585 16.6747 41.6484 16.4332L41.7798 16.071L39.7841 10.5455H40.9205L42.3018 14.7784H42.3587L43.7401 10.5455H44.88L42.6321 16.728C42.5279 17.0121 42.3954 17.2524 42.2344 17.4489C42.0734 17.6477 41.8816 17.7969 41.6591 17.8963C41.4366 17.9957 41.1785 18.0455 40.8849 18.0455ZM47.3089 16.1207C46.9633 16.1207 46.6508 16.0568 46.3714 15.929C46.0921 15.7988 45.8707 15.6106 45.7074 15.3643C45.5464 15.1181 45.4659 14.8163 45.4659 14.4588C45.4659 14.151 45.5251 13.8977 45.6435 13.6989C45.7618 13.5 45.9216 13.3426 46.1229 13.2266C46.3241 13.1106 46.549 13.023 46.7976 12.9638C47.0462 12.9046 47.2995 12.8596 47.5575 12.8288C47.8842 12.791 48.1494 12.7602 48.353 12.7365C48.5566 12.7105 48.7045 12.669 48.7969 12.6122C48.8892 12.5554 48.9354 12.4631 48.9354 12.3352V12.3104C48.9354 12.0002 48.8478 11.7599 48.6726 11.5895C48.4998 11.419 48.2417 11.3338 47.8984 11.3338C47.541 11.3338 47.2592 11.4131 47.0533 11.5717C46.8497 11.728 46.7088 11.902 46.6307 12.0938L45.6328 11.8665C45.7512 11.535 45.924 11.2675 46.1513 11.0639C46.3809 10.858 46.6449 10.7088 46.9432 10.6165C47.2415 10.5218 47.5552 10.4744 47.8842 10.4744C48.102 10.4744 48.3329 10.5005 48.5767 10.5526C48.8229 10.6023 49.0526 10.6946 49.2656 10.8295C49.4811 10.9645 49.6574 11.1574 49.7947 11.4084C49.9321 11.657 50.0007 11.9801 50.0007 12.3778V16H48.9638V15.2543H48.9212C48.8525 15.3916 48.7495 15.5265 48.6122 15.6591C48.4749 15.7917 48.2985 15.9018 48.0831 15.9893C47.8677 16.0769 47.6096 16.1207 47.3089 16.1207ZM47.5398 15.2685C47.8333 15.2685 48.0843 15.2105 48.2926 15.0945C48.5033 14.9785 48.6631 14.8269 48.772 14.6399C48.8833 14.4505 48.9389 14.2481 48.9389 14.0327V13.3295C48.901 13.3674 48.8277 13.4029 48.7188 13.4361C48.6122 13.4669 48.4903 13.4941 48.353 13.5178C48.2157 13.5391 48.0819 13.5592 47.9517 13.5781C47.8215 13.5947 47.7126 13.6089 47.625 13.6207C47.419 13.6468 47.2308 13.6906 47.0604 13.7521C46.8923 13.8137 46.7573 13.9025 46.6555 14.0185C46.5561 14.1321 46.5064 14.2836 46.5064 14.473C46.5064 14.7358 46.6035 14.9347 46.7976 15.0696C46.9917 15.2022 47.2391 15.2685 47.5398 15.2685Z" fill="black"/>
</svg>
