<svg width="64" height="24" viewBox="0 0 64 24" fill="none" xmlns="http://www.w3.org/2000/svg">
    <rect x="0.5" width="63" height="24" rx="12" fill="white"/>
    <g clip-path="url(#clip0_239_72090)">
        <path d="M22.5 6.00095L22.2506 6.00437C19.9263 6.068 17.7106 7.01906 16.0621 8.66762M22.5 6.00095L21.6256 5.86644C20.0422 5.62284 18.4281 5.66307 16.8588 5.98524L16.3295 6.09392C16.182 6.12419 16.0407 6.17923 15.9116 6.25669C15.2802 6.63555 15.0754 7.45456 15.4543 8.086L15.9003 8.82846L16.0621 8.66762M22.5 6.00095L22.6345 6.8753C22.8781 8.45869 22.8379 10.0728 22.5157 11.6421L22.407 12.1715C22.2589 12.8928 21.5541 13.3575 20.8328 13.2094C20.6853 13.1791 20.544 13.1241 20.4149 13.0466L19.6716 12.5997L19.8333 12.4389M22.5 6.00095L22.4966 6.25037C22.4329 8.57462 21.4819 10.7903 19.8333 12.4389M22.5 6.00095C22.5 8.41564 21.5407 10.7314 19.8333 12.4389M16.0621 8.66762L13.5433 11.1864M19.8333 12.4389L17.3145 14.9576M17.3145 14.9576L13.5433 11.1864M17.3145 14.9576L16.7051 15.5671C16.2606 16.0116 16.2606 16.7321 16.7051 17.1766C17.1495 17.621 17.8701 17.621 18.3145 17.1766L18.4526 17.0385M13.5433 11.1864L12.9338 11.7959C12.4894 12.2403 11.7688 12.2403 11.3243 11.7959C10.8799 11.3514 10.8799 10.6308 11.3243 10.1864L11.4624 10.0483M16.136 13.7791L13.6409 16.2742C13.1965 16.7187 13.1965 17.4393 13.6409 17.8837C14.0854 18.3281 14.806 18.3281 15.2504 17.8837L15.3885 17.7456M14.7218 12.3649L12.2267 14.86C11.7823 15.3045 11.0617 15.3045 10.6172 14.86C10.1728 14.4156 10.1728 13.695 10.6172 13.2505L10.7553 13.1125" stroke="black" stroke-linecap="round"/>
        <path d="M17.2674 12.6487L17.3146 12.6016" stroke="black" stroke-width="1.5" stroke-linecap="round" stroke-linejoin="round"/>
        <path d="M15.8532 11.2327L15.9004 11.1855" stroke="black" stroke-width="1.5" stroke-linecap="round" stroke-linejoin="round"/>
    </g>
    <path d="M33.6859 11.8771L32.7235 12.0476C32.6833 11.9245 32.6194 11.8073 32.5318 11.696C32.4466 11.5848 32.3306 11.4936 32.1838 11.4226C32.037 11.3516 31.8535 11.3161 31.6333 11.3161C31.3327 11.3161 31.0817 11.3835 30.8805 11.5185C30.6793 11.651 30.5787 11.8227 30.5787 12.0334C30.5787 12.2157 30.6461 12.3625 30.7811 12.4737C30.916 12.585 31.1338 12.6761 31.4345 12.7472L32.301 12.946C32.8029 13.062 33.1769 13.2408 33.4231 13.4822C33.6693 13.7237 33.7924 14.0374 33.7924 14.4233C33.7924 14.75 33.6977 15.0412 33.5083 15.2969C33.3213 15.5502 33.0597 15.7491 32.7235 15.8935C32.3897 16.0379 32.0027 16.1101 31.5623 16.1101C30.9515 16.1101 30.4532 15.9799 30.0673 15.7195C29.6814 15.4567 29.4447 15.0838 29.3571 14.6009L30.3833 14.4446C30.4473 14.7121 30.5787 14.9145 30.7775 15.0518C30.9764 15.1868 31.2356 15.2543 31.5552 15.2543C31.9032 15.2543 32.1814 15.1821 32.3897 15.0376C32.5981 14.8909 32.7022 14.7121 32.7022 14.5014C32.7022 14.331 32.6383 14.1877 32.5105 14.0717C32.385 13.9557 32.1921 13.8681 31.9316 13.8089L31.0083 13.6065C30.4993 13.4905 30.1229 13.3059 29.8791 13.0526C29.6376 12.7992 29.5169 12.4785 29.5169 12.0902C29.5169 11.7682 29.6068 11.4865 29.7868 11.245C29.9667 11.0036 30.2153 10.8153 30.5325 10.6804C30.8497 10.5431 31.2131 10.4744 31.6227 10.4744C32.2122 10.4744 32.6762 10.6023 33.0147 10.858C33.3533 11.1113 33.577 11.451 33.6859 11.8771ZM38.6424 18.0455V15.1513H38.5785C38.5146 15.2673 38.4222 15.3999 38.3015 15.549C38.1831 15.6982 38.0198 15.8284 37.8114 15.9396C37.6031 16.0509 37.3332 16.1065 37.0018 16.1065C36.5614 16.1065 36.1684 15.9941 35.8228 15.7692C35.4795 15.5419 35.2096 15.2187 35.0131 14.7997C34.819 14.3783 34.7219 13.8729 34.7219 13.2834C34.7219 12.6939 34.8202 12.1896 35.0167 11.7706C35.2156 11.3516 35.4878 11.0308 35.8335 10.8082C36.1791 10.5857 36.5709 10.4744 37.0089 10.4744C37.3474 10.4744 37.6197 10.5312 37.8256 10.6449C38.034 10.7562 38.195 10.8864 38.3086 11.0355C38.4246 11.1847 38.5146 11.3161 38.5785 11.4297H38.6673V10.5455H39.7042V18.0455H38.6424ZM37.2362 15.201C37.5415 15.201 37.7996 15.1205 38.0103 14.9595C38.2234 14.7962 38.3844 14.5701 38.4933 14.2812C38.6045 13.9924 38.6602 13.6562 38.6602 13.2727C38.6602 12.8939 38.6057 12.5625 38.4968 12.2784C38.3879 11.9943 38.2281 11.773 38.0174 11.6143C37.8067 11.4557 37.5463 11.3764 37.2362 11.3764C36.9165 11.3764 36.6502 11.4593 36.4371 11.625C36.2241 11.7907 36.0631 12.0168 35.9542 12.3033C35.8477 12.5897 35.7944 12.9129 35.7944 13.2727C35.7944 13.6373 35.8488 13.9652 35.9577 14.2564C36.0666 14.5476 36.2276 14.7784 36.4407 14.9489C36.6561 15.117 36.9213 15.201 37.2362 15.201ZM44.587 13.7379V10.5455H45.6523V16H44.6083V15.0554H44.5515C44.426 15.3466 44.2248 15.5893 43.9478 15.7834C43.6732 15.9751 43.3311 16.071 42.9215 16.071C42.5711 16.071 42.261 15.9941 41.9911 15.8402C41.7236 15.6839 41.5129 15.4531 41.359 15.1477C41.2075 14.8423 41.1317 14.4647 41.1317 14.0149V10.5455H42.1935V13.8871C42.1935 14.2588 42.2965 14.5547 42.5025 14.7749C42.7085 14.995 42.976 15.1051 43.305 15.1051C43.5039 15.1051 43.7016 15.0554 43.8981 14.956C44.0969 14.8565 44.2615 14.7062 44.3917 14.505C44.5243 14.3037 44.5894 14.0481 44.587 13.7379ZM47.079 16V10.5455H48.1408V16H47.079ZM47.6152 9.70384C47.4306 9.70384 47.272 9.64228 47.1394 9.51918C47.0092 9.3937 46.9441 9.24455 46.9441 9.07173C46.9441 8.89654 47.0092 8.7474 47.1394 8.62429C47.272 8.49882 47.4306 8.43608 47.6152 8.43608C47.7999 8.43608 47.9573 8.49882 48.0875 8.62429C48.2201 8.7474 48.2864 8.89654 48.2864 9.07173C48.2864 9.24455 48.2201 9.3937 48.0875 9.51918C47.9573 9.64228 47.7999 9.70384 47.6152 9.70384ZM51.6112 16.1065C51.1708 16.1065 50.7778 15.9941 50.4322 15.7692C50.0889 15.5419 49.819 15.2187 49.6225 14.7997C49.4284 14.3783 49.3313 13.8729 49.3313 13.2834C49.3313 12.6939 49.4296 12.1896 49.6261 11.7706C49.8249 11.3516 50.0972 11.0308 50.4428 10.8082C50.7885 10.5857 51.1803 10.4744 51.6183 10.4744C51.9568 10.4744 52.229 10.5312 52.435 10.6449C52.6433 10.7562 52.8043 10.8864 52.918 11.0355C53.034 11.1847 53.1239 11.3161 53.1879 11.4297H53.2518V8.72727H54.3136V16H53.2766V15.1513H53.1879C53.1239 15.2673 53.0316 15.3999 52.9109 15.549C52.7925 15.6982 52.6291 15.8284 52.4208 15.9396C52.2125 16.0509 51.9426 16.1065 51.6112 16.1065ZM51.8455 15.201C52.1509 15.201 52.409 15.1205 52.6197 14.9595C52.8327 14.7962 52.9937 14.5701 53.1026 14.2812C53.2139 13.9924 53.2695 13.6562 53.2695 13.2727C53.2695 12.8939 53.2151 12.5625 53.1062 12.2784C52.9973 11.9943 52.8375 11.773 52.6268 11.6143C52.4161 11.4557 52.1557 11.3764 51.8455 11.3764C51.5259 11.3764 51.2596 11.4593 51.0465 11.625C50.8335 11.7907 50.6725 12.0168 50.5636 12.3033C50.457 12.5897 50.4038 12.9129 50.4038 13.2727C50.4038 13.6373 50.4582 13.9652 50.5671 14.2564C50.676 14.5476 50.837 14.7784 51.0501 14.9489C51.2655 15.117 51.5307 15.201 51.8455 15.201Z" fill="black"/>
    <defs>
        <clipPath id="clip0_239_72090">
            <rect width="16" height="16" fill="white" transform="translate(8.5 4)"/>
        </clipPath>
    </defs>
</svg>
