<svg width="66" height="24" viewBox="0 0 66 24" fill="none" xmlns="http://www.w3.org/2000/svg">
    <rect width="66" height="24" rx="12" fill="white"/>
    <path d="M10.3102 17.6894L18.1406 9.85892M13.9383 14.0612L14.0732 13.9524C14.2041 13.8389 14.3226 13.7117 14.4267 13.5728C15.236 12.4938 15.0173 10.963 13.9383 10.1537L13.8034 10.2626C13.6725 10.3761 13.554 10.5033 13.4499 10.6421C12.6406 11.7212 12.8593 13.252 13.9383 14.0612ZM13.9383 14.0612L14.0472 14.1961C14.1607 14.327 14.2879 14.4456 14.4268 14.5497C15.5058 15.359 17.0365 15.1403 17.8458 14.0612L17.7369 13.9263C17.6234 13.7955 17.4962 13.6769 17.3573 13.5728C16.2783 12.7635 14.7476 12.9822 13.9383 14.0612ZM15.892 12.1075L16.0269 11.9986C16.1578 11.8851 16.2763 11.7579 16.3805 11.6191C17.1898 10.54 16.9711 9.00924 15.892 8.19996L15.7572 8.30882C15.6263 8.42233 15.5078 8.54954 15.4036 8.68839C14.5943 9.76742 14.813 11.2982 15.892 12.1075ZM15.892 12.1075L16.0009 12.2424C16.1144 12.3732 16.2416 12.4918 16.3805 12.5959C17.4595 13.4052 18.9903 13.1865 19.7995 12.1075L19.6907 11.9726C19.5772 11.8417 19.4499 11.7232 19.3111 11.619C18.2321 10.8098 16.7013 11.0285 15.892 12.1075ZM17.8458 10.1537L17.9807 10.0449C18.1115 9.93136 18.2301 9.80414 18.3342 9.66529C19.1435 8.58626 18.9248 7.05548 17.8458 6.2462L17.7109 6.35506C17.58 6.46856 17.4615 6.59578 17.3574 6.73463C16.5481 7.81366 16.7668 9.34444 17.8458 10.1537ZM17.8458 10.1537L17.9547 10.2886C18.0682 10.4195 18.1954 10.538 18.3342 10.6422C19.4133 11.4514 20.944 11.2327 21.7533 10.1537L21.6444 10.0188C21.5309 9.88796 21.4037 9.76941 21.2648 9.66527C20.1858 8.85601 18.6551 9.0747 17.8458 10.1537ZM11.9383 16.0612L12.0732 15.9524C12.2041 15.8389 12.3226 15.7117 12.4267 15.5728C13.236 14.4938 13.0173 12.963 11.9383 12.1537L11.8034 12.2626C11.6725 12.3761 11.554 12.5033 11.4499 12.6421C10.6406 13.7212 10.8593 15.252 11.9383 16.0612ZM11.9383 16.0612L12.0472 16.1961C12.1607 16.327 12.2879 16.4456 12.4267 16.5497C13.5058 17.359 15.0365 17.1403 15.8458 16.0612L15.7369 15.9263C15.6234 15.7955 15.4962 15.6769 15.3573 15.5728C14.2783 14.7635 12.7476 14.9822 11.9383 16.0612ZM21.825 6.17494C22.0158 7.51019 21.088 8.74723 19.7528 8.93797C19.5809 8.96252 19.4072 8.96865 19.2344 8.95638L19.062 8.93795C18.8712 7.60272 19.799 6.36568 21.1343 6.17494C21.3633 6.14221 21.5959 6.14221 21.825 6.17494Z" stroke="black" stroke-linecap="round"/>
    <path d="M30.1209 16L28.5158 10.5455H29.6131L30.682 14.5511H30.7353L31.8077 10.5455H32.905L33.9703 14.5334H34.0236L35.0854 10.5455H36.1827L34.5811 16H33.498L32.3901 12.0618H32.3084L31.2005 16H30.1209ZM38.2521 12.7614V16H37.1903V8.72727H38.2379V11.4332H38.3054C38.4332 11.1397 38.6286 10.9065 38.8913 10.7337C39.1541 10.5608 39.4974 10.4744 39.9212 10.4744C40.2952 10.4744 40.6219 10.5514 40.9013 10.7053C41.183 10.8591 41.4008 11.0888 41.5547 11.3942C41.7109 11.6972 41.7891 12.076 41.7891 12.5305V16H40.7273V12.6584C40.7273 12.2583 40.6243 11.9482 40.4183 11.728C40.2124 11.5054 39.9259 11.3942 39.5589 11.3942C39.308 11.3942 39.0831 11.4474 38.8842 11.554C38.6877 11.6605 38.5327 11.8168 38.419 12.0227C38.3078 12.2263 38.2521 12.4725 38.2521 12.7614ZM45.5568 16.1101C45.0194 16.1101 44.5566 15.9953 44.1683 15.7656C43.7824 15.5336 43.4841 15.2081 43.2734 14.7891C43.0651 14.3677 42.9609 13.8741 42.9609 13.3082C42.9609 12.7495 43.0651 12.2571 43.2734 11.831C43.4841 11.4048 43.7777 11.0722 44.1541 10.8331C44.5329 10.594 44.9756 10.4744 45.4822 10.4744C45.79 10.4744 46.0883 10.5253 46.3771 10.6271C46.666 10.7289 46.9252 10.8887 47.1548 11.1065C47.3845 11.3243 47.5656 11.6072 47.6982 11.9553C47.8307 12.3009 47.897 12.7211 47.897 13.2159V13.5923H43.5611V12.7969H46.8565C46.8565 12.5175 46.7997 12.2701 46.6861 12.0547C46.5724 11.8369 46.4126 11.6652 46.2067 11.5398C46.0031 11.4143 45.764 11.3516 45.4893 11.3516C45.1911 11.3516 44.9306 11.425 44.7081 11.5717C44.4879 11.7161 44.3175 11.9055 44.1967 12.1399C44.0784 12.3719 44.0192 12.6241 44.0192 12.8963V13.5178C44.0192 13.8823 44.0831 14.1925 44.2109 14.4482C44.3411 14.7038 44.5223 14.8991 44.7543 15.0341C44.9863 15.1667 45.2573 15.233 45.5675 15.233C45.7687 15.233 45.9522 15.2045 46.1179 15.1477C46.2836 15.0885 46.4268 15.0009 46.5476 14.8849C46.6683 14.7689 46.7607 14.6257 46.8246 14.4553L47.8295 14.6364C47.7491 14.9323 47.6046 15.1915 47.3963 15.4141C47.1903 15.6342 46.9311 15.8059 46.6186 15.929C46.3085 16.0497 45.9545 16.1101 45.5568 16.1101ZM50.6625 16.1207C50.3168 16.1207 50.0043 16.0568 49.725 15.929C49.4456 15.7988 49.2243 15.6106 49.0609 15.3643C48.8999 15.1181 48.8194 14.8163 48.8194 14.4588C48.8194 14.151 48.8786 13.8977 48.997 13.6989C49.1154 13.5 49.2752 13.3426 49.4764 13.2266C49.6776 13.1106 49.9025 13.023 50.1511 12.9638C50.3997 12.9046 50.653 12.8596 50.911 12.8288C51.2377 12.791 51.5029 12.7602 51.7065 12.7365C51.9101 12.7105 52.0581 12.669 52.1504 12.6122C52.2427 12.5554 52.2889 12.4631 52.2889 12.3352V12.3104C52.2889 12.0002 52.2013 11.7599 52.0261 11.5895C51.8533 11.419 51.5952 11.3338 51.252 11.3338C50.8945 11.3338 50.6127 11.4131 50.4068 11.5717C50.2032 11.728 50.0623 11.902 49.9842 12.0938L48.9863 11.8665C49.1047 11.535 49.2775 11.2675 49.5048 11.0639C49.7344 10.858 49.9984 10.7088 50.2967 10.6165C50.595 10.5218 50.9087 10.4744 51.2377 10.4744C51.4556 10.4744 51.6864 10.5005 51.9302 10.5526C52.1764 10.6023 52.4061 10.6946 52.6191 10.8295C52.8346 10.9645 53.0109 11.1574 53.1483 11.4084C53.2856 11.657 53.3542 11.9801 53.3542 12.3778V16H52.3173V15.2543H52.2747C52.206 15.3916 52.103 15.5265 51.9657 15.6591C51.8284 15.7917 51.652 15.9018 51.4366 15.9893C51.2212 16.0769 50.9631 16.1207 50.6625 16.1207ZM50.8933 15.2685C51.1868 15.2685 51.4378 15.2105 51.6461 15.0945C51.8568 14.9785 52.0166 14.8269 52.1255 14.6399C52.2368 14.4505 52.2924 14.2481 52.2924 14.0327V13.3295C52.2546 13.3674 52.1812 13.4029 52.0723 13.4361C51.9657 13.4669 51.8438 13.4941 51.7065 13.5178C51.5692 13.5391 51.4354 13.5592 51.3052 13.5781C51.175 13.5947 51.0661 13.6089 50.9785 13.6207C50.7725 13.6468 50.5843 13.6906 50.4139 13.7521C50.2458 13.8137 50.1109 13.9025 50.0091 14.0185C49.9096 14.1321 49.8599 14.2836 49.8599 14.473C49.8599 14.7358 49.957 14.9347 50.1511 15.0696C50.3452 15.2022 50.5926 15.2685 50.8933 15.2685ZM57.3146 10.5455V11.3977H54.3352V10.5455H57.3146ZM55.1342 9.23864H56.196V14.3984C56.196 14.6044 56.2268 14.7595 56.2884 14.8636C56.3499 14.9654 56.4292 15.0353 56.5263 15.0732C56.6257 15.1087 56.7334 15.1264 56.8494 15.1264C56.9347 15.1264 57.0092 15.1205 57.0732 15.1087C57.1371 15.0968 57.1868 15.0874 57.2223 15.0803L57.4141 15.9574C57.3525 15.9811 57.2649 16.0047 57.1513 16.0284C57.0376 16.0545 56.8956 16.0687 56.7251 16.071C56.4458 16.0758 56.1854 16.026 55.9439 15.9219C55.7024 15.8177 55.5071 15.6567 55.358 15.4389C55.2088 15.2211 55.1342 14.9477 55.1342 14.6186V9.23864Z" fill="black"/>
</svg>
