<svg width="16" height="16" viewBox="0 0 16 16" fill="none" xmlns="http://www.w3.org/2000/svg">
<path d="M12.7354 6.15882L13.0049 6.25709C13.8676 6.57079 14.3126 7.52444 13.9989 8.38712C13.925 8.59032 13.8122 8.77716 13.6667 8.93715L13.5576 9.05722C12.5253 10.1927 11.3256 11.1639 10 11.9372L8.03364 13.0842C8.01288 13.0963 7.98721 13.0963 7.96645 13.0842L6.00004 11.9372C4.67449 11.1639 3.47482 10.1927 2.44253 9.05722L2.33338 8.93715C1.7159 8.25793 1.76596 7.20674 2.44518 6.58926C2.60517 6.44382 2.79201 6.33098 2.99522 6.25709L3.26511 6.15801M5.7961 10.1651L3.66496 7.3237C3.00221 6.44005 3.1813 5.18644 4.06496 4.5237C4.23693 4.39472 4.42857 4.29431 4.6325 4.22633L5.00004 4.10382C5.25404 4.01915 5.51073 3.94553 5.76941 3.88295L5.89088 3.85436C5.67326 4.25607 5.60981 4.73801 5.74291 5.20384M5.74291 5.20384L6.9689 9.49514M5.74291 5.20384C5.50545 4.37274 5.89361 3.49037 6.66671 3.10382C7.50606 2.68414 8.49403 2.68414 9.33338 3.10382C10.1065 3.49037 10.4946 4.37274 10.2572 5.20384M9.03091 9.49504L10.2572 5.20384M10.2572 5.20384C10.3902 4.73827 10.3269 4.25661 10.1096 3.85503C10.4092 3.92283 10.7064 4.00595 11 4.10382L11.3676 4.22633C12.4155 4.57563 12.9818 5.70827 12.6325 6.75616C12.5645 6.96009 12.4641 7.15173 12.3351 7.3237L10.2036 10.1648" stroke="black" stroke-linecap="round"/>
<path fill-rule="evenodd" clip-rule="evenodd" d="M11.3332 11.0611L11.3333 12.332C11.3333 12.8842 10.8856 13.332 10.3333 13.332H5.66665C5.11436 13.332 4.66665 12.8842 4.66665 12.332L4.66602 11.0605C5.09432 11.3755 5.53956 11.6679 5.99998 11.9365L7.96639 13.0836C7.98715 13.0957 8.01282 13.0957 8.03357 13.0836L9.99998 11.9365C10.4601 11.6681 10.9051 11.3758 11.3332 11.0611Z" stroke="black" stroke-linecap="round"/>
</svg>
