<svg width="16" height="16" viewBox="0 0 16 16" fill="none" xmlns="http://www.w3.org/2000/svg">
<path d="M9.99996 2.66732L9.89733 2.70153C8.76424 3.07923 7.99996 4.1396 7.99996 5.33398V3.64026C7.99996 2.6869 7.32704 1.86607 6.3922 1.6791L4.66663 1.33398V1.69438C4.66663 2.64774 5.33955 3.46857 6.2744 3.65554L7.99996 4.00065M10.561 4.49978C11.259 4.45199 11.9419 4.71857 12.4229 5.22663C12.8739 5.70296 13.1283 6.32978 13.1393 6.98202L13.1375 7.13293L13.1203 7.55396C13.0836 8.45353 12.9389 9.34501 12.6896 10.2093L12.5912 10.5321L12.3464 11.2938C12.045 12.2318 11.2965 12.9583 10.3499 13.2314C9.94795 13.3474 9.4003 13.3224 8.7069 13.1565L8.51418 13.1077C8.17713 13.0181 7.82248 13.0181 7.48543 13.1078C6.70029 13.3167 6.0885 13.358 5.65007 13.2314C4.70345 12.9583 3.95492 12.2318 3.65352 11.2938L3.40875 10.5321C3.09889 9.56776 2.9209 8.56598 2.87959 7.55396L2.86241 7.13293C2.8336 6.4271 3.09131 5.7396 3.57699 5.22663C4.05803 4.71857 4.7409 4.45199 5.43893 4.49978L5.851 4.528C6.44347 4.56857 7.15994 5.00337 8.0004 5.83241C8.77832 5.04232 9.44255 4.61257 9.99307 4.54315L10.1489 4.528L10.561 4.49978Z" stroke="black" stroke-linecap="round"/>
</svg>
