<svg width="16" height="16" viewBox="0 0 16 16" fill="none" xmlns="http://www.w3.org/2000/svg">
<path d="M13.607 11.5329C12.8858 12.1861 12.0326 12.6767 11.1053 12.9714C10.1779 13.2661 9.19807 13.3582 8.23206 13.2413C5.10706 12.9079 1.85706 10.4496 2.19039 7.32458C2.31539 5.94958 2.35704 6.44959 2.56538 3.28292C2.56538 3.11625 3.02372 3.03292 3.02372 3.03292C3.02372 3.03292 3.77372 2.86625 3.77372 3.28292C3.77328 4.03491 3.90008 4.78156 4.14873 5.49125C4.60965 6.85016 5.48421 8.03078 6.64985 8.86765C7.81549 9.70453 9.21377 10.1557 10.6487 10.1579C11.3404 10.1693 12.0295 10.0708 12.6904 9.86625C12.9075 9.77964 13.1488 9.77538 13.3688 9.85426C13.5889 9.93314 13.7725 10.0897 13.8852 10.2945C13.9978 10.4994 14.0317 10.7383 13.9805 10.9664C13.9293 11.1944 13.7965 11.3959 13.607 11.5329Z" stroke="black" stroke-linecap="round" stroke-linejoin="round"/>
<path d="M4.06543 5.07422C4.85686 5.94352 5.86038 6.59251 6.97782 6.95769C8.09527 7.32287 9.28838 7.39173 10.4404 7.15755C11.127 7.02822 11.7883 6.78905 12.3988 6.44922C12.5904 6.35263 12.809 6.32318 13.0194 6.3656C13.2298 6.40801 13.4199 6.51982 13.5591 6.68312C13.6984 6.84643 13.7789 7.05176 13.7876 7.26622C13.7963 7.48068 13.7327 7.69184 13.6071 7.86588L12.9821 8.57422" stroke="black" stroke-linecap="round" stroke-linejoin="round"/>
</svg>
