<svg width="16" height="16" viewBox="0 0 16 16" fill="none" xmlns="http://www.w3.org/2000/svg">
<path d="M5.20216 2.79975L5.66663 2.66704M5.20216 2.79975C4.00135 3.14284 2.97582 3.92949 2.33329 5.00038M5.20216 2.79975L5.15324 2.81519C5.2764 2.88484 5.39761 2.95892 5.51663 3.03741L5.94339 3.31886C7.35012 4.2466 8.99818 4.74112 10.6833 4.74112H10.8995C12.3473 4.74112 13.6679 5.56818 14.3 6.87075C14.3035 6.87801 14.307 6.88528 14.3105 6.89256L14.3132 6.91038C14.28 6.69659 14.2334 6.48418 14.1735 6.27439M5.66663 2.66704C7.19525 2.23029 8.81188 2.20336 10.3542 2.58894M5.66663 2.66704C6.43094 2.44867 7.21725 2.33275 8.00528 2.31962L8.30083 2.31951C8.99045 2.33051 9.67944 2.42025 10.3542 2.58894M10.3542 2.58894L10.979 2.74515C12.4358 3.10933 13.5874 4.22324 14 5.66704L14.1735 6.27439M14.1735 6.27439C14.4932 7.39326 14.4321 8.58663 14 9.66704L13.9523 9.78625C13.5954 10.6784 12.7544 11.2773 11.8032 11.3299L11.6666 11.3337C10.5877 11.3337 9.54098 11.7009 8.69851 12.3749L8.33329 12.667C7.30723 13.4879 5.91259 13.6772 4.70483 13.1596L4.33329 13.0004C2.88816 12.381 1.8801 11.0415 1.68509 9.48139L1.57437 8.59569C1.41817 7.3461 1.68538 6.08023 2.33329 5.00038M14.1735 6.27439C14.2151 6.42015 14.2503 6.56717 14.2791 6.71505C14.217 7.03901 14.1237 7.35766 14 7.66704L13.9523 7.78625C13.5954 8.67838 12.7544 9.27733 11.8032 9.32994L11.6666 9.33371C10.5877 9.33371 9.54098 9.7009 8.69851 10.3749L8.33329 10.667C7.30723 11.4879 5.91259 11.6772 4.70483 11.1596L4.33329 11.0004C2.88816 10.381 1.8801 9.0415 1.68509 7.48139L1.61477 6.92902C1.73296 6.25204 1.97487 5.59774 2.33329 5.00038M4.02365 7.09107C4.02365 7.64336 4.6206 8.09107 5.35698 8.09107C6.09336 8.09107 6.69031 7.64336 6.69031 7.09107C6.69031 6.53879 6.09336 6.09107 5.35698 6.09107C4.6206 6.09107 4.02365 6.53879 4.02365 7.09107Z" stroke="black" stroke-linecap="square"/>
</svg>
