<svg width="16" height="16" viewBox="0 0 16 16" fill="none" xmlns="http://www.w3.org/2000/svg">
<path d="M2.46688 8.23037C3.56876 9.07222 4.28876 10.3193 4.46688 11.6945M1.84389 8.83763L2.0747 9.00499C2.93528 9.62897 3.48986 10.5895 3.59995 11.6468L3.66324 12.2545C3.71393 12.7413 4.14965 13.0949 4.63645 13.0442C4.68864 13.0387 4.74024 13.0287 4.79065 13.0141C5.38657 12.8419 5.78515 12.2817 5.75238 11.6622L5.64375 9.60844C5.58982 8.58908 5.04997 7.65752 4.19232 7.10394L3.99059 6.97372C3.3001 6.52803 2.39883 6.58894 1.7746 7.1235C1.31634 7.51592 1.26297 8.20553 1.65539 8.66378C1.71118 8.72893 1.77445 8.78728 1.84389 8.83763Z" stroke="black" stroke-linecap="round"/>
<path d="M9.22873 3.20187C8.38228 4.30022 8.00958 5.69115 8.19346 7.06557M9.98767 3.6272L9.80804 3.84859C9.13828 4.67405 8.85121 5.74541 9.01851 6.79516L9.11467 7.39854C9.1917 7.88188 8.86233 8.33614 8.37899 8.41317C8.32718 8.42143 8.27473 8.42507 8.22227 8.42405C7.60209 8.41198 7.07209 7.97396 6.94342 7.36716L6.51679 5.35522C6.30504 4.35663 6.5854 3.31709 7.27054 2.5604L7.4317 2.3824C7.98331 1.77319 8.86963 1.59876 9.61095 1.95354C10.1552 2.21398 10.3852 2.86628 10.1247 3.41048C10.0877 3.48785 10.0417 3.56059 9.98767 3.6272Z" stroke="black" stroke-linecap="round"/>
<path d="M9.49316 11.2333C10.7754 10.7054 11.7936 9.68712 12.3216 8.4049M9.04856 10.4855L9.31482 10.3836C10.3076 10.0036 11.0919 9.21933 11.4719 8.22657L11.6903 7.65594C11.8652 7.19885 12.3776 6.97013 12.8347 7.14509C12.8837 7.16384 12.9309 7.18691 12.9759 7.21402C13.5069 7.53457 13.7469 8.1789 13.5549 8.76875L12.9184 10.7244C12.6025 11.6951 11.84 12.4552 10.8683 12.768L10.6397 12.8415C9.85739 13.0933 9.00259 12.8012 8.53798 12.1233C8.19691 11.6257 8.32384 10.9457 8.82149 10.6047C8.89224 10.5562 8.96846 10.5162 9.04856 10.4855Z" stroke="black" stroke-linecap="round"/>
</svg>
