<svg width="16" height="16" viewBox="0 0 16 16" fill="none" xmlns="http://www.w3.org/2000/svg">
<g clip-path="url(#clip0_221_23762)">
<path d="M11.0171 7.11007C11.0775 7.17115 11.1234 7.24238 11.1541 7.31895L12.013 7.31495C12.2615 7.31361 12.486 7.16636 12.5863 6.93895C12.7167 6.64318 12.6016 6.30123 12.3294 6.14143L12.2739 6.11298L12.9061 5.8996C13.0642 5.84613 13.1947 5.7321 13.2689 5.58254C13.4235 5.27067 13.2961 4.89246 12.9842 4.73779L12.7363 4.61439L12.9141 4.4372C13.2811 4.07024 13.2811 3.47527 12.9141 3.10831C12.5471 2.74135 11.9522 2.74135 11.5852 3.10831L11.3999 3.29304L11.2619 3.01551C11.1878 2.86595 11.0573 2.75192 10.8991 2.69845C10.5694 2.58694 10.2116 2.76389 10.1001 3.09367L9.90459 3.67016L9.89975 3.65605C9.80954 3.41076 9.57654 3.24725 9.3152 3.24584C8.96925 3.24398 8.68728 3.52292 8.68541 3.86887L8.68055 4.81922C8.73909 4.84849 8.79367 4.88719 8.84191 4.93491M11.0171 7.11007C10.7722 6.86259 10.3731 6.86043 10.1257 7.10526L3.89451 13.2696C3.74124 13.4212 3.52111 13.484 3.31092 13.436M11.0171 7.11007C11.2005 7.29548 11.2506 7.57452 11.1438 7.81197L11.6895 7.54227C12.0016 7.38793 12.3796 7.51576 12.534 7.82779C12.608 7.97743 12.6196 8.15032 12.5663 8.30852L12.4544 8.64037L13.0611 8.64044C13.5504 8.64044 13.947 9.03708 13.947 9.52636C13.947 10.0156 13.5504 10.4123 13.0611 10.4123L12.4544 10.4117L12.5663 10.7442C12.6775 11.0741 12.5002 11.4316 12.1703 11.5428C12.0121 11.5961 11.8392 11.5845 11.6895 11.5105L11.0924 11.215L11.1108 11.2737C11.1902 11.5791 11.0299 11.9024 10.7285 12.0193C10.4968 12.1092 10.2339 12.0545 10.0572 11.8797L8.57384 10.4123L4.98277 13.9648C4.49158 14.4508 3.70078 14.4508 3.20959 13.9648L2.48422 13.2472L3.31092 13.436M3.31092 13.436L2.66406 13.288L2.516 12.6411M2.516 12.6411C2.46802 12.4309 2.53079 12.2107 2.68241 12.0575M2.516 12.6411L2.70473 13.4678L1.98715 12.7424C1.50123 12.2512 1.50123 11.4604 1.98715 10.9692L5.53969 7.37814L4.07224 5.89477C3.89745 5.71809 3.8428 5.45519 3.93269 5.22349C4.04962 4.92212 4.37284 4.76175 4.67826 4.8412L4.73694 4.85961L4.44152 4.26245C4.3675 4.11281 4.35587 3.93992 4.40918 3.78172C4.52034 3.45183 4.87788 3.2745 5.20777 3.38566L5.54027 3.49761L5.53969 2.89087C5.53969 2.40159 5.93633 2.00495 6.42561 2.00495C6.9149 2.00495 7.31154 2.40159 7.31154 2.89087L7.31161 3.49761L7.64346 3.38566C7.80166 3.33235 7.97455 3.34399 8.12419 3.418C8.43622 3.57234 8.56405 3.95042 8.40971 4.26245L8.14001 4.80818C8.37746 4.70134 8.65649 4.75148 8.84191 4.93491M2.68241 12.0575L7.01889 7.67357L8.67375 6.01917L8.67352 6.00103L8.84672 5.82631M2.68241 12.0575L8.84672 5.82631M8.84672 5.82631C9.09154 5.57883 9.08939 5.17974 8.84191 4.93491M11.1997 4.80005L10.5664 5.43328M6.42561 4.69154L6.42561 5.58707M4.86374 8.5009L7.52151 11.1587M11.2604 9.52636L10.3649 9.52636" stroke="black" stroke-linecap="round"/>
</g>
<defs>
<clipPath id="clip0_221_23762">
<rect width="16" height="16" fill="white"/>
</clipPath>
</defs>
</svg>
