<svg width="16" height="16" viewBox="0 0 16 16" fill="none" xmlns="http://www.w3.org/2000/svg">
<g clip-path="url(#clip0_221_23761)">
<path fill-rule="evenodd" clip-rule="evenodd" d="M5.17159 13.9897C4.78107 14.3802 4.1479 14.3802 3.75738 13.9897C3.44962 13.682 3.38439 13.2235 3.5617 12.8519L3.48099 12.7712C3.10936 12.9485 2.65092 12.8833 2.34316 12.5755C1.95264 12.185 1.95264 11.5518 2.34316 11.1613C2.73369 10.7708 3.36685 10.7708 3.75738 11.1613C3.84015 11.2441 3.90537 11.3377 3.95306 11.4377L5.40729 9.98278L6.3501 10.9256L4.89584 12.3801C4.99555 12.4278 5.089 12.4929 5.17159 12.5755C5.56211 12.966 5.56211 13.5992 5.17159 13.9897ZM12.9498 3.38311C14.5119 4.94521 14.5119 7.47787 12.9498 9.03997C12.3618 9.6279 11.2435 10.0772 9.59487 10.3878C8.93627 10.5118 8.33037 10.8315 7.85622 11.3052L7.76432 11.397C7.50397 11.6573 7.08186 11.6573 6.82151 11.397L4.93589 9.51137C4.67554 9.25102 4.67554 8.82891 4.93589 8.56856L5.0266 8.47786C5.50101 8.00347 5.82123 7.39697 5.94539 6.73765C6.25581 5.08922 6.70498 3.97104 7.29291 3.38311C8.85501 1.82102 11.3877 1.82102 12.9498 3.38311Z" stroke="black" stroke-linecap="round"/>
</g>
<defs>
<clipPath id="clip0_221_23761">
<rect width="16" height="16" fill="white"/>
</clipPath>
</defs>
</svg>
