<svg width="16" height="16" viewBox="0 0 16 16" fill="none" xmlns="http://www.w3.org/2000/svg">
<path d="M3.33333 5.33333L4.70295 5.5616C4.82568 5.58206 4.9499 5.59234 5.07433 5.59234C6.32194 5.59234 7.33333 4.58095 7.33333 3.33333L6 4V2L5.86691 2.00326C4.45598 2.07261 3.33333 3.23854 3.33333 4.66667V5.33333ZM3.33333 5.33333V5.75967C3.33333 6.34779 3.52775 6.91941 3.88634 7.38557L4.66667 8.4M4.33333 8.66667H3.49071C2.98568 8.66667 2.524 8.952 2.29814 9.40372L2 10M3.86667 10.6667H3.49071C2.98568 10.6667 2.524 10.952 2.29814 11.4037L2 12M5.66667 12.6667H4.82405C4.31902 12.6667 3.85733 12.952 3.63148 13.4037L3.33333 14M11.6667 8.66667H12.5093C13.0143 8.66667 13.476 8.952 13.7019 9.40372L14 10M12.1333 10.6667H12.5093C13.0143 10.6667 13.476 10.952 13.7019 11.4037L14 12M10.3333 12.6667H11.176C11.681 12.6667 12.1427 12.952 12.3685 13.4037L12.6667 14M12.6667 5.33333V5.75967C12.6667 6.34779 12.4722 6.91941 12.1137 7.38557L11.3333 8.4M12.6667 5.33333L11.2971 5.5616C11.1743 5.58206 11.0501 5.59234 10.9257 5.59234C9.67806 5.59234 8.66667 4.58095 8.66667 3.33333L10 4V2L10.1331 2.00326C11.544 2.07261 12.6667 3.23854 12.6667 4.66667V5.33333ZM5.52695 12.5484L6.08333 12.875C7.26672 13.5696 8.73328 13.5696 9.91667 12.875L10.4731 12.5484C11.34 12.0396 11.9542 11.1909 12.1667 10.2083C12.339 9.4112 11.8325 8.62528 11.0354 8.45293L10.9877 8.44343L10.25 8.33333C8.75814 8.11232 7.24186 8.11232 5.75 8.33333L5.06026 8.43552C4.25352 8.55504 3.69641 9.30592 3.81592 10.1127C3.82068 10.1447 3.82648 10.1766 3.83333 10.2083C4.04578 11.1909 4.66 12.0396 5.52695 12.5484Z" stroke="black" stroke-linecap="round"/>
<path d="M7 7.06667V7" stroke="black" stroke-width="1.5" stroke-linecap="round" stroke-linejoin="round"/>
<path d="M9 7.06667V7" stroke="black" stroke-width="1.5" stroke-linecap="round" stroke-linejoin="round"/>
</svg>
