<svg width="16" height="16" viewBox="0 0 16 16" fill="none" xmlns="http://www.w3.org/2000/svg">
<g clip-path="url(#clip0_221_23759)">
<path d="M6.075 12.1366C7.2394 12.1366 8.18335 11.1926 8.18335 10.0282C8.18335 8.86384 7.2394 7.91992 6.075 7.91992C4.9106 7.91992 3.96667 8.86384 3.96667 10.0282C3.96667 11.1926 4.9106 12.1366 6.075 12.1366Z" stroke="black" stroke-linecap="round" stroke-linejoin="round"/>
<path d="M10.5666 9.52462C10.5666 10.7159 10.0934 11.8583 9.25102 12.7007C8.40867 13.543 7.26618 14.0163 6.07491 14.0163C4.88365 14.0163 3.74119 13.543 2.89883 12.7007C2.05648 11.8583 1.58325 10.7159 1.58325 9.52462C1.58325 7.04962 3.59991 2.78711 6.07491 2.78711C8.54991 2.78711 10.5666 7.04962 10.5666 9.52462Z" stroke="black" stroke-linecap="round" stroke-linejoin="round"/>
<path d="M10.3832 2.05315C12.2623 1.82398 14.1873 4.89484 14.4165 6.774C14.4852 7.49839 14.3283 8.2263 13.9673 8.85807C13.6063 9.48984 13.0588 9.99455 12.3998 10.3031" stroke="black" stroke-linecap="round" stroke-linejoin="round"/>
</g>
<defs>
<clipPath id="clip0_221_23759">
<rect width="16" height="16" fill="white"/>
</clipPath>
</defs>
</svg>
