<svg width="16" height="16" viewBox="0 0 16 16" fill="none" xmlns="http://www.w3.org/2000/svg">
<g clip-path="url(#clip0_221_23765)">
<path d="M13.8032 10.6515C13.5638 10.9168 13.288 11.1467 12.9839 11.3343C12.2976 11.81 11.5144 12.1276 10.6906 12.2643C9.86683 12.401 9.02301 12.3534 8.21986 12.1249C7.41671 11.8963 6.67421 11.4926 6.04582 10.9426C5.41744 10.3927 4.91879 9.71032 4.58578 8.94457C4.47567 8.71685 4.39535 8.47589 4.34681 8.22765L4.2444 7.85213C4.27854 7.81799 4.27854 7.74971 4.31268 7.71557C4.54708 7.20689 4.87084 6.74439 5.26856 6.35003L5.47339 6.1452C5.5453 6.01734 5.63754 5.90204 5.74649 5.80381C6.58824 4.95656 7.67498 4.39529 8.85309 4.19931C8.6517 3.55726 8.30068 2.97222 7.82894 2.49238L7.58997 2.25341C8.114 2.23907 8.63546 2.33157 9.1226 2.52525C9.60973 2.71893 10.0523 3.00974 10.4235 3.37998C10.6905 3.64326 10.9203 3.94191 11.1062 4.26758C12.1301 4.52018 13.0637 5.052 13.8032 5.80382C14.4856 6.4778 14.99 7.31065 15.2711 8.22765C14.9846 9.14222 14.4809 9.97384 13.8032 10.6515Z" stroke="black" stroke-linecap="round" stroke-linejoin="round"/>
<path d="M4.21034 7.81886L3.08377 8.67232L1.9572 9.59406L1.9572 7.81886V6.04365L3.08377 6.96539L4.21034 7.81886Z" stroke="black" stroke-linecap="round" stroke-linejoin="round"/>
<path d="M11.1404 12.0174C10.1685 11.0275 9.62675 9.69371 9.63314 8.30637C9.63953 6.91903 10.1935 5.59034 11.1746 4.60938" stroke="black" stroke-linecap="round" stroke-linejoin="round"/>
<path d="M12.1645 7.85314C12.3719 8.06054 12.7082 8.06053 12.9156 7.85313C13.123 7.64574 13.123 7.30948 12.9156 7.10209C12.7082 6.89469 12.3719 6.89469 12.1645 7.10209C11.9571 7.30948 11.9571 7.64574 12.1645 7.85314Z" fill="black"/>
</g>
<defs>
<clipPath id="clip0_221_23765">
<rect width="16" height="16" fill="white"/>
</clipPath>
</defs>
</svg>
