<svg width="16" height="16" viewBox="0 0 16 16" fill="none" xmlns="http://www.w3.org/2000/svg">
<path fill-rule="evenodd" clip-rule="evenodd" d="M2.13802 12H13.8619C14.046 12 14.1952 12.1492 14.1952 12.3333C14.1952 12.4217 14.1601 12.5065 14.0976 12.569L13.3333 13.3333H2.66662L1.90232 12.569C1.77214 12.4389 1.77214 12.2278 1.90232 12.0976C1.96483 12.0351 2.04962 12 2.13802 12Z" stroke="black" stroke-linecap="round"/>
<path d="M5.16477 6.38725L5.18838 6.27353C5.25513 6.01306 5.40223 5.78801 5.60085 5.62399C5.38252 5.442 5.10225 5.33398 4.79996 5.33398C4.1854 5.33398 3.66186 5.78041 3.56477 6.38725L2.66663 12.0007H4.26663M5.16477 6.38725L4.26663 12.0007M5.16477 6.38725C5.26186 5.78041 5.7854 5.33398 6.39996 5.33398C6.71036 5.33398 6.99753 5.44787 7.21827 5.63878C7.01016 5.8301 6.8723 6.0964 6.84823 6.39725M4.26663 12.0007H6.39996M11.7333 12.0007H13.3333L12.4351 6.38725C12.3381 5.78041 11.8145 5.33398 11.2 5.33398C10.898 5.33398 10.618 5.44178 10.4009 5.62399C10.6264 5.81198 10.7858 6.07891 10.8351 6.38725M11.7333 12.0007L10.8351 6.38725M11.7333 12.0007H9.59996M10.8351 6.38725C10.7381 5.78041 10.2145 5.33398 9.59996 5.33398C9.31075 5.33398 9.04171 5.43285 8.82777 5.60077L8.78305 5.63984L8.84995 5.70676C9.01945 5.8907 9.13034 6.13038 9.15169 6.39725M9.15169 6.39725C9.10365 5.79679 8.60234 5.33398 7.99996 5.33398C7.39758 5.33398 6.89627 5.79679 6.84823 6.39725M9.15169 6.39725L9.59996 12.0007M9.59996 12.0007H6.39996M6.39996 12.0007L6.84823 6.39725" stroke="black" stroke-linecap="round"/>
<path fill-rule="evenodd" clip-rule="evenodd" d="M6.27439 4.32155C5.33955 4.13458 4.66663 3.31375 4.66663 2.36039V2L6.39219 2.34511C7.32704 2.53208 7.99996 3.35291 7.99996 4.30627C7.99996 3.35291 8.67288 2.53208 9.60773 2.34511L11.3333 2V2.36039C11.3333 3.31375 10.6604 4.13458 9.72552 4.32155L7.99996 4.66667L6.27439 4.32155Z" stroke="black" stroke-linecap="round"/>
</svg>
