<svg width="16" height="16" viewBox="0 0 16 16" fill="none" xmlns="http://www.w3.org/2000/svg">
<path d="M3.27142 12.7286L3.41267 12.6162C3.59658 12.4612 3.76244 12.2857 3.90698 12.093C4.96016 10.6888 4.67561 8.69671 3.27142 7.64354L3.13016 7.75589C2.94626 7.91089 2.78039 8.08639 2.63585 8.2791C1.58268 9.68329 1.86723 11.6754 3.27142 12.7286ZM3.27142 12.7286L3.38378 12.8698C3.53881 13.0538 3.71434 13.2197 3.90709 13.3642C5.31123 14.4173 7.3032 14.1327 8.35627 12.7286L8.2439 12.5873C8.08888 12.4033 7.91335 12.2374 7.7206 12.0929C6.31645 11.0398 4.32449 11.3244 3.27142 12.7286ZM5.81384 10.186L5.9551 10.0737C6.139 9.9187 6.30486 9.7432 6.44941 9.55048C7.50258 8.14629 7.21803 6.1542 5.81384 5.10103L5.67259 5.21338C5.48868 5.36837 5.32282 5.54387 5.17828 5.73659C4.1251 7.14078 4.40965 9.13287 5.81384 10.186ZM5.81384 10.186L5.92621 10.3273C6.08123 10.5113 6.25676 10.6772 6.44951 10.8217C7.85366 11.8748 9.84562 11.5902 10.8987 10.186L10.7863 10.0448C10.6313 9.86083 10.4558 9.69494 10.263 9.55038C8.85888 8.49731 6.86691 8.7819 5.81384 10.186ZM8.35627 7.64354L8.49752 7.53118C8.68143 7.37619 8.84729 7.20069 8.99183 7.00797C10.045 5.60378 9.76046 3.61169 8.35627 2.55851L8.21501 2.67087C8.03111 2.82586 7.86524 3.00136 7.7207 3.19408C6.66753 4.59827 6.95208 6.59036 8.35627 7.64354ZM8.35627 7.64354L8.46864 7.78482C8.62366 7.96876 8.79919 8.13465 8.99194 8.27921C10.3961 9.33228 12.388 9.04768 13.4411 7.64354L13.3288 7.50225C13.1737 7.31832 12.9982 7.15243 12.8054 7.00787C11.4013 5.95479 9.40934 6.23939 8.35627 7.64354ZM13.9677 2.03194C14.2159 3.76962 13.0086 5.37939 11.271 5.6276C11.0325 5.66167 10.7911 5.66848 10.5515 5.64804L10.3721 5.62746C10.1239 3.88992 11.3312 2.28015 13.0688 2.03194C13.3669 1.98935 13.6696 1.98935 13.9677 2.03194Z" stroke="black" stroke-linecap="round"/>
</svg>
