<svg width="16" height="16" viewBox="0 0 16 16" fill="none" xmlns="http://www.w3.org/2000/svg">
<path d="M7.11184 11.95C7.40235 12.4932 7.82866 12.9195 8.37187 13.21C8.91508 13.5005 9.57519 13.6553 10.3333 13.6553C11.0914 13.6553 11.7515 13.5005 12.2947 13.21C12.8379 12.9195 13.2642 12.4932 13.5547 11.95C13.8452 11.4068 13.9999 10.7467 13.9999 9.98859C13.9999 9.23049 13.8452 8.57039 13.5547 8.02718C13.2642 7.48397 12.8379 7.05765 12.2947 6.76714C11.7515 6.47663 11.0914 6.32192 10.3333 6.32192C9.57519 6.32192 8.91508 6.47663 8.37187 6.76714M7.11184 11.95C6.82132 11.4068 6.66662 10.7467 6.66662 9.98859C6.66662 9.23049 6.82132 8.57039 7.11184 8.02718C7.40235 7.48397 7.82866 7.05765 8.37187 6.76714M7.11184 11.95C7.03803 11.812 6.97298 11.6664 6.91701 11.5136C6.8376 11.5646 6.75339 11.6119 6.66662 11.6553C5.82726 12.0749 4.8393 12.0749 3.99995 11.6553C3.15867 11.2346 2.55872 10.4491 2.37426 9.52682L2.33328 9.32192C2.1129 8.21999 2.09463 7.08717 2.27937 5.9787L2.42154 5.12568C2.57552 4.20184 3.16224 3.40744 3.99995 2.98859C4.8393 2.56891 5.82726 2.56891 6.66662 2.98859C7.50432 3.40744 8.09105 4.20184 8.24502 5.12568L8.38719 5.9787C8.42787 6.2228 8.45871 6.46808 8.47971 6.71395L8.37187 6.76714M11.9832 8.33867L11.7071 8.61481M8.95951 11.3624L8.68337 11.6385M8.95951 8.61481L8.68337 8.33867M11.9832 11.6385L11.7071 11.3624M12.3905 9.98859H12.2761M8.39047 9.98859H8.27609M10.3333 8.04578V7.9314M10.3333 12.0458V11.9314M10.3333 8.98859C10.8856 8.98859 11.3333 9.4363 11.3333 9.98859C11.3333 10.5409 10.8856 10.9886 10.3333 10.9886C9.781 10.9886 9.33328 10.5409 9.33328 9.98859C9.33328 9.4363 9.781 8.98859 10.3333 8.98859Z" stroke="black" stroke-linecap="round"/>
</svg>
