<svg width="16" height="16" viewBox="0 0 16 16" fill="none" xmlns="http://www.w3.org/2000/svg">
<g clip-path="url(#clip0_221_23758)">
<path d="M2.3333 13.6659L12.0237 3.97553M2.3333 13.6659L3.1939 12.8053C3.90171 12.0975 4.04076 11.0004 3.53192 10.1383M2.3333 13.6659L5.11043 10.8888C5.75747 10.2417 5.75747 9.19265 5.11043 8.54561M2.3333 13.6659L7.46745 8.53173C7.85415 8.14504 7.85415 7.51809 7.46745 7.1314M2.3333 13.6659L10.5316 5.4676C10.7881 5.21108 10.7881 4.79519 10.5316 4.53867M2.3333 13.6659L9.58877 6.41041C9.84529 6.15389 9.84529 5.738 9.58877 5.48148M2.3333 13.6659L3.20384 12.7953C3.91046 12.0887 4.99877 11.9335 5.87473 12.4145M2.3333 13.6659L5.09655 10.9026C5.75126 10.2479 6.81275 10.2479 7.46745 10.9026M2.3333 13.6659L7.45358 8.54561C7.84793 8.15125 8.48731 8.15125 8.88167 8.54561M2.3333 13.6659L10.5177 5.48148C10.7819 5.2173 11.2102 5.2173 11.4744 5.48148M2.3333 13.6659L9.5749 6.42429C9.83908 6.16011 10.2674 6.16011 10.5316 6.42429M4.39542 7.81647L4.75055 8.40836C5.0347 8.88194 4.88113 9.4962 4.40755 9.78034C4.25214 9.87359 4.0743 9.92285 3.89306 9.92285L3.1828 9.92285C2.63051 9.92285 2.1828 9.47514 2.1828 8.92285C2.1828 8.74161 2.23205 8.56377 2.3253 8.40836L2.68043 7.81647C2.96458 7.34289 3.57884 7.18933 4.05242 7.47348M4.39542 7.81647C4.31097 7.67572 4.19317 7.55793 4.05242 7.47348M4.39542 7.81647L4.6658 8.26878C4.75605 8.29554 4.85163 8.30991 4.95056 8.30991L5.66082 8.30991C5.84207 8.30991 6.0199 8.26065 6.17532 8.1674C6.6489 7.88325 6.80246 7.26899 6.51831 6.79541M4.05242 7.47348C4.02137 7.45485 3.98972 7.4381 3.9576 7.4232C3.95274 7.38636 3.95056 7.34839 3.95056 7.30991C3.95056 7.12866 3.99982 6.95083 4.09307 6.79541L4.4482 6.20353C4.73235 5.72995 5.34661 5.57638 5.82019 5.86053M7.60471 11.2625L8.19659 11.6176C8.33734 11.7021 8.45514 11.8199 8.53959 11.9606C8.82373 12.4342 8.67017 13.0485 8.19659 13.3326M7.60471 11.2625C7.13113 10.9784 6.51687 11.1319 6.23272 11.6055C6.13947 11.7609 6.09021 11.9388 6.09021 12.12L6.09021 12.8303C6.09021 13.3826 6.53793 13.8303 7.09021 13.8303C7.27145 13.8303 7.44929 13.781 7.60471 13.6878L8.19659 13.3326M7.60471 11.2625L7.74409 11.3466C7.71745 11.2566 7.70316 11.1612 7.70316 11.0625L7.70315 10.3522C7.70315 10.171 7.75241 9.99316 7.84566 9.83774C8.12981 9.36416 8.74407 9.2106 9.21765 9.49475M8.19659 13.3326C8.63912 13.0671 8.80222 12.5133 8.58926 12.0561C8.62664 12.0603 8.66464 12.0625 8.70315 12.0625C8.8844 12.0625 9.06224 12.0132 9.21765 11.92L9.80953 11.5649C10.2831 11.2807 10.4367 10.6665 10.1525 10.1929M6.51831 6.79541L6.16318 6.20353C6.07874 6.06278 5.96094 5.94498 5.82019 5.86053M6.51831 6.79541C6.53733 6.8271 6.55438 6.85941 6.56951 6.89222L6.64092 6.89569L7.35118 6.89569C7.53242 6.89569 7.71026 6.84644 7.86567 6.75319C8.33925 6.46904 8.49282 5.85478 8.20867 5.3812L7.85354 4.78931C7.76909 4.64856 7.65129 4.53077 7.51054 4.44632C7.03696 4.16217 6.4227 4.31573 6.13856 4.78931L5.78343 5.3812C5.71038 5.50294 5.66433 5.63844 5.64864 5.77847C5.70725 5.79994 5.76468 5.82723 5.82019 5.86053M10.1525 10.1929C10.0681 10.0521 9.95028 9.93433 9.80953 9.84988L9.21765 9.49475M10.1525 10.1929C10.1858 10.2484 10.2131 10.3058 10.2345 10.3653C10.3746 10.3487 10.5101 10.3027 10.6319 10.2296L11.2237 9.87451C11.6973 9.59036 11.8509 8.9761 11.5667 8.50252C11.4823 8.36177 11.3645 8.24397 11.2237 8.15952L10.6319 7.80439C10.1583 7.52024 9.54402 7.67381 9.25988 8.14739C9.16663 8.3028 9.11737 8.48064 9.11737 8.66188L9.11737 9.37214L9.12085 9.44356C9.15365 9.45868 9.18597 9.47574 9.21765 9.49475M9.76555 3.89049C10.0419 4.35114 9.89257 4.94862 9.43192 5.22501C9.28075 5.31572 9.10777 5.36363 8.93147 5.36363L8.83186 5.36363C8.29466 5.36363 7.85917 4.92814 7.85917 4.39094C7.85917 4.21464 7.90708 4.04166 7.99778 3.89049C8.29068 3.40233 8.92384 3.24404 9.412 3.53694C9.55708 3.62398 9.6785 3.74541 9.76555 3.89049ZM12.594 6.71892C12.8704 7.17956 12.721 7.77705 12.2603 8.05344C12.1092 8.14414 11.9362 8.19206 11.7599 8.19206L11.6603 8.19206C11.1231 8.19206 10.6876 7.75657 10.6876 7.21936C10.6876 7.04307 10.7355 6.87009 10.8262 6.71892C11.1191 6.23076 11.7523 6.07247 12.2404 6.36536C12.3855 6.45241 12.5069 6.57383 12.594 6.71892ZM11.6512 2.94768C11.9276 3.40833 11.7782 4.00581 11.3175 4.2822C11.1664 4.37291 10.9934 4.42082 10.8171 4.42082L10.7175 4.42082C10.1803 4.42082 9.74479 3.98533 9.74479 3.44813C9.74479 3.27183 9.7927 3.09885 9.8834 2.94768C10.1763 2.45952 10.8095 2.30123 11.2976 2.59413C11.4427 2.68118 11.5641 2.8026 11.6512 2.94768ZM13.5368 4.8333C13.8132 5.29395 13.6638 5.89143 13.2032 6.16782C13.052 6.25852 12.879 6.30644 12.7027 6.30644L12.6031 6.30644C12.0659 6.30644 11.6304 5.87095 11.6304 5.33374C11.6304 5.15745 11.6783 4.98447 11.769 4.8333C12.0619 4.34514 12.6951 4.18685 13.1832 4.47975C13.3283 4.56679 13.4497 4.68822 13.5368 4.8333ZM14.0082 2.47628C14.2846 2.93692 14.1352 3.53441 13.6746 3.8108C13.5234 3.9015 13.3504 3.94942 13.1741 3.94942L13.0745 3.94941C12.5373 3.94941 12.1018 3.51393 12.1018 2.97672C12.1018 2.80043 12.1497 2.62745 12.2404 2.47628C12.5333 1.98812 13.1665 1.82983 13.6546 2.12272C13.7997 2.20977 13.9211 2.33119 14.0082 2.47628Z" stroke="black" stroke-linecap="round"/>
</g>
<defs>
<clipPath id="clip0_221_23758">
<rect width="16" height="16" fill="white"/>
</clipPath>
</defs>
</svg>
