<svg width="16" height="16" viewBox="0 0 16 16" fill="none" xmlns="http://www.w3.org/2000/svg">
<path d="M12.1731 6.1736C11.0078 5.00835 9.1767 4.88233 7.86764 5.84116L7.84489 5.73468C7.76105 5.74073 7.67612 5.73865 7.59122 5.72803M12.1731 6.1736L12.3333 6.33387C12.5858 6.5863 12.7162 6.93589 12.6907 7.29198C12.6423 7.97009 12.0533 8.48053 11.3752 8.4321L8.3987 8.21949M12.1731 6.1736C10.9469 4.94739 8.98331 4.87198 7.66666 6.00053C7.137 6.45453 7.07566 7.25194 7.52966 7.7816C7.74923 8.03777 8.06217 8.19545 8.3987 8.21949M8.3987 8.21949C8.38796 8.21872 8.37723 8.21782 8.36653 8.21678C8.39328 8.35386 8.41723 8.49254 8.43944 8.6315L8.3277 9.15719M8.3277 9.15719C8.11309 10.1759 8.18049 11.2338 8.52262 12.217L8.57333 12.3627M8.3277 9.15719L8.5177 8.25588L11.1547 8.46536C11.1432 8.55902 11.1221 8.65284 11.0908 8.74556L11.0366 8.92025C10.8214 9.68147 10.8607 10.4941 11.1514 11.2334L11.1985 11.3642C11.4094 12.0455 11.0845 12.7872 10.4258 13.0884L10.3522 13.1221C10.3149 13.1391 10.2768 13.1544 10.2381 13.1679C9.55602 13.4053 8.81068 13.0448 8.57333 12.3627M8.57333 12.3627C8.59344 12.4205 8.6172 12.476 8.64426 12.529C8.55506 13.0528 8.18372 13.4949 7.66666 13.6672C7.15523 13.8377 6.60243 13.5613 6.43196 13.0498L6.41101 12.9779L6.29149 12.4998C6.12003 11.814 5.84489 11.1589 5.47603 10.557L5.33333 10.3339C4.89446 9.67556 4.60859 8.92733 4.4967 8.1441L4.25386 6.44421C4.19851 6.05681 4.24426 5.67401 4.37378 5.32579L7.59122 5.72803M7.59122 5.72803C7.76102 5.74926 7.93095 5.73638 8.0912 5.69092C8.24329 5.59745 8.40106 5.51744 8.56313 5.452C8.59909 5.42305 8.63366 5.39204 8.66666 5.35904C9.17198 4.85372 9.17198 4.03445 8.66666 3.52913L8.35702 3.21949C7.00457 1.86704 4.86345 1.71487 3.33333 2.86246C3.04107 3.08166 2.85041 3.4102 2.8051 3.77271C2.71285 4.51066 3.2363 5.18367 3.97426 5.27591L7.59122 5.72803Z" stroke="black" stroke-linecap="round"/>
</svg>
