<svg width="16" height="16" viewBox="0 0 16 16" fill="none" xmlns="http://www.w3.org/2000/svg">
<path d="M11.3334 12.6667V7.71573C11.3334 7.46584 11.2631 7.22097 11.1307 7.00906L10.5 6C9.95108 5.12167 9.60016 4.13425 9.47168 3.10648L9.33337 2H7.33337L7.18039 3.18141C7.04953 4.192 6.70053 5.16206 6.15757 6.02438L5.53841 7.0077C5.40445 7.22045 5.33337 7.46673 5.33337 7.71814V12.6667M11.3334 12.6667C11.3334 13.403 10.7364 14 10 14H6.66671C5.93033 14 5.33337 13.403 5.33337 12.6667M11.3334 12.6667V8.66667L11.1958 8.60316C10.4083 8.26931 9.49775 8.37672 8.80747 8.89443L8.66671 9C7.83166 9.62629 6.74248 9.80304 5.75224 9.47295L5.33337 9.33333V12.6667M6.66671 2H10" stroke="black" stroke-linecap="round"/>
</svg>
