<svg width="16" height="16" viewBox="0 0 16 16" fill="none" xmlns="http://www.w3.org/2000/svg">
<path d="M9.06195 6.01494C9.81944 5.86515 10.5746 5.94024 11.2537 6.19776C11.1939 5.8221 10.9994 5.46667 10.6789 5.21033L9.1655 3.99957C7.70463 2.83087 5.62882 2.83087 4.16794 3.99957L2.6545 5.21033C2.36347 5.44315 2.16385 5.77114 2.09076 6.1366C1.91919 6.99446 2.47553 7.82898 3.33339 8.00055C4.49942 8.23375 5.6838 8.34338 6.86755 8.32959M9.06195 6.01494L8.4658 6.13283C8.21104 6.18321 7.96853 6.28272 7.75181 6.42581M9.06195 6.01494C11.0278 5.6262 12.9779 6.75211 13.6242 8.64896L13.8202 9.22419C14.1764 10.2697 13.6176 11.4061 12.572 11.7623C12.3754 11.8293 12.1698 11.8652 11.9627 11.8689L11.8049 11.8655C11.6654 11.345 11.4223 10.859 11.0911 10.4362L9.9835 12.3535C9.61531 12.9912 8.79985 13.2097 8.16213 12.8415C7.52441 12.4733 7.30591 11.6579 7.6741 11.0202M7.75181 6.42581C7.09996 6.8562 6.78211 7.60265 6.86755 8.32959M7.75181 6.42581C6.83003 7.03442 6.57616 8.27504 7.18606 9.19879M6.86755 8.32959C6.24388 8.32473 5.62035 8.28604 4.99992 8.21252L5.00006 10.3339C5.00006 11.2544 5.74625 12.0005 6.66672 12.0005C6.96 12.0005 7.24358 11.9452 7.50457 11.8431C7.47182 11.5674 7.52459 11.2791 7.6741 11.0202M6.86755 8.32959C6.90283 8.62967 7.00733 8.92808 7.18606 9.19879M7.18606 9.19879L7.3867 9.15054M7.3867 9.15054C7.81776 9.05861 8.26081 9.03872 8.69785 9.09142L8.72992 9.19118L7.6741 11.0202M7.3867 9.15054C7.84524 9.05275 8.31734 9.03648 8.78134 9.10238L7.6741 11.0202M8.76341 7.80007C10.2205 7.6149 11.6593 8.44563 12.2275 9.80007" stroke="black" stroke-linecap="round"/>
</svg>
