<svg width="16" height="16" viewBox="0 0 16 16" fill="none" xmlns="http://www.w3.org/2000/svg">
<path fill-rule="evenodd" clip-rule="evenodd" d="M8.00002 13.9993C10.6667 13.1105 12 11.6268 12 9.54837V7.99935H4.00002V9.54837C4.00002 11.6268 5.33336 13.1105 8.00002 13.9993ZM5.00002 4.66602L6.84984 4.1375C7.13604 4.05573 7.33336 3.79413 7.33336 3.49648V3.1753C7.33336 2.89403 7.56137 2.66602 7.84264 2.66602H8.00705C8.31011 2.66602 8.50722 2.98495 8.37169 3.25601V3.25601C8.20703 3.58533 8.34051 3.98578 8.66983 4.15044C8.71334 4.17219 8.7591 4.18912 8.80629 4.20091L10.6667 4.66602C12.0948 5.02305 12.9801 6.43717 12.6967 7.86544L12.6667 7.99935H3.33336L3.25525 7.68693C2.92707 6.37422 3.69897 5.03774 5.00002 4.66602Z" stroke="black" stroke-linecap="square"/>
</svg>
