<svg width="16" height="16" viewBox="0 0 16 16" fill="none" xmlns="http://www.w3.org/2000/svg">
<path d="M6.66667 4.00065C9.244 4.00065 11.3333 6.08999 11.3333 8.66732C11.3333 8.91704 11.3137 9.16219 11.2759 9.40129L9.14382 7.26986C8.43711 7.97657 8 8.95288 8 10.0313C8 11.0561 8.39479 11.9888 9.04059 12.6855C8.34533 13.0976 7.53361 13.334 6.66667 13.334C4.08934 13.334 2 11.2446 2 8.66732C2 6.08999 4.08934 4.00065 6.66667 4.00065ZM6.66667 4.00065L4.9411 3.65554C4.00625 3.46857 3.33333 2.64774 3.33333 1.69438V1.33398L5.0589 1.6791C5.99375 1.86607 6.66667 2.6869 6.66667 3.64026V4.66732C6.66667 3.85016 7.12835 3.10314 7.85924 2.7377L8 2.66732M9.99349 8.18365L9.95919 8.14935C9.70439 7.89455 9.4326 7.62276 9.14382 7.33398C8.43711 8.04069 8 9.01701 8 10.0954C8 10.3562 8.02556 10.611 8.07431 10.8574C8.12455 11.1114 8.19941 11.3565 8.2963 11.5902C8.49423 12.0675 8.7841 12.4971 9.14382 12.8568C9.50354 13.2165 9.9331 13.5064 10.4104 13.7043C10.6441 13.8012 10.8892 13.8761 11.1432 13.9263C11.3897 13.9751 11.6445 14.0007 11.9052 14.0007C12.9836 14.0007 13.96 13.5635 14.6667 12.8568C14.3779 12.5681 14.1061 12.2963 13.8513 12.0415L13.817 12.0072M9.99349 8.18365C9.50423 8.67291 9.20161 9.34882 9.20161 10.0954M9.99349 8.18365L10.1471 8.33727C10.2087 8.39885 10.2692 8.45936 10.3287 8.51882L10.6726 8.8628C10.7278 8.91801 10.782 8.97215 10.8351 9.02524L11.5517 9.74187C11.6791 9.86927 11.797 9.98712 11.9052 10.0954M9.20161 10.0954C9.20161 11.5886 10.4121 12.799 11.9052 12.799M9.20161 10.0954C9.20161 10.2759 9.21931 10.4523 9.25305 10.6229L11.9052 10.0954M11.9052 12.799C12.6518 12.799 13.3277 12.4964 13.817 12.0072M11.9052 12.799C11.5386 12.799 11.189 12.7261 10.8702 12.5938L11.9052 10.0954M13.817 12.0072L13.6634 11.8535C13.6018 11.792 13.5413 11.7315 13.4818 11.672L13.1379 11.328C13.0826 11.2728 13.0285 11.2187 12.9754 11.1656L12.2588 10.4489C12.1314 10.3215 12.0135 10.2037 11.9052 10.0954" stroke="black" stroke-linecap="round"/>
</svg>
