<svg width="16" height="16" viewBox="0 0 16 16" fill="none" xmlns="http://www.w3.org/2000/svg">
<path d="M5.30832 5.11736C3.47512 5.60347 2.62954 7.43015 2.87842 9.28222C3.1739 11.4811 4.82197 12.9252 7.82264 13.6145L8.06234 13.6673C11.1319 13.0007 12.8598 11.539 13.2463 9.28222C13.5625 7.43527 12.6496 5.60347 10.8164 5.11731C9.84016 4.8585 8.84946 5.0428 8.06302 5.54605C7.2758 5.04292 6.28481 4.85846 5.30832 5.11736ZM5.30832 5.11736C7.14154 4.63135 9.02583 5.70787 9.51705 7.52195M9.99997 2.66732L9.89734 2.70153C8.76425 3.07923 7.99997 4.1396 7.99997 5.33398V3.64026C7.99997 2.6869 7.32705 1.86607 6.3922 1.6791L4.66664 1.33398V1.69438C4.66664 2.64774 5.33956 3.46857 6.2744 3.65554L7.99997 4.00065" stroke="black" stroke-linecap="round"/>
</svg>
