<svg width="16" height="16" viewBox="0 0 16 16" fill="none" xmlns="http://www.w3.org/2000/svg">
<g clip-path="url(#clip0_221_23763)">
<path d="M5.25253 11.0238C5.09195 10.8633 4.94788 10.6924 4.82031 10.5134L3.60304 11.7312C3.55535 11.6312 3.49012 11.5376 3.40736 11.4548C3.01683 11.0643 2.38367 11.0643 1.99314 11.4548C1.60262 11.8453 1.60262 12.4785 1.99314 12.869C2.3009 13.1768 2.75934 13.242 3.13097 13.0647L3.21167 13.1454C3.03437 13.517 3.0996 13.9755 3.40736 14.2832C3.79788 14.6738 4.43104 14.6738 4.82157 14.2832C5.21209 13.8927 5.21209 13.2595 4.82157 12.869C4.73897 12.7864 4.64553 12.7213 4.54582 12.6736L5.76349 11.4565C5.5843 11.3288 5.41328 11.1846 5.25253 11.0238ZM5.25253 11.0238C6.81463 12.5859 9.34729 12.5859 10.9094 11.0238L13.9331 8.00015M5.25253 11.0238C3.69044 9.46174 3.69044 6.92908 5.25253 5.36699L8.26727 2.3532L8.27622 2.3433M8.27622 2.3433C9.05727 1.56225 10.9568 2.19541 12.5189 3.75751C14.081 5.31961 14.7141 7.2191 13.9331 8.00015M8.27622 2.3433C7.49517 3.12435 8.12834 5.02384 9.69044 6.58594C11.2525 8.14803 13.152 8.7812 13.9331 8.00015M10.1618 4.22891C9.90149 4.48926 10.1125 5.12243 10.6332 5.64313C11.1539 6.16383 11.7871 6.37488 12.0475 6.11453C12.3078 5.85418 12.0968 5.22102 11.5761 4.70032C11.0554 4.17962 10.4222 3.96857 10.1618 4.22891Z" stroke="black" stroke-linecap="round"/>
</g>
<defs>
<clipPath id="clip0_221_23763">
<rect width="16" height="16" fill="white"/>
</clipPath>
</defs>
</svg>
