<svg width="16" height="16" viewBox="0 0 16 16" fill="none" xmlns="http://www.w3.org/2000/svg">
<path d="M3.32186 10.0347C3.31418 9.93511 3.30272 9.83695 3.28766 9.74047C3.25766 9.5483 3.21337 9.36276 3.15629 9.18578M12 5.00076C12 4.76968 11.9797 4.54471 11.9412 4.32863M10.6667 7.66743C10.6667 7.4642 10.6509 7.26569 10.621 7.0738C10.6059 6.97729 10.5873 6.88246 10.5652 6.78954M5.32186 11.368C5.31418 11.2684 5.30272 11.1703 5.28766 11.0738M4.62099 7.74047C4.59099 7.5483 4.54671 7.36276 4.48963 7.18578M9.33333 5.00076C9.33333 4.69422 9.29758 4.39843 9.23113 4.11989M7.33333 6.33409C7.33333 6.10627 7.31358 5.88438 7.27616 5.6711M6.60503 8.31282C6.57607 8.15414 6.53732 8.00031 6.48963 7.85245M6.66667 10.3341C6.66667 11.1241 6.90419 11.8429 7.29244 12.3786C6.72511 12.6983 6.18303 12.8579 5.66667 12.8579C4.00981 12.8579 2 11.131 2 9.00076C2 6.93507 3.3459 5.67009 4.85781 5.18665L5 5.14362L5.15218 5.09944L6.9965 4.53386L9.0825 3.85195C10.0754 3.52736 11.1643 3.7073 12 4.33409C12.7759 4.91605 13.168 5.87311 13.031 6.8256L13.0065 6.96839L13 7.00076C12.9288 7.35687 12.8083 7.69736 12.6445 8.01366C12.4479 7.92081 12.2397 7.85027 12.0235 7.80411L11.86 7.77409L9.55495 7.41946C9.37708 7.36367 9.19123 7.33409 9 7.33409C7.71134 7.33409 6.66667 8.67724 6.66667 10.3341Z" stroke="black" stroke-linecap="round"/>
<path d="M8.99996 13.334C10.2886 13.334 11.3333 11.9908 11.3333 10.334C11.3333 8.67713 10.2886 7.33398 8.99996 7.33398M8.99996 13.334C7.71129 13.334 6.66663 11.9908 6.66663 10.334C6.66663 8.67713 7.71129 7.33398 8.99996 7.33398M8.99996 13.334L11.2752 12.9203C12.1812 12.7556 13.0155 12.3185 13.6666 11.6673C14.2638 11.0701 14.4119 10.1578 14.0342 9.40241L14 9.33398C13.5818 8.4977 12.784 7.91615 11.8599 7.77398L8.99996 7.33398M12.6666 9.00065C12.6666 8.79742 12.6509 8.59891 12.621 8.40702C12.6059 8.31052 12.5872 8.21568 12.5651 8.12277M12.4574 11.0472C12.4803 11.2304 12.4845 11.4112 12.4694 11.5866" stroke="black" stroke-linecap="round"/>
</svg>
