<svg width="16" height="16" viewBox="0 0 16 16" fill="none" xmlns="http://www.w3.org/2000/svg">
<path d="M4.99628 2.5317L5.04626 2.53983M5.04626 2.53983C5.17963 2.57557 5.25877 2.71265 5.22304 2.84602L5.15833 3.0875C5.54346 4.22597 5.67132 5.03669 5.54191 5.51965C5.3478 6.24409 4.67782 6.58221 4.01098 6.40353C3.34415 6.22486 2.93298 5.59705 3.1271 4.8726C3.25651 4.38964 3.7726 3.75147 4.67537 2.95809L4.74007 2.71661C4.77581 2.58324 4.91289 2.5041 5.04626 2.53983ZM12.1428 9.65366C12.2404 9.55603 12.3987 9.55603 12.4963 9.65366C12.5939 9.75129 12.5939 9.90958 12.4963 10.0072L12.3195 10.184C12.0838 11.3625 11.7892 12.1285 11.4356 12.4821C10.9053 13.0124 10.156 12.9702 9.66788 12.4821C9.17972 11.9939 9.13755 11.2447 9.66788 10.7143C10.0214 10.3608 10.7875 10.0661 11.966 9.83044L12.1428 9.65366ZM3.46324 9.55378C3.53227 9.4342 3.68517 9.39324 3.80474 9.46227L4.02125 9.58727C5.22061 9.50992 6.03679 9.59625 6.46981 9.84625C7.11933 10.2212 7.27252 10.9559 6.92734 11.5538C6.58216 12.1516 5.86933 12.3863 5.21981 12.0113C4.78679 11.7613 4.30394 11.0976 3.77125 10.0203L3.55474 9.89528C3.43517 9.82625 3.3942 9.67335 3.46324 9.55378ZM8.52862 4.47168C8.66669 4.47168 8.77862 4.58361 8.77862 4.72168V4.97168C9.44529 5.97168 9.77862 6.72168 9.77862 7.22168C9.77862 7.97168 9.21898 8.47168 8.52862 8.47168C7.83826 8.47168 7.27862 7.97168 7.27862 7.22168C7.27862 6.72168 7.61195 5.97168 8.27862 4.97168V4.72168C8.27862 4.58361 8.39055 4.47168 8.52862 4.47168ZM11.8978 3.81421C12.5646 3.63553 13.2346 3.97365 13.4287 4.69809C13.5581 5.18106 13.4303 5.99177 13.0451 7.13025L13.1098 7.37173C13.1456 7.50509 13.0664 7.64218 12.9331 7.67791C12.7997 7.71365 12.6626 7.6345 12.6269 7.50114L12.5622 7.25966C11.6594 6.46628 11.1433 5.8281 11.0139 5.34514C10.8198 4.6207 11.231 3.99289 11.8978 3.81421Z" stroke="black" stroke-linecap="round"/>
</svg>
