<svg width="16" height="16" viewBox="0 0 16 16" fill="none" xmlns="http://www.w3.org/2000/svg">
<path d="M10.3333 12.3333L10.2728 12.4657C9.65925 13.7254 8.2426 14.394 6.87054 14.051L6.66667 14L6.67021 13.8904C6.72664 13.021 7.44968 12.3333 8.33333 12.3333C7.41286 12.3333 6.66667 11.5871 6.66667 10.6667L6.87054 10.6157C8.28992 10.2609 9.75701 10.9886 10.3333 12.3333ZM10.3333 12.3333L10.7251 10.1785C10.8786 9.3342 10.3377 8.51948 9.5 8.33333C8.50164 8.11147 7.52288 7.80915 6.57331 7.42932L6.33333 7.33333C5.32672 6.93069 4.66667 5.95576 4.66667 4.87161V4.66667M10.3333 12.3333L11.2965 11.9206C12.1812 11.5414 12.9029 10.8609 13.3333 10L13.3854 9.89594C13.782 9.10269 13.8818 8.19373 13.6667 7.33333C13.4563 6.49182 12.8701 5.7941 12.0774 5.44182L11.8333 5.33333C10.8443 4.89378 9.77412 4.66667 8.69186 4.66667H6.66667M4.66667 4.66667C3.93029 4.66667 3.33333 4.06971 3.33333 3.33333V2.66667M4.66667 4.66667H6.66667M6.66667 4.66667H3.33333C2.59695 4.66667 2 4.06971 2 3.33333V2M13.7669 8.51629L13.6933 8.63436C13.1635 9.44399 12.2299 9.93104 11.2293 9.86849L10.7503 9.83826M13.3538 6.57458L12.1485 7.64581L12.0185 7.75493C11.3557 8.28036 10.5013 8.50213 9.66662 8.36546M11.2033 5.08572L9.32823 6.79252L9.20956 6.89465C8.44346 7.51852 7.40862 7.70417 6.4732 7.38512L6.5892 7.42128" stroke="black" stroke-linecap="round"/>
<path d="M7.33337 6H7.40004" stroke="black" stroke-width="1.5" stroke-linecap="round"/>
</svg>
