<svg width="16" height="16" viewBox="0 0 16 16" fill="none" xmlns="http://www.w3.org/2000/svg">
<path d="M6.6667 2H10M7.33336 6.71542V2H9.33336V6.66667L12.696 11.9508C13.0914 12.5721 12.9082 13.3962 12.287 13.7915C12.073 13.9277 11.8247 14 11.5711 14H5.10433C4.36795 14 3.771 13.403 3.771 12.6667C3.771 12.4117 3.84409 12.1621 3.98162 11.9474L7.33336 6.71542ZM5.23336 10H11.4667L12.7038 11.9533C13.0978 12.5754 12.9128 13.3991 12.2907 13.7931C12.0773 13.9282 11.8299 14 11.5773 14H5.10647C4.37009 14 3.77314 13.403 3.77314 12.6667C3.77314 12.4114 3.84643 12.1615 3.98429 11.9466L5.23336 10Z" stroke="black" stroke-linecap="round"/>
</svg>
