<svg width="16" height="16" viewBox="0 0 16 16" fill="none" xmlns="http://www.w3.org/2000/svg">
<path fill-rule="evenodd" clip-rule="evenodd" d="M5 2H8.39052C8.9942 2 9.57314 2.23981 10 2.66667C10.4269 3.09353 10.6667 3.67247 10.6667 4.27614V4.33333C10.6667 4.98244 10.8772 5.61404 11.2667 6.13333L11.6667 6.66667C12.2713 7.4729 12.3277 8.56498 11.8092 9.42915L11.3527 10.19C10.9038 10.9381 10.6667 11.7942 10.6667 12.6667C10.6667 13.4317 10.1041 14.0804 9.34673 14.1886L6 14.6667V12.2761C6 11.7228 6.2015 11.1902 6.56388 10.7765L6.67674 10.6566C7.07602 10.2573 7.2027 9.66035 7 9.13333L6.97778 9.07557C6.79624 8.60355 6.78631 8.08446 6.94676 7.60818L7 7.46667C7.2017 6.9826 7.09132 6.42466 6.72051 6.05384L6.66667 6C6.23981 5.57314 6 4.99419 6 4.39052V3C6 2.44772 5.55228 2 5 2ZM8.33333 13.3333C8.88562 13.3333 9.33333 12.8856 9.33333 12.3333C9.33333 11.781 8.88562 11.3333 8.33333 11.3333C7.78105 11.3333 7.33333 11.781 7.33333 12.3333C7.33333 12.8856 7.78105 13.3333 8.33333 13.3333ZM9.33333 9.66667C10.0697 9.66667 10.6667 9.06971 10.6667 8.33333C10.6667 7.59695 10.0697 7 9.33333 7C8.59695 7 8 7.59695 8 8.33333C8 9.06971 8.59695 9.66667 9.33333 9.66667ZM8.33333 5.66667C8.88562 5.66667 9.33333 5.21895 9.33333 4.66667C9.33333 4.11438 8.88562 3.66667 8.33333 3.66667C7.78105 3.66667 7.33333 4.11438 7.33333 4.66667C7.33333 5.21895 7.78105 5.66667 8.33333 5.66667Z" stroke="black" stroke-linecap="round"/>
</svg>
