<svg width="16" height="16" viewBox="0 0 16 16" fill="none" xmlns="http://www.w3.org/2000/svg">
<path d="M5.62619 12.3738C5.44522 12.1928 5.33329 11.9428 5.33329 11.6667C5.33329 11.1144 5.78101 10.6667 6.33329 10.6667C6.60944 10.6667 6.85944 10.7786 7.0404 10.9596M8.05715 9.94281C7.81586 9.70152 7.66663 9.36819 7.66663 9C7.66663 8.26362 8.26358 7.66667 8.99996 7.66667C9.36815 7.66667 9.70148 7.81591 9.94277 8.05719M10.6262 7.04044C10.4452 6.85948 10.3333 6.60948 10.3333 6.33333C10.3333 5.78105 10.781 5.33333 11.3333 5.33333C11.6094 5.33333 11.8594 5.44526 12.0404 5.62623M13.3333 6.13148C13.3333 6.88233 12.958 7.5835 12.3333 8C11.7085 8.4165 11.3333 9.11767 11.3333 9.86852V10C11.3333 10.7836 10.8 11.4667 10.0398 11.6567L9.83259 11.7085C9.08234 11.8961 8.42893 12.3565 7.99996 13C7.58346 13.6247 6.88229 14 6.13144 14H3.33329C3.76015 13.5731 3.99996 12.9942 3.99996 12.3905V11.8685C3.99996 11.1177 4.37521 10.4165 4.99996 10C5.64342 9.57103 6.10389 8.91762 6.29145 8.16737L6.42409 7.63681C6.56663 7.06665 7.07892 6.66667 7.66663 6.66667C8.27949 6.66667 8.83976 6.3204 9.11384 5.77224L9.40367 5.19257C9.76912 4.46168 10.5161 4 11.3333 4H11.7238C12.3275 4 12.9064 3.76019 13.3333 3.33333V6.13148ZM3.66663 7.33333C4.21891 7.33333 4.66663 6.88562 4.66663 6.33333C4.66663 5.78105 4.21891 5.33333 3.66663 5.33333C3.11434 5.33333 2.66663 5.78105 2.66663 6.33333C2.66663 6.88562 3.11434 7.33333 3.66663 7.33333ZM3.66663 4C4.21891 4 4.66663 3.55228 4.66663 3C4.66663 2.44772 4.21891 2 3.66663 2C3.11434 2 2.66663 2.44772 2.66663 3C2.66663 3.55228 3.11434 4 3.66663 4ZM6.99996 4.66667C7.55224 4.66667 7.99996 4.21895 7.99996 3.66667C7.99996 3.11438 7.55224 2.66667 6.99996 2.66667C6.44767 2.66667 5.99996 3.11438 5.99996 3.66667C5.99996 4.21895 6.44767 4.66667 6.99996 4.66667Z" stroke="black" stroke-linecap="round"/>
</svg>
