<svg width="16" height="16" viewBox="0 0 16 16" fill="none" xmlns="http://www.w3.org/2000/svg">
<g clip-path="url(#clip0_221_23744)">
<path d="M14 2.00095L13.7506 2.00437C11.4263 2.068 9.21063 3.01906 7.56207 4.66762M14 2.00095L13.1256 1.86644C11.5422 1.62284 9.92813 1.66307 8.35884 1.98524L7.82947 2.09392C7.682 2.12419 7.54071 2.17923 7.41162 2.25669C6.78018 2.63555 6.57542 3.45456 6.95429 4.086L7.40034 4.82846L7.56207 4.66762M14 2.00095L14.1345 2.8753C14.3781 4.45869 14.3379 6.0728 14.0157 7.64209L13.907 8.17146C13.7589 8.89279 13.0541 9.3575 12.3328 9.20941C12.1853 9.17914 12.044 9.1241 11.9149 9.04664L11.1716 8.5997L11.3333 8.43886M14 2.00095L13.9966 2.25037C13.9329 4.57462 12.9819 6.7903 11.3333 8.43886M14 2.00095C14 4.41564 13.0407 6.73142 11.3333 8.43886M7.56207 4.66762L5.04329 7.1864M11.3333 8.43886L8.81453 10.9576M8.81453 10.9576L5.04329 7.1864M8.81453 10.9576L8.20505 11.5671C7.76061 12.0116 7.76061 12.7321 8.20505 13.1766C8.6495 13.621 9.37008 13.621 9.81453 13.1766L9.9526 13.0385M5.04329 7.1864L4.43382 7.79588C3.98937 8.24032 3.26878 8.24032 2.82434 7.79588C2.37989 7.35143 2.3799 6.63085 2.82434 6.1864L2.96241 6.04833M7.63602 9.77913L5.14092 12.2742C4.69648 12.7187 4.69648 13.4393 5.14092 13.8837C5.58537 14.3281 6.30595 14.3281 6.7504 13.8837L6.88847 13.7456M6.2218 8.36491L3.72671 10.86C3.28226 11.3045 2.56168 11.3045 2.11723 10.86C1.67279 10.4156 1.67279 9.69498 2.11723 9.25053L2.2553 9.11246" stroke="black" stroke-linecap="round"/>
<path d="M8.76744 8.6487L8.81458 8.60156" stroke="black" stroke-width="1.5" stroke-linecap="round" stroke-linejoin="round"/>
<path d="M7.35325 7.23269L7.40039 7.18555" stroke="black" stroke-width="1.5" stroke-linecap="round" stroke-linejoin="round"/>
</g>
<defs>
<clipPath id="clip0_221_23744">
<rect width="16" height="16" fill="white"/>
</clipPath>
</defs>
</svg>
