<svg width="16" height="16" viewBox="0 0 16 16" fill="none" xmlns="http://www.w3.org/2000/svg">
<path d="M8.00004 4.99935V11.666M5.7239 5.38987C5.2032 5.91057 5.2032 6.75479 5.7239 7.27549C6.03466 7.58625 6.46066 7.71155 6.86434 7.65137M9.60952 11.9422C10.1302 11.4215 10.1302 10.5772 9.60952 10.0565M10.9119 7.35891C10.5214 6.96838 9.8882 6.96838 9.49767 7.35891M5.09767 10.5993C5.4882 10.9899 6.12136 10.9899 6.51189 10.5993M8.00004 13.9993C11.3334 13.9993 12.6667 11.3327 12.6667 8.74445C12.6667 6.02549 11.1112 3.99935 8.00004 2.66602C4.88893 3.99935 3.33337 6.02549 3.33337 8.74445C3.33337 11.3327 4.66671 13.9993 8.00004 13.9993ZM8.00004 4.44706L8.70799 5.15481C8.8945 5.05558 9.10737 4.99935 9.33337 4.99935C10.0698 4.99935 10.6667 5.5963 10.6667 6.33268C10.6667 6.60744 10.5836 6.86279 10.4411 7.07496C10.9606 7.25592 11.3334 7.75077 11.3334 8.33268C11.3334 8.57563 11.2684 8.8034 11.1549 8.99957C11.2684 9.19529 11.3334 9.42307 11.3334 9.66602C11.3334 10.4024 10.7364 10.9993 10 10.9993C10 11.7357 9.40309 12.3327 8.66671 12.3327C8.42383 12.3327 8.19612 12.2677 7.99999 12.1543C7.80448 12.2676 7.57653 12.3327 7.33337 12.3327C6.59699 12.3327 6.00004 11.7357 6.00004 10.9993L5.90053 10.9957C5.21063 10.9448 4.66671 10.3689 4.66671 9.66602C4.66671 9.42307 4.73169 9.19529 4.84521 8.99913C4.73169 8.8034 4.66671 8.57563 4.66671 8.33268C4.66671 7.75077 5.03949 7.25592 5.55927 7.07393C5.41648 6.86279 5.33337 6.60744 5.33337 6.33268C5.33337 5.5963 5.93033 4.99935 6.66671 4.99935C6.89271 4.99935 7.10558 5.05558 7.29209 5.15481L8.00004 4.44706Z" stroke="black" stroke-linecap="square"/>
</svg>
