<svg width="16" height="16" viewBox="0 0 16 16" fill="none" xmlns="http://www.w3.org/2000/svg">
<path d="M2.31018 13.6894L10.1406 5.85892M5.9383 10.0612L6.07319 9.95239C6.20405 9.83888 6.32259 9.71166 6.42673 9.57282C7.23601 8.49378 7.01733 6.963 5.9383 6.15372L5.80341 6.26258C5.67255 6.37609 5.55401 6.5033 5.44987 6.64215C4.64059 7.72118 4.85927 9.25196 5.9383 10.0612ZM5.9383 10.0612L6.04716 10.1961C6.16068 10.327 6.2879 10.4456 6.42675 10.5497C7.50577 11.359 9.03653 11.1403 9.84579 10.0612L9.73693 9.92635C9.62342 9.79548 9.49619 9.67693 9.35734 9.5728C8.27832 8.76354 6.74756 8.98222 5.9383 10.0612ZM7.89205 8.10748L8.02694 7.99862C8.1578 7.88512 8.27634 7.7579 8.38047 7.61906C9.18976 6.54002 8.97108 5.00924 7.89205 4.19996L7.75715 4.30882C7.62629 4.42233 7.50775 4.54954 7.40362 4.68839C6.59434 5.76742 6.81301 7.2982 7.89205 8.10748ZM7.89205 8.10748L8.00091 8.24238C8.11442 8.37325 8.24164 8.49179 8.38049 8.59593C9.45952 9.40519 10.9903 9.18651 11.7995 8.10748L11.6907 7.97258C11.5772 7.84172 11.4499 7.72317 11.3111 7.61903C10.2321 6.80977 8.70131 7.02846 7.89205 8.10748ZM9.84579 6.15372L9.98068 6.04486C10.1115 5.93136 10.2301 5.80414 10.3342 5.66529C11.1435 4.58626 10.9248 3.05548 9.84579 2.2462L9.7109 2.35506C9.58004 2.46856 9.4615 2.59578 9.35736 2.73463C8.54808 3.81366 8.76676 5.34444 9.84579 6.15372ZM9.84579 6.15372L9.95465 6.28862C10.0682 6.41949 10.1954 6.53803 10.3342 6.64217C11.4133 7.45143 12.944 7.23275 13.7533 6.15372L13.6444 6.01882C13.5309 5.88796 13.4037 5.76941 13.2648 5.66527C12.1858 4.85601 10.6551 5.0747 9.84579 6.15372ZM3.9383 12.0612L4.07319 11.9524C4.20405 11.8389 4.32259 11.7117 4.42673 11.5728C5.23601 10.4938 5.01733 8.963 3.9383 8.15372L3.80341 8.26258C3.67255 8.37609 3.55401 8.5033 3.44987 8.64215C2.64059 9.72118 2.85927 11.252 3.9383 12.0612ZM3.9383 12.0612L4.04716 12.1961C4.16067 12.327 4.2879 12.4456 4.42675 12.5497C5.50577 13.359 7.03653 13.1403 7.84579 12.0612L7.73693 11.9263C7.62342 11.7955 7.49619 11.6769 7.35734 11.5728C6.27832 10.7635 4.74756 10.9822 3.9383 12.0612ZM13.825 2.17494C14.0158 3.51019 13.088 4.74723 11.7528 4.93797C11.5809 4.96252 11.4072 4.96865 11.2344 4.95638L11.062 4.93795C10.8712 3.60272 11.799 2.36568 13.1343 2.17494C13.3633 2.14221 13.5959 2.14221 13.825 2.17494Z" stroke="black" stroke-linecap="round"/>
</svg>
