<svg width="16" height="16" viewBox="0 0 16 16" fill="none" xmlns="http://www.w3.org/2000/svg">
<path fill-rule="evenodd" clip-rule="evenodd" d="M8.00002 14.0001C10.6667 13.1112 12 11.6275 12 9.5491V8.00008H4.00002V9.5491C4.00002 11.6275 5.33336 13.1112 8.00002 14.0001ZM5.00002 4.66675L6.84984 4.13823C7.13604 4.05646 7.33336 3.79487 7.33336 3.49721V3.17604C7.33336 2.89476 7.56137 2.66675 7.84264 2.66675H8.00705C8.31011 2.66675 8.50722 2.98568 8.37169 3.25674V3.25674C8.20703 3.58606 8.34051 3.98651 8.66983 4.15117C8.71334 4.17292 8.7591 4.18985 8.80629 4.20165L10.6667 4.66675C12.0948 5.02378 12.9801 6.43791 12.6967 7.86617L12.6667 8.00008H3.33336L3.25525 7.68766C2.92707 6.37495 3.69897 5.03848 5.00002 4.66675Z" stroke="#EFC059" stroke-linecap="square"/>
</svg>
