<svg width="16" height="16" viewBox="0 0 16 16" fill="none" xmlns="http://www.w3.org/2000/svg">
<path fill-rule="evenodd" clip-rule="evenodd" d="M8.00002 14C10.6667 13.1111 12 11.6274 12 9.54898V7.99996H4.00002V9.54898C4.00002 11.6274 5.33336 13.1111 8.00002 14ZM5.00002 4.66663L6.84984 4.13811C7.13604 4.05634 7.33336 3.79475 7.33336 3.49709V3.17591C7.33336 2.89464 7.56137 2.66663 7.84264 2.66663H8.00705C8.31011 2.66663 8.50722 2.98556 8.37169 3.25662V3.25662C8.20703 3.58594 8.34051 3.98639 8.66983 4.15105C8.71334 4.1728 8.7591 4.18973 8.80629 4.20152L10.6667 4.66663C12.0948 5.02366 12.9801 6.43778 12.6967 7.86605L12.6667 7.99996H3.33336L3.25525 7.68754C2.92707 6.37483 3.69897 5.03835 5.00002 4.66663Z" stroke="#EFC059" stroke-linecap="square"/>
</svg>
