<svg width="16" height="16" viewBox="0 0 16 16" fill="none" xmlns="http://www.w3.org/2000/svg">
<path d="M11.3333 12.6667V7.71573C11.3333 7.46584 11.263 7.22097 11.1306 7.00906L10.4999 6C9.95096 5.12167 9.60003 4.13425 9.47156 3.10648L9.33325 2H7.33325L7.18027 3.18141C7.04941 4.192 6.70041 5.16206 6.15744 6.02438L5.53829 7.0077C5.40433 7.22045 5.33325 7.46673 5.33325 7.71814V12.6667M11.3333 12.6667C11.3333 13.403 10.7363 14 9.99992 14H6.66659C5.93021 14 5.33325 13.403 5.33325 12.6667M11.3333 12.6667V8.66667L11.1956 8.60316C10.4082 8.26931 9.49763 8.37672 8.80735 8.89443L8.66659 9C7.83154 9.62629 6.74236 9.80304 5.75211 9.47295L5.33325 9.33333V12.6667M6.66659 2H9.99992" stroke="#EFC059" stroke-linecap="round"/>
</svg>
