<svg width="16" height="16" viewBox="0 0 16 16" fill="none" xmlns="http://www.w3.org/2000/svg">
<g clip-path="url(#clip0_300_59414)">
<path d="M6.075 12.1373C7.2394 12.1373 8.18335 11.1934 8.18335 10.029C8.18335 8.86458 7.2394 7.92065 6.075 7.92065C4.9106 7.92065 3.96667 8.86458 3.96667 10.029C3.96667 11.1934 4.9106 12.1373 6.075 12.1373Z" stroke="#EFC059" stroke-linecap="round" stroke-linejoin="round"/>
<path d="M10.5666 9.52486C10.5666 10.7161 10.0934 11.8586 9.25102 12.7009C8.40867 13.5433 7.26618 14.0165 6.07491 14.0165C4.88365 14.0165 3.74118 13.5433 2.89883 12.7009C2.05648 11.8586 1.58325 10.7161 1.58325 9.52486C1.58325 7.04986 3.59991 2.78735 6.07491 2.78735C8.54991 2.78735 10.5666 7.04986 10.5666 9.52486Z" stroke="#EFC059" stroke-linecap="round" stroke-linejoin="round"/>
<path d="M10.3832 2.05388C12.2623 1.82471 14.1873 4.89557 14.4165 6.77473C14.4852 7.49912 14.3283 8.22704 13.9673 8.8588C13.6063 9.49057 13.0588 9.99528 12.3998 10.3039" stroke="#EFC059" stroke-linecap="round" stroke-linejoin="round"/>
</g>
<defs>
<clipPath id="clip0_300_59414">
<rect width="16" height="16" fill="white"/>
</clipPath>
</defs>
</svg>
