<svg width="16" height="16" viewBox="0 0 16 16" fill="none" xmlns="http://www.w3.org/2000/svg">
<g clip-path="url(#clip0_300_59531)">
<path d="M6.075 12.1371C7.2394 12.1371 8.18335 11.1931 8.18335 10.0287C8.18335 8.86433 7.2394 7.92041 6.075 7.92041C4.9106 7.92041 3.96667 8.86433 3.96667 10.0287C3.96667 11.1931 4.9106 12.1371 6.075 12.1371Z" stroke="#EFC059" stroke-linecap="round" stroke-linejoin="round"/>
<path d="M10.5666 9.52461C10.5666 10.7159 10.0934 11.8583 9.25102 12.7007C8.40867 13.543 7.26618 14.0163 6.07491 14.0163C4.88365 14.0163 3.74118 13.543 2.89883 12.7007C2.05648 11.8583 1.58325 10.7159 1.58325 9.52461C1.58325 7.04961 3.59991 2.78711 6.07491 2.78711C8.54991 2.78711 10.5666 7.04961 10.5666 9.52461Z" stroke="#EFC059" stroke-linecap="round" stroke-linejoin="round"/>
<path d="M10.3832 2.05376C12.2623 1.82459 14.1873 4.89545 14.4165 6.77461C14.4852 7.499 14.3283 8.22691 13.9673 8.85868C13.6063 9.49045 13.0588 9.99516 12.3998 10.3038" stroke="#EFC059" stroke-linecap="round" stroke-linejoin="round"/>
</g>
<defs>
<clipPath id="clip0_300_59531">
<rect width="16" height="16" fill="white"/>
</clipPath>
</defs>
</svg>
