<svg width="10" height="14" viewBox="0 0 10 14" fill="none" xmlns="http://www.w3.org/2000/svg">
<g clip-path="url(#clip0_300_59499)">
<path d="M8.53626 3.68777C8.72228 5.15926 7.35699 5.83348 7.35699 5.83348C7.41841 0.866974 3.50768 0.928503 3.50768 0.928503C4.31492 1.54119 5.24588 3.74843 2.88733 5.1584C2.85311 5.1792 2.81889 5.19999 2.78467 5.22079C-0.563628 7.30498 0.647234 12.2334 4.23332 13.0714C3.6779 12.0982 2.91541 9.90825 5.3889 7.58749C7.81852 9.86839 7.12534 12.0219 6.57344 13.0194C8.51871 12.4734 9.92963 10.7003 9.9621 8.59622C9.99719 6.33178 8.53538 3.68777 8.53538 3.68777H8.53626Z" fill="#FFFEF2"/>
</g>
<defs>
<clipPath id="clip0_300_59499">
<rect width="9.14815" height="12.1429" fill="white" transform="translate(0.814819 0.928589)"/>
</clipPath>
</defs>
</svg>
