<svg width="15" height="11" viewBox="0 0 15 11" fill="none" xmlns="http://www.w3.org/2000/svg">
<path d="M0 2.22295C3.50826 2.07733 5.41594 2.39768 6.89062 3.68779C7.51918 4.23777 8.02149 4.92965 8.26562 5.70635C8.50975 6.48292 8.48266 7.34611 8.12109 8.08037C8.08018 8.16306 8.03533 8.2436 7.98633 8.32158C5.91852 5.36826 3.33887 4.50908 3.33887 4.50908C3.33887 4.50908 5.70226 6.02871 7.57324 8.51787C7.61786 8.57722 7.66199 8.63717 7.70605 8.69756C7.98101 9.07536 8.24376 9.47532 8.48438 9.89385L8.06641 10.1917C8.06052 10.1748 7.82304 9.49985 7.38379 9.01494C6.71662 9.58585 5.79991 9.90803 4.89551 9.87237C3.57551 9.82013 2.27388 9.08636 1.66309 7.97686C0.516964 5.8942 0.711301 3.81488 0 2.22295ZM7.98535 2.48565C9.48664 1.17219 11.4285 0.846188 15 0.994436C14.2758 2.61505 14.4745 4.73179 13.3076 6.85186C12.6859 7.98138 11.3596 8.72857 10.0156 8.78154C9.42641 8.80471 8.83216 8.67814 8.30273 8.43194C8.34528 8.3613 8.38484 8.28765 8.42188 8.21319C8.77138 7.50299 8.84945 6.64345 8.64258 5.82451C10.1708 4.24147 11.6016 3.32158 11.6016 3.32158C11.6016 3.32158 10.1168 3.81584 8.48535 5.33916C8.21339 4.65294 7.74448 4.0077 7.11719 3.4583C7.36034 3.1012 7.65563 2.77407 7.98535 2.48565Z" fill="#FFFEF2"/>
</svg>
