<svg width="24" height="24" viewBox="0 0 24 24" fill="none" xmlns="http://www.w3.org/2000/svg">
<path d="M16.1426 7.0918C17.4598 7.09186 18.3115 7.81571 18.3115 8.94043V13.792H18.7119C19.4059 13.7921 19.7568 14.2223 19.7568 14.8174C19.7568 15.4124 19.3992 15.8348 18.7119 15.835H18.3115V16.5098C18.3114 17.3478 17.7885 17.7637 17.0723 17.7637C16.3563 17.7635 15.8273 17.3488 15.8271 16.5098V15.835H12.3057C11.361 15.8349 10.7168 15.24 10.7168 14.3662C10.7168 13.8644 10.8745 13.3706 11.2393 12.7256C11.9267 11.4853 12.7496 10.1803 13.7021 8.74023C14.496 7.50795 15.1048 7.0918 16.1426 7.0918ZM6.85059 7C9.20567 7 10.7518 8.25456 10.752 10.082C10.752 11.4078 10.0793 12.1679 8.44043 13.6523L6.38574 15.5293V15.5801H9.95703C10.6222 15.5801 11.0087 15.9737 11.0088 16.5898C11.0088 17.2061 10.6223 17.6005 9.95703 17.6006H4.23047C3.38577 17.6005 3 17.1273 3 16.4756V16.4736C3 15.9797 3.20731 15.6276 3.72266 15.1836L6.67188 12.5029C7.88145 11.3994 8.21094 10.9259 8.21094 10.252C8.21082 9.50704 7.63824 8.97656 6.81445 8.97656C6.13488 8.97656 5.66922 9.30604 5.29004 9.99414C4.96071 10.5027 4.65197 10.7119 4.12305 10.7119C3.44355 10.7118 3.03527 10.3177 3.03516 9.67285C3.03516 9.47193 3.06389 9.28499 3.14258 9.09961C3.59384 7.90942 4.96799 7.00014 6.85059 7ZM15.8486 9.07031C14.6034 10.8768 13.7514 12.2023 12.9131 13.8145V13.8867H15.8984V9.07031H15.8486ZM20.1426 1C21.7208 1 23 2.27915 23 3.85742C22.9998 5.43556 21.7208 6.71387 20.1426 6.71387C18.5645 6.71372 17.2863 5.43547 17.2861 3.85742C17.2861 2.27924 18.5644 1.00015 20.1426 1ZM20.1426 1.56348C20.0092 1.56363 19.9014 1.67124 19.9014 1.80469V3.96387L20.9062 4.88086C20.9521 4.92257 21.0105 4.94335 21.0684 4.94336C21.1343 4.94336 21.1996 4.91738 21.2471 4.86523H21.2461C21.336 4.76633 21.3293 4.61456 21.2314 4.52441L20.3848 3.75098V1.80469C20.3847 1.67115 20.2761 1.56348 20.1426 1.56348Z" fill="#110F0E"/>
</svg>
