<svg width="24" height="24" viewBox="0 0 24 24" fill="none" xmlns="http://www.w3.org/2000/svg">
<path d="M6.85742 15.999H19.9746C20.2992 15.9989 20.5713 15.7785 20.5713 15.5029V13.1416C20.5713 12.866 20.2966 12.6457 19.9746 12.6455H6.85742V15.999ZM3.89062 12.6455C3.63119 12.6455 3.42871 12.8658 3.42871 13.1436V15.5039C3.42889 15.7793 3.6313 15.999 3.89062 15.999H5.71387V12.6465H3.89062V12.6455ZM9.1377 7C9.11872 6.88251 8.99479 6.81936 8.89941 6.88281C8.60858 7.07496 8.24656 7.18689 7.92969 7.31641C7.5883 7.45713 7.24504 7.59895 6.90918 7.75684C6.26976 8.05888 5.65043 8.45047 5.19629 9.02539C4.74229 9.59772 4.44666 10.4142 4.62402 11.1709C4.6265 11.1774 4.632 11.1943 4.63965 11.2168C4.67676 11.3257 4.80336 11.3656 4.8877 11.291C5.1013 11.104 5.32706 10.9437 5.55957 10.791C5.95925 10.5319 6.37677 10.3108 6.78906 10.0723C6.82591 10.0518 6.86257 10.0284 6.89941 10.0088C7.42212 9.70075 7.93002 9.34348 8.34473 8.875C8.75706 8.40908 9.12914 7.78279 9.14258 7.11523C9.14258 7.08692 9.14006 7.01459 9.1377 7Z" fill="#110F0E"/>
</svg>
