<svg width="24" height="24" viewBox="0 0 24 24" fill="none" xmlns="http://www.w3.org/2000/svg">
<path d="M14.2861 17.1436C14.6014 17.1438 14.8572 17.3996 14.8574 17.7148C14.8574 18.0303 14.6015 18.2869 14.2861 18.2871H9.71387C9.39847 18.2869 9.14258 18.0303 9.14258 17.7148C9.1428 17.3996 9.39861 17.1438 9.71387 17.1436H14.2861ZM19.5713 5.71484C20.1234 5.71492 20.5711 6.1628 20.5713 6.71484V15.001L20.5664 15.1025C20.5187 15.5732 20.1444 15.9472 19.6738 15.9951L19.5713 16.001H4.42871L4.32617 15.9951C3.85559 15.9472 3.48125 15.5732 3.43359 15.1025L3.42871 15.001V6.71484C3.42894 6.16275 3.87657 5.71484 4.42871 5.71484H19.5713ZM4.92871 14.501H19.0713V7.21484H4.92871V14.501Z" fill="#110F0E"/>
</svg>
