<svg width="24" height="24" viewBox="0 0 24 24" fill="none" xmlns="http://www.w3.org/2000/svg">
<path d="M11.9978 15.9229C12.6059 15.9229 13.0984 16.3883 13.0984 16.9619C13.0983 17.5354 12.6058 18 11.9978 18C11.3899 17.9999 10.8974 17.5354 10.8972 16.9619C10.8972 16.3883 11.3899 15.9229 11.9978 15.9229ZM11.9998 12.8271C12.7386 12.8271 13.4565 12.9647 14.1316 13.2344C14.3228 13.3109 14.5075 13.3966 14.6863 13.4912C15.1923 13.76 15.3023 14.403 14.9168 14.8115C14.6329 15.1134 14.163 15.1904 13.7908 14.9922C13.2498 14.7044 12.6391 14.5518 11.9998 14.5518C11.3606 14.5518 10.7468 14.7053 10.2049 14.9951C9.83282 15.1942 9.36277 15.1171 9.07889 14.8154C8.69337 14.4059 8.80251 13.7639 9.3074 13.4951C9.48847 13.3985 9.67556 13.3119 9.86893 13.2344C10.5439 12.9647 11.2612 12.8272 11.9998 12.8271ZM11.9998 9.41504C13.227 9.41504 14.4177 9.64107 15.5398 10.0889L15.5408 10.0898C16.1253 10.3223 16.6778 10.6101 17.1941 10.9492C17.6411 11.243 17.7142 11.8421 17.3523 12.2266C17.045 12.5526 16.5271 12.6119 16.1482 12.3623C15.7369 12.0916 15.295 11.862 14.8289 11.6758C13.9326 11.3186 12.9821 11.1377 11.9998 11.1377C11.0176 11.1378 10.0667 11.3187 9.17166 11.6758C8.70334 11.862 8.26002 12.0935 7.84647 12.3652C7.46761 12.6147 6.95068 12.5564 6.64334 12.2305C6.2812 11.846 6.35348 11.248 6.80057 10.9531C7.31916 10.612 7.87397 10.3233 8.46072 10.0889C9.58157 9.64215 10.7728 9.41509 11.9998 9.41504ZM12.0017 6C13.7173 6.00004 15.3819 6.31842 16.95 6.94336C17.7031 7.24424 18.4297 7.61617 19.1092 8.04883L19.1111 8.0498C19.2888 8.16252 19.4634 8.28057 19.6355 8.40234C20.0624 8.70429 20.1236 9.28575 19.7693 9.66211C19.4531 9.99716 18.9169 10.0468 18.5369 9.77734C17.8295 9.2752 17.0614 8.85835 16.24 8.53027C14.8988 7.99589 13.4724 7.72366 12.0027 7.72363C10.5329 7.72363 9.10665 7.99488 7.76541 8.53027C6.94166 8.85937 6.17131 9.27805 5.46268 9.78125C5.08267 10.0518 4.54652 10.0021 4.23026 9.66602C3.87597 9.28962 3.93821 8.70917 4.36405 8.40625C4.53729 8.28246 4.71437 8.16356 4.89432 8.04883C5.57377 7.61518 6.30031 7.24422 7.0535 6.94336C8.62052 6.31739 10.2861 6 12.0017 6Z" fill="#110F0E"/>
</svg>
